%TF.GenerationSoftware,KiCad,Pcbnew,7.0.1*%
%TF.CreationDate,2024-08-21T14:43:36+02:00*%
%TF.ProjectId,renforce-ecg,72656e66-6f72-4636-952d-6563672e6b69,1*%
%TF.SameCoordinates,Original*%
%TF.FileFunction,Drillmap*%
%TF.FilePolarity,Positive*%
%FSLAX45Y45*%
G04 Gerber Fmt 4.5, Leading zero omitted, Abs format (unit mm)*
G04 Created by KiCad (PCBNEW 7.0.1) date 2024-08-21 14:43:36*
%MOMM*%
%LPD*%
G01*
G04 APERTURE LIST*
%ADD10C,0.254000*%
%ADD11C,0.200000*%
%ADD12C,0.099100*%
G04 APERTURE END LIST*
D10*
X5599997Y-2600198D02*
X5600000Y-6200000D01*
X5144400Y-6182950D02*
X4560000Y-6182950D01*
X5144400Y-6182950D02*
X5144400Y-6400000D01*
X3000304Y-6199700D02*
G75*
G03*
X3200000Y-6400000I201866J1560D01*
G01*
X5399700Y-6399700D02*
X5144400Y-6400000D01*
X5399700Y-6399696D02*
G75*
G03*
X5600000Y-6200000I-1560J201866D01*
G01*
X5400297Y-2399898D02*
X3791300Y-2399900D01*
X4560000Y-6400000D02*
X3200000Y-6400000D01*
X3000300Y-2600200D02*
X3000300Y-6199700D01*
X3200000Y-2400003D02*
G75*
G03*
X3000300Y-2600200I1560J-201257D01*
G01*
X3791300Y-2399900D02*
X3352900Y-2399900D01*
X3352900Y-2399900D02*
X3200000Y-2400000D01*
X4560000Y-6182950D02*
X4560000Y-6400000D01*
X5599988Y-2600198D02*
G75*
G03*
X5400297Y-2399898I-201868J-1562D01*
G01*
D11*
D12*
X4346953Y-2614552D02*
X4446053Y-2713652D01*
X4446053Y-2614552D02*
X4346953Y-2713652D01*
X4346953Y-2817752D02*
X4446053Y-2916852D01*
X4446053Y-2817752D02*
X4346953Y-2916852D01*
X4854953Y-2716152D02*
X4954053Y-2815252D01*
X4954053Y-2716152D02*
X4854953Y-2815252D01*
D11*
X3299997Y-2600198D02*
G75*
G03*
X3299997Y-2600198I-100000J0D01*
G01*
X5499697Y-6199998D02*
G75*
G03*
X5499697Y-6199998I-100000J0D01*
G01*
X3235219Y-6725224D02*
X3235219Y-6525224D01*
X3235219Y-6525224D02*
X3282838Y-6525224D01*
X3282838Y-6525224D02*
X3311409Y-6534748D01*
X3311409Y-6534748D02*
X3330457Y-6553795D01*
X3330457Y-6553795D02*
X3339981Y-6572843D01*
X3339981Y-6572843D02*
X3349505Y-6610938D01*
X3349505Y-6610938D02*
X3349505Y-6639509D01*
X3349505Y-6639509D02*
X3339981Y-6677605D01*
X3339981Y-6677605D02*
X3330457Y-6696652D01*
X3330457Y-6696652D02*
X3311409Y-6715700D01*
X3311409Y-6715700D02*
X3282838Y-6725224D01*
X3282838Y-6725224D02*
X3235219Y-6725224D01*
X3435219Y-6725224D02*
X3435219Y-6591890D01*
X3435219Y-6629986D02*
X3444743Y-6610938D01*
X3444743Y-6610938D02*
X3454267Y-6601414D01*
X3454267Y-6601414D02*
X3473314Y-6591890D01*
X3473314Y-6591890D02*
X3492362Y-6591890D01*
X3559028Y-6725224D02*
X3559028Y-6591890D01*
X3559028Y-6525224D02*
X3549505Y-6534748D01*
X3549505Y-6534748D02*
X3559028Y-6544271D01*
X3559028Y-6544271D02*
X3568552Y-6534748D01*
X3568552Y-6534748D02*
X3559028Y-6525224D01*
X3559028Y-6525224D02*
X3559028Y-6544271D01*
X3682838Y-6725224D02*
X3663790Y-6715700D01*
X3663790Y-6715700D02*
X3654267Y-6696652D01*
X3654267Y-6696652D02*
X3654267Y-6525224D01*
X3787600Y-6725224D02*
X3768552Y-6715700D01*
X3768552Y-6715700D02*
X3759028Y-6696652D01*
X3759028Y-6696652D02*
X3759028Y-6525224D01*
X4016171Y-6725224D02*
X4016171Y-6525224D01*
X4016171Y-6525224D02*
X4082838Y-6668081D01*
X4082838Y-6668081D02*
X4149505Y-6525224D01*
X4149505Y-6525224D02*
X4149505Y-6725224D01*
X4330457Y-6725224D02*
X4330457Y-6620462D01*
X4330457Y-6620462D02*
X4320933Y-6601414D01*
X4320933Y-6601414D02*
X4301886Y-6591890D01*
X4301886Y-6591890D02*
X4263790Y-6591890D01*
X4263790Y-6591890D02*
X4244743Y-6601414D01*
X4330457Y-6715700D02*
X4311410Y-6725224D01*
X4311410Y-6725224D02*
X4263790Y-6725224D01*
X4263790Y-6725224D02*
X4244743Y-6715700D01*
X4244743Y-6715700D02*
X4235219Y-6696652D01*
X4235219Y-6696652D02*
X4235219Y-6677605D01*
X4235219Y-6677605D02*
X4244743Y-6658557D01*
X4244743Y-6658557D02*
X4263790Y-6649033D01*
X4263790Y-6649033D02*
X4311410Y-6649033D01*
X4311410Y-6649033D02*
X4330457Y-6639509D01*
X4425695Y-6591890D02*
X4425695Y-6791890D01*
X4425695Y-6601414D02*
X4444743Y-6591890D01*
X4444743Y-6591890D02*
X4482838Y-6591890D01*
X4482838Y-6591890D02*
X4501886Y-6601414D01*
X4501886Y-6601414D02*
X4511410Y-6610938D01*
X4511410Y-6610938D02*
X4520933Y-6629986D01*
X4520933Y-6629986D02*
X4520933Y-6687128D01*
X4520933Y-6687128D02*
X4511410Y-6706176D01*
X4511410Y-6706176D02*
X4501886Y-6715700D01*
X4501886Y-6715700D02*
X4482838Y-6725224D01*
X4482838Y-6725224D02*
X4444743Y-6725224D01*
X4444743Y-6725224D02*
X4425695Y-6715700D01*
X4606648Y-6706176D02*
X4616171Y-6715700D01*
X4616171Y-6715700D02*
X4606648Y-6725224D01*
X4606648Y-6725224D02*
X4597124Y-6715700D01*
X4597124Y-6715700D02*
X4606648Y-6706176D01*
X4606648Y-6706176D02*
X4606648Y-6725224D01*
X4606648Y-6601414D02*
X4616171Y-6610938D01*
X4616171Y-6610938D02*
X4606648Y-6620462D01*
X4606648Y-6620462D02*
X4597124Y-6610938D01*
X4597124Y-6610938D02*
X4606648Y-6601414D01*
X4606648Y-6601414D02*
X4606648Y-6620462D01*
D12*
X2888500Y-7003150D02*
X2987600Y-7102250D01*
X2987600Y-7003150D02*
X2888500Y-7102250D01*
D11*
X3273314Y-6945224D02*
X3292362Y-6945224D01*
X3292362Y-6945224D02*
X3311409Y-6954748D01*
X3311409Y-6954748D02*
X3320933Y-6964271D01*
X3320933Y-6964271D02*
X3330457Y-6983319D01*
X3330457Y-6983319D02*
X3339981Y-7021414D01*
X3339981Y-7021414D02*
X3339981Y-7069033D01*
X3339981Y-7069033D02*
X3330457Y-7107128D01*
X3330457Y-7107128D02*
X3320933Y-7126176D01*
X3320933Y-7126176D02*
X3311409Y-7135700D01*
X3311409Y-7135700D02*
X3292362Y-7145224D01*
X3292362Y-7145224D02*
X3273314Y-7145224D01*
X3273314Y-7145224D02*
X3254267Y-7135700D01*
X3254267Y-7135700D02*
X3244743Y-7126176D01*
X3244743Y-7126176D02*
X3235219Y-7107128D01*
X3235219Y-7107128D02*
X3225695Y-7069033D01*
X3225695Y-7069033D02*
X3225695Y-7021414D01*
X3225695Y-7021414D02*
X3235219Y-6983319D01*
X3235219Y-6983319D02*
X3244743Y-6964271D01*
X3244743Y-6964271D02*
X3254267Y-6954748D01*
X3254267Y-6954748D02*
X3273314Y-6945224D01*
X3425695Y-7126176D02*
X3435219Y-7135700D01*
X3435219Y-7135700D02*
X3425695Y-7145224D01*
X3425695Y-7145224D02*
X3416171Y-7135700D01*
X3416171Y-7135700D02*
X3425695Y-7126176D01*
X3425695Y-7126176D02*
X3425695Y-7145224D01*
X3530457Y-7145224D02*
X3568552Y-7145224D01*
X3568552Y-7145224D02*
X3587600Y-7135700D01*
X3587600Y-7135700D02*
X3597124Y-7126176D01*
X3597124Y-7126176D02*
X3616171Y-7097605D01*
X3616171Y-7097605D02*
X3625695Y-7059509D01*
X3625695Y-7059509D02*
X3625695Y-6983319D01*
X3625695Y-6983319D02*
X3616171Y-6964271D01*
X3616171Y-6964271D02*
X3606648Y-6954748D01*
X3606648Y-6954748D02*
X3587600Y-6945224D01*
X3587600Y-6945224D02*
X3549505Y-6945224D01*
X3549505Y-6945224D02*
X3530457Y-6954748D01*
X3530457Y-6954748D02*
X3520933Y-6964271D01*
X3520933Y-6964271D02*
X3511409Y-6983319D01*
X3511409Y-6983319D02*
X3511409Y-7030938D01*
X3511409Y-7030938D02*
X3520933Y-7049986D01*
X3520933Y-7049986D02*
X3530457Y-7059509D01*
X3530457Y-7059509D02*
X3549505Y-7069033D01*
X3549505Y-7069033D02*
X3587600Y-7069033D01*
X3587600Y-7069033D02*
X3606648Y-7059509D01*
X3606648Y-7059509D02*
X3616171Y-7049986D01*
X3616171Y-7049986D02*
X3625695Y-7030938D01*
X3720933Y-7145224D02*
X3759028Y-7145224D01*
X3759028Y-7145224D02*
X3778076Y-7135700D01*
X3778076Y-7135700D02*
X3787600Y-7126176D01*
X3787600Y-7126176D02*
X3806648Y-7097605D01*
X3806648Y-7097605D02*
X3816171Y-7059509D01*
X3816171Y-7059509D02*
X3816171Y-6983319D01*
X3816171Y-6983319D02*
X3806648Y-6964271D01*
X3806648Y-6964271D02*
X3797124Y-6954748D01*
X3797124Y-6954748D02*
X3778076Y-6945224D01*
X3778076Y-6945224D02*
X3739981Y-6945224D01*
X3739981Y-6945224D02*
X3720933Y-6954748D01*
X3720933Y-6954748D02*
X3711409Y-6964271D01*
X3711409Y-6964271D02*
X3701886Y-6983319D01*
X3701886Y-6983319D02*
X3701886Y-7030938D01*
X3701886Y-7030938D02*
X3711409Y-7049986D01*
X3711409Y-7049986D02*
X3720933Y-7059509D01*
X3720933Y-7059509D02*
X3739981Y-7069033D01*
X3739981Y-7069033D02*
X3778076Y-7069033D01*
X3778076Y-7069033D02*
X3797124Y-7059509D01*
X3797124Y-7059509D02*
X3806648Y-7049986D01*
X3806648Y-7049986D02*
X3816171Y-7030938D01*
X4006648Y-7145224D02*
X3892362Y-7145224D01*
X3949505Y-7145224D02*
X3949505Y-6945224D01*
X3949505Y-6945224D02*
X3930457Y-6973795D01*
X3930457Y-6973795D02*
X3911409Y-6992843D01*
X3911409Y-6992843D02*
X3892362Y-7002367D01*
X4092362Y-7145224D02*
X4092362Y-7011890D01*
X4092362Y-7030938D02*
X4101886Y-7021414D01*
X4101886Y-7021414D02*
X4120933Y-7011890D01*
X4120933Y-7011890D02*
X4149505Y-7011890D01*
X4149505Y-7011890D02*
X4168552Y-7021414D01*
X4168552Y-7021414D02*
X4178076Y-7040462D01*
X4178076Y-7040462D02*
X4178076Y-7145224D01*
X4178076Y-7040462D02*
X4187600Y-7021414D01*
X4187600Y-7021414D02*
X4206648Y-7011890D01*
X4206648Y-7011890D02*
X4235219Y-7011890D01*
X4235219Y-7011890D02*
X4254267Y-7021414D01*
X4254267Y-7021414D02*
X4263791Y-7040462D01*
X4263791Y-7040462D02*
X4263791Y-7145224D01*
X4359029Y-7145224D02*
X4359029Y-7011890D01*
X4359029Y-7030938D02*
X4368552Y-7021414D01*
X4368552Y-7021414D02*
X4387600Y-7011890D01*
X4387600Y-7011890D02*
X4416172Y-7011890D01*
X4416172Y-7011890D02*
X4435219Y-7021414D01*
X4435219Y-7021414D02*
X4444743Y-7040462D01*
X4444743Y-7040462D02*
X4444743Y-7145224D01*
X4444743Y-7040462D02*
X4454267Y-7021414D01*
X4454267Y-7021414D02*
X4473314Y-7011890D01*
X4473314Y-7011890D02*
X4501886Y-7011890D01*
X4501886Y-7011890D02*
X4520933Y-7021414D01*
X4520933Y-7021414D02*
X4530457Y-7040462D01*
X4530457Y-7040462D02*
X4530457Y-7145224D01*
X4920933Y-6935700D02*
X4749505Y-7192843D01*
X5178076Y-6945224D02*
X5197124Y-6945224D01*
X5197124Y-6945224D02*
X5216172Y-6954748D01*
X5216172Y-6954748D02*
X5225695Y-6964271D01*
X5225695Y-6964271D02*
X5235219Y-6983319D01*
X5235219Y-6983319D02*
X5244743Y-7021414D01*
X5244743Y-7021414D02*
X5244743Y-7069033D01*
X5244743Y-7069033D02*
X5235219Y-7107128D01*
X5235219Y-7107128D02*
X5225695Y-7126176D01*
X5225695Y-7126176D02*
X5216172Y-7135700D01*
X5216172Y-7135700D02*
X5197124Y-7145224D01*
X5197124Y-7145224D02*
X5178076Y-7145224D01*
X5178076Y-7145224D02*
X5159029Y-7135700D01*
X5159029Y-7135700D02*
X5149505Y-7126176D01*
X5149505Y-7126176D02*
X5139981Y-7107128D01*
X5139981Y-7107128D02*
X5130457Y-7069033D01*
X5130457Y-7069033D02*
X5130457Y-7021414D01*
X5130457Y-7021414D02*
X5139981Y-6983319D01*
X5139981Y-6983319D02*
X5149505Y-6964271D01*
X5149505Y-6964271D02*
X5159029Y-6954748D01*
X5159029Y-6954748D02*
X5178076Y-6945224D01*
X5330457Y-7126176D02*
X5339981Y-7135700D01*
X5339981Y-7135700D02*
X5330457Y-7145224D01*
X5330457Y-7145224D02*
X5320934Y-7135700D01*
X5320934Y-7135700D02*
X5330457Y-7126176D01*
X5330457Y-7126176D02*
X5330457Y-7145224D01*
X5463791Y-6945224D02*
X5482838Y-6945224D01*
X5482838Y-6945224D02*
X5501886Y-6954748D01*
X5501886Y-6954748D02*
X5511410Y-6964271D01*
X5511410Y-6964271D02*
X5520934Y-6983319D01*
X5520934Y-6983319D02*
X5530457Y-7021414D01*
X5530457Y-7021414D02*
X5530457Y-7069033D01*
X5530457Y-7069033D02*
X5520934Y-7107128D01*
X5520934Y-7107128D02*
X5511410Y-7126176D01*
X5511410Y-7126176D02*
X5501886Y-7135700D01*
X5501886Y-7135700D02*
X5482838Y-7145224D01*
X5482838Y-7145224D02*
X5463791Y-7145224D01*
X5463791Y-7145224D02*
X5444743Y-7135700D01*
X5444743Y-7135700D02*
X5435219Y-7126176D01*
X5435219Y-7126176D02*
X5425695Y-7107128D01*
X5425695Y-7107128D02*
X5416172Y-7069033D01*
X5416172Y-7069033D02*
X5416172Y-7021414D01*
X5416172Y-7021414D02*
X5425695Y-6983319D01*
X5425695Y-6983319D02*
X5435219Y-6964271D01*
X5435219Y-6964271D02*
X5444743Y-6954748D01*
X5444743Y-6954748D02*
X5463791Y-6945224D01*
X5597124Y-6945224D02*
X5720933Y-6945224D01*
X5720933Y-6945224D02*
X5654267Y-7021414D01*
X5654267Y-7021414D02*
X5682838Y-7021414D01*
X5682838Y-7021414D02*
X5701886Y-7030938D01*
X5701886Y-7030938D02*
X5711410Y-7040462D01*
X5711410Y-7040462D02*
X5720933Y-7059509D01*
X5720933Y-7059509D02*
X5720933Y-7107128D01*
X5720933Y-7107128D02*
X5711410Y-7126176D01*
X5711410Y-7126176D02*
X5701886Y-7135700D01*
X5701886Y-7135700D02*
X5682838Y-7145224D01*
X5682838Y-7145224D02*
X5625695Y-7145224D01*
X5625695Y-7145224D02*
X5606648Y-7135700D01*
X5606648Y-7135700D02*
X5597124Y-7126176D01*
X5816172Y-7145224D02*
X5854267Y-7145224D01*
X5854267Y-7145224D02*
X5873314Y-7135700D01*
X5873314Y-7135700D02*
X5882838Y-7126176D01*
X5882838Y-7126176D02*
X5901886Y-7097605D01*
X5901886Y-7097605D02*
X5911410Y-7059509D01*
X5911410Y-7059509D02*
X5911410Y-6983319D01*
X5911410Y-6983319D02*
X5901886Y-6964271D01*
X5901886Y-6964271D02*
X5892362Y-6954748D01*
X5892362Y-6954748D02*
X5873314Y-6945224D01*
X5873314Y-6945224D02*
X5835219Y-6945224D01*
X5835219Y-6945224D02*
X5816172Y-6954748D01*
X5816172Y-6954748D02*
X5806648Y-6964271D01*
X5806648Y-6964271D02*
X5797124Y-6983319D01*
X5797124Y-6983319D02*
X5797124Y-7030938D01*
X5797124Y-7030938D02*
X5806648Y-7049986D01*
X5806648Y-7049986D02*
X5816172Y-7059509D01*
X5816172Y-7059509D02*
X5835219Y-7069033D01*
X5835219Y-7069033D02*
X5873314Y-7069033D01*
X5873314Y-7069033D02*
X5892362Y-7059509D01*
X5892362Y-7059509D02*
X5901886Y-7049986D01*
X5901886Y-7049986D02*
X5911410Y-7030938D01*
X6035219Y-6945224D02*
X6054267Y-6945224D01*
X6054267Y-6945224D02*
X6073314Y-6954748D01*
X6073314Y-6954748D02*
X6082838Y-6964271D01*
X6082838Y-6964271D02*
X6092362Y-6983319D01*
X6092362Y-6983319D02*
X6101886Y-7021414D01*
X6101886Y-7021414D02*
X6101886Y-7069033D01*
X6101886Y-7069033D02*
X6092362Y-7107128D01*
X6092362Y-7107128D02*
X6082838Y-7126176D01*
X6082838Y-7126176D02*
X6073314Y-7135700D01*
X6073314Y-7135700D02*
X6054267Y-7145224D01*
X6054267Y-7145224D02*
X6035219Y-7145224D01*
X6035219Y-7145224D02*
X6016172Y-7135700D01*
X6016172Y-7135700D02*
X6006648Y-7126176D01*
X6006648Y-7126176D02*
X5997124Y-7107128D01*
X5997124Y-7107128D02*
X5987600Y-7069033D01*
X5987600Y-7069033D02*
X5987600Y-7021414D01*
X5987600Y-7021414D02*
X5997124Y-6983319D01*
X5997124Y-6983319D02*
X6006648Y-6964271D01*
X6006648Y-6964271D02*
X6016172Y-6954748D01*
X6016172Y-6954748D02*
X6035219Y-6945224D01*
X6178076Y-6945224D02*
X6178076Y-6983319D01*
X6254267Y-6945224D02*
X6254267Y-6983319D01*
X6549505Y-7221414D02*
X6539981Y-7211890D01*
X6539981Y-7211890D02*
X6520934Y-7183319D01*
X6520934Y-7183319D02*
X6511410Y-7164271D01*
X6511410Y-7164271D02*
X6501886Y-7135700D01*
X6501886Y-7135700D02*
X6492362Y-7088081D01*
X6492362Y-7088081D02*
X6492362Y-7049986D01*
X6492362Y-7049986D02*
X6501886Y-7002367D01*
X6501886Y-7002367D02*
X6511410Y-6973795D01*
X6511410Y-6973795D02*
X6520934Y-6954748D01*
X6520934Y-6954748D02*
X6539981Y-6926176D01*
X6539981Y-6926176D02*
X6549505Y-6916652D01*
X6606648Y-6945224D02*
X6730457Y-6945224D01*
X6730457Y-6945224D02*
X6663791Y-7021414D01*
X6663791Y-7021414D02*
X6692362Y-7021414D01*
X6692362Y-7021414D02*
X6711410Y-7030938D01*
X6711410Y-7030938D02*
X6720934Y-7040462D01*
X6720934Y-7040462D02*
X6730457Y-7059509D01*
X6730457Y-7059509D02*
X6730457Y-7107128D01*
X6730457Y-7107128D02*
X6720934Y-7126176D01*
X6720934Y-7126176D02*
X6711410Y-7135700D01*
X6711410Y-7135700D02*
X6692362Y-7145224D01*
X6692362Y-7145224D02*
X6635219Y-7145224D01*
X6635219Y-7145224D02*
X6616172Y-7135700D01*
X6616172Y-7135700D02*
X6606648Y-7126176D01*
X6968553Y-7145224D02*
X6968553Y-6945224D01*
X7054267Y-7145224D02*
X7054267Y-7040462D01*
X7054267Y-7040462D02*
X7044743Y-7021414D01*
X7044743Y-7021414D02*
X7025696Y-7011890D01*
X7025696Y-7011890D02*
X6997124Y-7011890D01*
X6997124Y-7011890D02*
X6978076Y-7021414D01*
X6978076Y-7021414D02*
X6968553Y-7030938D01*
X7178076Y-7145224D02*
X7159029Y-7135700D01*
X7159029Y-7135700D02*
X7149505Y-7126176D01*
X7149505Y-7126176D02*
X7139981Y-7107128D01*
X7139981Y-7107128D02*
X7139981Y-7049986D01*
X7139981Y-7049986D02*
X7149505Y-7030938D01*
X7149505Y-7030938D02*
X7159029Y-7021414D01*
X7159029Y-7021414D02*
X7178076Y-7011890D01*
X7178076Y-7011890D02*
X7206648Y-7011890D01*
X7206648Y-7011890D02*
X7225696Y-7021414D01*
X7225696Y-7021414D02*
X7235219Y-7030938D01*
X7235219Y-7030938D02*
X7244743Y-7049986D01*
X7244743Y-7049986D02*
X7244743Y-7107128D01*
X7244743Y-7107128D02*
X7235219Y-7126176D01*
X7235219Y-7126176D02*
X7225696Y-7135700D01*
X7225696Y-7135700D02*
X7206648Y-7145224D01*
X7206648Y-7145224D02*
X7178076Y-7145224D01*
X7359029Y-7145224D02*
X7339981Y-7135700D01*
X7339981Y-7135700D02*
X7330457Y-7116652D01*
X7330457Y-7116652D02*
X7330457Y-6945224D01*
X7511410Y-7135700D02*
X7492362Y-7145224D01*
X7492362Y-7145224D02*
X7454267Y-7145224D01*
X7454267Y-7145224D02*
X7435219Y-7135700D01*
X7435219Y-7135700D02*
X7425696Y-7116652D01*
X7425696Y-7116652D02*
X7425696Y-7040462D01*
X7425696Y-7040462D02*
X7435219Y-7021414D01*
X7435219Y-7021414D02*
X7454267Y-7011890D01*
X7454267Y-7011890D02*
X7492362Y-7011890D01*
X7492362Y-7011890D02*
X7511410Y-7021414D01*
X7511410Y-7021414D02*
X7520934Y-7040462D01*
X7520934Y-7040462D02*
X7520934Y-7059509D01*
X7520934Y-7059509D02*
X7425696Y-7078557D01*
X7597124Y-7135700D02*
X7616172Y-7145224D01*
X7616172Y-7145224D02*
X7654267Y-7145224D01*
X7654267Y-7145224D02*
X7673315Y-7135700D01*
X7673315Y-7135700D02*
X7682838Y-7116652D01*
X7682838Y-7116652D02*
X7682838Y-7107128D01*
X7682838Y-7107128D02*
X7673315Y-7088081D01*
X7673315Y-7088081D02*
X7654267Y-7078557D01*
X7654267Y-7078557D02*
X7625696Y-7078557D01*
X7625696Y-7078557D02*
X7606648Y-7069033D01*
X7606648Y-7069033D02*
X7597124Y-7049986D01*
X7597124Y-7049986D02*
X7597124Y-7040462D01*
X7597124Y-7040462D02*
X7606648Y-7021414D01*
X7606648Y-7021414D02*
X7625696Y-7011890D01*
X7625696Y-7011890D02*
X7654267Y-7011890D01*
X7654267Y-7011890D02*
X7673315Y-7021414D01*
X7749505Y-7221414D02*
X7759029Y-7211890D01*
X7759029Y-7211890D02*
X7778077Y-7183319D01*
X7778077Y-7183319D02*
X7787600Y-7164271D01*
X7787600Y-7164271D02*
X7797124Y-7135700D01*
X7797124Y-7135700D02*
X7806648Y-7088081D01*
X7806648Y-7088081D02*
X7806648Y-7049986D01*
X7806648Y-7049986D02*
X7797124Y-7002367D01*
X7797124Y-7002367D02*
X7787600Y-6973795D01*
X7787600Y-6973795D02*
X7778077Y-6954748D01*
X7778077Y-6954748D02*
X7759029Y-6926176D01*
X7759029Y-6926176D02*
X7749505Y-6916652D01*
X8111410Y-7221414D02*
X8101886Y-7211890D01*
X8101886Y-7211890D02*
X8082838Y-7183319D01*
X8082838Y-7183319D02*
X8073315Y-7164271D01*
X8073315Y-7164271D02*
X8063791Y-7135700D01*
X8063791Y-7135700D02*
X8054267Y-7088081D01*
X8054267Y-7088081D02*
X8054267Y-7049986D01*
X8054267Y-7049986D02*
X8063791Y-7002367D01*
X8063791Y-7002367D02*
X8073315Y-6973795D01*
X8073315Y-6973795D02*
X8082838Y-6954748D01*
X8082838Y-6954748D02*
X8101886Y-6926176D01*
X8101886Y-6926176D02*
X8111410Y-6916652D01*
X8187600Y-7011890D02*
X8187600Y-7145224D01*
X8187600Y-7030938D02*
X8197124Y-7021414D01*
X8197124Y-7021414D02*
X8216172Y-7011890D01*
X8216172Y-7011890D02*
X8244743Y-7011890D01*
X8244743Y-7011890D02*
X8263791Y-7021414D01*
X8263791Y-7021414D02*
X8273315Y-7040462D01*
X8273315Y-7040462D02*
X8273315Y-7145224D01*
X8397124Y-7145224D02*
X8378077Y-7135700D01*
X8378077Y-7135700D02*
X8368553Y-7126176D01*
X8368553Y-7126176D02*
X8359029Y-7107128D01*
X8359029Y-7107128D02*
X8359029Y-7049986D01*
X8359029Y-7049986D02*
X8368553Y-7030938D01*
X8368553Y-7030938D02*
X8378077Y-7021414D01*
X8378077Y-7021414D02*
X8397124Y-7011890D01*
X8397124Y-7011890D02*
X8425696Y-7011890D01*
X8425696Y-7011890D02*
X8444743Y-7021414D01*
X8444743Y-7021414D02*
X8454267Y-7030938D01*
X8454267Y-7030938D02*
X8463791Y-7049986D01*
X8463791Y-7049986D02*
X8463791Y-7107128D01*
X8463791Y-7107128D02*
X8454267Y-7126176D01*
X8454267Y-7126176D02*
X8444743Y-7135700D01*
X8444743Y-7135700D02*
X8425696Y-7145224D01*
X8425696Y-7145224D02*
X8397124Y-7145224D01*
X8520934Y-7011890D02*
X8597124Y-7011890D01*
X8549505Y-6945224D02*
X8549505Y-7116652D01*
X8549505Y-7116652D02*
X8559029Y-7135700D01*
X8559029Y-7135700D02*
X8578077Y-7145224D01*
X8578077Y-7145224D02*
X8597124Y-7145224D01*
X8816172Y-7011890D02*
X8816172Y-7211890D01*
X8816172Y-7021414D02*
X8835220Y-7011890D01*
X8835220Y-7011890D02*
X8873315Y-7011890D01*
X8873315Y-7011890D02*
X8892362Y-7021414D01*
X8892362Y-7021414D02*
X8901886Y-7030938D01*
X8901886Y-7030938D02*
X8911410Y-7049986D01*
X8911410Y-7049986D02*
X8911410Y-7107128D01*
X8911410Y-7107128D02*
X8901886Y-7126176D01*
X8901886Y-7126176D02*
X8892362Y-7135700D01*
X8892362Y-7135700D02*
X8873315Y-7145224D01*
X8873315Y-7145224D02*
X8835220Y-7145224D01*
X8835220Y-7145224D02*
X8816172Y-7135700D01*
X9025696Y-7145224D02*
X9006648Y-7135700D01*
X9006648Y-7135700D02*
X8997124Y-7116652D01*
X8997124Y-7116652D02*
X8997124Y-6945224D01*
X9187601Y-7145224D02*
X9187601Y-7040462D01*
X9187601Y-7040462D02*
X9178077Y-7021414D01*
X9178077Y-7021414D02*
X9159029Y-7011890D01*
X9159029Y-7011890D02*
X9120934Y-7011890D01*
X9120934Y-7011890D02*
X9101886Y-7021414D01*
X9187601Y-7135700D02*
X9168553Y-7145224D01*
X9168553Y-7145224D02*
X9120934Y-7145224D01*
X9120934Y-7145224D02*
X9101886Y-7135700D01*
X9101886Y-7135700D02*
X9092362Y-7116652D01*
X9092362Y-7116652D02*
X9092362Y-7097605D01*
X9092362Y-7097605D02*
X9101886Y-7078557D01*
X9101886Y-7078557D02*
X9120934Y-7069033D01*
X9120934Y-7069033D02*
X9168553Y-7069033D01*
X9168553Y-7069033D02*
X9187601Y-7059509D01*
X9254267Y-7011890D02*
X9330458Y-7011890D01*
X9282839Y-6945224D02*
X9282839Y-7116652D01*
X9282839Y-7116652D02*
X9292362Y-7135700D01*
X9292362Y-7135700D02*
X9311410Y-7145224D01*
X9311410Y-7145224D02*
X9330458Y-7145224D01*
X9473315Y-7135700D02*
X9454267Y-7145224D01*
X9454267Y-7145224D02*
X9416172Y-7145224D01*
X9416172Y-7145224D02*
X9397124Y-7135700D01*
X9397124Y-7135700D02*
X9387601Y-7116652D01*
X9387601Y-7116652D02*
X9387601Y-7040462D01*
X9387601Y-7040462D02*
X9397124Y-7021414D01*
X9397124Y-7021414D02*
X9416172Y-7011890D01*
X9416172Y-7011890D02*
X9454267Y-7011890D01*
X9454267Y-7011890D02*
X9473315Y-7021414D01*
X9473315Y-7021414D02*
X9482839Y-7040462D01*
X9482839Y-7040462D02*
X9482839Y-7059509D01*
X9482839Y-7059509D02*
X9387601Y-7078557D01*
X9654267Y-7145224D02*
X9654267Y-6945224D01*
X9654267Y-7135700D02*
X9635220Y-7145224D01*
X9635220Y-7145224D02*
X9597124Y-7145224D01*
X9597124Y-7145224D02*
X9578077Y-7135700D01*
X9578077Y-7135700D02*
X9568553Y-7126176D01*
X9568553Y-7126176D02*
X9559029Y-7107128D01*
X9559029Y-7107128D02*
X9559029Y-7049986D01*
X9559029Y-7049986D02*
X9568553Y-7030938D01*
X9568553Y-7030938D02*
X9578077Y-7021414D01*
X9578077Y-7021414D02*
X9597124Y-7011890D01*
X9597124Y-7011890D02*
X9635220Y-7011890D01*
X9635220Y-7011890D02*
X9654267Y-7021414D01*
X9730458Y-7221414D02*
X9739982Y-7211890D01*
X9739982Y-7211890D02*
X9759029Y-7183319D01*
X9759029Y-7183319D02*
X9768553Y-7164271D01*
X9768553Y-7164271D02*
X9778077Y-7135700D01*
X9778077Y-7135700D02*
X9787601Y-7088081D01*
X9787601Y-7088081D02*
X9787601Y-7049986D01*
X9787601Y-7049986D02*
X9778077Y-7002367D01*
X9778077Y-7002367D02*
X9768553Y-6973795D01*
X9768553Y-6973795D02*
X9759029Y-6954748D01*
X9759029Y-6954748D02*
X9739982Y-6926176D01*
X9739982Y-6926176D02*
X9730458Y-6916652D01*
X2987600Y-7316700D02*
G75*
G03*
X2987600Y-7316700I-100000J0D01*
G01*
X3225695Y-7228271D02*
X3235219Y-7218748D01*
X3235219Y-7218748D02*
X3254267Y-7209224D01*
X3254267Y-7209224D02*
X3301886Y-7209224D01*
X3301886Y-7209224D02*
X3320933Y-7218748D01*
X3320933Y-7218748D02*
X3330457Y-7228271D01*
X3330457Y-7228271D02*
X3339981Y-7247319D01*
X3339981Y-7247319D02*
X3339981Y-7266367D01*
X3339981Y-7266367D02*
X3330457Y-7294938D01*
X3330457Y-7294938D02*
X3216171Y-7409224D01*
X3216171Y-7409224D02*
X3339981Y-7409224D01*
X3425695Y-7390176D02*
X3435219Y-7399700D01*
X3435219Y-7399700D02*
X3425695Y-7409224D01*
X3425695Y-7409224D02*
X3416171Y-7399700D01*
X3416171Y-7399700D02*
X3425695Y-7390176D01*
X3425695Y-7390176D02*
X3425695Y-7409224D01*
X3559028Y-7209224D02*
X3578076Y-7209224D01*
X3578076Y-7209224D02*
X3597124Y-7218748D01*
X3597124Y-7218748D02*
X3606648Y-7228271D01*
X3606648Y-7228271D02*
X3616171Y-7247319D01*
X3616171Y-7247319D02*
X3625695Y-7285414D01*
X3625695Y-7285414D02*
X3625695Y-7333033D01*
X3625695Y-7333033D02*
X3616171Y-7371128D01*
X3616171Y-7371128D02*
X3606648Y-7390176D01*
X3606648Y-7390176D02*
X3597124Y-7399700D01*
X3597124Y-7399700D02*
X3578076Y-7409224D01*
X3578076Y-7409224D02*
X3559028Y-7409224D01*
X3559028Y-7409224D02*
X3539981Y-7399700D01*
X3539981Y-7399700D02*
X3530457Y-7390176D01*
X3530457Y-7390176D02*
X3520933Y-7371128D01*
X3520933Y-7371128D02*
X3511409Y-7333033D01*
X3511409Y-7333033D02*
X3511409Y-7285414D01*
X3511409Y-7285414D02*
X3520933Y-7247319D01*
X3520933Y-7247319D02*
X3530457Y-7228271D01*
X3530457Y-7228271D02*
X3539981Y-7218748D01*
X3539981Y-7218748D02*
X3559028Y-7209224D01*
X3749505Y-7209224D02*
X3768552Y-7209224D01*
X3768552Y-7209224D02*
X3787600Y-7218748D01*
X3787600Y-7218748D02*
X3797124Y-7228271D01*
X3797124Y-7228271D02*
X3806648Y-7247319D01*
X3806648Y-7247319D02*
X3816171Y-7285414D01*
X3816171Y-7285414D02*
X3816171Y-7333033D01*
X3816171Y-7333033D02*
X3806648Y-7371128D01*
X3806648Y-7371128D02*
X3797124Y-7390176D01*
X3797124Y-7390176D02*
X3787600Y-7399700D01*
X3787600Y-7399700D02*
X3768552Y-7409224D01*
X3768552Y-7409224D02*
X3749505Y-7409224D01*
X3749505Y-7409224D02*
X3730457Y-7399700D01*
X3730457Y-7399700D02*
X3720933Y-7390176D01*
X3720933Y-7390176D02*
X3711409Y-7371128D01*
X3711409Y-7371128D02*
X3701886Y-7333033D01*
X3701886Y-7333033D02*
X3701886Y-7285414D01*
X3701886Y-7285414D02*
X3711409Y-7247319D01*
X3711409Y-7247319D02*
X3720933Y-7228271D01*
X3720933Y-7228271D02*
X3730457Y-7218748D01*
X3730457Y-7218748D02*
X3749505Y-7209224D01*
X3939981Y-7209224D02*
X3959029Y-7209224D01*
X3959029Y-7209224D02*
X3978076Y-7218748D01*
X3978076Y-7218748D02*
X3987600Y-7228271D01*
X3987600Y-7228271D02*
X3997124Y-7247319D01*
X3997124Y-7247319D02*
X4006648Y-7285414D01*
X4006648Y-7285414D02*
X4006648Y-7333033D01*
X4006648Y-7333033D02*
X3997124Y-7371128D01*
X3997124Y-7371128D02*
X3987600Y-7390176D01*
X3987600Y-7390176D02*
X3978076Y-7399700D01*
X3978076Y-7399700D02*
X3959029Y-7409224D01*
X3959029Y-7409224D02*
X3939981Y-7409224D01*
X3939981Y-7409224D02*
X3920933Y-7399700D01*
X3920933Y-7399700D02*
X3911409Y-7390176D01*
X3911409Y-7390176D02*
X3901886Y-7371128D01*
X3901886Y-7371128D02*
X3892362Y-7333033D01*
X3892362Y-7333033D02*
X3892362Y-7285414D01*
X3892362Y-7285414D02*
X3901886Y-7247319D01*
X3901886Y-7247319D02*
X3911409Y-7228271D01*
X3911409Y-7228271D02*
X3920933Y-7218748D01*
X3920933Y-7218748D02*
X3939981Y-7209224D01*
X4092362Y-7409224D02*
X4092362Y-7275890D01*
X4092362Y-7294938D02*
X4101886Y-7285414D01*
X4101886Y-7285414D02*
X4120933Y-7275890D01*
X4120933Y-7275890D02*
X4149505Y-7275890D01*
X4149505Y-7275890D02*
X4168552Y-7285414D01*
X4168552Y-7285414D02*
X4178076Y-7304462D01*
X4178076Y-7304462D02*
X4178076Y-7409224D01*
X4178076Y-7304462D02*
X4187600Y-7285414D01*
X4187600Y-7285414D02*
X4206648Y-7275890D01*
X4206648Y-7275890D02*
X4235219Y-7275890D01*
X4235219Y-7275890D02*
X4254267Y-7285414D01*
X4254267Y-7285414D02*
X4263791Y-7304462D01*
X4263791Y-7304462D02*
X4263791Y-7409224D01*
X4359029Y-7409224D02*
X4359029Y-7275890D01*
X4359029Y-7294938D02*
X4368552Y-7285414D01*
X4368552Y-7285414D02*
X4387600Y-7275890D01*
X4387600Y-7275890D02*
X4416172Y-7275890D01*
X4416172Y-7275890D02*
X4435219Y-7285414D01*
X4435219Y-7285414D02*
X4444743Y-7304462D01*
X4444743Y-7304462D02*
X4444743Y-7409224D01*
X4444743Y-7304462D02*
X4454267Y-7285414D01*
X4454267Y-7285414D02*
X4473314Y-7275890D01*
X4473314Y-7275890D02*
X4501886Y-7275890D01*
X4501886Y-7275890D02*
X4520933Y-7285414D01*
X4520933Y-7285414D02*
X4530457Y-7304462D01*
X4530457Y-7304462D02*
X4530457Y-7409224D01*
X4920933Y-7199700D02*
X4749505Y-7456843D01*
X5178076Y-7209224D02*
X5197124Y-7209224D01*
X5197124Y-7209224D02*
X5216172Y-7218748D01*
X5216172Y-7218748D02*
X5225695Y-7228271D01*
X5225695Y-7228271D02*
X5235219Y-7247319D01*
X5235219Y-7247319D02*
X5244743Y-7285414D01*
X5244743Y-7285414D02*
X5244743Y-7333033D01*
X5244743Y-7333033D02*
X5235219Y-7371128D01*
X5235219Y-7371128D02*
X5225695Y-7390176D01*
X5225695Y-7390176D02*
X5216172Y-7399700D01*
X5216172Y-7399700D02*
X5197124Y-7409224D01*
X5197124Y-7409224D02*
X5178076Y-7409224D01*
X5178076Y-7409224D02*
X5159029Y-7399700D01*
X5159029Y-7399700D02*
X5149505Y-7390176D01*
X5149505Y-7390176D02*
X5139981Y-7371128D01*
X5139981Y-7371128D02*
X5130457Y-7333033D01*
X5130457Y-7333033D02*
X5130457Y-7285414D01*
X5130457Y-7285414D02*
X5139981Y-7247319D01*
X5139981Y-7247319D02*
X5149505Y-7228271D01*
X5149505Y-7228271D02*
X5159029Y-7218748D01*
X5159029Y-7218748D02*
X5178076Y-7209224D01*
X5330457Y-7390176D02*
X5339981Y-7399700D01*
X5339981Y-7399700D02*
X5330457Y-7409224D01*
X5330457Y-7409224D02*
X5320934Y-7399700D01*
X5320934Y-7399700D02*
X5330457Y-7390176D01*
X5330457Y-7390176D02*
X5330457Y-7409224D01*
X5463791Y-7209224D02*
X5482838Y-7209224D01*
X5482838Y-7209224D02*
X5501886Y-7218748D01*
X5501886Y-7218748D02*
X5511410Y-7228271D01*
X5511410Y-7228271D02*
X5520934Y-7247319D01*
X5520934Y-7247319D02*
X5530457Y-7285414D01*
X5530457Y-7285414D02*
X5530457Y-7333033D01*
X5530457Y-7333033D02*
X5520934Y-7371128D01*
X5520934Y-7371128D02*
X5511410Y-7390176D01*
X5511410Y-7390176D02*
X5501886Y-7399700D01*
X5501886Y-7399700D02*
X5482838Y-7409224D01*
X5482838Y-7409224D02*
X5463791Y-7409224D01*
X5463791Y-7409224D02*
X5444743Y-7399700D01*
X5444743Y-7399700D02*
X5435219Y-7390176D01*
X5435219Y-7390176D02*
X5425695Y-7371128D01*
X5425695Y-7371128D02*
X5416172Y-7333033D01*
X5416172Y-7333033D02*
X5416172Y-7285414D01*
X5416172Y-7285414D02*
X5425695Y-7247319D01*
X5425695Y-7247319D02*
X5435219Y-7228271D01*
X5435219Y-7228271D02*
X5444743Y-7218748D01*
X5444743Y-7218748D02*
X5463791Y-7209224D01*
X5597124Y-7209224D02*
X5730457Y-7209224D01*
X5730457Y-7209224D02*
X5644743Y-7409224D01*
X5835219Y-7294938D02*
X5816172Y-7285414D01*
X5816172Y-7285414D02*
X5806648Y-7275890D01*
X5806648Y-7275890D02*
X5797124Y-7256843D01*
X5797124Y-7256843D02*
X5797124Y-7247319D01*
X5797124Y-7247319D02*
X5806648Y-7228271D01*
X5806648Y-7228271D02*
X5816172Y-7218748D01*
X5816172Y-7218748D02*
X5835219Y-7209224D01*
X5835219Y-7209224D02*
X5873314Y-7209224D01*
X5873314Y-7209224D02*
X5892362Y-7218748D01*
X5892362Y-7218748D02*
X5901886Y-7228271D01*
X5901886Y-7228271D02*
X5911410Y-7247319D01*
X5911410Y-7247319D02*
X5911410Y-7256843D01*
X5911410Y-7256843D02*
X5901886Y-7275890D01*
X5901886Y-7275890D02*
X5892362Y-7285414D01*
X5892362Y-7285414D02*
X5873314Y-7294938D01*
X5873314Y-7294938D02*
X5835219Y-7294938D01*
X5835219Y-7294938D02*
X5816172Y-7304462D01*
X5816172Y-7304462D02*
X5806648Y-7313986D01*
X5806648Y-7313986D02*
X5797124Y-7333033D01*
X5797124Y-7333033D02*
X5797124Y-7371128D01*
X5797124Y-7371128D02*
X5806648Y-7390176D01*
X5806648Y-7390176D02*
X5816172Y-7399700D01*
X5816172Y-7399700D02*
X5835219Y-7409224D01*
X5835219Y-7409224D02*
X5873314Y-7409224D01*
X5873314Y-7409224D02*
X5892362Y-7399700D01*
X5892362Y-7399700D02*
X5901886Y-7390176D01*
X5901886Y-7390176D02*
X5911410Y-7371128D01*
X5911410Y-7371128D02*
X5911410Y-7333033D01*
X5911410Y-7333033D02*
X5901886Y-7313986D01*
X5901886Y-7313986D02*
X5892362Y-7304462D01*
X5892362Y-7304462D02*
X5873314Y-7294938D01*
X5978076Y-7209224D02*
X6111410Y-7209224D01*
X6111410Y-7209224D02*
X6025695Y-7409224D01*
X6178076Y-7209224D02*
X6178076Y-7247319D01*
X6254267Y-7209224D02*
X6254267Y-7247319D01*
X6549505Y-7485414D02*
X6539981Y-7475890D01*
X6539981Y-7475890D02*
X6520934Y-7447319D01*
X6520934Y-7447319D02*
X6511410Y-7428271D01*
X6511410Y-7428271D02*
X6501886Y-7399700D01*
X6501886Y-7399700D02*
X6492362Y-7352081D01*
X6492362Y-7352081D02*
X6492362Y-7313986D01*
X6492362Y-7313986D02*
X6501886Y-7266367D01*
X6501886Y-7266367D02*
X6511410Y-7237795D01*
X6511410Y-7237795D02*
X6520934Y-7218748D01*
X6520934Y-7218748D02*
X6539981Y-7190176D01*
X6539981Y-7190176D02*
X6549505Y-7180652D01*
X6616172Y-7228271D02*
X6625695Y-7218748D01*
X6625695Y-7218748D02*
X6644743Y-7209224D01*
X6644743Y-7209224D02*
X6692362Y-7209224D01*
X6692362Y-7209224D02*
X6711410Y-7218748D01*
X6711410Y-7218748D02*
X6720934Y-7228271D01*
X6720934Y-7228271D02*
X6730457Y-7247319D01*
X6730457Y-7247319D02*
X6730457Y-7266367D01*
X6730457Y-7266367D02*
X6720934Y-7294938D01*
X6720934Y-7294938D02*
X6606648Y-7409224D01*
X6606648Y-7409224D02*
X6730457Y-7409224D01*
X6968553Y-7409224D02*
X6968553Y-7209224D01*
X7054267Y-7409224D02*
X7054267Y-7304462D01*
X7054267Y-7304462D02*
X7044743Y-7285414D01*
X7044743Y-7285414D02*
X7025696Y-7275890D01*
X7025696Y-7275890D02*
X6997124Y-7275890D01*
X6997124Y-7275890D02*
X6978076Y-7285414D01*
X6978076Y-7285414D02*
X6968553Y-7294938D01*
X7178076Y-7409224D02*
X7159029Y-7399700D01*
X7159029Y-7399700D02*
X7149505Y-7390176D01*
X7149505Y-7390176D02*
X7139981Y-7371128D01*
X7139981Y-7371128D02*
X7139981Y-7313986D01*
X7139981Y-7313986D02*
X7149505Y-7294938D01*
X7149505Y-7294938D02*
X7159029Y-7285414D01*
X7159029Y-7285414D02*
X7178076Y-7275890D01*
X7178076Y-7275890D02*
X7206648Y-7275890D01*
X7206648Y-7275890D02*
X7225696Y-7285414D01*
X7225696Y-7285414D02*
X7235219Y-7294938D01*
X7235219Y-7294938D02*
X7244743Y-7313986D01*
X7244743Y-7313986D02*
X7244743Y-7371128D01*
X7244743Y-7371128D02*
X7235219Y-7390176D01*
X7235219Y-7390176D02*
X7225696Y-7399700D01*
X7225696Y-7399700D02*
X7206648Y-7409224D01*
X7206648Y-7409224D02*
X7178076Y-7409224D01*
X7359029Y-7409224D02*
X7339981Y-7399700D01*
X7339981Y-7399700D02*
X7330457Y-7380652D01*
X7330457Y-7380652D02*
X7330457Y-7209224D01*
X7511410Y-7399700D02*
X7492362Y-7409224D01*
X7492362Y-7409224D02*
X7454267Y-7409224D01*
X7454267Y-7409224D02*
X7435219Y-7399700D01*
X7435219Y-7399700D02*
X7425696Y-7380652D01*
X7425696Y-7380652D02*
X7425696Y-7304462D01*
X7425696Y-7304462D02*
X7435219Y-7285414D01*
X7435219Y-7285414D02*
X7454267Y-7275890D01*
X7454267Y-7275890D02*
X7492362Y-7275890D01*
X7492362Y-7275890D02*
X7511410Y-7285414D01*
X7511410Y-7285414D02*
X7520934Y-7304462D01*
X7520934Y-7304462D02*
X7520934Y-7323509D01*
X7520934Y-7323509D02*
X7425696Y-7342557D01*
X7597124Y-7399700D02*
X7616172Y-7409224D01*
X7616172Y-7409224D02*
X7654267Y-7409224D01*
X7654267Y-7409224D02*
X7673315Y-7399700D01*
X7673315Y-7399700D02*
X7682838Y-7380652D01*
X7682838Y-7380652D02*
X7682838Y-7371128D01*
X7682838Y-7371128D02*
X7673315Y-7352081D01*
X7673315Y-7352081D02*
X7654267Y-7342557D01*
X7654267Y-7342557D02*
X7625696Y-7342557D01*
X7625696Y-7342557D02*
X7606648Y-7333033D01*
X7606648Y-7333033D02*
X7597124Y-7313986D01*
X7597124Y-7313986D02*
X7597124Y-7304462D01*
X7597124Y-7304462D02*
X7606648Y-7285414D01*
X7606648Y-7285414D02*
X7625696Y-7275890D01*
X7625696Y-7275890D02*
X7654267Y-7275890D01*
X7654267Y-7275890D02*
X7673315Y-7285414D01*
X7749505Y-7485414D02*
X7759029Y-7475890D01*
X7759029Y-7475890D02*
X7778077Y-7447319D01*
X7778077Y-7447319D02*
X7787600Y-7428271D01*
X7787600Y-7428271D02*
X7797124Y-7399700D01*
X7797124Y-7399700D02*
X7806648Y-7352081D01*
X7806648Y-7352081D02*
X7806648Y-7313986D01*
X7806648Y-7313986D02*
X7797124Y-7266367D01*
X7797124Y-7266367D02*
X7787600Y-7237795D01*
X7787600Y-7237795D02*
X7778077Y-7218748D01*
X7778077Y-7218748D02*
X7759029Y-7190176D01*
X7759029Y-7190176D02*
X7749505Y-7180652D01*
X8111410Y-7485414D02*
X8101886Y-7475890D01*
X8101886Y-7475890D02*
X8082838Y-7447319D01*
X8082838Y-7447319D02*
X8073315Y-7428271D01*
X8073315Y-7428271D02*
X8063791Y-7399700D01*
X8063791Y-7399700D02*
X8054267Y-7352081D01*
X8054267Y-7352081D02*
X8054267Y-7313986D01*
X8054267Y-7313986D02*
X8063791Y-7266367D01*
X8063791Y-7266367D02*
X8073315Y-7237795D01*
X8073315Y-7237795D02*
X8082838Y-7218748D01*
X8082838Y-7218748D02*
X8101886Y-7190176D01*
X8101886Y-7190176D02*
X8111410Y-7180652D01*
X8187600Y-7275890D02*
X8187600Y-7409224D01*
X8187600Y-7294938D02*
X8197124Y-7285414D01*
X8197124Y-7285414D02*
X8216172Y-7275890D01*
X8216172Y-7275890D02*
X8244743Y-7275890D01*
X8244743Y-7275890D02*
X8263791Y-7285414D01*
X8263791Y-7285414D02*
X8273315Y-7304462D01*
X8273315Y-7304462D02*
X8273315Y-7409224D01*
X8397124Y-7409224D02*
X8378077Y-7399700D01*
X8378077Y-7399700D02*
X8368553Y-7390176D01*
X8368553Y-7390176D02*
X8359029Y-7371128D01*
X8359029Y-7371128D02*
X8359029Y-7313986D01*
X8359029Y-7313986D02*
X8368553Y-7294938D01*
X8368553Y-7294938D02*
X8378077Y-7285414D01*
X8378077Y-7285414D02*
X8397124Y-7275890D01*
X8397124Y-7275890D02*
X8425696Y-7275890D01*
X8425696Y-7275890D02*
X8444743Y-7285414D01*
X8444743Y-7285414D02*
X8454267Y-7294938D01*
X8454267Y-7294938D02*
X8463791Y-7313986D01*
X8463791Y-7313986D02*
X8463791Y-7371128D01*
X8463791Y-7371128D02*
X8454267Y-7390176D01*
X8454267Y-7390176D02*
X8444743Y-7399700D01*
X8444743Y-7399700D02*
X8425696Y-7409224D01*
X8425696Y-7409224D02*
X8397124Y-7409224D01*
X8520934Y-7275890D02*
X8597124Y-7275890D01*
X8549505Y-7209224D02*
X8549505Y-7380652D01*
X8549505Y-7380652D02*
X8559029Y-7399700D01*
X8559029Y-7399700D02*
X8578077Y-7409224D01*
X8578077Y-7409224D02*
X8597124Y-7409224D01*
X8816172Y-7275890D02*
X8816172Y-7475890D01*
X8816172Y-7285414D02*
X8835220Y-7275890D01*
X8835220Y-7275890D02*
X8873315Y-7275890D01*
X8873315Y-7275890D02*
X8892362Y-7285414D01*
X8892362Y-7285414D02*
X8901886Y-7294938D01*
X8901886Y-7294938D02*
X8911410Y-7313986D01*
X8911410Y-7313986D02*
X8911410Y-7371128D01*
X8911410Y-7371128D02*
X8901886Y-7390176D01*
X8901886Y-7390176D02*
X8892362Y-7399700D01*
X8892362Y-7399700D02*
X8873315Y-7409224D01*
X8873315Y-7409224D02*
X8835220Y-7409224D01*
X8835220Y-7409224D02*
X8816172Y-7399700D01*
X9025696Y-7409224D02*
X9006648Y-7399700D01*
X9006648Y-7399700D02*
X8997124Y-7380652D01*
X8997124Y-7380652D02*
X8997124Y-7209224D01*
X9187601Y-7409224D02*
X9187601Y-7304462D01*
X9187601Y-7304462D02*
X9178077Y-7285414D01*
X9178077Y-7285414D02*
X9159029Y-7275890D01*
X9159029Y-7275890D02*
X9120934Y-7275890D01*
X9120934Y-7275890D02*
X9101886Y-7285414D01*
X9187601Y-7399700D02*
X9168553Y-7409224D01*
X9168553Y-7409224D02*
X9120934Y-7409224D01*
X9120934Y-7409224D02*
X9101886Y-7399700D01*
X9101886Y-7399700D02*
X9092362Y-7380652D01*
X9092362Y-7380652D02*
X9092362Y-7361605D01*
X9092362Y-7361605D02*
X9101886Y-7342557D01*
X9101886Y-7342557D02*
X9120934Y-7333033D01*
X9120934Y-7333033D02*
X9168553Y-7333033D01*
X9168553Y-7333033D02*
X9187601Y-7323509D01*
X9254267Y-7275890D02*
X9330458Y-7275890D01*
X9282839Y-7209224D02*
X9282839Y-7380652D01*
X9282839Y-7380652D02*
X9292362Y-7399700D01*
X9292362Y-7399700D02*
X9311410Y-7409224D01*
X9311410Y-7409224D02*
X9330458Y-7409224D01*
X9473315Y-7399700D02*
X9454267Y-7409224D01*
X9454267Y-7409224D02*
X9416172Y-7409224D01*
X9416172Y-7409224D02*
X9397124Y-7399700D01*
X9397124Y-7399700D02*
X9387601Y-7380652D01*
X9387601Y-7380652D02*
X9387601Y-7304462D01*
X9387601Y-7304462D02*
X9397124Y-7285414D01*
X9397124Y-7285414D02*
X9416172Y-7275890D01*
X9416172Y-7275890D02*
X9454267Y-7275890D01*
X9454267Y-7275890D02*
X9473315Y-7285414D01*
X9473315Y-7285414D02*
X9482839Y-7304462D01*
X9482839Y-7304462D02*
X9482839Y-7323509D01*
X9482839Y-7323509D02*
X9387601Y-7342557D01*
X9654267Y-7409224D02*
X9654267Y-7209224D01*
X9654267Y-7399700D02*
X9635220Y-7409224D01*
X9635220Y-7409224D02*
X9597124Y-7409224D01*
X9597124Y-7409224D02*
X9578077Y-7399700D01*
X9578077Y-7399700D02*
X9568553Y-7390176D01*
X9568553Y-7390176D02*
X9559029Y-7371128D01*
X9559029Y-7371128D02*
X9559029Y-7313986D01*
X9559029Y-7313986D02*
X9568553Y-7294938D01*
X9568553Y-7294938D02*
X9578077Y-7285414D01*
X9578077Y-7285414D02*
X9597124Y-7275890D01*
X9597124Y-7275890D02*
X9635220Y-7275890D01*
X9635220Y-7275890D02*
X9654267Y-7285414D01*
X9730458Y-7485414D02*
X9739982Y-7475890D01*
X9739982Y-7475890D02*
X9759029Y-7447319D01*
X9759029Y-7447319D02*
X9768553Y-7428271D01*
X9768553Y-7428271D02*
X9778077Y-7399700D01*
X9778077Y-7399700D02*
X9787601Y-7352081D01*
X9787601Y-7352081D02*
X9787601Y-7313986D01*
X9787601Y-7313986D02*
X9778077Y-7266367D01*
X9778077Y-7266367D02*
X9768553Y-7237795D01*
X9768553Y-7237795D02*
X9759029Y-7218748D01*
X9759029Y-7218748D02*
X9739982Y-7190176D01*
X9739982Y-7190176D02*
X9730458Y-7180652D01*
M02*
