%TF.GenerationSoftware,KiCad,Pcbnew,7.0.1*%
%TF.CreationDate,2024-08-21T14:43:30+02:00*%
%TF.ProjectId,renforce-ecg,72656e66-6f72-4636-952d-6563672e6b69,1*%
%TF.SameCoordinates,Original*%
%TF.FileFunction,Paste,Top*%
%TF.FilePolarity,Positive*%
%FSLAX46Y46*%
G04 Gerber Fmt 4.6, Leading zero omitted, Abs format (unit mm)*
G04 Created by KiCad (PCBNEW 7.0.1) date 2024-08-21 14:43:30*
%MOMM*%
%LPD*%
G01*
G04 APERTURE LIST*
G04 Aperture macros list*
%AMRoundRect*
0 Rectangle with rounded corners*
0 $1 Rounding radius*
0 $2 $3 $4 $5 $6 $7 $8 $9 X,Y pos of 4 corners*
0 Add a 4 corners polygon primitive as box body*
4,1,4,$2,$3,$4,$5,$6,$7,$8,$9,$2,$3,0*
0 Add four circle primitives for the rounded corners*
1,1,$1+$1,$2,$3*
1,1,$1+$1,$4,$5*
1,1,$1+$1,$6,$7*
1,1,$1+$1,$8,$9*
0 Add four rect primitives between the rounded corners*
20,1,$1+$1,$2,$3,$4,$5,0*
20,1,$1+$1,$4,$5,$6,$7,0*
20,1,$1+$1,$6,$7,$8,$9,0*
20,1,$1+$1,$8,$9,$2,$3,0*%
G04 Aperture macros list end*
%ADD10C,0.100000*%
%ADD11C,0.150000*%
%ADD12C,0.300000*%
%ADD13C,0.400000*%
%ADD14C,0.010000*%
%ADD15RoundRect,0.077000X0.543000X0.198000X-0.543000X0.198000X-0.543000X-0.198000X0.543000X-0.198000X0*%
%ADD16R,0.800001X0.800001*%
%ADD17R,0.399999X0.399999*%
%ADD18RoundRect,0.140000X-0.170000X0.140000X-0.170000X-0.140000X0.170000X-0.140000X0.170000X0.140000X0*%
%ADD19R,1.050000X1.150000*%
%ADD20R,0.600000X1.100000*%
%ADD21RoundRect,0.140000X0.170000X-0.140000X0.170000X0.140000X-0.170000X0.140000X-0.170000X-0.140000X0*%
%ADD22RoundRect,0.135000X0.185000X-0.135000X0.185000X0.135000X-0.185000X0.135000X-0.185000X-0.135000X0*%
%ADD23RoundRect,0.135000X-0.135000X-0.185000X0.135000X-0.185000X0.135000X0.185000X-0.135000X0.185000X0*%
%ADD24RoundRect,0.007200X-0.112800X0.292800X-0.112800X-0.292800X0.112800X-0.292800X0.112800X0.292800X0*%
%ADD25RoundRect,0.007200X-0.292800X-0.112800X0.292800X-0.112800X0.292800X0.112800X-0.292800X0.112800X0*%
%ADD26RoundRect,0.140000X-0.140000X-0.170000X0.140000X-0.170000X0.140000X0.170000X-0.140000X0.170000X0*%
%ADD27RoundRect,0.135000X-0.185000X0.135000X-0.185000X-0.135000X0.185000X-0.135000X0.185000X0.135000X0*%
%ADD28RoundRect,0.140000X0.140000X0.170000X-0.140000X0.170000X-0.140000X-0.170000X0.140000X-0.170000X0*%
%ADD29R,0.850000X0.850000*%
%ADD30RoundRect,0.135000X0.135000X0.185000X-0.135000X0.185000X-0.135000X-0.185000X0.135000X-0.185000X0*%
%ADD31RoundRect,0.225000X0.225000X0.375000X-0.225000X0.375000X-0.225000X-0.375000X0.225000X-0.375000X0*%
%ADD32R,0.300000X0.700000*%
%ADD33R,1.000000X0.700000*%
%ADD34RoundRect,0.200000X-0.200000X-0.275000X0.200000X-0.275000X0.200000X0.275000X-0.200000X0.275000X0*%
%ADD35R,0.400000X0.500000*%
%ADD36R,0.731000X0.239000*%
%ADD37R,0.239000X0.731000*%
%ADD38R,2.750000X2.750000*%
%ADD39RoundRect,0.088500X-0.516500X-0.206500X0.516500X-0.206500X0.516500X0.206500X-0.516500X0.206500X0*%
%ADD40RoundRect,0.250000X-0.375000X-1.075000X0.375000X-1.075000X0.375000X1.075000X-0.375000X1.075000X0*%
%TA.AperFunction,Profile*%
%ADD41C,0.254000*%
%TD*%
G04 APERTURE END LIST*
D10*
D11*
X30012400Y-75989600D02*
X138012400Y-75989600D01*
X138012400Y-107989600D01*
X30012400Y-107989600D01*
X30012400Y-75989600D01*
D10*
D11*
X10000000Y-10000000D02*
X140012400Y-10000000D01*
X140012400Y-109989600D01*
X10000000Y-109989600D01*
X10000000Y-10000000D01*
D10*
D11*
X12000000Y-12000000D02*
X138012400Y-12000000D01*
X138012400Y-107989600D01*
X12000000Y-107989600D01*
X12000000Y-12000000D01*
D10*
D11*
X60000000Y-12000000D02*
X60000000Y-10000000D01*
D10*
D11*
X110000000Y-12000000D02*
X110000000Y-10000000D01*
D10*
D11*
X35990476Y-11601404D02*
X35247619Y-11601404D01*
X35619047Y-11601404D02*
X35619047Y-10301404D01*
X35619047Y-10301404D02*
X35495238Y-10487119D01*
X35495238Y-10487119D02*
X35371428Y-10610928D01*
X35371428Y-10610928D02*
X35247619Y-10672833D01*
D10*
D11*
X85247619Y-10425214D02*
X85309523Y-10363309D01*
X85309523Y-10363309D02*
X85433333Y-10301404D01*
X85433333Y-10301404D02*
X85742857Y-10301404D01*
X85742857Y-10301404D02*
X85866666Y-10363309D01*
X85866666Y-10363309D02*
X85928571Y-10425214D01*
X85928571Y-10425214D02*
X85990476Y-10549023D01*
X85990476Y-10549023D02*
X85990476Y-10672833D01*
X85990476Y-10672833D02*
X85928571Y-10858547D01*
X85928571Y-10858547D02*
X85185714Y-11601404D01*
X85185714Y-11601404D02*
X85990476Y-11601404D01*
D10*
D11*
X135185714Y-10301404D02*
X135990476Y-10301404D01*
X135990476Y-10301404D02*
X135557142Y-10796642D01*
X135557142Y-10796642D02*
X135742857Y-10796642D01*
X135742857Y-10796642D02*
X135866666Y-10858547D01*
X135866666Y-10858547D02*
X135928571Y-10920452D01*
X135928571Y-10920452D02*
X135990476Y-11044261D01*
X135990476Y-11044261D02*
X135990476Y-11353785D01*
X135990476Y-11353785D02*
X135928571Y-11477595D01*
X135928571Y-11477595D02*
X135866666Y-11539500D01*
X135866666Y-11539500D02*
X135742857Y-11601404D01*
X135742857Y-11601404D02*
X135371428Y-11601404D01*
X135371428Y-11601404D02*
X135247619Y-11539500D01*
X135247619Y-11539500D02*
X135185714Y-11477595D01*
D10*
D11*
X60000000Y-107989600D02*
X60000000Y-109989600D01*
D10*
D11*
X110000000Y-107989600D02*
X110000000Y-109989600D01*
D10*
D11*
X35990476Y-109591004D02*
X35247619Y-109591004D01*
X35619047Y-109591004D02*
X35619047Y-108291004D01*
X35619047Y-108291004D02*
X35495238Y-108476719D01*
X35495238Y-108476719D02*
X35371428Y-108600528D01*
X35371428Y-108600528D02*
X35247619Y-108662433D01*
D10*
D11*
X85247619Y-108414814D02*
X85309523Y-108352909D01*
X85309523Y-108352909D02*
X85433333Y-108291004D01*
X85433333Y-108291004D02*
X85742857Y-108291004D01*
X85742857Y-108291004D02*
X85866666Y-108352909D01*
X85866666Y-108352909D02*
X85928571Y-108414814D01*
X85928571Y-108414814D02*
X85990476Y-108538623D01*
X85990476Y-108538623D02*
X85990476Y-108662433D01*
X85990476Y-108662433D02*
X85928571Y-108848147D01*
X85928571Y-108848147D02*
X85185714Y-109591004D01*
X85185714Y-109591004D02*
X85990476Y-109591004D01*
D10*
D11*
X135185714Y-108291004D02*
X135990476Y-108291004D01*
X135990476Y-108291004D02*
X135557142Y-108786242D01*
X135557142Y-108786242D02*
X135742857Y-108786242D01*
X135742857Y-108786242D02*
X135866666Y-108848147D01*
X135866666Y-108848147D02*
X135928571Y-108910052D01*
X135928571Y-108910052D02*
X135990476Y-109033861D01*
X135990476Y-109033861D02*
X135990476Y-109343385D01*
X135990476Y-109343385D02*
X135928571Y-109467195D01*
X135928571Y-109467195D02*
X135866666Y-109529100D01*
X135866666Y-109529100D02*
X135742857Y-109591004D01*
X135742857Y-109591004D02*
X135371428Y-109591004D01*
X135371428Y-109591004D02*
X135247619Y-109529100D01*
X135247619Y-109529100D02*
X135185714Y-109467195D01*
D10*
D11*
X10000000Y-60000000D02*
X12000000Y-60000000D01*
D10*
D11*
X10690476Y-35229976D02*
X11309523Y-35229976D01*
X10566666Y-35601404D02*
X10999999Y-34301404D01*
X10999999Y-34301404D02*
X11433333Y-35601404D01*
D10*
D11*
X11092857Y-84920452D02*
X11278571Y-84982357D01*
X11278571Y-84982357D02*
X11340476Y-85044261D01*
X11340476Y-85044261D02*
X11402380Y-85168071D01*
X11402380Y-85168071D02*
X11402380Y-85353785D01*
X11402380Y-85353785D02*
X11340476Y-85477595D01*
X11340476Y-85477595D02*
X11278571Y-85539500D01*
X11278571Y-85539500D02*
X11154761Y-85601404D01*
X11154761Y-85601404D02*
X10659523Y-85601404D01*
X10659523Y-85601404D02*
X10659523Y-84301404D01*
X10659523Y-84301404D02*
X11092857Y-84301404D01*
X11092857Y-84301404D02*
X11216666Y-84363309D01*
X11216666Y-84363309D02*
X11278571Y-84425214D01*
X11278571Y-84425214D02*
X11340476Y-84549023D01*
X11340476Y-84549023D02*
X11340476Y-84672833D01*
X11340476Y-84672833D02*
X11278571Y-84796642D01*
X11278571Y-84796642D02*
X11216666Y-84858547D01*
X11216666Y-84858547D02*
X11092857Y-84920452D01*
X11092857Y-84920452D02*
X10659523Y-84920452D01*
D10*
D11*
X140012400Y-60000000D02*
X138012400Y-60000000D01*
D10*
D11*
X138702876Y-35229976D02*
X139321923Y-35229976D01*
X138579066Y-35601404D02*
X139012399Y-34301404D01*
X139012399Y-34301404D02*
X139445733Y-35601404D01*
D10*
D11*
X139105257Y-84920452D02*
X139290971Y-84982357D01*
X139290971Y-84982357D02*
X139352876Y-85044261D01*
X139352876Y-85044261D02*
X139414780Y-85168071D01*
X139414780Y-85168071D02*
X139414780Y-85353785D01*
X139414780Y-85353785D02*
X139352876Y-85477595D01*
X139352876Y-85477595D02*
X139290971Y-85539500D01*
X139290971Y-85539500D02*
X139167161Y-85601404D01*
X139167161Y-85601404D02*
X138671923Y-85601404D01*
X138671923Y-85601404D02*
X138671923Y-84301404D01*
X138671923Y-84301404D02*
X139105257Y-84301404D01*
X139105257Y-84301404D02*
X139229066Y-84363309D01*
X139229066Y-84363309D02*
X139290971Y-84425214D01*
X139290971Y-84425214D02*
X139352876Y-84549023D01*
X139352876Y-84549023D02*
X139352876Y-84672833D01*
X139352876Y-84672833D02*
X139290971Y-84796642D01*
X139290971Y-84796642D02*
X139229066Y-84858547D01*
X139229066Y-84858547D02*
X139105257Y-84920452D01*
X139105257Y-84920452D02*
X138671923Y-84920452D01*
D10*
D11*
X53369542Y-103783528D02*
X53369542Y-102283528D01*
X53369542Y-102283528D02*
X53726685Y-102283528D01*
X53726685Y-102283528D02*
X53940971Y-102354957D01*
X53940971Y-102354957D02*
X54083828Y-102497814D01*
X54083828Y-102497814D02*
X54155257Y-102640671D01*
X54155257Y-102640671D02*
X54226685Y-102926385D01*
X54226685Y-102926385D02*
X54226685Y-103140671D01*
X54226685Y-103140671D02*
X54155257Y-103426385D01*
X54155257Y-103426385D02*
X54083828Y-103569242D01*
X54083828Y-103569242D02*
X53940971Y-103712100D01*
X53940971Y-103712100D02*
X53726685Y-103783528D01*
X53726685Y-103783528D02*
X53369542Y-103783528D01*
X55512400Y-103783528D02*
X55512400Y-102997814D01*
X55512400Y-102997814D02*
X55440971Y-102854957D01*
X55440971Y-102854957D02*
X55298114Y-102783528D01*
X55298114Y-102783528D02*
X55012400Y-102783528D01*
X55012400Y-102783528D02*
X54869542Y-102854957D01*
X55512400Y-103712100D02*
X55369542Y-103783528D01*
X55369542Y-103783528D02*
X55012400Y-103783528D01*
X55012400Y-103783528D02*
X54869542Y-103712100D01*
X54869542Y-103712100D02*
X54798114Y-103569242D01*
X54798114Y-103569242D02*
X54798114Y-103426385D01*
X54798114Y-103426385D02*
X54869542Y-103283528D01*
X54869542Y-103283528D02*
X55012400Y-103212100D01*
X55012400Y-103212100D02*
X55369542Y-103212100D01*
X55369542Y-103212100D02*
X55512400Y-103140671D01*
X56012400Y-102783528D02*
X56583828Y-102783528D01*
X56226685Y-102283528D02*
X56226685Y-103569242D01*
X56226685Y-103569242D02*
X56298114Y-103712100D01*
X56298114Y-103712100D02*
X56440971Y-103783528D01*
X56440971Y-103783528D02*
X56583828Y-103783528D01*
X57655257Y-103712100D02*
X57512400Y-103783528D01*
X57512400Y-103783528D02*
X57226686Y-103783528D01*
X57226686Y-103783528D02*
X57083828Y-103712100D01*
X57083828Y-103712100D02*
X57012400Y-103569242D01*
X57012400Y-103569242D02*
X57012400Y-102997814D01*
X57012400Y-102997814D02*
X57083828Y-102854957D01*
X57083828Y-102854957D02*
X57226686Y-102783528D01*
X57226686Y-102783528D02*
X57512400Y-102783528D01*
X57512400Y-102783528D02*
X57655257Y-102854957D01*
X57655257Y-102854957D02*
X57726686Y-102997814D01*
X57726686Y-102997814D02*
X57726686Y-103140671D01*
X57726686Y-103140671D02*
X57012400Y-103283528D01*
X58369542Y-103640671D02*
X58440971Y-103712100D01*
X58440971Y-103712100D02*
X58369542Y-103783528D01*
X58369542Y-103783528D02*
X58298114Y-103712100D01*
X58298114Y-103712100D02*
X58369542Y-103640671D01*
X58369542Y-103640671D02*
X58369542Y-103783528D01*
X58369542Y-102854957D02*
X58440971Y-102926385D01*
X58440971Y-102926385D02*
X58369542Y-102997814D01*
X58369542Y-102997814D02*
X58298114Y-102926385D01*
X58298114Y-102926385D02*
X58369542Y-102854957D01*
X58369542Y-102854957D02*
X58369542Y-102997814D01*
X60155257Y-102426385D02*
X60226685Y-102354957D01*
X60226685Y-102354957D02*
X60369543Y-102283528D01*
X60369543Y-102283528D02*
X60726685Y-102283528D01*
X60726685Y-102283528D02*
X60869543Y-102354957D01*
X60869543Y-102354957D02*
X60940971Y-102426385D01*
X60940971Y-102426385D02*
X61012400Y-102569242D01*
X61012400Y-102569242D02*
X61012400Y-102712100D01*
X61012400Y-102712100D02*
X60940971Y-102926385D01*
X60940971Y-102926385D02*
X60083828Y-103783528D01*
X60083828Y-103783528D02*
X61012400Y-103783528D01*
X61940971Y-102283528D02*
X62083828Y-102283528D01*
X62083828Y-102283528D02*
X62226685Y-102354957D01*
X62226685Y-102354957D02*
X62298114Y-102426385D01*
X62298114Y-102426385D02*
X62369542Y-102569242D01*
X62369542Y-102569242D02*
X62440971Y-102854957D01*
X62440971Y-102854957D02*
X62440971Y-103212100D01*
X62440971Y-103212100D02*
X62369542Y-103497814D01*
X62369542Y-103497814D02*
X62298114Y-103640671D01*
X62298114Y-103640671D02*
X62226685Y-103712100D01*
X62226685Y-103712100D02*
X62083828Y-103783528D01*
X62083828Y-103783528D02*
X61940971Y-103783528D01*
X61940971Y-103783528D02*
X61798114Y-103712100D01*
X61798114Y-103712100D02*
X61726685Y-103640671D01*
X61726685Y-103640671D02*
X61655256Y-103497814D01*
X61655256Y-103497814D02*
X61583828Y-103212100D01*
X61583828Y-103212100D02*
X61583828Y-102854957D01*
X61583828Y-102854957D02*
X61655256Y-102569242D01*
X61655256Y-102569242D02*
X61726685Y-102426385D01*
X61726685Y-102426385D02*
X61798114Y-102354957D01*
X61798114Y-102354957D02*
X61940971Y-102283528D01*
X63012399Y-102426385D02*
X63083827Y-102354957D01*
X63083827Y-102354957D02*
X63226685Y-102283528D01*
X63226685Y-102283528D02*
X63583827Y-102283528D01*
X63583827Y-102283528D02*
X63726685Y-102354957D01*
X63726685Y-102354957D02*
X63798113Y-102426385D01*
X63798113Y-102426385D02*
X63869542Y-102569242D01*
X63869542Y-102569242D02*
X63869542Y-102712100D01*
X63869542Y-102712100D02*
X63798113Y-102926385D01*
X63798113Y-102926385D02*
X62940970Y-103783528D01*
X62940970Y-103783528D02*
X63869542Y-103783528D01*
X65155256Y-102783528D02*
X65155256Y-103783528D01*
X64798113Y-102212100D02*
X64440970Y-103283528D01*
X64440970Y-103283528D02*
X65369541Y-103283528D01*
X65940969Y-103212100D02*
X67083827Y-103212100D01*
X68083827Y-102283528D02*
X68226684Y-102283528D01*
X68226684Y-102283528D02*
X68369541Y-102354957D01*
X68369541Y-102354957D02*
X68440970Y-102426385D01*
X68440970Y-102426385D02*
X68512398Y-102569242D01*
X68512398Y-102569242D02*
X68583827Y-102854957D01*
X68583827Y-102854957D02*
X68583827Y-103212100D01*
X68583827Y-103212100D02*
X68512398Y-103497814D01*
X68512398Y-103497814D02*
X68440970Y-103640671D01*
X68440970Y-103640671D02*
X68369541Y-103712100D01*
X68369541Y-103712100D02*
X68226684Y-103783528D01*
X68226684Y-103783528D02*
X68083827Y-103783528D01*
X68083827Y-103783528D02*
X67940970Y-103712100D01*
X67940970Y-103712100D02*
X67869541Y-103640671D01*
X67869541Y-103640671D02*
X67798112Y-103497814D01*
X67798112Y-103497814D02*
X67726684Y-103212100D01*
X67726684Y-103212100D02*
X67726684Y-102854957D01*
X67726684Y-102854957D02*
X67798112Y-102569242D01*
X67798112Y-102569242D02*
X67869541Y-102426385D01*
X67869541Y-102426385D02*
X67940970Y-102354957D01*
X67940970Y-102354957D02*
X68083827Y-102283528D01*
X69940969Y-102283528D02*
X69226683Y-102283528D01*
X69226683Y-102283528D02*
X69155255Y-102997814D01*
X69155255Y-102997814D02*
X69226683Y-102926385D01*
X69226683Y-102926385D02*
X69369541Y-102854957D01*
X69369541Y-102854957D02*
X69726683Y-102854957D01*
X69726683Y-102854957D02*
X69869541Y-102926385D01*
X69869541Y-102926385D02*
X69940969Y-102997814D01*
X69940969Y-102997814D02*
X70012398Y-103140671D01*
X70012398Y-103140671D02*
X70012398Y-103497814D01*
X70012398Y-103497814D02*
X69940969Y-103640671D01*
X69940969Y-103640671D02*
X69869541Y-103712100D01*
X69869541Y-103712100D02*
X69726683Y-103783528D01*
X69726683Y-103783528D02*
X69369541Y-103783528D01*
X69369541Y-103783528D02*
X69226683Y-103712100D01*
X69226683Y-103712100D02*
X69155255Y-103640671D01*
X70655254Y-103212100D02*
X71798112Y-103212100D01*
X72798112Y-102283528D02*
X72940969Y-102283528D01*
X72940969Y-102283528D02*
X73083826Y-102354957D01*
X73083826Y-102354957D02*
X73155255Y-102426385D01*
X73155255Y-102426385D02*
X73226683Y-102569242D01*
X73226683Y-102569242D02*
X73298112Y-102854957D01*
X73298112Y-102854957D02*
X73298112Y-103212100D01*
X73298112Y-103212100D02*
X73226683Y-103497814D01*
X73226683Y-103497814D02*
X73155255Y-103640671D01*
X73155255Y-103640671D02*
X73083826Y-103712100D01*
X73083826Y-103712100D02*
X72940969Y-103783528D01*
X72940969Y-103783528D02*
X72798112Y-103783528D01*
X72798112Y-103783528D02*
X72655255Y-103712100D01*
X72655255Y-103712100D02*
X72583826Y-103640671D01*
X72583826Y-103640671D02*
X72512397Y-103497814D01*
X72512397Y-103497814D02*
X72440969Y-103212100D01*
X72440969Y-103212100D02*
X72440969Y-102854957D01*
X72440969Y-102854957D02*
X72512397Y-102569242D01*
X72512397Y-102569242D02*
X72583826Y-102426385D01*
X72583826Y-102426385D02*
X72655255Y-102354957D01*
X72655255Y-102354957D02*
X72798112Y-102283528D01*
X73869540Y-102426385D02*
X73940968Y-102354957D01*
X73940968Y-102354957D02*
X74083826Y-102283528D01*
X74083826Y-102283528D02*
X74440968Y-102283528D01*
X74440968Y-102283528D02*
X74583826Y-102354957D01*
X74583826Y-102354957D02*
X74655254Y-102426385D01*
X74655254Y-102426385D02*
X74726683Y-102569242D01*
X74726683Y-102569242D02*
X74726683Y-102712100D01*
X74726683Y-102712100D02*
X74655254Y-102926385D01*
X74655254Y-102926385D02*
X73798111Y-103783528D01*
X73798111Y-103783528D02*
X74726683Y-103783528D01*
D10*
D11*
X30012400Y-104489600D02*
X138012400Y-104489600D01*
D10*
D11*
X31369542Y-106583528D02*
X31369542Y-105083528D01*
X32226685Y-106583528D02*
X31583828Y-105726385D01*
X32226685Y-105083528D02*
X31369542Y-105940671D01*
X32869542Y-106583528D02*
X32869542Y-105583528D01*
X32869542Y-105083528D02*
X32798114Y-105154957D01*
X32798114Y-105154957D02*
X32869542Y-105226385D01*
X32869542Y-105226385D02*
X32940971Y-105154957D01*
X32940971Y-105154957D02*
X32869542Y-105083528D01*
X32869542Y-105083528D02*
X32869542Y-105226385D01*
X34440971Y-106440671D02*
X34369543Y-106512100D01*
X34369543Y-106512100D02*
X34155257Y-106583528D01*
X34155257Y-106583528D02*
X34012400Y-106583528D01*
X34012400Y-106583528D02*
X33798114Y-106512100D01*
X33798114Y-106512100D02*
X33655257Y-106369242D01*
X33655257Y-106369242D02*
X33583828Y-106226385D01*
X33583828Y-106226385D02*
X33512400Y-105940671D01*
X33512400Y-105940671D02*
X33512400Y-105726385D01*
X33512400Y-105726385D02*
X33583828Y-105440671D01*
X33583828Y-105440671D02*
X33655257Y-105297814D01*
X33655257Y-105297814D02*
X33798114Y-105154957D01*
X33798114Y-105154957D02*
X34012400Y-105083528D01*
X34012400Y-105083528D02*
X34155257Y-105083528D01*
X34155257Y-105083528D02*
X34369543Y-105154957D01*
X34369543Y-105154957D02*
X34440971Y-105226385D01*
X35726686Y-106583528D02*
X35726686Y-105797814D01*
X35726686Y-105797814D02*
X35655257Y-105654957D01*
X35655257Y-105654957D02*
X35512400Y-105583528D01*
X35512400Y-105583528D02*
X35226686Y-105583528D01*
X35226686Y-105583528D02*
X35083828Y-105654957D01*
X35726686Y-106512100D02*
X35583828Y-106583528D01*
X35583828Y-106583528D02*
X35226686Y-106583528D01*
X35226686Y-106583528D02*
X35083828Y-106512100D01*
X35083828Y-106512100D02*
X35012400Y-106369242D01*
X35012400Y-106369242D02*
X35012400Y-106226385D01*
X35012400Y-106226385D02*
X35083828Y-106083528D01*
X35083828Y-106083528D02*
X35226686Y-106012100D01*
X35226686Y-106012100D02*
X35583828Y-106012100D01*
X35583828Y-106012100D02*
X35726686Y-105940671D01*
X37083829Y-106583528D02*
X37083829Y-105083528D01*
X37083829Y-106512100D02*
X36940971Y-106583528D01*
X36940971Y-106583528D02*
X36655257Y-106583528D01*
X36655257Y-106583528D02*
X36512400Y-106512100D01*
X36512400Y-106512100D02*
X36440971Y-106440671D01*
X36440971Y-106440671D02*
X36369543Y-106297814D01*
X36369543Y-106297814D02*
X36369543Y-105869242D01*
X36369543Y-105869242D02*
X36440971Y-105726385D01*
X36440971Y-105726385D02*
X36512400Y-105654957D01*
X36512400Y-105654957D02*
X36655257Y-105583528D01*
X36655257Y-105583528D02*
X36940971Y-105583528D01*
X36940971Y-105583528D02*
X37083829Y-105654957D01*
X38940971Y-105797814D02*
X39440971Y-105797814D01*
X39655257Y-106583528D02*
X38940971Y-106583528D01*
X38940971Y-106583528D02*
X38940971Y-105083528D01*
X38940971Y-105083528D02*
X39655257Y-105083528D01*
X40298114Y-106440671D02*
X40369543Y-106512100D01*
X40369543Y-106512100D02*
X40298114Y-106583528D01*
X40298114Y-106583528D02*
X40226686Y-106512100D01*
X40226686Y-106512100D02*
X40298114Y-106440671D01*
X40298114Y-106440671D02*
X40298114Y-106583528D01*
X41012400Y-106583528D02*
X41012400Y-105083528D01*
X41012400Y-105083528D02*
X41369543Y-105083528D01*
X41369543Y-105083528D02*
X41583829Y-105154957D01*
X41583829Y-105154957D02*
X41726686Y-105297814D01*
X41726686Y-105297814D02*
X41798115Y-105440671D01*
X41798115Y-105440671D02*
X41869543Y-105726385D01*
X41869543Y-105726385D02*
X41869543Y-105940671D01*
X41869543Y-105940671D02*
X41798115Y-106226385D01*
X41798115Y-106226385D02*
X41726686Y-106369242D01*
X41726686Y-106369242D02*
X41583829Y-106512100D01*
X41583829Y-106512100D02*
X41369543Y-106583528D01*
X41369543Y-106583528D02*
X41012400Y-106583528D01*
X42512400Y-106440671D02*
X42583829Y-106512100D01*
X42583829Y-106512100D02*
X42512400Y-106583528D01*
X42512400Y-106583528D02*
X42440972Y-106512100D01*
X42440972Y-106512100D02*
X42512400Y-106440671D01*
X42512400Y-106440671D02*
X42512400Y-106583528D01*
X43155258Y-106154957D02*
X43869544Y-106154957D01*
X43012401Y-106583528D02*
X43512401Y-105083528D01*
X43512401Y-105083528D02*
X44012401Y-106583528D01*
X44512400Y-106440671D02*
X44583829Y-106512100D01*
X44583829Y-106512100D02*
X44512400Y-106583528D01*
X44512400Y-106583528D02*
X44440972Y-106512100D01*
X44440972Y-106512100D02*
X44512400Y-106440671D01*
X44512400Y-106440671D02*
X44512400Y-106583528D01*
X47512400Y-106583528D02*
X47512400Y-105083528D01*
X47655258Y-106012100D02*
X48083829Y-106583528D01*
X48083829Y-105583528D02*
X47512400Y-106154957D01*
X48726686Y-106583528D02*
X48726686Y-105583528D01*
X48726686Y-105083528D02*
X48655258Y-105154957D01*
X48655258Y-105154957D02*
X48726686Y-105226385D01*
X48726686Y-105226385D02*
X48798115Y-105154957D01*
X48798115Y-105154957D02*
X48726686Y-105083528D01*
X48726686Y-105083528D02*
X48726686Y-105226385D01*
X50083830Y-106512100D02*
X49940972Y-106583528D01*
X49940972Y-106583528D02*
X49655258Y-106583528D01*
X49655258Y-106583528D02*
X49512401Y-106512100D01*
X49512401Y-106512100D02*
X49440972Y-106440671D01*
X49440972Y-106440671D02*
X49369544Y-106297814D01*
X49369544Y-106297814D02*
X49369544Y-105869242D01*
X49369544Y-105869242D02*
X49440972Y-105726385D01*
X49440972Y-105726385D02*
X49512401Y-105654957D01*
X49512401Y-105654957D02*
X49655258Y-105583528D01*
X49655258Y-105583528D02*
X49940972Y-105583528D01*
X49940972Y-105583528D02*
X50083830Y-105654957D01*
X51369544Y-106583528D02*
X51369544Y-105797814D01*
X51369544Y-105797814D02*
X51298115Y-105654957D01*
X51298115Y-105654957D02*
X51155258Y-105583528D01*
X51155258Y-105583528D02*
X50869544Y-105583528D01*
X50869544Y-105583528D02*
X50726686Y-105654957D01*
X51369544Y-106512100D02*
X51226686Y-106583528D01*
X51226686Y-106583528D02*
X50869544Y-106583528D01*
X50869544Y-106583528D02*
X50726686Y-106512100D01*
X50726686Y-106512100D02*
X50655258Y-106369242D01*
X50655258Y-106369242D02*
X50655258Y-106226385D01*
X50655258Y-106226385D02*
X50726686Y-106083528D01*
X50726686Y-106083528D02*
X50869544Y-106012100D01*
X50869544Y-106012100D02*
X51226686Y-106012100D01*
X51226686Y-106012100D02*
X51369544Y-105940671D01*
X52726687Y-106583528D02*
X52726687Y-105083528D01*
X52726687Y-106512100D02*
X52583829Y-106583528D01*
X52583829Y-106583528D02*
X52298115Y-106583528D01*
X52298115Y-106583528D02*
X52155258Y-106512100D01*
X52155258Y-106512100D02*
X52083829Y-106440671D01*
X52083829Y-106440671D02*
X52012401Y-106297814D01*
X52012401Y-106297814D02*
X52012401Y-105869242D01*
X52012401Y-105869242D02*
X52083829Y-105726385D01*
X52083829Y-105726385D02*
X52155258Y-105654957D01*
X52155258Y-105654957D02*
X52298115Y-105583528D01*
X52298115Y-105583528D02*
X52583829Y-105583528D01*
X52583829Y-105583528D02*
X52726687Y-105654957D01*
X54440972Y-105083528D02*
X55440972Y-105083528D01*
X55440972Y-105083528D02*
X54798115Y-106583528D01*
X56012400Y-106440671D02*
X56083829Y-106512100D01*
X56083829Y-106512100D02*
X56012400Y-106583528D01*
X56012400Y-106583528D02*
X55940972Y-106512100D01*
X55940972Y-106512100D02*
X56012400Y-106440671D01*
X56012400Y-106440671D02*
X56012400Y-106583528D01*
X57012401Y-105083528D02*
X57155258Y-105083528D01*
X57155258Y-105083528D02*
X57298115Y-105154957D01*
X57298115Y-105154957D02*
X57369544Y-105226385D01*
X57369544Y-105226385D02*
X57440972Y-105369242D01*
X57440972Y-105369242D02*
X57512401Y-105654957D01*
X57512401Y-105654957D02*
X57512401Y-106012100D01*
X57512401Y-106012100D02*
X57440972Y-106297814D01*
X57440972Y-106297814D02*
X57369544Y-106440671D01*
X57369544Y-106440671D02*
X57298115Y-106512100D01*
X57298115Y-106512100D02*
X57155258Y-106583528D01*
X57155258Y-106583528D02*
X57012401Y-106583528D01*
X57012401Y-106583528D02*
X56869544Y-106512100D01*
X56869544Y-106512100D02*
X56798115Y-106440671D01*
X56798115Y-106440671D02*
X56726686Y-106297814D01*
X56726686Y-106297814D02*
X56655258Y-106012100D01*
X56655258Y-106012100D02*
X56655258Y-105654957D01*
X56655258Y-105654957D02*
X56726686Y-105369242D01*
X56726686Y-105369242D02*
X56798115Y-105226385D01*
X56798115Y-105226385D02*
X56869544Y-105154957D01*
X56869544Y-105154957D02*
X57012401Y-105083528D01*
X58155257Y-106440671D02*
X58226686Y-106512100D01*
X58226686Y-106512100D02*
X58155257Y-106583528D01*
X58155257Y-106583528D02*
X58083829Y-106512100D01*
X58083829Y-106512100D02*
X58155257Y-106440671D01*
X58155257Y-106440671D02*
X58155257Y-106583528D01*
X59655258Y-106583528D02*
X58798115Y-106583528D01*
X59226686Y-106583528D02*
X59226686Y-105083528D01*
X59226686Y-105083528D02*
X59083829Y-105297814D01*
X59083829Y-105297814D02*
X58940972Y-105440671D01*
X58940972Y-105440671D02*
X58798115Y-105512100D01*
D10*
D11*
X30012400Y-101489600D02*
X138012400Y-101489600D01*
D10*
D12*
X117226685Y-103783528D02*
X116726685Y-103069242D01*
X116369542Y-103783528D02*
X116369542Y-102283528D01*
X116369542Y-102283528D02*
X116940971Y-102283528D01*
X116940971Y-102283528D02*
X117083828Y-102354957D01*
X117083828Y-102354957D02*
X117155257Y-102426385D01*
X117155257Y-102426385D02*
X117226685Y-102569242D01*
X117226685Y-102569242D02*
X117226685Y-102783528D01*
X117226685Y-102783528D02*
X117155257Y-102926385D01*
X117155257Y-102926385D02*
X117083828Y-102997814D01*
X117083828Y-102997814D02*
X116940971Y-103069242D01*
X116940971Y-103069242D02*
X116369542Y-103069242D01*
X118440971Y-103712100D02*
X118298114Y-103783528D01*
X118298114Y-103783528D02*
X118012400Y-103783528D01*
X118012400Y-103783528D02*
X117869542Y-103712100D01*
X117869542Y-103712100D02*
X117798114Y-103569242D01*
X117798114Y-103569242D02*
X117798114Y-102997814D01*
X117798114Y-102997814D02*
X117869542Y-102854957D01*
X117869542Y-102854957D02*
X118012400Y-102783528D01*
X118012400Y-102783528D02*
X118298114Y-102783528D01*
X118298114Y-102783528D02*
X118440971Y-102854957D01*
X118440971Y-102854957D02*
X118512400Y-102997814D01*
X118512400Y-102997814D02*
X118512400Y-103140671D01*
X118512400Y-103140671D02*
X117798114Y-103283528D01*
X119012399Y-102783528D02*
X119369542Y-103783528D01*
X119369542Y-103783528D02*
X119726685Y-102783528D01*
X120298113Y-103640671D02*
X120369542Y-103712100D01*
X120369542Y-103712100D02*
X120298113Y-103783528D01*
X120298113Y-103783528D02*
X120226685Y-103712100D01*
X120226685Y-103712100D02*
X120298113Y-103640671D01*
X120298113Y-103640671D02*
X120298113Y-103783528D01*
X120298113Y-102854957D02*
X120369542Y-102926385D01*
X120369542Y-102926385D02*
X120298113Y-102997814D01*
X120298113Y-102997814D02*
X120226685Y-102926385D01*
X120226685Y-102926385D02*
X120298113Y-102854957D01*
X120298113Y-102854957D02*
X120298113Y-102997814D01*
X122940971Y-103783528D02*
X122083828Y-103783528D01*
X122512399Y-103783528D02*
X122512399Y-102283528D01*
X122512399Y-102283528D02*
X122369542Y-102497814D01*
X122369542Y-102497814D02*
X122226685Y-102640671D01*
X122226685Y-102640671D02*
X122083828Y-102712100D01*
D10*
D11*
X31298114Y-103712100D02*
X31512400Y-103783528D01*
X31512400Y-103783528D02*
X31869542Y-103783528D01*
X31869542Y-103783528D02*
X32012400Y-103712100D01*
X32012400Y-103712100D02*
X32083828Y-103640671D01*
X32083828Y-103640671D02*
X32155257Y-103497814D01*
X32155257Y-103497814D02*
X32155257Y-103354957D01*
X32155257Y-103354957D02*
X32083828Y-103212100D01*
X32083828Y-103212100D02*
X32012400Y-103140671D01*
X32012400Y-103140671D02*
X31869542Y-103069242D01*
X31869542Y-103069242D02*
X31583828Y-102997814D01*
X31583828Y-102997814D02*
X31440971Y-102926385D01*
X31440971Y-102926385D02*
X31369542Y-102854957D01*
X31369542Y-102854957D02*
X31298114Y-102712100D01*
X31298114Y-102712100D02*
X31298114Y-102569242D01*
X31298114Y-102569242D02*
X31369542Y-102426385D01*
X31369542Y-102426385D02*
X31440971Y-102354957D01*
X31440971Y-102354957D02*
X31583828Y-102283528D01*
X31583828Y-102283528D02*
X31940971Y-102283528D01*
X31940971Y-102283528D02*
X32155257Y-102354957D01*
X32798113Y-103783528D02*
X32798113Y-102783528D01*
X32798113Y-102283528D02*
X32726685Y-102354957D01*
X32726685Y-102354957D02*
X32798113Y-102426385D01*
X32798113Y-102426385D02*
X32869542Y-102354957D01*
X32869542Y-102354957D02*
X32798113Y-102283528D01*
X32798113Y-102283528D02*
X32798113Y-102426385D01*
X33369542Y-102783528D02*
X34155257Y-102783528D01*
X34155257Y-102783528D02*
X33369542Y-103783528D01*
X33369542Y-103783528D02*
X34155257Y-103783528D01*
X35298114Y-103712100D02*
X35155257Y-103783528D01*
X35155257Y-103783528D02*
X34869543Y-103783528D01*
X34869543Y-103783528D02*
X34726685Y-103712100D01*
X34726685Y-103712100D02*
X34655257Y-103569242D01*
X34655257Y-103569242D02*
X34655257Y-102997814D01*
X34655257Y-102997814D02*
X34726685Y-102854957D01*
X34726685Y-102854957D02*
X34869543Y-102783528D01*
X34869543Y-102783528D02*
X35155257Y-102783528D01*
X35155257Y-102783528D02*
X35298114Y-102854957D01*
X35298114Y-102854957D02*
X35369543Y-102997814D01*
X35369543Y-102997814D02*
X35369543Y-103140671D01*
X35369543Y-103140671D02*
X34655257Y-103283528D01*
X36012399Y-103640671D02*
X36083828Y-103712100D01*
X36083828Y-103712100D02*
X36012399Y-103783528D01*
X36012399Y-103783528D02*
X35940971Y-103712100D01*
X35940971Y-103712100D02*
X36012399Y-103640671D01*
X36012399Y-103640671D02*
X36012399Y-103783528D01*
X36012399Y-102854957D02*
X36083828Y-102926385D01*
X36083828Y-102926385D02*
X36012399Y-102997814D01*
X36012399Y-102997814D02*
X35940971Y-102926385D01*
X35940971Y-102926385D02*
X36012399Y-102854957D01*
X36012399Y-102854957D02*
X36012399Y-102997814D01*
X37869542Y-102283528D02*
X37869542Y-103497814D01*
X37869542Y-103497814D02*
X37940971Y-103640671D01*
X37940971Y-103640671D02*
X38012400Y-103712100D01*
X38012400Y-103712100D02*
X38155257Y-103783528D01*
X38155257Y-103783528D02*
X38440971Y-103783528D01*
X38440971Y-103783528D02*
X38583828Y-103712100D01*
X38583828Y-103712100D02*
X38655257Y-103640671D01*
X38655257Y-103640671D02*
X38726685Y-103497814D01*
X38726685Y-103497814D02*
X38726685Y-102283528D01*
X39369543Y-103712100D02*
X39512400Y-103783528D01*
X39512400Y-103783528D02*
X39798114Y-103783528D01*
X39798114Y-103783528D02*
X39940971Y-103712100D01*
X39940971Y-103712100D02*
X40012400Y-103569242D01*
X40012400Y-103569242D02*
X40012400Y-103497814D01*
X40012400Y-103497814D02*
X39940971Y-103354957D01*
X39940971Y-103354957D02*
X39798114Y-103283528D01*
X39798114Y-103283528D02*
X39583829Y-103283528D01*
X39583829Y-103283528D02*
X39440971Y-103212100D01*
X39440971Y-103212100D02*
X39369543Y-103069242D01*
X39369543Y-103069242D02*
X39369543Y-102997814D01*
X39369543Y-102997814D02*
X39440971Y-102854957D01*
X39440971Y-102854957D02*
X39583829Y-102783528D01*
X39583829Y-102783528D02*
X39798114Y-102783528D01*
X39798114Y-102783528D02*
X39940971Y-102854957D01*
X41226686Y-103712100D02*
X41083829Y-103783528D01*
X41083829Y-103783528D02*
X40798115Y-103783528D01*
X40798115Y-103783528D02*
X40655257Y-103712100D01*
X40655257Y-103712100D02*
X40583829Y-103569242D01*
X40583829Y-103569242D02*
X40583829Y-102997814D01*
X40583829Y-102997814D02*
X40655257Y-102854957D01*
X40655257Y-102854957D02*
X40798115Y-102783528D01*
X40798115Y-102783528D02*
X41083829Y-102783528D01*
X41083829Y-102783528D02*
X41226686Y-102854957D01*
X41226686Y-102854957D02*
X41298115Y-102997814D01*
X41298115Y-102997814D02*
X41298115Y-103140671D01*
X41298115Y-103140671D02*
X40583829Y-103283528D01*
X41940971Y-103783528D02*
X41940971Y-102783528D01*
X41940971Y-103069242D02*
X42012400Y-102926385D01*
X42012400Y-102926385D02*
X42083829Y-102854957D01*
X42083829Y-102854957D02*
X42226686Y-102783528D01*
X42226686Y-102783528D02*
X42369543Y-102783528D01*
D10*
D11*
X116369542Y-106583528D02*
X116369542Y-105083528D01*
X117726686Y-106583528D02*
X117726686Y-105083528D01*
X117726686Y-106512100D02*
X117583828Y-106583528D01*
X117583828Y-106583528D02*
X117298114Y-106583528D01*
X117298114Y-106583528D02*
X117155257Y-106512100D01*
X117155257Y-106512100D02*
X117083828Y-106440671D01*
X117083828Y-106440671D02*
X117012400Y-106297814D01*
X117012400Y-106297814D02*
X117012400Y-105869242D01*
X117012400Y-105869242D02*
X117083828Y-105726385D01*
X117083828Y-105726385D02*
X117155257Y-105654957D01*
X117155257Y-105654957D02*
X117298114Y-105583528D01*
X117298114Y-105583528D02*
X117583828Y-105583528D01*
X117583828Y-105583528D02*
X117726686Y-105654957D01*
X118440971Y-106440671D02*
X118512400Y-106512100D01*
X118512400Y-106512100D02*
X118440971Y-106583528D01*
X118440971Y-106583528D02*
X118369543Y-106512100D01*
X118369543Y-106512100D02*
X118440971Y-106440671D01*
X118440971Y-106440671D02*
X118440971Y-106583528D01*
X118440971Y-105654957D02*
X118512400Y-105726385D01*
X118512400Y-105726385D02*
X118440971Y-105797814D01*
X118440971Y-105797814D02*
X118369543Y-105726385D01*
X118369543Y-105726385D02*
X118440971Y-105654957D01*
X118440971Y-105654957D02*
X118440971Y-105797814D01*
X121083829Y-106583528D02*
X120226686Y-106583528D01*
X120655257Y-106583528D02*
X120655257Y-105083528D01*
X120655257Y-105083528D02*
X120512400Y-105297814D01*
X120512400Y-105297814D02*
X120369543Y-105440671D01*
X120369543Y-105440671D02*
X120226686Y-105512100D01*
X122798114Y-105012100D02*
X121512400Y-106940671D01*
X124083829Y-106583528D02*
X123226686Y-106583528D01*
X123655257Y-106583528D02*
X123655257Y-105083528D01*
X123655257Y-105083528D02*
X123512400Y-105297814D01*
X123512400Y-105297814D02*
X123369543Y-105440671D01*
X123369543Y-105440671D02*
X123226686Y-105512100D01*
D10*
D11*
X30012400Y-97489600D02*
X138012400Y-97489600D01*
D10*
D13*
X31440971Y-98214838D02*
X32583828Y-98214838D01*
X31762400Y-100214838D02*
X32012400Y-98214838D01*
X32988590Y-100214838D02*
X33155257Y-98881504D01*
X33238590Y-98214838D02*
X33131447Y-98310076D01*
X33131447Y-98310076D02*
X33214781Y-98405314D01*
X33214781Y-98405314D02*
X33321924Y-98310076D01*
X33321924Y-98310076D02*
X33238590Y-98214838D01*
X33238590Y-98214838D02*
X33214781Y-98405314D01*
X33810019Y-98881504D02*
X34571923Y-98881504D01*
X34179066Y-98214838D02*
X33964781Y-99929123D01*
X33964781Y-99929123D02*
X34036209Y-100119600D01*
X34036209Y-100119600D02*
X34214781Y-100214838D01*
X34214781Y-100214838D02*
X34405257Y-100214838D01*
X35345733Y-100214838D02*
X35167161Y-100119600D01*
X35167161Y-100119600D02*
X35095733Y-99929123D01*
X35095733Y-99929123D02*
X35310018Y-98214838D01*
X36869542Y-100119600D02*
X36667161Y-100214838D01*
X36667161Y-100214838D02*
X36286208Y-100214838D01*
X36286208Y-100214838D02*
X36107637Y-100119600D01*
X36107637Y-100119600D02*
X36036208Y-99929123D01*
X36036208Y-99929123D02*
X36131447Y-99167219D01*
X36131447Y-99167219D02*
X36250494Y-98976742D01*
X36250494Y-98976742D02*
X36452875Y-98881504D01*
X36452875Y-98881504D02*
X36833827Y-98881504D01*
X36833827Y-98881504D02*
X37012399Y-98976742D01*
X37012399Y-98976742D02*
X37083827Y-99167219D01*
X37083827Y-99167219D02*
X37060018Y-99357695D01*
X37060018Y-99357695D02*
X36083827Y-99548171D01*
X37821923Y-100024361D02*
X37905256Y-100119600D01*
X37905256Y-100119600D02*
X37798113Y-100214838D01*
X37798113Y-100214838D02*
X37714780Y-100119600D01*
X37714780Y-100119600D02*
X37821923Y-100024361D01*
X37821923Y-100024361D02*
X37798113Y-100214838D01*
X37952875Y-98976742D02*
X38036208Y-99071980D01*
X38036208Y-99071980D02*
X37929066Y-99167219D01*
X37929066Y-99167219D02*
X37845732Y-99071980D01*
X37845732Y-99071980D02*
X37952875Y-98976742D01*
X37952875Y-98976742D02*
X37929066Y-99167219D01*
X41405256Y-100214838D02*
X40857637Y-99262457D01*
X40262399Y-100214838D02*
X40512399Y-98214838D01*
X40512399Y-98214838D02*
X41274304Y-98214838D01*
X41274304Y-98214838D02*
X41452875Y-98310076D01*
X41452875Y-98310076D02*
X41536209Y-98405314D01*
X41536209Y-98405314D02*
X41607637Y-98595790D01*
X41607637Y-98595790D02*
X41571923Y-98881504D01*
X41571923Y-98881504D02*
X41452875Y-99071980D01*
X41452875Y-99071980D02*
X41345733Y-99167219D01*
X41345733Y-99167219D02*
X41143352Y-99262457D01*
X41143352Y-99262457D02*
X40381447Y-99262457D01*
X42381447Y-99167219D02*
X43048113Y-99167219D01*
X43202875Y-100214838D02*
X42250494Y-100214838D01*
X42250494Y-100214838D02*
X42500494Y-98214838D01*
X42500494Y-98214838D02*
X43452875Y-98214838D01*
X44048113Y-100214838D02*
X44298113Y-98214838D01*
X44298113Y-98214838D02*
X45190970Y-100214838D01*
X45190970Y-100214838D02*
X45440970Y-98214838D01*
X46929065Y-99167219D02*
X46262399Y-99167219D01*
X46131446Y-100214838D02*
X46381446Y-98214838D01*
X46381446Y-98214838D02*
X47333827Y-98214838D01*
X48464780Y-98214838D02*
X48845732Y-98214838D01*
X48845732Y-98214838D02*
X49024303Y-98310076D01*
X49024303Y-98310076D02*
X49190970Y-98500552D01*
X49190970Y-98500552D02*
X49238589Y-98881504D01*
X49238589Y-98881504D02*
X49155256Y-99548171D01*
X49155256Y-99548171D02*
X49012399Y-99929123D01*
X49012399Y-99929123D02*
X48798113Y-100119600D01*
X48798113Y-100119600D02*
X48595732Y-100214838D01*
X48595732Y-100214838D02*
X48214780Y-100214838D01*
X48214780Y-100214838D02*
X48036208Y-100119600D01*
X48036208Y-100119600D02*
X47869542Y-99929123D01*
X47869542Y-99929123D02*
X47821922Y-99548171D01*
X47821922Y-99548171D02*
X47905256Y-98881504D01*
X47905256Y-98881504D02*
X48048113Y-98500552D01*
X48048113Y-98500552D02*
X48262399Y-98310076D01*
X48262399Y-98310076D02*
X48464780Y-98214838D01*
X51060017Y-100214838D02*
X50512398Y-99262457D01*
X49917160Y-100214838D02*
X50167160Y-98214838D01*
X50167160Y-98214838D02*
X50929065Y-98214838D01*
X50929065Y-98214838D02*
X51107636Y-98310076D01*
X51107636Y-98310076D02*
X51190970Y-98405314D01*
X51190970Y-98405314D02*
X51262398Y-98595790D01*
X51262398Y-98595790D02*
X51226684Y-98881504D01*
X51226684Y-98881504D02*
X51107636Y-99071980D01*
X51107636Y-99071980D02*
X51000494Y-99167219D01*
X51000494Y-99167219D02*
X50798113Y-99262457D01*
X50798113Y-99262457D02*
X50036208Y-99262457D01*
X53071922Y-100024361D02*
X52964779Y-100119600D01*
X52964779Y-100119600D02*
X52667160Y-100214838D01*
X52667160Y-100214838D02*
X52476684Y-100214838D01*
X52476684Y-100214838D02*
X52202874Y-100119600D01*
X52202874Y-100119600D02*
X52036208Y-99929123D01*
X52036208Y-99929123D02*
X51964779Y-99738647D01*
X51964779Y-99738647D02*
X51917160Y-99357695D01*
X51917160Y-99357695D02*
X51952874Y-99071980D01*
X51952874Y-99071980D02*
X52095731Y-98691028D01*
X52095731Y-98691028D02*
X52214779Y-98500552D01*
X52214779Y-98500552D02*
X52429065Y-98310076D01*
X52429065Y-98310076D02*
X52726684Y-98214838D01*
X52726684Y-98214838D02*
X52917160Y-98214838D01*
X52917160Y-98214838D02*
X53190970Y-98310076D01*
X53190970Y-98310076D02*
X53274303Y-98405314D01*
X54024303Y-99167219D02*
X54690969Y-99167219D01*
X54845731Y-100214838D02*
X53893350Y-100214838D01*
X53893350Y-100214838D02*
X54143350Y-98214838D01*
X54143350Y-98214838D02*
X55095731Y-98214838D01*
X57310017Y-99452933D02*
X58833827Y-99452933D01*
X61345732Y-99167219D02*
X62012398Y-99167219D01*
X62167160Y-100214838D02*
X61214779Y-100214838D01*
X61214779Y-100214838D02*
X61464779Y-98214838D01*
X61464779Y-98214838D02*
X62417160Y-98214838D01*
X64179065Y-100024361D02*
X64071922Y-100119600D01*
X64071922Y-100119600D02*
X63774303Y-100214838D01*
X63774303Y-100214838D02*
X63583827Y-100214838D01*
X63583827Y-100214838D02*
X63310017Y-100119600D01*
X63310017Y-100119600D02*
X63143351Y-99929123D01*
X63143351Y-99929123D02*
X63071922Y-99738647D01*
X63071922Y-99738647D02*
X63024303Y-99357695D01*
X63024303Y-99357695D02*
X63060017Y-99071980D01*
X63060017Y-99071980D02*
X63202874Y-98691028D01*
X63202874Y-98691028D02*
X63321922Y-98500552D01*
X63321922Y-98500552D02*
X63536208Y-98310076D01*
X63536208Y-98310076D02*
X63833827Y-98214838D01*
X63833827Y-98214838D02*
X64024303Y-98214838D01*
X64024303Y-98214838D02*
X64298113Y-98310076D01*
X64298113Y-98310076D02*
X64381446Y-98405314D01*
X66286208Y-98310076D02*
X66107636Y-98214838D01*
X66107636Y-98214838D02*
X65821922Y-98214838D01*
X65821922Y-98214838D02*
X65524303Y-98310076D01*
X65524303Y-98310076D02*
X65310017Y-98500552D01*
X65310017Y-98500552D02*
X65190969Y-98691028D01*
X65190969Y-98691028D02*
X65048112Y-99071980D01*
X65048112Y-99071980D02*
X65012398Y-99357695D01*
X65012398Y-99357695D02*
X65060017Y-99738647D01*
X65060017Y-99738647D02*
X65131446Y-99929123D01*
X65131446Y-99929123D02*
X65298112Y-100119600D01*
X65298112Y-100119600D02*
X65571922Y-100214838D01*
X65571922Y-100214838D02*
X65762398Y-100214838D01*
X65762398Y-100214838D02*
X66060017Y-100119600D01*
X66060017Y-100119600D02*
X66167160Y-100024361D01*
X66167160Y-100024361D02*
X66250493Y-99357695D01*
X66250493Y-99357695D02*
X65869541Y-99357695D01*
X68429065Y-100119600D02*
X68702874Y-100214838D01*
X68702874Y-100214838D02*
X69179065Y-100214838D01*
X69179065Y-100214838D02*
X69381446Y-100119600D01*
X69381446Y-100119600D02*
X69488589Y-100024361D01*
X69488589Y-100024361D02*
X69607636Y-99833885D01*
X69607636Y-99833885D02*
X69631446Y-99643409D01*
X69631446Y-99643409D02*
X69560017Y-99452933D01*
X69560017Y-99452933D02*
X69476684Y-99357695D01*
X69476684Y-99357695D02*
X69298113Y-99262457D01*
X69298113Y-99262457D02*
X68929065Y-99167219D01*
X68929065Y-99167219D02*
X68750493Y-99071980D01*
X68750493Y-99071980D02*
X68667160Y-98976742D01*
X68667160Y-98976742D02*
X68595732Y-98786266D01*
X68595732Y-98786266D02*
X68619541Y-98595790D01*
X68619541Y-98595790D02*
X68738589Y-98405314D01*
X68738589Y-98405314D02*
X68845732Y-98310076D01*
X68845732Y-98310076D02*
X69048113Y-98214838D01*
X69048113Y-98214838D02*
X69524303Y-98214838D01*
X69524303Y-98214838D02*
X69798113Y-98310076D01*
X71179065Y-100119600D02*
X70976684Y-100214838D01*
X70976684Y-100214838D02*
X70595731Y-100214838D01*
X70595731Y-100214838D02*
X70417160Y-100119600D01*
X70417160Y-100119600D02*
X70345731Y-99929123D01*
X70345731Y-99929123D02*
X70440970Y-99167219D01*
X70440970Y-99167219D02*
X70560017Y-98976742D01*
X70560017Y-98976742D02*
X70762398Y-98881504D01*
X70762398Y-98881504D02*
X71143350Y-98881504D01*
X71143350Y-98881504D02*
X71321922Y-98976742D01*
X71321922Y-98976742D02*
X71393350Y-99167219D01*
X71393350Y-99167219D02*
X71369541Y-99357695D01*
X71369541Y-99357695D02*
X70393350Y-99548171D01*
X72274303Y-98881504D02*
X72107636Y-100214838D01*
X72250493Y-99071980D02*
X72357636Y-98976742D01*
X72357636Y-98976742D02*
X72560017Y-98881504D01*
X72560017Y-98881504D02*
X72845731Y-98881504D01*
X72845731Y-98881504D02*
X73024303Y-98976742D01*
X73024303Y-98976742D02*
X73095731Y-99167219D01*
X73095731Y-99167219D02*
X72964779Y-100214838D01*
X73821922Y-100119600D02*
X74000493Y-100214838D01*
X74000493Y-100214838D02*
X74381446Y-100214838D01*
X74381446Y-100214838D02*
X74583827Y-100119600D01*
X74583827Y-100119600D02*
X74702874Y-99929123D01*
X74702874Y-99929123D02*
X74714779Y-99833885D01*
X74714779Y-99833885D02*
X74643350Y-99643409D01*
X74643350Y-99643409D02*
X74464779Y-99548171D01*
X74464779Y-99548171D02*
X74179065Y-99548171D01*
X74179065Y-99548171D02*
X74000493Y-99452933D01*
X74000493Y-99452933D02*
X73929065Y-99262457D01*
X73929065Y-99262457D02*
X73940970Y-99167219D01*
X73940970Y-99167219D02*
X74060017Y-98976742D01*
X74060017Y-98976742D02*
X74262398Y-98881504D01*
X74262398Y-98881504D02*
X74548112Y-98881504D01*
X74548112Y-98881504D02*
X74726684Y-98976742D01*
X75798113Y-100214838D02*
X75619541Y-100119600D01*
X75619541Y-100119600D02*
X75536208Y-100024361D01*
X75536208Y-100024361D02*
X75464779Y-99833885D01*
X75464779Y-99833885D02*
X75536208Y-99262457D01*
X75536208Y-99262457D02*
X75655255Y-99071980D01*
X75655255Y-99071980D02*
X75762398Y-98976742D01*
X75762398Y-98976742D02*
X75964779Y-98881504D01*
X75964779Y-98881504D02*
X76250493Y-98881504D01*
X76250493Y-98881504D02*
X76429065Y-98976742D01*
X76429065Y-98976742D02*
X76512398Y-99071980D01*
X76512398Y-99071980D02*
X76583827Y-99262457D01*
X76583827Y-99262457D02*
X76512398Y-99833885D01*
X76512398Y-99833885D02*
X76393351Y-100024361D01*
X76393351Y-100024361D02*
X76286208Y-100119600D01*
X76286208Y-100119600D02*
X76083827Y-100214838D01*
X76083827Y-100214838D02*
X75798113Y-100214838D01*
X77310017Y-100214838D02*
X77476684Y-98881504D01*
X77429065Y-99262457D02*
X77548112Y-99071980D01*
X77548112Y-99071980D02*
X77655255Y-98976742D01*
X77655255Y-98976742D02*
X77857636Y-98881504D01*
X77857636Y-98881504D02*
X78048112Y-98881504D01*
D10*
D11*
X31869542Y-95597814D02*
X31369542Y-95597814D01*
X31369542Y-96383528D02*
X31369542Y-94883528D01*
X31369542Y-94883528D02*
X32083828Y-94883528D01*
X32655256Y-96383528D02*
X32655256Y-95383528D01*
X32655256Y-94883528D02*
X32583828Y-94954957D01*
X32583828Y-94954957D02*
X32655256Y-95026385D01*
X32655256Y-95026385D02*
X32726685Y-94954957D01*
X32726685Y-94954957D02*
X32655256Y-94883528D01*
X32655256Y-94883528D02*
X32655256Y-95026385D01*
X33583828Y-96383528D02*
X33440971Y-96312100D01*
X33440971Y-96312100D02*
X33369542Y-96169242D01*
X33369542Y-96169242D02*
X33369542Y-94883528D01*
X34726685Y-96312100D02*
X34583828Y-96383528D01*
X34583828Y-96383528D02*
X34298114Y-96383528D01*
X34298114Y-96383528D02*
X34155256Y-96312100D01*
X34155256Y-96312100D02*
X34083828Y-96169242D01*
X34083828Y-96169242D02*
X34083828Y-95597814D01*
X34083828Y-95597814D02*
X34155256Y-95454957D01*
X34155256Y-95454957D02*
X34298114Y-95383528D01*
X34298114Y-95383528D02*
X34583828Y-95383528D01*
X34583828Y-95383528D02*
X34726685Y-95454957D01*
X34726685Y-95454957D02*
X34798114Y-95597814D01*
X34798114Y-95597814D02*
X34798114Y-95740671D01*
X34798114Y-95740671D02*
X34083828Y-95883528D01*
X35440970Y-96240671D02*
X35512399Y-96312100D01*
X35512399Y-96312100D02*
X35440970Y-96383528D01*
X35440970Y-96383528D02*
X35369542Y-96312100D01*
X35369542Y-96312100D02*
X35440970Y-96240671D01*
X35440970Y-96240671D02*
X35440970Y-96383528D01*
X35440970Y-95454957D02*
X35512399Y-95526385D01*
X35512399Y-95526385D02*
X35440970Y-95597814D01*
X35440970Y-95597814D02*
X35369542Y-95526385D01*
X35369542Y-95526385D02*
X35440970Y-95454957D01*
X35440970Y-95454957D02*
X35440970Y-95597814D01*
X37298113Y-96383528D02*
X37298113Y-95383528D01*
X37298113Y-95669242D02*
X37369542Y-95526385D01*
X37369542Y-95526385D02*
X37440971Y-95454957D01*
X37440971Y-95454957D02*
X37583828Y-95383528D01*
X37583828Y-95383528D02*
X37726685Y-95383528D01*
X38798113Y-96312100D02*
X38655256Y-96383528D01*
X38655256Y-96383528D02*
X38369542Y-96383528D01*
X38369542Y-96383528D02*
X38226684Y-96312100D01*
X38226684Y-96312100D02*
X38155256Y-96169242D01*
X38155256Y-96169242D02*
X38155256Y-95597814D01*
X38155256Y-95597814D02*
X38226684Y-95454957D01*
X38226684Y-95454957D02*
X38369542Y-95383528D01*
X38369542Y-95383528D02*
X38655256Y-95383528D01*
X38655256Y-95383528D02*
X38798113Y-95454957D01*
X38798113Y-95454957D02*
X38869542Y-95597814D01*
X38869542Y-95597814D02*
X38869542Y-95740671D01*
X38869542Y-95740671D02*
X38155256Y-95883528D01*
X39512398Y-95383528D02*
X39512398Y-96383528D01*
X39512398Y-95526385D02*
X39583827Y-95454957D01*
X39583827Y-95454957D02*
X39726684Y-95383528D01*
X39726684Y-95383528D02*
X39940970Y-95383528D01*
X39940970Y-95383528D02*
X40083827Y-95454957D01*
X40083827Y-95454957D02*
X40155256Y-95597814D01*
X40155256Y-95597814D02*
X40155256Y-96383528D01*
X40655256Y-95383528D02*
X41226684Y-95383528D01*
X40869541Y-96383528D02*
X40869541Y-95097814D01*
X40869541Y-95097814D02*
X40940970Y-94954957D01*
X40940970Y-94954957D02*
X41083827Y-94883528D01*
X41083827Y-94883528D02*
X41226684Y-94883528D01*
X41940970Y-96383528D02*
X41798113Y-96312100D01*
X41798113Y-96312100D02*
X41726684Y-96240671D01*
X41726684Y-96240671D02*
X41655256Y-96097814D01*
X41655256Y-96097814D02*
X41655256Y-95669242D01*
X41655256Y-95669242D02*
X41726684Y-95526385D01*
X41726684Y-95526385D02*
X41798113Y-95454957D01*
X41798113Y-95454957D02*
X41940970Y-95383528D01*
X41940970Y-95383528D02*
X42155256Y-95383528D01*
X42155256Y-95383528D02*
X42298113Y-95454957D01*
X42298113Y-95454957D02*
X42369542Y-95526385D01*
X42369542Y-95526385D02*
X42440970Y-95669242D01*
X42440970Y-95669242D02*
X42440970Y-96097814D01*
X42440970Y-96097814D02*
X42369542Y-96240671D01*
X42369542Y-96240671D02*
X42298113Y-96312100D01*
X42298113Y-96312100D02*
X42155256Y-96383528D01*
X42155256Y-96383528D02*
X41940970Y-96383528D01*
X43083827Y-96383528D02*
X43083827Y-95383528D01*
X43083827Y-95669242D02*
X43155256Y-95526385D01*
X43155256Y-95526385D02*
X43226685Y-95454957D01*
X43226685Y-95454957D02*
X43369542Y-95383528D01*
X43369542Y-95383528D02*
X43512399Y-95383528D01*
X44655256Y-96312100D02*
X44512398Y-96383528D01*
X44512398Y-96383528D02*
X44226684Y-96383528D01*
X44226684Y-96383528D02*
X44083827Y-96312100D01*
X44083827Y-96312100D02*
X44012398Y-96240671D01*
X44012398Y-96240671D02*
X43940970Y-96097814D01*
X43940970Y-96097814D02*
X43940970Y-95669242D01*
X43940970Y-95669242D02*
X44012398Y-95526385D01*
X44012398Y-95526385D02*
X44083827Y-95454957D01*
X44083827Y-95454957D02*
X44226684Y-95383528D01*
X44226684Y-95383528D02*
X44512398Y-95383528D01*
X44512398Y-95383528D02*
X44655256Y-95454957D01*
X45869541Y-96312100D02*
X45726684Y-96383528D01*
X45726684Y-96383528D02*
X45440970Y-96383528D01*
X45440970Y-96383528D02*
X45298112Y-96312100D01*
X45298112Y-96312100D02*
X45226684Y-96169242D01*
X45226684Y-96169242D02*
X45226684Y-95597814D01*
X45226684Y-95597814D02*
X45298112Y-95454957D01*
X45298112Y-95454957D02*
X45440970Y-95383528D01*
X45440970Y-95383528D02*
X45726684Y-95383528D01*
X45726684Y-95383528D02*
X45869541Y-95454957D01*
X45869541Y-95454957D02*
X45940970Y-95597814D01*
X45940970Y-95597814D02*
X45940970Y-95740671D01*
X45940970Y-95740671D02*
X45226684Y-95883528D01*
X46583826Y-95812100D02*
X47726684Y-95812100D01*
X49012398Y-96312100D02*
X48869541Y-96383528D01*
X48869541Y-96383528D02*
X48583827Y-96383528D01*
X48583827Y-96383528D02*
X48440969Y-96312100D01*
X48440969Y-96312100D02*
X48369541Y-96169242D01*
X48369541Y-96169242D02*
X48369541Y-95597814D01*
X48369541Y-95597814D02*
X48440969Y-95454957D01*
X48440969Y-95454957D02*
X48583827Y-95383528D01*
X48583827Y-95383528D02*
X48869541Y-95383528D01*
X48869541Y-95383528D02*
X49012398Y-95454957D01*
X49012398Y-95454957D02*
X49083827Y-95597814D01*
X49083827Y-95597814D02*
X49083827Y-95740671D01*
X49083827Y-95740671D02*
X48369541Y-95883528D01*
X50369541Y-96312100D02*
X50226683Y-96383528D01*
X50226683Y-96383528D02*
X49940969Y-96383528D01*
X49940969Y-96383528D02*
X49798112Y-96312100D01*
X49798112Y-96312100D02*
X49726683Y-96240671D01*
X49726683Y-96240671D02*
X49655255Y-96097814D01*
X49655255Y-96097814D02*
X49655255Y-95669242D01*
X49655255Y-95669242D02*
X49726683Y-95526385D01*
X49726683Y-95526385D02*
X49798112Y-95454957D01*
X49798112Y-95454957D02*
X49940969Y-95383528D01*
X49940969Y-95383528D02*
X50226683Y-95383528D01*
X50226683Y-95383528D02*
X50369541Y-95454957D01*
X51655255Y-95383528D02*
X51655255Y-96597814D01*
X51655255Y-96597814D02*
X51583826Y-96740671D01*
X51583826Y-96740671D02*
X51512397Y-96812100D01*
X51512397Y-96812100D02*
X51369540Y-96883528D01*
X51369540Y-96883528D02*
X51155255Y-96883528D01*
X51155255Y-96883528D02*
X51012397Y-96812100D01*
X51655255Y-96312100D02*
X51512397Y-96383528D01*
X51512397Y-96383528D02*
X51226683Y-96383528D01*
X51226683Y-96383528D02*
X51083826Y-96312100D01*
X51083826Y-96312100D02*
X51012397Y-96240671D01*
X51012397Y-96240671D02*
X50940969Y-96097814D01*
X50940969Y-96097814D02*
X50940969Y-95669242D01*
X50940969Y-95669242D02*
X51012397Y-95526385D01*
X51012397Y-95526385D02*
X51083826Y-95454957D01*
X51083826Y-95454957D02*
X51226683Y-95383528D01*
X51226683Y-95383528D02*
X51512397Y-95383528D01*
X51512397Y-95383528D02*
X51655255Y-95454957D01*
X52369540Y-96240671D02*
X52440969Y-96312100D01*
X52440969Y-96312100D02*
X52369540Y-96383528D01*
X52369540Y-96383528D02*
X52298112Y-96312100D01*
X52298112Y-96312100D02*
X52369540Y-96240671D01*
X52369540Y-96240671D02*
X52369540Y-96383528D01*
X53083826Y-96383528D02*
X53083826Y-94883528D01*
X53226684Y-95812100D02*
X53655255Y-96383528D01*
X53655255Y-95383528D02*
X53083826Y-95954957D01*
X54298112Y-96383528D02*
X54298112Y-95383528D01*
X54298112Y-94883528D02*
X54226684Y-94954957D01*
X54226684Y-94954957D02*
X54298112Y-95026385D01*
X54298112Y-95026385D02*
X54369541Y-94954957D01*
X54369541Y-94954957D02*
X54298112Y-94883528D01*
X54298112Y-94883528D02*
X54298112Y-95026385D01*
X55655256Y-96312100D02*
X55512398Y-96383528D01*
X55512398Y-96383528D02*
X55226684Y-96383528D01*
X55226684Y-96383528D02*
X55083827Y-96312100D01*
X55083827Y-96312100D02*
X55012398Y-96240671D01*
X55012398Y-96240671D02*
X54940970Y-96097814D01*
X54940970Y-96097814D02*
X54940970Y-95669242D01*
X54940970Y-95669242D02*
X55012398Y-95526385D01*
X55012398Y-95526385D02*
X55083827Y-95454957D01*
X55083827Y-95454957D02*
X55226684Y-95383528D01*
X55226684Y-95383528D02*
X55512398Y-95383528D01*
X55512398Y-95383528D02*
X55655256Y-95454957D01*
X56940970Y-96383528D02*
X56940970Y-95597814D01*
X56940970Y-95597814D02*
X56869541Y-95454957D01*
X56869541Y-95454957D02*
X56726684Y-95383528D01*
X56726684Y-95383528D02*
X56440970Y-95383528D01*
X56440970Y-95383528D02*
X56298112Y-95454957D01*
X56940970Y-96312100D02*
X56798112Y-96383528D01*
X56798112Y-96383528D02*
X56440970Y-96383528D01*
X56440970Y-96383528D02*
X56298112Y-96312100D01*
X56298112Y-96312100D02*
X56226684Y-96169242D01*
X56226684Y-96169242D02*
X56226684Y-96026385D01*
X56226684Y-96026385D02*
X56298112Y-95883528D01*
X56298112Y-95883528D02*
X56440970Y-95812100D01*
X56440970Y-95812100D02*
X56798112Y-95812100D01*
X56798112Y-95812100D02*
X56940970Y-95740671D01*
X58298113Y-96383528D02*
X58298113Y-94883528D01*
X58298113Y-96312100D02*
X58155255Y-96383528D01*
X58155255Y-96383528D02*
X57869541Y-96383528D01*
X57869541Y-96383528D02*
X57726684Y-96312100D01*
X57726684Y-96312100D02*
X57655255Y-96240671D01*
X57655255Y-96240671D02*
X57583827Y-96097814D01*
X57583827Y-96097814D02*
X57583827Y-95669242D01*
X57583827Y-95669242D02*
X57655255Y-95526385D01*
X57655255Y-95526385D02*
X57726684Y-95454957D01*
X57726684Y-95454957D02*
X57869541Y-95383528D01*
X57869541Y-95383528D02*
X58155255Y-95383528D01*
X58155255Y-95383528D02*
X58298113Y-95454957D01*
X58655256Y-96526385D02*
X59798113Y-96526385D01*
X60155255Y-95383528D02*
X60155255Y-96883528D01*
X60155255Y-95454957D02*
X60298113Y-95383528D01*
X60298113Y-95383528D02*
X60583827Y-95383528D01*
X60583827Y-95383528D02*
X60726684Y-95454957D01*
X60726684Y-95454957D02*
X60798113Y-95526385D01*
X60798113Y-95526385D02*
X60869541Y-95669242D01*
X60869541Y-95669242D02*
X60869541Y-96097814D01*
X60869541Y-96097814D02*
X60798113Y-96240671D01*
X60798113Y-96240671D02*
X60726684Y-96312100D01*
X60726684Y-96312100D02*
X60583827Y-96383528D01*
X60583827Y-96383528D02*
X60298113Y-96383528D01*
X60298113Y-96383528D02*
X60155255Y-96312100D01*
X62155256Y-96312100D02*
X62012398Y-96383528D01*
X62012398Y-96383528D02*
X61726684Y-96383528D01*
X61726684Y-96383528D02*
X61583827Y-96312100D01*
X61583827Y-96312100D02*
X61512398Y-96240671D01*
X61512398Y-96240671D02*
X61440970Y-96097814D01*
X61440970Y-96097814D02*
X61440970Y-95669242D01*
X61440970Y-95669242D02*
X61512398Y-95526385D01*
X61512398Y-95526385D02*
X61583827Y-95454957D01*
X61583827Y-95454957D02*
X61726684Y-95383528D01*
X61726684Y-95383528D02*
X62012398Y-95383528D01*
X62012398Y-95383528D02*
X62155256Y-95454957D01*
X62798112Y-96383528D02*
X62798112Y-94883528D01*
X62798112Y-95454957D02*
X62940970Y-95383528D01*
X62940970Y-95383528D02*
X63226684Y-95383528D01*
X63226684Y-95383528D02*
X63369541Y-95454957D01*
X63369541Y-95454957D02*
X63440970Y-95526385D01*
X63440970Y-95526385D02*
X63512398Y-95669242D01*
X63512398Y-95669242D02*
X63512398Y-96097814D01*
X63512398Y-96097814D02*
X63440970Y-96240671D01*
X63440970Y-96240671D02*
X63369541Y-96312100D01*
X63369541Y-96312100D02*
X63226684Y-96383528D01*
X63226684Y-96383528D02*
X62940970Y-96383528D01*
X62940970Y-96383528D02*
X62798112Y-96312100D01*
D10*
D11*
X30012400Y-91489600D02*
X138012400Y-91489600D01*
D10*
D11*
X31298114Y-93612100D02*
X31512400Y-93683528D01*
X31512400Y-93683528D02*
X31869542Y-93683528D01*
X31869542Y-93683528D02*
X32012400Y-93612100D01*
X32012400Y-93612100D02*
X32083828Y-93540671D01*
X32083828Y-93540671D02*
X32155257Y-93397814D01*
X32155257Y-93397814D02*
X32155257Y-93254957D01*
X32155257Y-93254957D02*
X32083828Y-93112100D01*
X32083828Y-93112100D02*
X32012400Y-93040671D01*
X32012400Y-93040671D02*
X31869542Y-92969242D01*
X31869542Y-92969242D02*
X31583828Y-92897814D01*
X31583828Y-92897814D02*
X31440971Y-92826385D01*
X31440971Y-92826385D02*
X31369542Y-92754957D01*
X31369542Y-92754957D02*
X31298114Y-92612100D01*
X31298114Y-92612100D02*
X31298114Y-92469242D01*
X31298114Y-92469242D02*
X31369542Y-92326385D01*
X31369542Y-92326385D02*
X31440971Y-92254957D01*
X31440971Y-92254957D02*
X31583828Y-92183528D01*
X31583828Y-92183528D02*
X31940971Y-92183528D01*
X31940971Y-92183528D02*
X32155257Y-92254957D01*
X32798113Y-93683528D02*
X32798113Y-92183528D01*
X33440971Y-93683528D02*
X33440971Y-92897814D01*
X33440971Y-92897814D02*
X33369542Y-92754957D01*
X33369542Y-92754957D02*
X33226685Y-92683528D01*
X33226685Y-92683528D02*
X33012399Y-92683528D01*
X33012399Y-92683528D02*
X32869542Y-92754957D01*
X32869542Y-92754957D02*
X32798113Y-92826385D01*
X34726685Y-93612100D02*
X34583828Y-93683528D01*
X34583828Y-93683528D02*
X34298114Y-93683528D01*
X34298114Y-93683528D02*
X34155256Y-93612100D01*
X34155256Y-93612100D02*
X34083828Y-93469242D01*
X34083828Y-93469242D02*
X34083828Y-92897814D01*
X34083828Y-92897814D02*
X34155256Y-92754957D01*
X34155256Y-92754957D02*
X34298114Y-92683528D01*
X34298114Y-92683528D02*
X34583828Y-92683528D01*
X34583828Y-92683528D02*
X34726685Y-92754957D01*
X34726685Y-92754957D02*
X34798114Y-92897814D01*
X34798114Y-92897814D02*
X34798114Y-93040671D01*
X34798114Y-93040671D02*
X34083828Y-93183528D01*
X36012399Y-93612100D02*
X35869542Y-93683528D01*
X35869542Y-93683528D02*
X35583828Y-93683528D01*
X35583828Y-93683528D02*
X35440970Y-93612100D01*
X35440970Y-93612100D02*
X35369542Y-93469242D01*
X35369542Y-93469242D02*
X35369542Y-92897814D01*
X35369542Y-92897814D02*
X35440970Y-92754957D01*
X35440970Y-92754957D02*
X35583828Y-92683528D01*
X35583828Y-92683528D02*
X35869542Y-92683528D01*
X35869542Y-92683528D02*
X36012399Y-92754957D01*
X36012399Y-92754957D02*
X36083828Y-92897814D01*
X36083828Y-92897814D02*
X36083828Y-93040671D01*
X36083828Y-93040671D02*
X35369542Y-93183528D01*
X36512399Y-92683528D02*
X37083827Y-92683528D01*
X36726684Y-92183528D02*
X36726684Y-93469242D01*
X36726684Y-93469242D02*
X36798113Y-93612100D01*
X36798113Y-93612100D02*
X36940970Y-93683528D01*
X36940970Y-93683528D02*
X37083827Y-93683528D01*
X37583827Y-93540671D02*
X37655256Y-93612100D01*
X37655256Y-93612100D02*
X37583827Y-93683528D01*
X37583827Y-93683528D02*
X37512399Y-93612100D01*
X37512399Y-93612100D02*
X37583827Y-93540671D01*
X37583827Y-93540671D02*
X37583827Y-93683528D01*
X37583827Y-92754957D02*
X37655256Y-92826385D01*
X37655256Y-92826385D02*
X37583827Y-92897814D01*
X37583827Y-92897814D02*
X37512399Y-92826385D01*
X37512399Y-92826385D02*
X37583827Y-92754957D01*
X37583827Y-92754957D02*
X37583827Y-92897814D01*
D10*
D12*
D10*
D11*
X32226685Y-87540671D02*
X32155257Y-87612100D01*
X32155257Y-87612100D02*
X31940971Y-87683528D01*
X31940971Y-87683528D02*
X31798114Y-87683528D01*
X31798114Y-87683528D02*
X31583828Y-87612100D01*
X31583828Y-87612100D02*
X31440971Y-87469242D01*
X31440971Y-87469242D02*
X31369542Y-87326385D01*
X31369542Y-87326385D02*
X31298114Y-87040671D01*
X31298114Y-87040671D02*
X31298114Y-86826385D01*
X31298114Y-86826385D02*
X31369542Y-86540671D01*
X31369542Y-86540671D02*
X31440971Y-86397814D01*
X31440971Y-86397814D02*
X31583828Y-86254957D01*
X31583828Y-86254957D02*
X31798114Y-86183528D01*
X31798114Y-86183528D02*
X31940971Y-86183528D01*
X31940971Y-86183528D02*
X32155257Y-86254957D01*
X32155257Y-86254957D02*
X32226685Y-86326385D01*
X33083828Y-87683528D02*
X32940971Y-87612100D01*
X32940971Y-87612100D02*
X32869542Y-87540671D01*
X32869542Y-87540671D02*
X32798114Y-87397814D01*
X32798114Y-87397814D02*
X32798114Y-86969242D01*
X32798114Y-86969242D02*
X32869542Y-86826385D01*
X32869542Y-86826385D02*
X32940971Y-86754957D01*
X32940971Y-86754957D02*
X33083828Y-86683528D01*
X33083828Y-86683528D02*
X33298114Y-86683528D01*
X33298114Y-86683528D02*
X33440971Y-86754957D01*
X33440971Y-86754957D02*
X33512400Y-86826385D01*
X33512400Y-86826385D02*
X33583828Y-86969242D01*
X33583828Y-86969242D02*
X33583828Y-87397814D01*
X33583828Y-87397814D02*
X33512400Y-87540671D01*
X33512400Y-87540671D02*
X33440971Y-87612100D01*
X33440971Y-87612100D02*
X33298114Y-87683528D01*
X33298114Y-87683528D02*
X33083828Y-87683528D01*
X34226685Y-86683528D02*
X34226685Y-88183528D01*
X34226685Y-86754957D02*
X34369543Y-86683528D01*
X34369543Y-86683528D02*
X34655257Y-86683528D01*
X34655257Y-86683528D02*
X34798114Y-86754957D01*
X34798114Y-86754957D02*
X34869543Y-86826385D01*
X34869543Y-86826385D02*
X34940971Y-86969242D01*
X34940971Y-86969242D02*
X34940971Y-87397814D01*
X34940971Y-87397814D02*
X34869543Y-87540671D01*
X34869543Y-87540671D02*
X34798114Y-87612100D01*
X34798114Y-87612100D02*
X34655257Y-87683528D01*
X34655257Y-87683528D02*
X34369543Y-87683528D01*
X34369543Y-87683528D02*
X34226685Y-87612100D01*
X35440971Y-86683528D02*
X35798114Y-87683528D01*
X36155257Y-86683528D02*
X35798114Y-87683528D01*
X35798114Y-87683528D02*
X35655257Y-88040671D01*
X35655257Y-88040671D02*
X35583828Y-88112100D01*
X35583828Y-88112100D02*
X35440971Y-88183528D01*
X36726685Y-87683528D02*
X36726685Y-86683528D01*
X36726685Y-86969242D02*
X36798114Y-86826385D01*
X36798114Y-86826385D02*
X36869543Y-86754957D01*
X36869543Y-86754957D02*
X37012400Y-86683528D01*
X37012400Y-86683528D02*
X37155257Y-86683528D01*
X37655256Y-87683528D02*
X37655256Y-86683528D01*
X37655256Y-86183528D02*
X37583828Y-86254957D01*
X37583828Y-86254957D02*
X37655256Y-86326385D01*
X37655256Y-86326385D02*
X37726685Y-86254957D01*
X37726685Y-86254957D02*
X37655256Y-86183528D01*
X37655256Y-86183528D02*
X37655256Y-86326385D01*
X39012400Y-86683528D02*
X39012400Y-87897814D01*
X39012400Y-87897814D02*
X38940971Y-88040671D01*
X38940971Y-88040671D02*
X38869542Y-88112100D01*
X38869542Y-88112100D02*
X38726685Y-88183528D01*
X38726685Y-88183528D02*
X38512400Y-88183528D01*
X38512400Y-88183528D02*
X38369542Y-88112100D01*
X39012400Y-87612100D02*
X38869542Y-87683528D01*
X38869542Y-87683528D02*
X38583828Y-87683528D01*
X38583828Y-87683528D02*
X38440971Y-87612100D01*
X38440971Y-87612100D02*
X38369542Y-87540671D01*
X38369542Y-87540671D02*
X38298114Y-87397814D01*
X38298114Y-87397814D02*
X38298114Y-86969242D01*
X38298114Y-86969242D02*
X38369542Y-86826385D01*
X38369542Y-86826385D02*
X38440971Y-86754957D01*
X38440971Y-86754957D02*
X38583828Y-86683528D01*
X38583828Y-86683528D02*
X38869542Y-86683528D01*
X38869542Y-86683528D02*
X39012400Y-86754957D01*
X39726685Y-87683528D02*
X39726685Y-86183528D01*
X40369543Y-87683528D02*
X40369543Y-86897814D01*
X40369543Y-86897814D02*
X40298114Y-86754957D01*
X40298114Y-86754957D02*
X40155257Y-86683528D01*
X40155257Y-86683528D02*
X39940971Y-86683528D01*
X39940971Y-86683528D02*
X39798114Y-86754957D01*
X39798114Y-86754957D02*
X39726685Y-86826385D01*
X40869543Y-86683528D02*
X41440971Y-86683528D01*
X41083828Y-86183528D02*
X41083828Y-87469242D01*
X41083828Y-87469242D02*
X41155257Y-87612100D01*
X41155257Y-87612100D02*
X41298114Y-87683528D01*
X41298114Y-87683528D02*
X41440971Y-87683528D01*
X43512400Y-88254957D02*
X43440971Y-88183528D01*
X43440971Y-88183528D02*
X43298114Y-87969242D01*
X43298114Y-87969242D02*
X43226686Y-87826385D01*
X43226686Y-87826385D02*
X43155257Y-87612100D01*
X43155257Y-87612100D02*
X43083828Y-87254957D01*
X43083828Y-87254957D02*
X43083828Y-86969242D01*
X43083828Y-86969242D02*
X43155257Y-86612100D01*
X43155257Y-86612100D02*
X43226686Y-86397814D01*
X43226686Y-86397814D02*
X43298114Y-86254957D01*
X43298114Y-86254957D02*
X43440971Y-86040671D01*
X43440971Y-86040671D02*
X43512400Y-85969242D01*
X44726686Y-87612100D02*
X44583828Y-87683528D01*
X44583828Y-87683528D02*
X44298114Y-87683528D01*
X44298114Y-87683528D02*
X44155257Y-87612100D01*
X44155257Y-87612100D02*
X44083828Y-87540671D01*
X44083828Y-87540671D02*
X44012400Y-87397814D01*
X44012400Y-87397814D02*
X44012400Y-86969242D01*
X44012400Y-86969242D02*
X44083828Y-86826385D01*
X44083828Y-86826385D02*
X44155257Y-86754957D01*
X44155257Y-86754957D02*
X44298114Y-86683528D01*
X44298114Y-86683528D02*
X44583828Y-86683528D01*
X44583828Y-86683528D02*
X44726686Y-86754957D01*
X45226685Y-88254957D02*
X45298114Y-88183528D01*
X45298114Y-88183528D02*
X45440971Y-87969242D01*
X45440971Y-87969242D02*
X45512400Y-87826385D01*
X45512400Y-87826385D02*
X45583828Y-87612100D01*
X45583828Y-87612100D02*
X45655257Y-87254957D01*
X45655257Y-87254957D02*
X45655257Y-86969242D01*
X45655257Y-86969242D02*
X45583828Y-86612100D01*
X45583828Y-86612100D02*
X45512400Y-86397814D01*
X45512400Y-86397814D02*
X45440971Y-86254957D01*
X45440971Y-86254957D02*
X45298114Y-86040671D01*
X45298114Y-86040671D02*
X45226685Y-85969242D01*
X47440971Y-86326385D02*
X47512399Y-86254957D01*
X47512399Y-86254957D02*
X47655257Y-86183528D01*
X47655257Y-86183528D02*
X48012399Y-86183528D01*
X48012399Y-86183528D02*
X48155257Y-86254957D01*
X48155257Y-86254957D02*
X48226685Y-86326385D01*
X48226685Y-86326385D02*
X48298114Y-86469242D01*
X48298114Y-86469242D02*
X48298114Y-86612100D01*
X48298114Y-86612100D02*
X48226685Y-86826385D01*
X48226685Y-86826385D02*
X47369542Y-87683528D01*
X47369542Y-87683528D02*
X48298114Y-87683528D01*
X49226685Y-86183528D02*
X49369542Y-86183528D01*
X49369542Y-86183528D02*
X49512399Y-86254957D01*
X49512399Y-86254957D02*
X49583828Y-86326385D01*
X49583828Y-86326385D02*
X49655256Y-86469242D01*
X49655256Y-86469242D02*
X49726685Y-86754957D01*
X49726685Y-86754957D02*
X49726685Y-87112100D01*
X49726685Y-87112100D02*
X49655256Y-87397814D01*
X49655256Y-87397814D02*
X49583828Y-87540671D01*
X49583828Y-87540671D02*
X49512399Y-87612100D01*
X49512399Y-87612100D02*
X49369542Y-87683528D01*
X49369542Y-87683528D02*
X49226685Y-87683528D01*
X49226685Y-87683528D02*
X49083828Y-87612100D01*
X49083828Y-87612100D02*
X49012399Y-87540671D01*
X49012399Y-87540671D02*
X48940970Y-87397814D01*
X48940970Y-87397814D02*
X48869542Y-87112100D01*
X48869542Y-87112100D02*
X48869542Y-86754957D01*
X48869542Y-86754957D02*
X48940970Y-86469242D01*
X48940970Y-86469242D02*
X49012399Y-86326385D01*
X49012399Y-86326385D02*
X49083828Y-86254957D01*
X49083828Y-86254957D02*
X49226685Y-86183528D01*
X50298113Y-86326385D02*
X50369541Y-86254957D01*
X50369541Y-86254957D02*
X50512399Y-86183528D01*
X50512399Y-86183528D02*
X50869541Y-86183528D01*
X50869541Y-86183528D02*
X51012399Y-86254957D01*
X51012399Y-86254957D02*
X51083827Y-86326385D01*
X51083827Y-86326385D02*
X51155256Y-86469242D01*
X51155256Y-86469242D02*
X51155256Y-86612100D01*
X51155256Y-86612100D02*
X51083827Y-86826385D01*
X51083827Y-86826385D02*
X50226684Y-87683528D01*
X50226684Y-87683528D02*
X51155256Y-87683528D01*
X52440970Y-86683528D02*
X52440970Y-87683528D01*
X52083827Y-86112100D02*
X51726684Y-87183528D01*
X51726684Y-87183528D02*
X52655255Y-87183528D01*
X54369540Y-87683528D02*
X54369540Y-86183528D01*
X55083826Y-87683528D02*
X55083826Y-86183528D01*
X55083826Y-86183528D02*
X55940969Y-87683528D01*
X55940969Y-87683528D02*
X55940969Y-86183528D01*
X56583827Y-87612100D02*
X56798113Y-87683528D01*
X56798113Y-87683528D02*
X57155255Y-87683528D01*
X57155255Y-87683528D02*
X57298113Y-87612100D01*
X57298113Y-87612100D02*
X57369541Y-87540671D01*
X57369541Y-87540671D02*
X57440970Y-87397814D01*
X57440970Y-87397814D02*
X57440970Y-87254957D01*
X57440970Y-87254957D02*
X57369541Y-87112100D01*
X57369541Y-87112100D02*
X57298113Y-87040671D01*
X57298113Y-87040671D02*
X57155255Y-86969242D01*
X57155255Y-86969242D02*
X56869541Y-86897814D01*
X56869541Y-86897814D02*
X56726684Y-86826385D01*
X56726684Y-86826385D02*
X56655255Y-86754957D01*
X56655255Y-86754957D02*
X56583827Y-86612100D01*
X56583827Y-86612100D02*
X56583827Y-86469242D01*
X56583827Y-86469242D02*
X56655255Y-86326385D01*
X56655255Y-86326385D02*
X56726684Y-86254957D01*
X56726684Y-86254957D02*
X56869541Y-86183528D01*
X56869541Y-86183528D02*
X57226684Y-86183528D01*
X57226684Y-86183528D02*
X57440970Y-86254957D01*
X58012398Y-87254957D02*
X58726684Y-87254957D01*
X57869541Y-87683528D02*
X58369541Y-86183528D01*
X58369541Y-86183528D02*
X58869541Y-87683528D01*
X61226683Y-87683528D02*
X60512397Y-87683528D01*
X60512397Y-87683528D02*
X60512397Y-86183528D01*
X61583826Y-86683528D02*
X61940969Y-87683528D01*
X62298112Y-86683528D02*
X61940969Y-87683528D01*
X61940969Y-87683528D02*
X61798112Y-88040671D01*
X61798112Y-88040671D02*
X61726683Y-88112100D01*
X61726683Y-88112100D02*
X61583826Y-88183528D01*
X63083826Y-87683528D02*
X62940969Y-87612100D01*
X62940969Y-87612100D02*
X62869540Y-87540671D01*
X62869540Y-87540671D02*
X62798112Y-87397814D01*
X62798112Y-87397814D02*
X62798112Y-86969242D01*
X62798112Y-86969242D02*
X62869540Y-86826385D01*
X62869540Y-86826385D02*
X62940969Y-86754957D01*
X62940969Y-86754957D02*
X63083826Y-86683528D01*
X63083826Y-86683528D02*
X63298112Y-86683528D01*
X63298112Y-86683528D02*
X63440969Y-86754957D01*
X63440969Y-86754957D02*
X63512398Y-86826385D01*
X63512398Y-86826385D02*
X63583826Y-86969242D01*
X63583826Y-86969242D02*
X63583826Y-87397814D01*
X63583826Y-87397814D02*
X63512398Y-87540671D01*
X63512398Y-87540671D02*
X63440969Y-87612100D01*
X63440969Y-87612100D02*
X63298112Y-87683528D01*
X63298112Y-87683528D02*
X63083826Y-87683528D01*
X64226683Y-86683528D02*
X64226683Y-87683528D01*
X64226683Y-86826385D02*
X64298112Y-86754957D01*
X64298112Y-86754957D02*
X64440969Y-86683528D01*
X64440969Y-86683528D02*
X64655255Y-86683528D01*
X64655255Y-86683528D02*
X64798112Y-86754957D01*
X64798112Y-86754957D02*
X64869541Y-86897814D01*
X64869541Y-86897814D02*
X64869541Y-87683528D01*
X65655255Y-87612100D02*
X65655255Y-87683528D01*
X65655255Y-87683528D02*
X65583826Y-87826385D01*
X65583826Y-87826385D02*
X65512398Y-87897814D01*
X68298112Y-87540671D02*
X68226684Y-87612100D01*
X68226684Y-87612100D02*
X68012398Y-87683528D01*
X68012398Y-87683528D02*
X67869541Y-87683528D01*
X67869541Y-87683528D02*
X67655255Y-87612100D01*
X67655255Y-87612100D02*
X67512398Y-87469242D01*
X67512398Y-87469242D02*
X67440969Y-87326385D01*
X67440969Y-87326385D02*
X67369541Y-87040671D01*
X67369541Y-87040671D02*
X67369541Y-86826385D01*
X67369541Y-86826385D02*
X67440969Y-86540671D01*
X67440969Y-86540671D02*
X67512398Y-86397814D01*
X67512398Y-86397814D02*
X67655255Y-86254957D01*
X67655255Y-86254957D02*
X67869541Y-86183528D01*
X67869541Y-86183528D02*
X68012398Y-86183528D01*
X68012398Y-86183528D02*
X68226684Y-86254957D01*
X68226684Y-86254957D02*
X68298112Y-86326385D01*
X68940969Y-87683528D02*
X68940969Y-86183528D01*
X68940969Y-86183528D02*
X69798112Y-87683528D01*
X69798112Y-87683528D02*
X69798112Y-86183528D01*
X71369541Y-87683528D02*
X70869541Y-86969242D01*
X70512398Y-87683528D02*
X70512398Y-86183528D01*
X70512398Y-86183528D02*
X71083827Y-86183528D01*
X71083827Y-86183528D02*
X71226684Y-86254957D01*
X71226684Y-86254957D02*
X71298113Y-86326385D01*
X71298113Y-86326385D02*
X71369541Y-86469242D01*
X71369541Y-86469242D02*
X71369541Y-86683528D01*
X71369541Y-86683528D02*
X71298113Y-86826385D01*
X71298113Y-86826385D02*
X71226684Y-86897814D01*
X71226684Y-86897814D02*
X71083827Y-86969242D01*
X71083827Y-86969242D02*
X70512398Y-86969242D01*
X71940970Y-87612100D02*
X72155256Y-87683528D01*
X72155256Y-87683528D02*
X72512398Y-87683528D01*
X72512398Y-87683528D02*
X72655256Y-87612100D01*
X72655256Y-87612100D02*
X72726684Y-87540671D01*
X72726684Y-87540671D02*
X72798113Y-87397814D01*
X72798113Y-87397814D02*
X72798113Y-87254957D01*
X72798113Y-87254957D02*
X72726684Y-87112100D01*
X72726684Y-87112100D02*
X72655256Y-87040671D01*
X72655256Y-87040671D02*
X72512398Y-86969242D01*
X72512398Y-86969242D02*
X72226684Y-86897814D01*
X72226684Y-86897814D02*
X72083827Y-86826385D01*
X72083827Y-86826385D02*
X72012398Y-86754957D01*
X72012398Y-86754957D02*
X71940970Y-86612100D01*
X71940970Y-86612100D02*
X71940970Y-86469242D01*
X71940970Y-86469242D02*
X72012398Y-86326385D01*
X72012398Y-86326385D02*
X72083827Y-86254957D01*
X72083827Y-86254957D02*
X72226684Y-86183528D01*
X72226684Y-86183528D02*
X72583827Y-86183528D01*
X72583827Y-86183528D02*
X72798113Y-86254957D01*
X73512398Y-87612100D02*
X73512398Y-87683528D01*
X73512398Y-87683528D02*
X73440969Y-87826385D01*
X73440969Y-87826385D02*
X73369541Y-87897814D01*
X75298112Y-87683528D02*
X75298112Y-86183528D01*
X76012398Y-87683528D02*
X76012398Y-86183528D01*
X76012398Y-86183528D02*
X76869541Y-87683528D01*
X76869541Y-87683528D02*
X76869541Y-86183528D01*
X78298113Y-87683528D02*
X77583827Y-87683528D01*
X77583827Y-87683528D02*
X77583827Y-86183528D01*
X79940970Y-86183528D02*
X79940970Y-87397814D01*
X79940970Y-87397814D02*
X80012399Y-87540671D01*
X80012399Y-87540671D02*
X80083828Y-87612100D01*
X80083828Y-87612100D02*
X80226685Y-87683528D01*
X80226685Y-87683528D02*
X80512399Y-87683528D01*
X80512399Y-87683528D02*
X80655256Y-87612100D01*
X80655256Y-87612100D02*
X80726685Y-87540671D01*
X80726685Y-87540671D02*
X80798113Y-87397814D01*
X80798113Y-87397814D02*
X80798113Y-86183528D01*
X81512399Y-87683528D02*
X81512399Y-86183528D01*
X81512399Y-86183528D02*
X82012399Y-87254957D01*
X82012399Y-87254957D02*
X82512399Y-86183528D01*
X82512399Y-86183528D02*
X82512399Y-87683528D01*
X84083828Y-87683528D02*
X83583828Y-86969242D01*
X83226685Y-87683528D02*
X83226685Y-86183528D01*
X83226685Y-86183528D02*
X83798114Y-86183528D01*
X83798114Y-86183528D02*
X83940971Y-86254957D01*
X83940971Y-86254957D02*
X84012400Y-86326385D01*
X84012400Y-86326385D02*
X84083828Y-86469242D01*
X84083828Y-86469242D02*
X84083828Y-86683528D01*
X84083828Y-86683528D02*
X84012400Y-86826385D01*
X84012400Y-86826385D02*
X83940971Y-86897814D01*
X83940971Y-86897814D02*
X83798114Y-86969242D01*
X83798114Y-86969242D02*
X83226685Y-86969242D01*
X85440971Y-86183528D02*
X84726685Y-86183528D01*
X84726685Y-86183528D02*
X84655257Y-86897814D01*
X84655257Y-86897814D02*
X84726685Y-86826385D01*
X84726685Y-86826385D02*
X84869543Y-86754957D01*
X84869543Y-86754957D02*
X85226685Y-86754957D01*
X85226685Y-86754957D02*
X85369543Y-86826385D01*
X85369543Y-86826385D02*
X85440971Y-86897814D01*
X85440971Y-86897814D02*
X85512400Y-87040671D01*
X85512400Y-87040671D02*
X85512400Y-87397814D01*
X85512400Y-87397814D02*
X85440971Y-87540671D01*
X85440971Y-87540671D02*
X85369543Y-87612100D01*
X85369543Y-87612100D02*
X85226685Y-87683528D01*
X85226685Y-87683528D02*
X84869543Y-87683528D01*
X84869543Y-87683528D02*
X84726685Y-87612100D01*
X84726685Y-87612100D02*
X84655257Y-87540671D01*
X86083828Y-86326385D02*
X86155256Y-86254957D01*
X86155256Y-86254957D02*
X86298114Y-86183528D01*
X86298114Y-86183528D02*
X86655256Y-86183528D01*
X86655256Y-86183528D02*
X86798114Y-86254957D01*
X86798114Y-86254957D02*
X86869542Y-86326385D01*
X86869542Y-86326385D02*
X86940971Y-86469242D01*
X86940971Y-86469242D02*
X86940971Y-86612100D01*
X86940971Y-86612100D02*
X86869542Y-86826385D01*
X86869542Y-86826385D02*
X86012399Y-87683528D01*
X86012399Y-87683528D02*
X86940971Y-87683528D01*
X87440970Y-86183528D02*
X88440970Y-86183528D01*
X88440970Y-86183528D02*
X87798113Y-87683528D01*
X89298113Y-86183528D02*
X89440970Y-86183528D01*
X89440970Y-86183528D02*
X89583827Y-86254957D01*
X89583827Y-86254957D02*
X89655256Y-86326385D01*
X89655256Y-86326385D02*
X89726684Y-86469242D01*
X89726684Y-86469242D02*
X89798113Y-86754957D01*
X89798113Y-86754957D02*
X89798113Y-87112100D01*
X89798113Y-87112100D02*
X89726684Y-87397814D01*
X89726684Y-87397814D02*
X89655256Y-87540671D01*
X89655256Y-87540671D02*
X89583827Y-87612100D01*
X89583827Y-87612100D02*
X89440970Y-87683528D01*
X89440970Y-87683528D02*
X89298113Y-87683528D01*
X89298113Y-87683528D02*
X89155256Y-87612100D01*
X89155256Y-87612100D02*
X89083827Y-87540671D01*
X89083827Y-87540671D02*
X89012398Y-87397814D01*
X89012398Y-87397814D02*
X88940970Y-87112100D01*
X88940970Y-87112100D02*
X88940970Y-86754957D01*
X88940970Y-86754957D02*
X89012398Y-86469242D01*
X89012398Y-86469242D02*
X89083827Y-86326385D01*
X89083827Y-86326385D02*
X89155256Y-86254957D01*
X89155256Y-86254957D02*
X89298113Y-86183528D01*
D10*
D11*
X32083828Y-84683528D02*
X31369542Y-84683528D01*
X31369542Y-84683528D02*
X31369542Y-83183528D01*
X32583828Y-84683528D02*
X32583828Y-83683528D01*
X32583828Y-83183528D02*
X32512400Y-83254957D01*
X32512400Y-83254957D02*
X32583828Y-83326385D01*
X32583828Y-83326385D02*
X32655257Y-83254957D01*
X32655257Y-83254957D02*
X32583828Y-83183528D01*
X32583828Y-83183528D02*
X32583828Y-83326385D01*
X33940972Y-84612100D02*
X33798114Y-84683528D01*
X33798114Y-84683528D02*
X33512400Y-84683528D01*
X33512400Y-84683528D02*
X33369543Y-84612100D01*
X33369543Y-84612100D02*
X33298114Y-84540671D01*
X33298114Y-84540671D02*
X33226686Y-84397814D01*
X33226686Y-84397814D02*
X33226686Y-83969242D01*
X33226686Y-83969242D02*
X33298114Y-83826385D01*
X33298114Y-83826385D02*
X33369543Y-83754957D01*
X33369543Y-83754957D02*
X33512400Y-83683528D01*
X33512400Y-83683528D02*
X33798114Y-83683528D01*
X33798114Y-83683528D02*
X33940972Y-83754957D01*
X35155257Y-84612100D02*
X35012400Y-84683528D01*
X35012400Y-84683528D02*
X34726686Y-84683528D01*
X34726686Y-84683528D02*
X34583828Y-84612100D01*
X34583828Y-84612100D02*
X34512400Y-84469242D01*
X34512400Y-84469242D02*
X34512400Y-83897814D01*
X34512400Y-83897814D02*
X34583828Y-83754957D01*
X34583828Y-83754957D02*
X34726686Y-83683528D01*
X34726686Y-83683528D02*
X35012400Y-83683528D01*
X35012400Y-83683528D02*
X35155257Y-83754957D01*
X35155257Y-83754957D02*
X35226686Y-83897814D01*
X35226686Y-83897814D02*
X35226686Y-84040671D01*
X35226686Y-84040671D02*
X34512400Y-84183528D01*
X35869542Y-83683528D02*
X35869542Y-84683528D01*
X35869542Y-83826385D02*
X35940971Y-83754957D01*
X35940971Y-83754957D02*
X36083828Y-83683528D01*
X36083828Y-83683528D02*
X36298114Y-83683528D01*
X36298114Y-83683528D02*
X36440971Y-83754957D01*
X36440971Y-83754957D02*
X36512400Y-83897814D01*
X36512400Y-83897814D02*
X36512400Y-84683528D01*
X37155257Y-84612100D02*
X37298114Y-84683528D01*
X37298114Y-84683528D02*
X37583828Y-84683528D01*
X37583828Y-84683528D02*
X37726685Y-84612100D01*
X37726685Y-84612100D02*
X37798114Y-84469242D01*
X37798114Y-84469242D02*
X37798114Y-84397814D01*
X37798114Y-84397814D02*
X37726685Y-84254957D01*
X37726685Y-84254957D02*
X37583828Y-84183528D01*
X37583828Y-84183528D02*
X37369543Y-84183528D01*
X37369543Y-84183528D02*
X37226685Y-84112100D01*
X37226685Y-84112100D02*
X37155257Y-83969242D01*
X37155257Y-83969242D02*
X37155257Y-83897814D01*
X37155257Y-83897814D02*
X37226685Y-83754957D01*
X37226685Y-83754957D02*
X37369543Y-83683528D01*
X37369543Y-83683528D02*
X37583828Y-83683528D01*
X37583828Y-83683528D02*
X37726685Y-83754957D01*
X39012400Y-84612100D02*
X38869543Y-84683528D01*
X38869543Y-84683528D02*
X38583829Y-84683528D01*
X38583829Y-84683528D02*
X38440971Y-84612100D01*
X38440971Y-84612100D02*
X38369543Y-84469242D01*
X38369543Y-84469242D02*
X38369543Y-83897814D01*
X38369543Y-83897814D02*
X38440971Y-83754957D01*
X38440971Y-83754957D02*
X38583829Y-83683528D01*
X38583829Y-83683528D02*
X38869543Y-83683528D01*
X38869543Y-83683528D02*
X39012400Y-83754957D01*
X39012400Y-83754957D02*
X39083829Y-83897814D01*
X39083829Y-83897814D02*
X39083829Y-84040671D01*
X39083829Y-84040671D02*
X38369543Y-84183528D01*
X40869542Y-84540671D02*
X40940971Y-84612100D01*
X40940971Y-84612100D02*
X40869542Y-84683528D01*
X40869542Y-84683528D02*
X40798114Y-84612100D01*
X40798114Y-84612100D02*
X40869542Y-84540671D01*
X40869542Y-84540671D02*
X40869542Y-84683528D01*
X40869542Y-83754957D02*
X40940971Y-83826385D01*
X40940971Y-83826385D02*
X40869542Y-83897814D01*
X40869542Y-83897814D02*
X40798114Y-83826385D01*
X40798114Y-83826385D02*
X40869542Y-83754957D01*
X40869542Y-83754957D02*
X40869542Y-83897814D01*
X42726685Y-84683528D02*
X42726685Y-83183528D01*
X42726685Y-83183528D02*
X43226685Y-84254957D01*
X43226685Y-84254957D02*
X43726685Y-83183528D01*
X43726685Y-83183528D02*
X43726685Y-84683528D01*
X44440971Y-84683528D02*
X44440971Y-83183528D01*
X44940972Y-83183528D02*
X45798115Y-83183528D01*
X45369543Y-84683528D02*
X45369543Y-83183528D01*
X48155257Y-84683528D02*
X47440971Y-84683528D01*
X47440971Y-84683528D02*
X47440971Y-83183528D01*
X48655257Y-84683528D02*
X48655257Y-83683528D01*
X48655257Y-83183528D02*
X48583829Y-83254957D01*
X48583829Y-83254957D02*
X48655257Y-83326385D01*
X48655257Y-83326385D02*
X48726686Y-83254957D01*
X48726686Y-83254957D02*
X48655257Y-83183528D01*
X48655257Y-83183528D02*
X48655257Y-83326385D01*
X50012401Y-84612100D02*
X49869543Y-84683528D01*
X49869543Y-84683528D02*
X49583829Y-84683528D01*
X49583829Y-84683528D02*
X49440972Y-84612100D01*
X49440972Y-84612100D02*
X49369543Y-84540671D01*
X49369543Y-84540671D02*
X49298115Y-84397814D01*
X49298115Y-84397814D02*
X49298115Y-83969242D01*
X49298115Y-83969242D02*
X49369543Y-83826385D01*
X49369543Y-83826385D02*
X49440972Y-83754957D01*
X49440972Y-83754957D02*
X49583829Y-83683528D01*
X49583829Y-83683528D02*
X49869543Y-83683528D01*
X49869543Y-83683528D02*
X50012401Y-83754957D01*
X51226686Y-84612100D02*
X51083829Y-84683528D01*
X51083829Y-84683528D02*
X50798115Y-84683528D01*
X50798115Y-84683528D02*
X50655257Y-84612100D01*
X50655257Y-84612100D02*
X50583829Y-84469242D01*
X50583829Y-84469242D02*
X50583829Y-83897814D01*
X50583829Y-83897814D02*
X50655257Y-83754957D01*
X50655257Y-83754957D02*
X50798115Y-83683528D01*
X50798115Y-83683528D02*
X51083829Y-83683528D01*
X51083829Y-83683528D02*
X51226686Y-83754957D01*
X51226686Y-83754957D02*
X51298115Y-83897814D01*
X51298115Y-83897814D02*
X51298115Y-84040671D01*
X51298115Y-84040671D02*
X50583829Y-84183528D01*
X51940971Y-83683528D02*
X51940971Y-84683528D01*
X51940971Y-83826385D02*
X52012400Y-83754957D01*
X52012400Y-83754957D02*
X52155257Y-83683528D01*
X52155257Y-83683528D02*
X52369543Y-83683528D01*
X52369543Y-83683528D02*
X52512400Y-83754957D01*
X52512400Y-83754957D02*
X52583829Y-83897814D01*
X52583829Y-83897814D02*
X52583829Y-84683528D01*
X53226686Y-84612100D02*
X53369543Y-84683528D01*
X53369543Y-84683528D02*
X53655257Y-84683528D01*
X53655257Y-84683528D02*
X53798114Y-84612100D01*
X53798114Y-84612100D02*
X53869543Y-84469242D01*
X53869543Y-84469242D02*
X53869543Y-84397814D01*
X53869543Y-84397814D02*
X53798114Y-84254957D01*
X53798114Y-84254957D02*
X53655257Y-84183528D01*
X53655257Y-84183528D02*
X53440972Y-84183528D01*
X53440972Y-84183528D02*
X53298114Y-84112100D01*
X53298114Y-84112100D02*
X53226686Y-83969242D01*
X53226686Y-83969242D02*
X53226686Y-83897814D01*
X53226686Y-83897814D02*
X53298114Y-83754957D01*
X53298114Y-83754957D02*
X53440972Y-83683528D01*
X53440972Y-83683528D02*
X53655257Y-83683528D01*
X53655257Y-83683528D02*
X53798114Y-83754957D01*
X55083829Y-84612100D02*
X54940972Y-84683528D01*
X54940972Y-84683528D02*
X54655258Y-84683528D01*
X54655258Y-84683528D02*
X54512400Y-84612100D01*
X54512400Y-84612100D02*
X54440972Y-84469242D01*
X54440972Y-84469242D02*
X54440972Y-83897814D01*
X54440972Y-83897814D02*
X54512400Y-83754957D01*
X54512400Y-83754957D02*
X54655258Y-83683528D01*
X54655258Y-83683528D02*
X54940972Y-83683528D01*
X54940972Y-83683528D02*
X55083829Y-83754957D01*
X55083829Y-83754957D02*
X55155258Y-83897814D01*
X55155258Y-83897814D02*
X55155258Y-84040671D01*
X55155258Y-84040671D02*
X54440972Y-84183528D01*
D10*
D11*
X32226685Y-81540671D02*
X32155257Y-81612100D01*
X32155257Y-81612100D02*
X31940971Y-81683528D01*
X31940971Y-81683528D02*
X31798114Y-81683528D01*
X31798114Y-81683528D02*
X31583828Y-81612100D01*
X31583828Y-81612100D02*
X31440971Y-81469242D01*
X31440971Y-81469242D02*
X31369542Y-81326385D01*
X31369542Y-81326385D02*
X31298114Y-81040671D01*
X31298114Y-81040671D02*
X31298114Y-80826385D01*
X31298114Y-80826385D02*
X31369542Y-80540671D01*
X31369542Y-80540671D02*
X31440971Y-80397814D01*
X31440971Y-80397814D02*
X31583828Y-80254957D01*
X31583828Y-80254957D02*
X31798114Y-80183528D01*
X31798114Y-80183528D02*
X31940971Y-80183528D01*
X31940971Y-80183528D02*
X32155257Y-80254957D01*
X32155257Y-80254957D02*
X32226685Y-80326385D01*
X33083828Y-81683528D02*
X32940971Y-81612100D01*
X32940971Y-81612100D02*
X32869542Y-81540671D01*
X32869542Y-81540671D02*
X32798114Y-81397814D01*
X32798114Y-81397814D02*
X32798114Y-80969242D01*
X32798114Y-80969242D02*
X32869542Y-80826385D01*
X32869542Y-80826385D02*
X32940971Y-80754957D01*
X32940971Y-80754957D02*
X33083828Y-80683528D01*
X33083828Y-80683528D02*
X33298114Y-80683528D01*
X33298114Y-80683528D02*
X33440971Y-80754957D01*
X33440971Y-80754957D02*
X33512400Y-80826385D01*
X33512400Y-80826385D02*
X33583828Y-80969242D01*
X33583828Y-80969242D02*
X33583828Y-81397814D01*
X33583828Y-81397814D02*
X33512400Y-81540671D01*
X33512400Y-81540671D02*
X33440971Y-81612100D01*
X33440971Y-81612100D02*
X33298114Y-81683528D01*
X33298114Y-81683528D02*
X33083828Y-81683528D01*
X34226685Y-80683528D02*
X34226685Y-81683528D01*
X34226685Y-80826385D02*
X34298114Y-80754957D01*
X34298114Y-80754957D02*
X34440971Y-80683528D01*
X34440971Y-80683528D02*
X34655257Y-80683528D01*
X34655257Y-80683528D02*
X34798114Y-80754957D01*
X34798114Y-80754957D02*
X34869543Y-80897814D01*
X34869543Y-80897814D02*
X34869543Y-81683528D01*
X35369543Y-80683528D02*
X35940971Y-80683528D01*
X35583828Y-80183528D02*
X35583828Y-81469242D01*
X35583828Y-81469242D02*
X35655257Y-81612100D01*
X35655257Y-81612100D02*
X35798114Y-81683528D01*
X35798114Y-81683528D02*
X35940971Y-81683528D01*
X37083829Y-81683528D02*
X37083829Y-80897814D01*
X37083829Y-80897814D02*
X37012400Y-80754957D01*
X37012400Y-80754957D02*
X36869543Y-80683528D01*
X36869543Y-80683528D02*
X36583829Y-80683528D01*
X36583829Y-80683528D02*
X36440971Y-80754957D01*
X37083829Y-81612100D02*
X36940971Y-81683528D01*
X36940971Y-81683528D02*
X36583829Y-81683528D01*
X36583829Y-81683528D02*
X36440971Y-81612100D01*
X36440971Y-81612100D02*
X36369543Y-81469242D01*
X36369543Y-81469242D02*
X36369543Y-81326385D01*
X36369543Y-81326385D02*
X36440971Y-81183528D01*
X36440971Y-81183528D02*
X36583829Y-81112100D01*
X36583829Y-81112100D02*
X36940971Y-81112100D01*
X36940971Y-81112100D02*
X37083829Y-81040671D01*
X38440972Y-81612100D02*
X38298114Y-81683528D01*
X38298114Y-81683528D02*
X38012400Y-81683528D01*
X38012400Y-81683528D02*
X37869543Y-81612100D01*
X37869543Y-81612100D02*
X37798114Y-81540671D01*
X37798114Y-81540671D02*
X37726686Y-81397814D01*
X37726686Y-81397814D02*
X37726686Y-80969242D01*
X37726686Y-80969242D02*
X37798114Y-80826385D01*
X37798114Y-80826385D02*
X37869543Y-80754957D01*
X37869543Y-80754957D02*
X38012400Y-80683528D01*
X38012400Y-80683528D02*
X38298114Y-80683528D01*
X38298114Y-80683528D02*
X38440972Y-80754957D01*
X38869543Y-80683528D02*
X39440971Y-80683528D01*
X39083828Y-80183528D02*
X39083828Y-81469242D01*
X39083828Y-81469242D02*
X39155257Y-81612100D01*
X39155257Y-81612100D02*
X39298114Y-81683528D01*
X39298114Y-81683528D02*
X39440971Y-81683528D01*
X41083828Y-81540671D02*
X41155257Y-81612100D01*
X41155257Y-81612100D02*
X41083828Y-81683528D01*
X41083828Y-81683528D02*
X41012400Y-81612100D01*
X41012400Y-81612100D02*
X41083828Y-81540671D01*
X41083828Y-81540671D02*
X41083828Y-81683528D01*
X41083828Y-80754957D02*
X41155257Y-80826385D01*
X41155257Y-80826385D02*
X41083828Y-80897814D01*
X41083828Y-80897814D02*
X41012400Y-80826385D01*
X41012400Y-80826385D02*
X41083828Y-80754957D01*
X41083828Y-80754957D02*
X41083828Y-80897814D01*
X42940971Y-81683528D02*
X42940971Y-80183528D01*
X42940971Y-80754957D02*
X43083829Y-80683528D01*
X43083829Y-80683528D02*
X43369543Y-80683528D01*
X43369543Y-80683528D02*
X43512400Y-80754957D01*
X43512400Y-80754957D02*
X43583829Y-80826385D01*
X43583829Y-80826385D02*
X43655257Y-80969242D01*
X43655257Y-80969242D02*
X43655257Y-81397814D01*
X43655257Y-81397814D02*
X43583829Y-81540671D01*
X43583829Y-81540671D02*
X43512400Y-81612100D01*
X43512400Y-81612100D02*
X43369543Y-81683528D01*
X43369543Y-81683528D02*
X43083829Y-81683528D01*
X43083829Y-81683528D02*
X42940971Y-81612100D01*
X44869543Y-81612100D02*
X44726686Y-81683528D01*
X44726686Y-81683528D02*
X44440972Y-81683528D01*
X44440972Y-81683528D02*
X44298114Y-81612100D01*
X44298114Y-81612100D02*
X44226686Y-81469242D01*
X44226686Y-81469242D02*
X44226686Y-80897814D01*
X44226686Y-80897814D02*
X44298114Y-80754957D01*
X44298114Y-80754957D02*
X44440972Y-80683528D01*
X44440972Y-80683528D02*
X44726686Y-80683528D01*
X44726686Y-80683528D02*
X44869543Y-80754957D01*
X44869543Y-80754957D02*
X44940972Y-80897814D01*
X44940972Y-80897814D02*
X44940972Y-81040671D01*
X44940972Y-81040671D02*
X44226686Y-81183528D01*
X45583828Y-81683528D02*
X45583828Y-80683528D01*
X45583828Y-80969242D02*
X45655257Y-80826385D01*
X45655257Y-80826385D02*
X45726686Y-80754957D01*
X45726686Y-80754957D02*
X45869543Y-80683528D01*
X45869543Y-80683528D02*
X46012400Y-80683528D01*
X46298114Y-80683528D02*
X46869542Y-80683528D01*
X46512399Y-80183528D02*
X46512399Y-81469242D01*
X46512399Y-81469242D02*
X46583828Y-81612100D01*
X46583828Y-81612100D02*
X46726685Y-81683528D01*
X46726685Y-81683528D02*
X46869542Y-81683528D01*
X47369542Y-81683528D02*
X47369542Y-80683528D01*
X47369542Y-80969242D02*
X47440971Y-80826385D01*
X47440971Y-80826385D02*
X47512400Y-80754957D01*
X47512400Y-80754957D02*
X47655257Y-80683528D01*
X47655257Y-80683528D02*
X47798114Y-80683528D01*
X48940971Y-81683528D02*
X48940971Y-80897814D01*
X48940971Y-80897814D02*
X48869542Y-80754957D01*
X48869542Y-80754957D02*
X48726685Y-80683528D01*
X48726685Y-80683528D02*
X48440971Y-80683528D01*
X48440971Y-80683528D02*
X48298113Y-80754957D01*
X48940971Y-81612100D02*
X48798113Y-81683528D01*
X48798113Y-81683528D02*
X48440971Y-81683528D01*
X48440971Y-81683528D02*
X48298113Y-81612100D01*
X48298113Y-81612100D02*
X48226685Y-81469242D01*
X48226685Y-81469242D02*
X48226685Y-81326385D01*
X48226685Y-81326385D02*
X48298113Y-81183528D01*
X48298113Y-81183528D02*
X48440971Y-81112100D01*
X48440971Y-81112100D02*
X48798113Y-81112100D01*
X48798113Y-81112100D02*
X48940971Y-81040671D01*
X49655256Y-80683528D02*
X49655256Y-81683528D01*
X49655256Y-80826385D02*
X49726685Y-80754957D01*
X49726685Y-80754957D02*
X49869542Y-80683528D01*
X49869542Y-80683528D02*
X50083828Y-80683528D01*
X50083828Y-80683528D02*
X50226685Y-80754957D01*
X50226685Y-80754957D02*
X50298114Y-80897814D01*
X50298114Y-80897814D02*
X50298114Y-81683528D01*
X51655257Y-81683528D02*
X51655257Y-80183528D01*
X51655257Y-81612100D02*
X51512399Y-81683528D01*
X51512399Y-81683528D02*
X51226685Y-81683528D01*
X51226685Y-81683528D02*
X51083828Y-81612100D01*
X51083828Y-81612100D02*
X51012399Y-81540671D01*
X51012399Y-81540671D02*
X50940971Y-81397814D01*
X50940971Y-81397814D02*
X50940971Y-80969242D01*
X50940971Y-80969242D02*
X51012399Y-80826385D01*
X51012399Y-80826385D02*
X51083828Y-80754957D01*
X51083828Y-80754957D02*
X51226685Y-80683528D01*
X51226685Y-80683528D02*
X51512399Y-80683528D01*
X51512399Y-80683528D02*
X51655257Y-80754957D01*
X52369542Y-81540671D02*
X52440971Y-81612100D01*
X52440971Y-81612100D02*
X52369542Y-81683528D01*
X52369542Y-81683528D02*
X52298114Y-81612100D01*
X52298114Y-81612100D02*
X52369542Y-81540671D01*
X52369542Y-81540671D02*
X52369542Y-81683528D01*
X53083828Y-81683528D02*
X53083828Y-80683528D01*
X53083828Y-80826385D02*
X53155257Y-80754957D01*
X53155257Y-80754957D02*
X53298114Y-80683528D01*
X53298114Y-80683528D02*
X53512400Y-80683528D01*
X53512400Y-80683528D02*
X53655257Y-80754957D01*
X53655257Y-80754957D02*
X53726686Y-80897814D01*
X53726686Y-80897814D02*
X53726686Y-81683528D01*
X53726686Y-80897814D02*
X53798114Y-80754957D01*
X53798114Y-80754957D02*
X53940971Y-80683528D01*
X53940971Y-80683528D02*
X54155257Y-80683528D01*
X54155257Y-80683528D02*
X54298114Y-80754957D01*
X54298114Y-80754957D02*
X54369543Y-80897814D01*
X54369543Y-80897814D02*
X54369543Y-81683528D01*
X55726686Y-81683528D02*
X55726686Y-80897814D01*
X55726686Y-80897814D02*
X55655257Y-80754957D01*
X55655257Y-80754957D02*
X55512400Y-80683528D01*
X55512400Y-80683528D02*
X55226686Y-80683528D01*
X55226686Y-80683528D02*
X55083828Y-80754957D01*
X55726686Y-81612100D02*
X55583828Y-81683528D01*
X55583828Y-81683528D02*
X55226686Y-81683528D01*
X55226686Y-81683528D02*
X55083828Y-81612100D01*
X55083828Y-81612100D02*
X55012400Y-81469242D01*
X55012400Y-81469242D02*
X55012400Y-81326385D01*
X55012400Y-81326385D02*
X55083828Y-81183528D01*
X55083828Y-81183528D02*
X55226686Y-81112100D01*
X55226686Y-81112100D02*
X55583828Y-81112100D01*
X55583828Y-81112100D02*
X55726686Y-81040671D01*
X56369543Y-81612100D02*
X56512400Y-81683528D01*
X56512400Y-81683528D02*
X56798114Y-81683528D01*
X56798114Y-81683528D02*
X56940971Y-81612100D01*
X56940971Y-81612100D02*
X57012400Y-81469242D01*
X57012400Y-81469242D02*
X57012400Y-81397814D01*
X57012400Y-81397814D02*
X56940971Y-81254957D01*
X56940971Y-81254957D02*
X56798114Y-81183528D01*
X56798114Y-81183528D02*
X56583829Y-81183528D01*
X56583829Y-81183528D02*
X56440971Y-81112100D01*
X56440971Y-81112100D02*
X56369543Y-80969242D01*
X56369543Y-80969242D02*
X56369543Y-80897814D01*
X56369543Y-80897814D02*
X56440971Y-80754957D01*
X56440971Y-80754957D02*
X56583829Y-80683528D01*
X56583829Y-80683528D02*
X56798114Y-80683528D01*
X56798114Y-80683528D02*
X56940971Y-80754957D01*
X57583829Y-81612100D02*
X57726686Y-81683528D01*
X57726686Y-81683528D02*
X58012400Y-81683528D01*
X58012400Y-81683528D02*
X58155257Y-81612100D01*
X58155257Y-81612100D02*
X58226686Y-81469242D01*
X58226686Y-81469242D02*
X58226686Y-81397814D01*
X58226686Y-81397814D02*
X58155257Y-81254957D01*
X58155257Y-81254957D02*
X58012400Y-81183528D01*
X58012400Y-81183528D02*
X57798115Y-81183528D01*
X57798115Y-81183528D02*
X57655257Y-81112100D01*
X57655257Y-81112100D02*
X57583829Y-80969242D01*
X57583829Y-80969242D02*
X57583829Y-80897814D01*
X57583829Y-80897814D02*
X57655257Y-80754957D01*
X57655257Y-80754957D02*
X57798115Y-80683528D01*
X57798115Y-80683528D02*
X58012400Y-80683528D01*
X58012400Y-80683528D02*
X58155257Y-80754957D01*
X59083829Y-81683528D02*
X58940972Y-81612100D01*
X58940972Y-81612100D02*
X58869543Y-81540671D01*
X58869543Y-81540671D02*
X58798115Y-81397814D01*
X58798115Y-81397814D02*
X58798115Y-80969242D01*
X58798115Y-80969242D02*
X58869543Y-80826385D01*
X58869543Y-80826385D02*
X58940972Y-80754957D01*
X58940972Y-80754957D02*
X59083829Y-80683528D01*
X59083829Y-80683528D02*
X59298115Y-80683528D01*
X59298115Y-80683528D02*
X59440972Y-80754957D01*
X59440972Y-80754957D02*
X59512401Y-80826385D01*
X59512401Y-80826385D02*
X59583829Y-80969242D01*
X59583829Y-80969242D02*
X59583829Y-81397814D01*
X59583829Y-81397814D02*
X59512401Y-81540671D01*
X59512401Y-81540671D02*
X59440972Y-81612100D01*
X59440972Y-81612100D02*
X59298115Y-81683528D01*
X59298115Y-81683528D02*
X59083829Y-81683528D01*
X60012401Y-80683528D02*
X60583829Y-80683528D01*
X60226686Y-80183528D02*
X60226686Y-81469242D01*
X60226686Y-81469242D02*
X60298115Y-81612100D01*
X60298115Y-81612100D02*
X60440972Y-81683528D01*
X60440972Y-81683528D02*
X60583829Y-81683528D01*
X62012401Y-80969242D02*
X61940972Y-80897814D01*
X61940972Y-80897814D02*
X61798115Y-80826385D01*
X61798115Y-80826385D02*
X61655258Y-80826385D01*
X61655258Y-80826385D02*
X61512401Y-80897814D01*
X61512401Y-80897814D02*
X61440972Y-80969242D01*
X61440972Y-80969242D02*
X61369544Y-81112100D01*
X61369544Y-81112100D02*
X61369544Y-81254957D01*
X61369544Y-81254957D02*
X61440972Y-81397814D01*
X61440972Y-81397814D02*
X61512401Y-81469242D01*
X61512401Y-81469242D02*
X61655258Y-81540671D01*
X61655258Y-81540671D02*
X61798115Y-81540671D01*
X61798115Y-81540671D02*
X61940972Y-81469242D01*
X61940972Y-81469242D02*
X62012401Y-81397814D01*
X62012401Y-80826385D02*
X62012401Y-81397814D01*
X62012401Y-81397814D02*
X62083829Y-81469242D01*
X62083829Y-81469242D02*
X62155258Y-81469242D01*
X62155258Y-81469242D02*
X62298115Y-81397814D01*
X62298115Y-81397814D02*
X62369544Y-81254957D01*
X62369544Y-81254957D02*
X62369544Y-80897814D01*
X62369544Y-80897814D02*
X62226687Y-80683528D01*
X62226687Y-80683528D02*
X62012401Y-80540671D01*
X62012401Y-80540671D02*
X61726687Y-80469242D01*
X61726687Y-80469242D02*
X61440972Y-80540671D01*
X61440972Y-80540671D02*
X61226687Y-80683528D01*
X61226687Y-80683528D02*
X61083829Y-80897814D01*
X61083829Y-80897814D02*
X61012401Y-81183528D01*
X61012401Y-81183528D02*
X61083829Y-81469242D01*
X61083829Y-81469242D02*
X61226687Y-81683528D01*
X61226687Y-81683528D02*
X61440972Y-81826385D01*
X61440972Y-81826385D02*
X61726687Y-81897814D01*
X61726687Y-81897814D02*
X62012401Y-81826385D01*
X62012401Y-81826385D02*
X62226687Y-81683528D01*
X63012400Y-81683528D02*
X63012400Y-80683528D01*
X63012400Y-80183528D02*
X62940972Y-80254957D01*
X62940972Y-80254957D02*
X63012400Y-80326385D01*
X63012400Y-80326385D02*
X63083829Y-80254957D01*
X63083829Y-80254957D02*
X63012400Y-80183528D01*
X63012400Y-80183528D02*
X63012400Y-80326385D01*
X63726686Y-80683528D02*
X63726686Y-81683528D01*
X63726686Y-80826385D02*
X63798115Y-80754957D01*
X63798115Y-80754957D02*
X63940972Y-80683528D01*
X63940972Y-80683528D02*
X64155258Y-80683528D01*
X64155258Y-80683528D02*
X64298115Y-80754957D01*
X64298115Y-80754957D02*
X64369544Y-80897814D01*
X64369544Y-80897814D02*
X64369544Y-81683528D01*
X65012401Y-81612100D02*
X65155258Y-81683528D01*
X65155258Y-81683528D02*
X65440972Y-81683528D01*
X65440972Y-81683528D02*
X65583829Y-81612100D01*
X65583829Y-81612100D02*
X65655258Y-81469242D01*
X65655258Y-81469242D02*
X65655258Y-81397814D01*
X65655258Y-81397814D02*
X65583829Y-81254957D01*
X65583829Y-81254957D02*
X65440972Y-81183528D01*
X65440972Y-81183528D02*
X65226687Y-81183528D01*
X65226687Y-81183528D02*
X65083829Y-81112100D01*
X65083829Y-81112100D02*
X65012401Y-80969242D01*
X65012401Y-80969242D02*
X65012401Y-80897814D01*
X65012401Y-80897814D02*
X65083829Y-80754957D01*
X65083829Y-80754957D02*
X65226687Y-80683528D01*
X65226687Y-80683528D02*
X65440972Y-80683528D01*
X65440972Y-80683528D02*
X65583829Y-80754957D01*
X66940973Y-81683528D02*
X66940973Y-80897814D01*
X66940973Y-80897814D02*
X66869544Y-80754957D01*
X66869544Y-80754957D02*
X66726687Y-80683528D01*
X66726687Y-80683528D02*
X66440973Y-80683528D01*
X66440973Y-80683528D02*
X66298115Y-80754957D01*
X66940973Y-81612100D02*
X66798115Y-81683528D01*
X66798115Y-81683528D02*
X66440973Y-81683528D01*
X66440973Y-81683528D02*
X66298115Y-81612100D01*
X66298115Y-81612100D02*
X66226687Y-81469242D01*
X66226687Y-81469242D02*
X66226687Y-81326385D01*
X66226687Y-81326385D02*
X66298115Y-81183528D01*
X66298115Y-81183528D02*
X66440973Y-81112100D01*
X66440973Y-81112100D02*
X66798115Y-81112100D01*
X66798115Y-81112100D02*
X66940973Y-81040671D01*
X67655258Y-81112100D02*
X68798116Y-81112100D01*
X69726687Y-81683528D02*
X69583830Y-81612100D01*
X69583830Y-81612100D02*
X69512401Y-81469242D01*
X69512401Y-81469242D02*
X69512401Y-80183528D01*
X70155258Y-80683528D02*
X70512401Y-81683528D01*
X70869544Y-80683528D02*
X70512401Y-81683528D01*
X70512401Y-81683528D02*
X70369544Y-82040671D01*
X70369544Y-82040671D02*
X70298115Y-82112100D01*
X70298115Y-82112100D02*
X70155258Y-82183528D01*
X71655258Y-81683528D02*
X71512401Y-81612100D01*
X71512401Y-81612100D02*
X71440972Y-81540671D01*
X71440972Y-81540671D02*
X71369544Y-81397814D01*
X71369544Y-81397814D02*
X71369544Y-80969242D01*
X71369544Y-80969242D02*
X71440972Y-80826385D01*
X71440972Y-80826385D02*
X71512401Y-80754957D01*
X71512401Y-80754957D02*
X71655258Y-80683528D01*
X71655258Y-80683528D02*
X71869544Y-80683528D01*
X71869544Y-80683528D02*
X72012401Y-80754957D01*
X72012401Y-80754957D02*
X72083830Y-80826385D01*
X72083830Y-80826385D02*
X72155258Y-80969242D01*
X72155258Y-80969242D02*
X72155258Y-81397814D01*
X72155258Y-81397814D02*
X72083830Y-81540671D01*
X72083830Y-81540671D02*
X72012401Y-81612100D01*
X72012401Y-81612100D02*
X71869544Y-81683528D01*
X71869544Y-81683528D02*
X71655258Y-81683528D01*
X72798115Y-80683528D02*
X72798115Y-81683528D01*
X72798115Y-80826385D02*
X72869544Y-80754957D01*
X72869544Y-80754957D02*
X73012401Y-80683528D01*
X73012401Y-80683528D02*
X73226687Y-80683528D01*
X73226687Y-80683528D02*
X73369544Y-80754957D01*
X73369544Y-80754957D02*
X73440973Y-80897814D01*
X73440973Y-80897814D02*
X73440973Y-81683528D01*
X74155258Y-81540671D02*
X74226687Y-81612100D01*
X74226687Y-81612100D02*
X74155258Y-81683528D01*
X74155258Y-81683528D02*
X74083830Y-81612100D01*
X74083830Y-81612100D02*
X74155258Y-81540671D01*
X74155258Y-81540671D02*
X74155258Y-81683528D01*
X74655259Y-80683528D02*
X75226687Y-80683528D01*
X74869544Y-81683528D02*
X74869544Y-80397814D01*
X74869544Y-80397814D02*
X74940973Y-80254957D01*
X74940973Y-80254957D02*
X75083830Y-80183528D01*
X75083830Y-80183528D02*
X75226687Y-80183528D01*
X75726687Y-81683528D02*
X75726687Y-80683528D01*
X75726687Y-80969242D02*
X75798116Y-80826385D01*
X75798116Y-80826385D02*
X75869545Y-80754957D01*
X75869545Y-80754957D02*
X76012402Y-80683528D01*
X76012402Y-80683528D02*
X76155259Y-80683528D01*
D10*
D11*
X31298114Y-78254957D02*
X32012400Y-78254957D01*
X31155257Y-78683528D02*
X31655257Y-77183528D01*
X31655257Y-77183528D02*
X32155257Y-78683528D01*
X33298114Y-77683528D02*
X33298114Y-78683528D01*
X32655256Y-77683528D02*
X32655256Y-78469242D01*
X32655256Y-78469242D02*
X32726685Y-78612100D01*
X32726685Y-78612100D02*
X32869542Y-78683528D01*
X32869542Y-78683528D02*
X33083828Y-78683528D01*
X33083828Y-78683528D02*
X33226685Y-78612100D01*
X33226685Y-78612100D02*
X33298114Y-78540671D01*
X33798114Y-77683528D02*
X34369542Y-77683528D01*
X34012399Y-77183528D02*
X34012399Y-78469242D01*
X34012399Y-78469242D02*
X34083828Y-78612100D01*
X34083828Y-78612100D02*
X34226685Y-78683528D01*
X34226685Y-78683528D02*
X34369542Y-78683528D01*
X34869542Y-78683528D02*
X34869542Y-77183528D01*
X35512400Y-78683528D02*
X35512400Y-77897814D01*
X35512400Y-77897814D02*
X35440971Y-77754957D01*
X35440971Y-77754957D02*
X35298114Y-77683528D01*
X35298114Y-77683528D02*
X35083828Y-77683528D01*
X35083828Y-77683528D02*
X34940971Y-77754957D01*
X34940971Y-77754957D02*
X34869542Y-77826385D01*
X36440971Y-78683528D02*
X36298114Y-78612100D01*
X36298114Y-78612100D02*
X36226685Y-78540671D01*
X36226685Y-78540671D02*
X36155257Y-78397814D01*
X36155257Y-78397814D02*
X36155257Y-77969242D01*
X36155257Y-77969242D02*
X36226685Y-77826385D01*
X36226685Y-77826385D02*
X36298114Y-77754957D01*
X36298114Y-77754957D02*
X36440971Y-77683528D01*
X36440971Y-77683528D02*
X36655257Y-77683528D01*
X36655257Y-77683528D02*
X36798114Y-77754957D01*
X36798114Y-77754957D02*
X36869543Y-77826385D01*
X36869543Y-77826385D02*
X36940971Y-77969242D01*
X36940971Y-77969242D02*
X36940971Y-78397814D01*
X36940971Y-78397814D02*
X36869543Y-78540671D01*
X36869543Y-78540671D02*
X36798114Y-78612100D01*
X36798114Y-78612100D02*
X36655257Y-78683528D01*
X36655257Y-78683528D02*
X36440971Y-78683528D01*
X37583828Y-78683528D02*
X37583828Y-77683528D01*
X37583828Y-77969242D02*
X37655257Y-77826385D01*
X37655257Y-77826385D02*
X37726686Y-77754957D01*
X37726686Y-77754957D02*
X37869543Y-77683528D01*
X37869543Y-77683528D02*
X38012400Y-77683528D01*
X38440971Y-78612100D02*
X38583828Y-78683528D01*
X38583828Y-78683528D02*
X38869542Y-78683528D01*
X38869542Y-78683528D02*
X39012399Y-78612100D01*
X39012399Y-78612100D02*
X39083828Y-78469242D01*
X39083828Y-78469242D02*
X39083828Y-78397814D01*
X39083828Y-78397814D02*
X39012399Y-78254957D01*
X39012399Y-78254957D02*
X38869542Y-78183528D01*
X38869542Y-78183528D02*
X38655257Y-78183528D01*
X38655257Y-78183528D02*
X38512399Y-78112100D01*
X38512399Y-78112100D02*
X38440971Y-77969242D01*
X38440971Y-77969242D02*
X38440971Y-77897814D01*
X38440971Y-77897814D02*
X38512399Y-77754957D01*
X38512399Y-77754957D02*
X38655257Y-77683528D01*
X38655257Y-77683528D02*
X38869542Y-77683528D01*
X38869542Y-77683528D02*
X39012399Y-77754957D01*
X40869542Y-78540671D02*
X40940971Y-78612100D01*
X40940971Y-78612100D02*
X40869542Y-78683528D01*
X40869542Y-78683528D02*
X40798114Y-78612100D01*
X40798114Y-78612100D02*
X40869542Y-78540671D01*
X40869542Y-78540671D02*
X40869542Y-78683528D01*
X40869542Y-77754957D02*
X40940971Y-77826385D01*
X40940971Y-77826385D02*
X40869542Y-77897814D01*
X40869542Y-77897814D02*
X40798114Y-77826385D01*
X40798114Y-77826385D02*
X40869542Y-77754957D01*
X40869542Y-77754957D02*
X40869542Y-77897814D01*
X43226685Y-77897814D02*
X43440971Y-77969242D01*
X43440971Y-77969242D02*
X43512400Y-78040671D01*
X43512400Y-78040671D02*
X43583828Y-78183528D01*
X43583828Y-78183528D02*
X43583828Y-78397814D01*
X43583828Y-78397814D02*
X43512400Y-78540671D01*
X43512400Y-78540671D02*
X43440971Y-78612100D01*
X43440971Y-78612100D02*
X43298114Y-78683528D01*
X43298114Y-78683528D02*
X42726685Y-78683528D01*
X42726685Y-78683528D02*
X42726685Y-77183528D01*
X42726685Y-77183528D02*
X43226685Y-77183528D01*
X43226685Y-77183528D02*
X43369543Y-77254957D01*
X43369543Y-77254957D02*
X43440971Y-77326385D01*
X43440971Y-77326385D02*
X43512400Y-77469242D01*
X43512400Y-77469242D02*
X43512400Y-77612100D01*
X43512400Y-77612100D02*
X43440971Y-77754957D01*
X43440971Y-77754957D02*
X43369543Y-77826385D01*
X43369543Y-77826385D02*
X43226685Y-77897814D01*
X43226685Y-77897814D02*
X42726685Y-77897814D01*
X44798114Y-78612100D02*
X44655257Y-78683528D01*
X44655257Y-78683528D02*
X44369543Y-78683528D01*
X44369543Y-78683528D02*
X44226685Y-78612100D01*
X44226685Y-78612100D02*
X44155257Y-78469242D01*
X44155257Y-78469242D02*
X44155257Y-77897814D01*
X44155257Y-77897814D02*
X44226685Y-77754957D01*
X44226685Y-77754957D02*
X44369543Y-77683528D01*
X44369543Y-77683528D02*
X44655257Y-77683528D01*
X44655257Y-77683528D02*
X44798114Y-77754957D01*
X44798114Y-77754957D02*
X44869543Y-77897814D01*
X44869543Y-77897814D02*
X44869543Y-78040671D01*
X44869543Y-78040671D02*
X44155257Y-78183528D01*
X45512399Y-78683528D02*
X45512399Y-77683528D01*
X45512399Y-77969242D02*
X45583828Y-77826385D01*
X45583828Y-77826385D02*
X45655257Y-77754957D01*
X45655257Y-77754957D02*
X45798114Y-77683528D01*
X45798114Y-77683528D02*
X45940971Y-77683528D01*
X46226685Y-77683528D02*
X46798113Y-77683528D01*
X46440970Y-77183528D02*
X46440970Y-78469242D01*
X46440970Y-78469242D02*
X46512399Y-78612100D01*
X46512399Y-78612100D02*
X46655256Y-78683528D01*
X46655256Y-78683528D02*
X46798113Y-78683528D01*
X47298113Y-78683528D02*
X47298113Y-77683528D01*
X47298113Y-77969242D02*
X47369542Y-77826385D01*
X47369542Y-77826385D02*
X47440971Y-77754957D01*
X47440971Y-77754957D02*
X47583828Y-77683528D01*
X47583828Y-77683528D02*
X47726685Y-77683528D01*
X48869542Y-78683528D02*
X48869542Y-77897814D01*
X48869542Y-77897814D02*
X48798113Y-77754957D01*
X48798113Y-77754957D02*
X48655256Y-77683528D01*
X48655256Y-77683528D02*
X48369542Y-77683528D01*
X48369542Y-77683528D02*
X48226684Y-77754957D01*
X48869542Y-78612100D02*
X48726684Y-78683528D01*
X48726684Y-78683528D02*
X48369542Y-78683528D01*
X48369542Y-78683528D02*
X48226684Y-78612100D01*
X48226684Y-78612100D02*
X48155256Y-78469242D01*
X48155256Y-78469242D02*
X48155256Y-78326385D01*
X48155256Y-78326385D02*
X48226684Y-78183528D01*
X48226684Y-78183528D02*
X48369542Y-78112100D01*
X48369542Y-78112100D02*
X48726684Y-78112100D01*
X48726684Y-78112100D02*
X48869542Y-78040671D01*
X49583827Y-77683528D02*
X49583827Y-78683528D01*
X49583827Y-77826385D02*
X49655256Y-77754957D01*
X49655256Y-77754957D02*
X49798113Y-77683528D01*
X49798113Y-77683528D02*
X50012399Y-77683528D01*
X50012399Y-77683528D02*
X50155256Y-77754957D01*
X50155256Y-77754957D02*
X50226685Y-77897814D01*
X50226685Y-77897814D02*
X50226685Y-78683528D01*
X51583828Y-78683528D02*
X51583828Y-77183528D01*
X51583828Y-78612100D02*
X51440970Y-78683528D01*
X51440970Y-78683528D02*
X51155256Y-78683528D01*
X51155256Y-78683528D02*
X51012399Y-78612100D01*
X51012399Y-78612100D02*
X50940970Y-78540671D01*
X50940970Y-78540671D02*
X50869542Y-78397814D01*
X50869542Y-78397814D02*
X50869542Y-77969242D01*
X50869542Y-77969242D02*
X50940970Y-77826385D01*
X50940970Y-77826385D02*
X51012399Y-77754957D01*
X51012399Y-77754957D02*
X51155256Y-77683528D01*
X51155256Y-77683528D02*
X51440970Y-77683528D01*
X51440970Y-77683528D02*
X51583828Y-77754957D01*
X53440970Y-78683528D02*
X53440970Y-77183528D01*
X53440970Y-77183528D02*
X53940970Y-78254957D01*
X53940970Y-78254957D02*
X54440970Y-77183528D01*
X54440970Y-77183528D02*
X54440970Y-78683528D01*
X55798114Y-78683528D02*
X55798114Y-77897814D01*
X55798114Y-77897814D02*
X55726685Y-77754957D01*
X55726685Y-77754957D02*
X55583828Y-77683528D01*
X55583828Y-77683528D02*
X55298114Y-77683528D01*
X55298114Y-77683528D02*
X55155256Y-77754957D01*
X55798114Y-78612100D02*
X55655256Y-78683528D01*
X55655256Y-78683528D02*
X55298114Y-78683528D01*
X55298114Y-78683528D02*
X55155256Y-78612100D01*
X55155256Y-78612100D02*
X55083828Y-78469242D01*
X55083828Y-78469242D02*
X55083828Y-78326385D01*
X55083828Y-78326385D02*
X55155256Y-78183528D01*
X55155256Y-78183528D02*
X55298114Y-78112100D01*
X55298114Y-78112100D02*
X55655256Y-78112100D01*
X55655256Y-78112100D02*
X55798114Y-78040671D01*
X56440971Y-78612100D02*
X56583828Y-78683528D01*
X56583828Y-78683528D02*
X56869542Y-78683528D01*
X56869542Y-78683528D02*
X57012399Y-78612100D01*
X57012399Y-78612100D02*
X57083828Y-78469242D01*
X57083828Y-78469242D02*
X57083828Y-78397814D01*
X57083828Y-78397814D02*
X57012399Y-78254957D01*
X57012399Y-78254957D02*
X56869542Y-78183528D01*
X56869542Y-78183528D02*
X56655257Y-78183528D01*
X56655257Y-78183528D02*
X56512399Y-78112100D01*
X56512399Y-78112100D02*
X56440971Y-77969242D01*
X56440971Y-77969242D02*
X56440971Y-77897814D01*
X56440971Y-77897814D02*
X56512399Y-77754957D01*
X56512399Y-77754957D02*
X56655257Y-77683528D01*
X56655257Y-77683528D02*
X56869542Y-77683528D01*
X56869542Y-77683528D02*
X57012399Y-77754957D01*
X57655257Y-78612100D02*
X57798114Y-78683528D01*
X57798114Y-78683528D02*
X58083828Y-78683528D01*
X58083828Y-78683528D02*
X58226685Y-78612100D01*
X58226685Y-78612100D02*
X58298114Y-78469242D01*
X58298114Y-78469242D02*
X58298114Y-78397814D01*
X58298114Y-78397814D02*
X58226685Y-78254957D01*
X58226685Y-78254957D02*
X58083828Y-78183528D01*
X58083828Y-78183528D02*
X57869543Y-78183528D01*
X57869543Y-78183528D02*
X57726685Y-78112100D01*
X57726685Y-78112100D02*
X57655257Y-77969242D01*
X57655257Y-77969242D02*
X57655257Y-77897814D01*
X57655257Y-77897814D02*
X57726685Y-77754957D01*
X57726685Y-77754957D02*
X57869543Y-77683528D01*
X57869543Y-77683528D02*
X58083828Y-77683528D01*
X58083828Y-77683528D02*
X58226685Y-77754957D01*
X59155257Y-78683528D02*
X59012400Y-78612100D01*
X59012400Y-78612100D02*
X58940971Y-78540671D01*
X58940971Y-78540671D02*
X58869543Y-78397814D01*
X58869543Y-78397814D02*
X58869543Y-77969242D01*
X58869543Y-77969242D02*
X58940971Y-77826385D01*
X58940971Y-77826385D02*
X59012400Y-77754957D01*
X59012400Y-77754957D02*
X59155257Y-77683528D01*
X59155257Y-77683528D02*
X59369543Y-77683528D01*
X59369543Y-77683528D02*
X59512400Y-77754957D01*
X59512400Y-77754957D02*
X59583829Y-77826385D01*
X59583829Y-77826385D02*
X59655257Y-77969242D01*
X59655257Y-77969242D02*
X59655257Y-78397814D01*
X59655257Y-78397814D02*
X59583829Y-78540671D01*
X59583829Y-78540671D02*
X59512400Y-78612100D01*
X59512400Y-78612100D02*
X59369543Y-78683528D01*
X59369543Y-78683528D02*
X59155257Y-78683528D01*
X60083829Y-77683528D02*
X60655257Y-77683528D01*
X60298114Y-77183528D02*
X60298114Y-78469242D01*
X60298114Y-78469242D02*
X60369543Y-78612100D01*
X60369543Y-78612100D02*
X60512400Y-78683528D01*
X60512400Y-78683528D02*
X60655257Y-78683528D01*
X61226686Y-78612100D02*
X61226686Y-78683528D01*
X61226686Y-78683528D02*
X61155257Y-78826385D01*
X61155257Y-78826385D02*
X61083829Y-78897814D01*
X63012400Y-78683528D02*
X63012400Y-77183528D01*
X63012400Y-77183528D02*
X63512400Y-78254957D01*
X63512400Y-78254957D02*
X64012400Y-77183528D01*
X64012400Y-77183528D02*
X64012400Y-78683528D01*
X65369544Y-78683528D02*
X65369544Y-77897814D01*
X65369544Y-77897814D02*
X65298115Y-77754957D01*
X65298115Y-77754957D02*
X65155258Y-77683528D01*
X65155258Y-77683528D02*
X64869544Y-77683528D01*
X64869544Y-77683528D02*
X64726686Y-77754957D01*
X65369544Y-78612100D02*
X65226686Y-78683528D01*
X65226686Y-78683528D02*
X64869544Y-78683528D01*
X64869544Y-78683528D02*
X64726686Y-78612100D01*
X64726686Y-78612100D02*
X64655258Y-78469242D01*
X64655258Y-78469242D02*
X64655258Y-78326385D01*
X64655258Y-78326385D02*
X64726686Y-78183528D01*
X64726686Y-78183528D02*
X64869544Y-78112100D01*
X64869544Y-78112100D02*
X65226686Y-78112100D01*
X65226686Y-78112100D02*
X65369544Y-78040671D01*
X65869544Y-77683528D02*
X66440972Y-77683528D01*
X66083829Y-77183528D02*
X66083829Y-78469242D01*
X66083829Y-78469242D02*
X66155258Y-78612100D01*
X66155258Y-78612100D02*
X66298115Y-78683528D01*
X66298115Y-78683528D02*
X66440972Y-78683528D01*
X66726687Y-77683528D02*
X67298115Y-77683528D01*
X66940972Y-77183528D02*
X66940972Y-78469242D01*
X66940972Y-78469242D02*
X67012401Y-78612100D01*
X67012401Y-78612100D02*
X67155258Y-78683528D01*
X67155258Y-78683528D02*
X67298115Y-78683528D01*
X67798115Y-78683528D02*
X67798115Y-77183528D01*
X68440973Y-78683528D02*
X68440973Y-77897814D01*
X68440973Y-77897814D02*
X68369544Y-77754957D01*
X68369544Y-77754957D02*
X68226687Y-77683528D01*
X68226687Y-77683528D02*
X68012401Y-77683528D01*
X68012401Y-77683528D02*
X67869544Y-77754957D01*
X67869544Y-77754957D02*
X67798115Y-77826385D01*
X69155258Y-78683528D02*
X69155258Y-77683528D01*
X69155258Y-77183528D02*
X69083830Y-77254957D01*
X69083830Y-77254957D02*
X69155258Y-77326385D01*
X69155258Y-77326385D02*
X69226687Y-77254957D01*
X69226687Y-77254957D02*
X69155258Y-77183528D01*
X69155258Y-77183528D02*
X69155258Y-77326385D01*
X70440973Y-78612100D02*
X70298116Y-78683528D01*
X70298116Y-78683528D02*
X70012402Y-78683528D01*
X70012402Y-78683528D02*
X69869544Y-78612100D01*
X69869544Y-78612100D02*
X69798116Y-78469242D01*
X69798116Y-78469242D02*
X69798116Y-77897814D01*
X69798116Y-77897814D02*
X69869544Y-77754957D01*
X69869544Y-77754957D02*
X70012402Y-77683528D01*
X70012402Y-77683528D02*
X70298116Y-77683528D01*
X70298116Y-77683528D02*
X70440973Y-77754957D01*
X70440973Y-77754957D02*
X70512402Y-77897814D01*
X70512402Y-77897814D02*
X70512402Y-78040671D01*
X70512402Y-78040671D02*
X69798116Y-78183528D01*
X71798116Y-77683528D02*
X71798116Y-78683528D01*
X71155258Y-77683528D02*
X71155258Y-78469242D01*
X71155258Y-78469242D02*
X71226687Y-78612100D01*
X71226687Y-78612100D02*
X71369544Y-78683528D01*
X71369544Y-78683528D02*
X71583830Y-78683528D01*
X71583830Y-78683528D02*
X71726687Y-78612100D01*
X71726687Y-78612100D02*
X71798116Y-78540671D01*
X73655258Y-78683528D02*
X73655258Y-77183528D01*
X73655258Y-77183528D02*
X74155258Y-78254957D01*
X74155258Y-78254957D02*
X74655258Y-77183528D01*
X74655258Y-77183528D02*
X74655258Y-78683528D01*
X75940973Y-78612100D02*
X75798116Y-78683528D01*
X75798116Y-78683528D02*
X75512402Y-78683528D01*
X75512402Y-78683528D02*
X75369544Y-78612100D01*
X75369544Y-78612100D02*
X75298116Y-78469242D01*
X75298116Y-78469242D02*
X75298116Y-77897814D01*
X75298116Y-77897814D02*
X75369544Y-77754957D01*
X75369544Y-77754957D02*
X75512402Y-77683528D01*
X75512402Y-77683528D02*
X75798116Y-77683528D01*
X75798116Y-77683528D02*
X75940973Y-77754957D01*
X75940973Y-77754957D02*
X76012402Y-77897814D01*
X76012402Y-77897814D02*
X76012402Y-78040671D01*
X76012402Y-78040671D02*
X75298116Y-78183528D01*
X76583830Y-78612100D02*
X76726687Y-78683528D01*
X76726687Y-78683528D02*
X77012401Y-78683528D01*
X77012401Y-78683528D02*
X77155258Y-78612100D01*
X77155258Y-78612100D02*
X77226687Y-78469242D01*
X77226687Y-78469242D02*
X77226687Y-78397814D01*
X77226687Y-78397814D02*
X77155258Y-78254957D01*
X77155258Y-78254957D02*
X77012401Y-78183528D01*
X77012401Y-78183528D02*
X76798116Y-78183528D01*
X76798116Y-78183528D02*
X76655258Y-78112100D01*
X76655258Y-78112100D02*
X76583830Y-77969242D01*
X76583830Y-77969242D02*
X76583830Y-77897814D01*
X76583830Y-77897814D02*
X76655258Y-77754957D01*
X76655258Y-77754957D02*
X76798116Y-77683528D01*
X76798116Y-77683528D02*
X77012401Y-77683528D01*
X77012401Y-77683528D02*
X77155258Y-77754957D01*
X77869544Y-77683528D02*
X77869544Y-78683528D01*
X77869544Y-77826385D02*
X77940973Y-77754957D01*
X77940973Y-77754957D02*
X78083830Y-77683528D01*
X78083830Y-77683528D02*
X78298116Y-77683528D01*
X78298116Y-77683528D02*
X78440973Y-77754957D01*
X78440973Y-77754957D02*
X78512402Y-77897814D01*
X78512402Y-77897814D02*
X78512402Y-78683528D01*
X79869545Y-78683528D02*
X79869545Y-77897814D01*
X79869545Y-77897814D02*
X79798116Y-77754957D01*
X79798116Y-77754957D02*
X79655259Y-77683528D01*
X79655259Y-77683528D02*
X79369545Y-77683528D01*
X79369545Y-77683528D02*
X79226687Y-77754957D01*
X79869545Y-78612100D02*
X79726687Y-78683528D01*
X79726687Y-78683528D02*
X79369545Y-78683528D01*
X79369545Y-78683528D02*
X79226687Y-78612100D01*
X79226687Y-78612100D02*
X79155259Y-78469242D01*
X79155259Y-78469242D02*
X79155259Y-78326385D01*
X79155259Y-78326385D02*
X79226687Y-78183528D01*
X79226687Y-78183528D02*
X79369545Y-78112100D01*
X79369545Y-78112100D02*
X79726687Y-78112100D01*
X79726687Y-78112100D02*
X79869545Y-78040671D01*
X81226688Y-77683528D02*
X81226688Y-78897814D01*
X81226688Y-78897814D02*
X81155259Y-79040671D01*
X81155259Y-79040671D02*
X81083830Y-79112100D01*
X81083830Y-79112100D02*
X80940973Y-79183528D01*
X80940973Y-79183528D02*
X80726688Y-79183528D01*
X80726688Y-79183528D02*
X80583830Y-79112100D01*
X81226688Y-78612100D02*
X81083830Y-78683528D01*
X81083830Y-78683528D02*
X80798116Y-78683528D01*
X80798116Y-78683528D02*
X80655259Y-78612100D01*
X80655259Y-78612100D02*
X80583830Y-78540671D01*
X80583830Y-78540671D02*
X80512402Y-78397814D01*
X80512402Y-78397814D02*
X80512402Y-77969242D01*
X80512402Y-77969242D02*
X80583830Y-77826385D01*
X80583830Y-77826385D02*
X80655259Y-77754957D01*
X80655259Y-77754957D02*
X80798116Y-77683528D01*
X80798116Y-77683528D02*
X81083830Y-77683528D01*
X81083830Y-77683528D02*
X81226688Y-77754957D01*
X82512402Y-78612100D02*
X82369545Y-78683528D01*
X82369545Y-78683528D02*
X82083831Y-78683528D01*
X82083831Y-78683528D02*
X81940973Y-78612100D01*
X81940973Y-78612100D02*
X81869545Y-78469242D01*
X81869545Y-78469242D02*
X81869545Y-77897814D01*
X81869545Y-77897814D02*
X81940973Y-77754957D01*
X81940973Y-77754957D02*
X82083831Y-77683528D01*
X82083831Y-77683528D02*
X82369545Y-77683528D01*
X82369545Y-77683528D02*
X82512402Y-77754957D01*
X82512402Y-77754957D02*
X82583831Y-77897814D01*
X82583831Y-77897814D02*
X82583831Y-78040671D01*
X82583831Y-78040671D02*
X81869545Y-78183528D01*
X83298116Y-78612100D02*
X83298116Y-78683528D01*
X83298116Y-78683528D02*
X83226687Y-78826385D01*
X83226687Y-78826385D02*
X83155259Y-78897814D01*
X85083830Y-78683528D02*
X85083830Y-77183528D01*
X85083830Y-77897814D02*
X85940973Y-77897814D01*
X85940973Y-78683528D02*
X85940973Y-77183528D01*
X87298117Y-77683528D02*
X87298117Y-78683528D01*
X86655259Y-77683528D02*
X86655259Y-78469242D01*
X86655259Y-78469242D02*
X86726688Y-78612100D01*
X86726688Y-78612100D02*
X86869545Y-78683528D01*
X86869545Y-78683528D02*
X87083831Y-78683528D01*
X87083831Y-78683528D02*
X87226688Y-78612100D01*
X87226688Y-78612100D02*
X87298117Y-78540671D01*
X88655260Y-77683528D02*
X88655260Y-78897814D01*
X88655260Y-78897814D02*
X88583831Y-79040671D01*
X88583831Y-79040671D02*
X88512402Y-79112100D01*
X88512402Y-79112100D02*
X88369545Y-79183528D01*
X88369545Y-79183528D02*
X88155260Y-79183528D01*
X88155260Y-79183528D02*
X88012402Y-79112100D01*
X88655260Y-78612100D02*
X88512402Y-78683528D01*
X88512402Y-78683528D02*
X88226688Y-78683528D01*
X88226688Y-78683528D02*
X88083831Y-78612100D01*
X88083831Y-78612100D02*
X88012402Y-78540671D01*
X88012402Y-78540671D02*
X87940974Y-78397814D01*
X87940974Y-78397814D02*
X87940974Y-77969242D01*
X87940974Y-77969242D02*
X88012402Y-77826385D01*
X88012402Y-77826385D02*
X88083831Y-77754957D01*
X88083831Y-77754957D02*
X88226688Y-77683528D01*
X88226688Y-77683528D02*
X88512402Y-77683528D01*
X88512402Y-77683528D02*
X88655260Y-77754957D01*
X89583831Y-78683528D02*
X89440974Y-78612100D01*
X89440974Y-78612100D02*
X89369545Y-78540671D01*
X89369545Y-78540671D02*
X89298117Y-78397814D01*
X89298117Y-78397814D02*
X89298117Y-77969242D01*
X89298117Y-77969242D02*
X89369545Y-77826385D01*
X89369545Y-77826385D02*
X89440974Y-77754957D01*
X89440974Y-77754957D02*
X89583831Y-77683528D01*
X89583831Y-77683528D02*
X89798117Y-77683528D01*
X89798117Y-77683528D02*
X89940974Y-77754957D01*
X89940974Y-77754957D02*
X90012403Y-77826385D01*
X90012403Y-77826385D02*
X90083831Y-77969242D01*
X90083831Y-77969242D02*
X90083831Y-78397814D01*
X90083831Y-78397814D02*
X90012403Y-78540671D01*
X90012403Y-78540671D02*
X89940974Y-78612100D01*
X89940974Y-78612100D02*
X89798117Y-78683528D01*
X89798117Y-78683528D02*
X89583831Y-78683528D01*
X92369545Y-77897814D02*
X92583831Y-77969242D01*
X92583831Y-77969242D02*
X92655260Y-78040671D01*
X92655260Y-78040671D02*
X92726688Y-78183528D01*
X92726688Y-78183528D02*
X92726688Y-78397814D01*
X92726688Y-78397814D02*
X92655260Y-78540671D01*
X92655260Y-78540671D02*
X92583831Y-78612100D01*
X92583831Y-78612100D02*
X92440974Y-78683528D01*
X92440974Y-78683528D02*
X91869545Y-78683528D01*
X91869545Y-78683528D02*
X91869545Y-77183528D01*
X91869545Y-77183528D02*
X92369545Y-77183528D01*
X92369545Y-77183528D02*
X92512403Y-77254957D01*
X92512403Y-77254957D02*
X92583831Y-77326385D01*
X92583831Y-77326385D02*
X92655260Y-77469242D01*
X92655260Y-77469242D02*
X92655260Y-77612100D01*
X92655260Y-77612100D02*
X92583831Y-77754957D01*
X92583831Y-77754957D02*
X92512403Y-77826385D01*
X92512403Y-77826385D02*
X92369545Y-77897814D01*
X92369545Y-77897814D02*
X91869545Y-77897814D01*
X94012403Y-77683528D02*
X94012403Y-78683528D01*
X93369545Y-77683528D02*
X93369545Y-78469242D01*
X93369545Y-78469242D02*
X93440974Y-78612100D01*
X93440974Y-78612100D02*
X93583831Y-78683528D01*
X93583831Y-78683528D02*
X93798117Y-78683528D01*
X93798117Y-78683528D02*
X93940974Y-78612100D01*
X93940974Y-78612100D02*
X94012403Y-78540671D01*
X94583831Y-77683528D02*
X94940974Y-78683528D01*
X95298117Y-77683528D02*
X94940974Y-78683528D01*
X94940974Y-78683528D02*
X94798117Y-79040671D01*
X94798117Y-79040671D02*
X94726688Y-79112100D01*
X94726688Y-79112100D02*
X94583831Y-79183528D01*
D10*
D11*
X50012400Y-101489600D02*
X50012400Y-104489600D01*
D10*
D11*
X114012400Y-101489600D02*
X114012400Y-107989600D01*
D12*
X66602857Y-34346428D02*
X67460000Y-34346428D01*
X67031428Y-35846428D02*
X67031428Y-34346428D01*
X68174285Y-35846428D02*
X68031428Y-35775000D01*
X68031428Y-35775000D02*
X67959999Y-35703571D01*
X67959999Y-35703571D02*
X67888571Y-35560714D01*
X67888571Y-35560714D02*
X67888571Y-35132142D01*
X67888571Y-35132142D02*
X67959999Y-34989285D01*
X67959999Y-34989285D02*
X68031428Y-34917857D01*
X68031428Y-34917857D02*
X68174285Y-34846428D01*
X68174285Y-34846428D02*
X68388571Y-34846428D01*
X68388571Y-34846428D02*
X68531428Y-34917857D01*
X68531428Y-34917857D02*
X68602857Y-34989285D01*
X68602857Y-34989285D02*
X68674285Y-35132142D01*
X68674285Y-35132142D02*
X68674285Y-35560714D01*
X68674285Y-35560714D02*
X68602857Y-35703571D01*
X68602857Y-35703571D02*
X68531428Y-35775000D01*
X68531428Y-35775000D02*
X68388571Y-35846428D01*
X68388571Y-35846428D02*
X68174285Y-35846428D01*
X69317142Y-34846428D02*
X69317142Y-36346428D01*
X69317142Y-34917857D02*
X69460000Y-34846428D01*
X69460000Y-34846428D02*
X69745714Y-34846428D01*
X69745714Y-34846428D02*
X69888571Y-34917857D01*
X69888571Y-34917857D02*
X69960000Y-34989285D01*
X69960000Y-34989285D02*
X70031428Y-35132142D01*
X70031428Y-35132142D02*
X70031428Y-35560714D01*
X70031428Y-35560714D02*
X69960000Y-35703571D01*
X69960000Y-35703571D02*
X69888571Y-35775000D01*
X69888571Y-35775000D02*
X69745714Y-35846428D01*
X69745714Y-35846428D02*
X69460000Y-35846428D01*
X69460000Y-35846428D02*
X69317142Y-35775000D01*
X71745714Y-35775000D02*
X71960000Y-35846428D01*
X71960000Y-35846428D02*
X72317142Y-35846428D01*
X72317142Y-35846428D02*
X72460000Y-35775000D01*
X72460000Y-35775000D02*
X72531428Y-35703571D01*
X72531428Y-35703571D02*
X72602857Y-35560714D01*
X72602857Y-35560714D02*
X72602857Y-35417857D01*
X72602857Y-35417857D02*
X72531428Y-35275000D01*
X72531428Y-35275000D02*
X72460000Y-35203571D01*
X72460000Y-35203571D02*
X72317142Y-35132142D01*
X72317142Y-35132142D02*
X72031428Y-35060714D01*
X72031428Y-35060714D02*
X71888571Y-34989285D01*
X71888571Y-34989285D02*
X71817142Y-34917857D01*
X71817142Y-34917857D02*
X71745714Y-34775000D01*
X71745714Y-34775000D02*
X71745714Y-34632142D01*
X71745714Y-34632142D02*
X71817142Y-34489285D01*
X71817142Y-34489285D02*
X71888571Y-34417857D01*
X71888571Y-34417857D02*
X72031428Y-34346428D01*
X72031428Y-34346428D02*
X72388571Y-34346428D01*
X72388571Y-34346428D02*
X72602857Y-34417857D01*
X73459999Y-35846428D02*
X73317142Y-35775000D01*
X73317142Y-35775000D02*
X73245713Y-35703571D01*
X73245713Y-35703571D02*
X73174285Y-35560714D01*
X73174285Y-35560714D02*
X73174285Y-35132142D01*
X73174285Y-35132142D02*
X73245713Y-34989285D01*
X73245713Y-34989285D02*
X73317142Y-34917857D01*
X73317142Y-34917857D02*
X73459999Y-34846428D01*
X73459999Y-34846428D02*
X73674285Y-34846428D01*
X73674285Y-34846428D02*
X73817142Y-34917857D01*
X73817142Y-34917857D02*
X73888571Y-34989285D01*
X73888571Y-34989285D02*
X73959999Y-35132142D01*
X73959999Y-35132142D02*
X73959999Y-35560714D01*
X73959999Y-35560714D02*
X73888571Y-35703571D01*
X73888571Y-35703571D02*
X73817142Y-35775000D01*
X73817142Y-35775000D02*
X73674285Y-35846428D01*
X73674285Y-35846428D02*
X73459999Y-35846428D01*
X74817142Y-35846428D02*
X74674285Y-35775000D01*
X74674285Y-35775000D02*
X74602856Y-35632142D01*
X74602856Y-35632142D02*
X74602856Y-34346428D01*
X76031428Y-35846428D02*
X76031428Y-34346428D01*
X76031428Y-35775000D02*
X75888570Y-35846428D01*
X75888570Y-35846428D02*
X75602856Y-35846428D01*
X75602856Y-35846428D02*
X75459999Y-35775000D01*
X75459999Y-35775000D02*
X75388570Y-35703571D01*
X75388570Y-35703571D02*
X75317142Y-35560714D01*
X75317142Y-35560714D02*
X75317142Y-35132142D01*
X75317142Y-35132142D02*
X75388570Y-34989285D01*
X75388570Y-34989285D02*
X75459999Y-34917857D01*
X75459999Y-34917857D02*
X75602856Y-34846428D01*
X75602856Y-34846428D02*
X75888570Y-34846428D01*
X75888570Y-34846428D02*
X76031428Y-34917857D01*
X77317142Y-35775000D02*
X77174285Y-35846428D01*
X77174285Y-35846428D02*
X76888571Y-35846428D01*
X76888571Y-35846428D02*
X76745713Y-35775000D01*
X76745713Y-35775000D02*
X76674285Y-35632142D01*
X76674285Y-35632142D02*
X76674285Y-35060714D01*
X76674285Y-35060714D02*
X76745713Y-34917857D01*
X76745713Y-34917857D02*
X76888571Y-34846428D01*
X76888571Y-34846428D02*
X77174285Y-34846428D01*
X77174285Y-34846428D02*
X77317142Y-34917857D01*
X77317142Y-34917857D02*
X77388571Y-35060714D01*
X77388571Y-35060714D02*
X77388571Y-35203571D01*
X77388571Y-35203571D02*
X76674285Y-35346428D01*
X78031427Y-35846428D02*
X78031427Y-34846428D01*
X78031427Y-35132142D02*
X78102856Y-34989285D01*
X78102856Y-34989285D02*
X78174285Y-34917857D01*
X78174285Y-34917857D02*
X78317142Y-34846428D01*
X78317142Y-34846428D02*
X78459999Y-34846428D01*
X80102855Y-35846428D02*
X80102855Y-34346428D01*
X80102855Y-34346428D02*
X80674284Y-34346428D01*
X80674284Y-34346428D02*
X80817141Y-34417857D01*
X80817141Y-34417857D02*
X80888570Y-34489285D01*
X80888570Y-34489285D02*
X80959998Y-34632142D01*
X80959998Y-34632142D02*
X80959998Y-34846428D01*
X80959998Y-34846428D02*
X80888570Y-34989285D01*
X80888570Y-34989285D02*
X80817141Y-35060714D01*
X80817141Y-35060714D02*
X80674284Y-35132142D01*
X80674284Y-35132142D02*
X80102855Y-35132142D01*
X82245713Y-35846428D02*
X82245713Y-35060714D01*
X82245713Y-35060714D02*
X82174284Y-34917857D01*
X82174284Y-34917857D02*
X82031427Y-34846428D01*
X82031427Y-34846428D02*
X81745713Y-34846428D01*
X81745713Y-34846428D02*
X81602855Y-34917857D01*
X82245713Y-35775000D02*
X82102855Y-35846428D01*
X82102855Y-35846428D02*
X81745713Y-35846428D01*
X81745713Y-35846428D02*
X81602855Y-35775000D01*
X81602855Y-35775000D02*
X81531427Y-35632142D01*
X81531427Y-35632142D02*
X81531427Y-35489285D01*
X81531427Y-35489285D02*
X81602855Y-35346428D01*
X81602855Y-35346428D02*
X81745713Y-35275000D01*
X81745713Y-35275000D02*
X82102855Y-35275000D01*
X82102855Y-35275000D02*
X82245713Y-35203571D01*
X82888570Y-35775000D02*
X83031427Y-35846428D01*
X83031427Y-35846428D02*
X83317141Y-35846428D01*
X83317141Y-35846428D02*
X83459998Y-35775000D01*
X83459998Y-35775000D02*
X83531427Y-35632142D01*
X83531427Y-35632142D02*
X83531427Y-35560714D01*
X83531427Y-35560714D02*
X83459998Y-35417857D01*
X83459998Y-35417857D02*
X83317141Y-35346428D01*
X83317141Y-35346428D02*
X83102856Y-35346428D01*
X83102856Y-35346428D02*
X82959998Y-35275000D01*
X82959998Y-35275000D02*
X82888570Y-35132142D01*
X82888570Y-35132142D02*
X82888570Y-35060714D01*
X82888570Y-35060714D02*
X82959998Y-34917857D01*
X82959998Y-34917857D02*
X83102856Y-34846428D01*
X83102856Y-34846428D02*
X83317141Y-34846428D01*
X83317141Y-34846428D02*
X83459998Y-34917857D01*
X83959999Y-34846428D02*
X84531427Y-34846428D01*
X84174284Y-34346428D02*
X84174284Y-35632142D01*
X84174284Y-35632142D02*
X84245713Y-35775000D01*
X84245713Y-35775000D02*
X84388570Y-35846428D01*
X84388570Y-35846428D02*
X84531427Y-35846428D01*
X85602856Y-35775000D02*
X85459999Y-35846428D01*
X85459999Y-35846428D02*
X85174285Y-35846428D01*
X85174285Y-35846428D02*
X85031427Y-35775000D01*
X85031427Y-35775000D02*
X84959999Y-35632142D01*
X84959999Y-35632142D02*
X84959999Y-35060714D01*
X84959999Y-35060714D02*
X85031427Y-34917857D01*
X85031427Y-34917857D02*
X85174285Y-34846428D01*
X85174285Y-34846428D02*
X85459999Y-34846428D01*
X85459999Y-34846428D02*
X85602856Y-34917857D01*
X85602856Y-34917857D02*
X85674285Y-35060714D01*
X85674285Y-35060714D02*
X85674285Y-35203571D01*
X85674285Y-35203571D02*
X84959999Y-35346428D01*
%TO.C,U2*%
D14*
X34451029Y-50727023D02*
X33391029Y-50727023D01*
X33391029Y-49667023D01*
X34451029Y-49667023D01*
X34451029Y-50727023D01*
G36*
X34451029Y-50727023D02*
G01*
X33391029Y-50727023D01*
X33391029Y-49667023D01*
X34451029Y-49667023D01*
X34451029Y-50727023D01*
G37*
%TO.C,U3*%
X41175000Y-48575000D02*
X40925000Y-48575000D01*
X40925000Y-48050000D01*
X41175000Y-48050000D01*
X41175000Y-48575000D01*
G36*
X41175000Y-48575000D02*
G01*
X40925000Y-48575000D01*
X40925000Y-48050000D01*
X41175000Y-48050000D01*
X41175000Y-48575000D01*
G37*
X41175000Y-45850000D02*
X40925000Y-45850000D01*
X40925000Y-45325000D01*
X41175000Y-45325000D01*
X41175000Y-45850000D01*
G36*
X41175000Y-45850000D02*
G01*
X40925000Y-45850000D01*
X40925000Y-45325000D01*
X41175000Y-45325000D01*
X41175000Y-45850000D01*
G37*
X41050000Y-47850000D02*
X40050000Y-47850000D01*
X40050000Y-47050000D01*
X41050000Y-47050000D01*
X41050000Y-47850000D01*
G36*
X41050000Y-47850000D02*
G01*
X40050000Y-47850000D01*
X40050000Y-47050000D01*
X41050000Y-47050000D01*
X41050000Y-47850000D01*
G37*
X41050000Y-46850000D02*
X40050000Y-46850000D01*
X40050000Y-46050000D01*
X41050000Y-46050000D01*
X41050000Y-46850000D01*
G36*
X41050000Y-46850000D02*
G01*
X40050000Y-46850000D01*
X40050000Y-46050000D01*
X41050000Y-46050000D01*
X41050000Y-46850000D01*
G37*
X39850000Y-47850000D02*
X38850000Y-47850000D01*
X38850000Y-47050000D01*
X39850000Y-47050000D01*
X39850000Y-47850000D01*
G36*
X39850000Y-47850000D02*
G01*
X38850000Y-47850000D01*
X38850000Y-47050000D01*
X39850000Y-47050000D01*
X39850000Y-47850000D01*
G37*
X39850000Y-46850000D02*
X38850000Y-46850000D01*
X38850000Y-46050000D01*
X39850000Y-46050000D01*
X39850000Y-46850000D01*
G36*
X39850000Y-46850000D02*
G01*
X38850000Y-46850000D01*
X38850000Y-46050000D01*
X39850000Y-46050000D01*
X39850000Y-46850000D01*
G37*
X38975000Y-48575000D02*
X38725000Y-48575000D01*
X38725000Y-48050000D01*
X38975000Y-48050000D01*
X38975000Y-48575000D01*
G36*
X38975000Y-48575000D02*
G01*
X38725000Y-48575000D01*
X38725000Y-48050000D01*
X38975000Y-48050000D01*
X38975000Y-48575000D01*
G37*
X38975000Y-45850000D02*
X38725000Y-45850000D01*
X38725000Y-45325000D01*
X38975000Y-45325000D01*
X38975000Y-45850000D01*
G36*
X38975000Y-45850000D02*
G01*
X38725000Y-45850000D01*
X38725000Y-45325000D01*
X38975000Y-45325000D01*
X38975000Y-45850000D01*
G37*
X42325000Y-47950000D02*
X42325000Y-48050000D01*
X41625000Y-48050000D01*
X41620000Y-48050000D01*
X41615000Y-48049000D01*
X41609000Y-48049000D01*
X41604000Y-48048000D01*
X41599000Y-48047000D01*
X41594000Y-48045000D01*
X41589000Y-48043000D01*
X41584000Y-48041000D01*
X41580000Y-48039000D01*
X41575000Y-48037000D01*
X41571000Y-48034000D01*
X41566000Y-48031000D01*
X41562000Y-48028000D01*
X41558000Y-48024000D01*
X41554000Y-48021000D01*
X41551000Y-48017000D01*
X41547000Y-48013000D01*
X41544000Y-48009000D01*
X41541000Y-48004000D01*
X41538000Y-48000000D01*
X41536000Y-47995000D01*
X41534000Y-47991000D01*
X41532000Y-47986000D01*
X41530000Y-47981000D01*
X41528000Y-47976000D01*
X41527000Y-47971000D01*
X41526000Y-47966000D01*
X41526000Y-47960000D01*
X41525000Y-47955000D01*
X41525000Y-47950000D01*
X41525000Y-47945000D01*
X41526000Y-47940000D01*
X41526000Y-47934000D01*
X41527000Y-47929000D01*
X41528000Y-47924000D01*
X41530000Y-47919000D01*
X41532000Y-47914000D01*
X41534000Y-47909000D01*
X41536000Y-47905000D01*
X41538000Y-47900000D01*
X41541000Y-47896000D01*
X41544000Y-47891000D01*
X41547000Y-47887000D01*
X41551000Y-47883000D01*
X41554000Y-47879000D01*
X41558000Y-47876000D01*
X41562000Y-47872000D01*
X41566000Y-47869000D01*
X41571000Y-47866000D01*
X41575000Y-47863000D01*
X41580000Y-47861000D01*
X41584000Y-47859000D01*
X41589000Y-47857000D01*
X41594000Y-47855000D01*
X41599000Y-47853000D01*
X41604000Y-47852000D01*
X41609000Y-47851000D01*
X41615000Y-47851000D01*
X41620000Y-47850000D01*
X41625000Y-47850000D01*
X42325000Y-47850000D01*
X42325000Y-47950000D01*
G36*
X42325000Y-47950000D02*
G01*
X42325000Y-48050000D01*
X41625000Y-48050000D01*
X41620000Y-48050000D01*
X41615000Y-48049000D01*
X41609000Y-48049000D01*
X41604000Y-48048000D01*
X41599000Y-48047000D01*
X41594000Y-48045000D01*
X41589000Y-48043000D01*
X41584000Y-48041000D01*
X41580000Y-48039000D01*
X41575000Y-48037000D01*
X41571000Y-48034000D01*
X41566000Y-48031000D01*
X41562000Y-48028000D01*
X41558000Y-48024000D01*
X41554000Y-48021000D01*
X41551000Y-48017000D01*
X41547000Y-48013000D01*
X41544000Y-48009000D01*
X41541000Y-48004000D01*
X41538000Y-48000000D01*
X41536000Y-47995000D01*
X41534000Y-47991000D01*
X41532000Y-47986000D01*
X41530000Y-47981000D01*
X41528000Y-47976000D01*
X41527000Y-47971000D01*
X41526000Y-47966000D01*
X41526000Y-47960000D01*
X41525000Y-47955000D01*
X41525000Y-47950000D01*
X41525000Y-47945000D01*
X41526000Y-47940000D01*
X41526000Y-47934000D01*
X41527000Y-47929000D01*
X41528000Y-47924000D01*
X41530000Y-47919000D01*
X41532000Y-47914000D01*
X41534000Y-47909000D01*
X41536000Y-47905000D01*
X41538000Y-47900000D01*
X41541000Y-47896000D01*
X41544000Y-47891000D01*
X41547000Y-47887000D01*
X41551000Y-47883000D01*
X41554000Y-47879000D01*
X41558000Y-47876000D01*
X41562000Y-47872000D01*
X41566000Y-47869000D01*
X41571000Y-47866000D01*
X41575000Y-47863000D01*
X41580000Y-47861000D01*
X41584000Y-47859000D01*
X41589000Y-47857000D01*
X41594000Y-47855000D01*
X41599000Y-47853000D01*
X41604000Y-47852000D01*
X41609000Y-47851000D01*
X41615000Y-47851000D01*
X41620000Y-47850000D01*
X41625000Y-47850000D01*
X42325000Y-47850000D01*
X42325000Y-47950000D01*
G37*
X42325000Y-47550000D02*
X42325000Y-47650000D01*
X41625000Y-47650000D01*
X41620000Y-47650000D01*
X41615000Y-47649000D01*
X41609000Y-47649000D01*
X41604000Y-47648000D01*
X41599000Y-47647000D01*
X41594000Y-47645000D01*
X41589000Y-47643000D01*
X41584000Y-47641000D01*
X41580000Y-47639000D01*
X41575000Y-47637000D01*
X41571000Y-47634000D01*
X41566000Y-47631000D01*
X41562000Y-47628000D01*
X41558000Y-47624000D01*
X41554000Y-47621000D01*
X41551000Y-47617000D01*
X41547000Y-47613000D01*
X41544000Y-47609000D01*
X41541000Y-47604000D01*
X41538000Y-47600000D01*
X41536000Y-47595000D01*
X41534000Y-47591000D01*
X41532000Y-47586000D01*
X41530000Y-47581000D01*
X41528000Y-47576000D01*
X41527000Y-47571000D01*
X41526000Y-47566000D01*
X41526000Y-47560000D01*
X41525000Y-47555000D01*
X41525000Y-47550000D01*
X41525000Y-47545000D01*
X41526000Y-47540000D01*
X41526000Y-47534000D01*
X41527000Y-47529000D01*
X41528000Y-47524000D01*
X41530000Y-47519000D01*
X41532000Y-47514000D01*
X41534000Y-47509000D01*
X41536000Y-47505000D01*
X41538000Y-47500000D01*
X41541000Y-47496000D01*
X41544000Y-47491000D01*
X41547000Y-47487000D01*
X41551000Y-47483000D01*
X41554000Y-47479000D01*
X41558000Y-47476000D01*
X41562000Y-47472000D01*
X41566000Y-47469000D01*
X41571000Y-47466000D01*
X41575000Y-47463000D01*
X41580000Y-47461000D01*
X41584000Y-47459000D01*
X41589000Y-47457000D01*
X41594000Y-47455000D01*
X41599000Y-47453000D01*
X41604000Y-47452000D01*
X41609000Y-47451000D01*
X41615000Y-47451000D01*
X41620000Y-47450000D01*
X41625000Y-47450000D01*
X42325000Y-47450000D01*
X42325000Y-47550000D01*
G36*
X42325000Y-47550000D02*
G01*
X42325000Y-47650000D01*
X41625000Y-47650000D01*
X41620000Y-47650000D01*
X41615000Y-47649000D01*
X41609000Y-47649000D01*
X41604000Y-47648000D01*
X41599000Y-47647000D01*
X41594000Y-47645000D01*
X41589000Y-47643000D01*
X41584000Y-47641000D01*
X41580000Y-47639000D01*
X41575000Y-47637000D01*
X41571000Y-47634000D01*
X41566000Y-47631000D01*
X41562000Y-47628000D01*
X41558000Y-47624000D01*
X41554000Y-47621000D01*
X41551000Y-47617000D01*
X41547000Y-47613000D01*
X41544000Y-47609000D01*
X41541000Y-47604000D01*
X41538000Y-47600000D01*
X41536000Y-47595000D01*
X41534000Y-47591000D01*
X41532000Y-47586000D01*
X41530000Y-47581000D01*
X41528000Y-47576000D01*
X41527000Y-47571000D01*
X41526000Y-47566000D01*
X41526000Y-47560000D01*
X41525000Y-47555000D01*
X41525000Y-47550000D01*
X41525000Y-47545000D01*
X41526000Y-47540000D01*
X41526000Y-47534000D01*
X41527000Y-47529000D01*
X41528000Y-47524000D01*
X41530000Y-47519000D01*
X41532000Y-47514000D01*
X41534000Y-47509000D01*
X41536000Y-47505000D01*
X41538000Y-47500000D01*
X41541000Y-47496000D01*
X41544000Y-47491000D01*
X41547000Y-47487000D01*
X41551000Y-47483000D01*
X41554000Y-47479000D01*
X41558000Y-47476000D01*
X41562000Y-47472000D01*
X41566000Y-47469000D01*
X41571000Y-47466000D01*
X41575000Y-47463000D01*
X41580000Y-47461000D01*
X41584000Y-47459000D01*
X41589000Y-47457000D01*
X41594000Y-47455000D01*
X41599000Y-47453000D01*
X41604000Y-47452000D01*
X41609000Y-47451000D01*
X41615000Y-47451000D01*
X41620000Y-47450000D01*
X41625000Y-47450000D01*
X42325000Y-47450000D01*
X42325000Y-47550000D01*
G37*
X42325000Y-47550000D02*
X42325000Y-47650000D01*
X41625000Y-47650000D01*
X41620000Y-47650000D01*
X41615000Y-47649000D01*
X41609000Y-47649000D01*
X41604000Y-47648000D01*
X41599000Y-47647000D01*
X41594000Y-47645000D01*
X41589000Y-47643000D01*
X41584000Y-47641000D01*
X41580000Y-47639000D01*
X41575000Y-47637000D01*
X41571000Y-47634000D01*
X41566000Y-47631000D01*
X41562000Y-47628000D01*
X41558000Y-47624000D01*
X41554000Y-47621000D01*
X41551000Y-47617000D01*
X41547000Y-47613000D01*
X41544000Y-47609000D01*
X41541000Y-47604000D01*
X41538000Y-47600000D01*
X41536000Y-47595000D01*
X41534000Y-47591000D01*
X41532000Y-47586000D01*
X41530000Y-47581000D01*
X41528000Y-47576000D01*
X41527000Y-47571000D01*
X41526000Y-47566000D01*
X41526000Y-47560000D01*
X41525000Y-47555000D01*
X41525000Y-47550000D01*
X41525000Y-47545000D01*
X41526000Y-47540000D01*
X41526000Y-47534000D01*
X41527000Y-47529000D01*
X41528000Y-47524000D01*
X41530000Y-47519000D01*
X41532000Y-47514000D01*
X41534000Y-47509000D01*
X41536000Y-47505000D01*
X41538000Y-47500000D01*
X41541000Y-47496000D01*
X41544000Y-47491000D01*
X41547000Y-47487000D01*
X41551000Y-47483000D01*
X41554000Y-47479000D01*
X41558000Y-47476000D01*
X41562000Y-47472000D01*
X41566000Y-47469000D01*
X41571000Y-47466000D01*
X41575000Y-47463000D01*
X41580000Y-47461000D01*
X41584000Y-47459000D01*
X41589000Y-47457000D01*
X41594000Y-47455000D01*
X41599000Y-47453000D01*
X41604000Y-47452000D01*
X41609000Y-47451000D01*
X41615000Y-47451000D01*
X41620000Y-47450000D01*
X41625000Y-47450000D01*
X42325000Y-47450000D01*
X42325000Y-47550000D01*
G36*
X42325000Y-47550000D02*
G01*
X42325000Y-47650000D01*
X41625000Y-47650000D01*
X41620000Y-47650000D01*
X41615000Y-47649000D01*
X41609000Y-47649000D01*
X41604000Y-47648000D01*
X41599000Y-47647000D01*
X41594000Y-47645000D01*
X41589000Y-47643000D01*
X41584000Y-47641000D01*
X41580000Y-47639000D01*
X41575000Y-47637000D01*
X41571000Y-47634000D01*
X41566000Y-47631000D01*
X41562000Y-47628000D01*
X41558000Y-47624000D01*
X41554000Y-47621000D01*
X41551000Y-47617000D01*
X41547000Y-47613000D01*
X41544000Y-47609000D01*
X41541000Y-47604000D01*
X41538000Y-47600000D01*
X41536000Y-47595000D01*
X41534000Y-47591000D01*
X41532000Y-47586000D01*
X41530000Y-47581000D01*
X41528000Y-47576000D01*
X41527000Y-47571000D01*
X41526000Y-47566000D01*
X41526000Y-47560000D01*
X41525000Y-47555000D01*
X41525000Y-47550000D01*
X41525000Y-47545000D01*
X41526000Y-47540000D01*
X41526000Y-47534000D01*
X41527000Y-47529000D01*
X41528000Y-47524000D01*
X41530000Y-47519000D01*
X41532000Y-47514000D01*
X41534000Y-47509000D01*
X41536000Y-47505000D01*
X41538000Y-47500000D01*
X41541000Y-47496000D01*
X41544000Y-47491000D01*
X41547000Y-47487000D01*
X41551000Y-47483000D01*
X41554000Y-47479000D01*
X41558000Y-47476000D01*
X41562000Y-47472000D01*
X41566000Y-47469000D01*
X41571000Y-47466000D01*
X41575000Y-47463000D01*
X41580000Y-47461000D01*
X41584000Y-47459000D01*
X41589000Y-47457000D01*
X41594000Y-47455000D01*
X41599000Y-47453000D01*
X41604000Y-47452000D01*
X41609000Y-47451000D01*
X41615000Y-47451000D01*
X41620000Y-47450000D01*
X41625000Y-47450000D01*
X42325000Y-47450000D01*
X42325000Y-47550000D01*
G37*
X42325000Y-47150000D02*
X42325000Y-47250000D01*
X41625000Y-47250000D01*
X41620000Y-47250000D01*
X41615000Y-47249000D01*
X41609000Y-47249000D01*
X41604000Y-47248000D01*
X41599000Y-47247000D01*
X41594000Y-47245000D01*
X41589000Y-47243000D01*
X41584000Y-47241000D01*
X41580000Y-47239000D01*
X41575000Y-47237000D01*
X41571000Y-47234000D01*
X41566000Y-47231000D01*
X41562000Y-47228000D01*
X41558000Y-47224000D01*
X41554000Y-47221000D01*
X41551000Y-47217000D01*
X41547000Y-47213000D01*
X41544000Y-47209000D01*
X41541000Y-47204000D01*
X41538000Y-47200000D01*
X41536000Y-47195000D01*
X41534000Y-47191000D01*
X41532000Y-47186000D01*
X41530000Y-47181000D01*
X41528000Y-47176000D01*
X41527000Y-47171000D01*
X41526000Y-47166000D01*
X41526000Y-47160000D01*
X41525000Y-47155000D01*
X41525000Y-47150000D01*
X41525000Y-47145000D01*
X41526000Y-47140000D01*
X41526000Y-47134000D01*
X41527000Y-47129000D01*
X41528000Y-47124000D01*
X41530000Y-47119000D01*
X41532000Y-47114000D01*
X41534000Y-47109000D01*
X41536000Y-47105000D01*
X41538000Y-47100000D01*
X41541000Y-47096000D01*
X41544000Y-47091000D01*
X41547000Y-47087000D01*
X41551000Y-47083000D01*
X41554000Y-47079000D01*
X41558000Y-47076000D01*
X41562000Y-47072000D01*
X41566000Y-47069000D01*
X41571000Y-47066000D01*
X41575000Y-47063000D01*
X41580000Y-47061000D01*
X41584000Y-47059000D01*
X41589000Y-47057000D01*
X41594000Y-47055000D01*
X41599000Y-47053000D01*
X41604000Y-47052000D01*
X41609000Y-47051000D01*
X41615000Y-47051000D01*
X41620000Y-47050000D01*
X41625000Y-47050000D01*
X42325000Y-47050000D01*
X42325000Y-47150000D01*
G36*
X42325000Y-47150000D02*
G01*
X42325000Y-47250000D01*
X41625000Y-47250000D01*
X41620000Y-47250000D01*
X41615000Y-47249000D01*
X41609000Y-47249000D01*
X41604000Y-47248000D01*
X41599000Y-47247000D01*
X41594000Y-47245000D01*
X41589000Y-47243000D01*
X41584000Y-47241000D01*
X41580000Y-47239000D01*
X41575000Y-47237000D01*
X41571000Y-47234000D01*
X41566000Y-47231000D01*
X41562000Y-47228000D01*
X41558000Y-47224000D01*
X41554000Y-47221000D01*
X41551000Y-47217000D01*
X41547000Y-47213000D01*
X41544000Y-47209000D01*
X41541000Y-47204000D01*
X41538000Y-47200000D01*
X41536000Y-47195000D01*
X41534000Y-47191000D01*
X41532000Y-47186000D01*
X41530000Y-47181000D01*
X41528000Y-47176000D01*
X41527000Y-47171000D01*
X41526000Y-47166000D01*
X41526000Y-47160000D01*
X41525000Y-47155000D01*
X41525000Y-47150000D01*
X41525000Y-47145000D01*
X41526000Y-47140000D01*
X41526000Y-47134000D01*
X41527000Y-47129000D01*
X41528000Y-47124000D01*
X41530000Y-47119000D01*
X41532000Y-47114000D01*
X41534000Y-47109000D01*
X41536000Y-47105000D01*
X41538000Y-47100000D01*
X41541000Y-47096000D01*
X41544000Y-47091000D01*
X41547000Y-47087000D01*
X41551000Y-47083000D01*
X41554000Y-47079000D01*
X41558000Y-47076000D01*
X41562000Y-47072000D01*
X41566000Y-47069000D01*
X41571000Y-47066000D01*
X41575000Y-47063000D01*
X41580000Y-47061000D01*
X41584000Y-47059000D01*
X41589000Y-47057000D01*
X41594000Y-47055000D01*
X41599000Y-47053000D01*
X41604000Y-47052000D01*
X41609000Y-47051000D01*
X41615000Y-47051000D01*
X41620000Y-47050000D01*
X41625000Y-47050000D01*
X42325000Y-47050000D01*
X42325000Y-47150000D01*
G37*
X42325000Y-46750000D02*
X42325000Y-46850000D01*
X41625000Y-46850000D01*
X41620000Y-46850000D01*
X41615000Y-46849000D01*
X41609000Y-46849000D01*
X41604000Y-46848000D01*
X41599000Y-46847000D01*
X41594000Y-46845000D01*
X41589000Y-46843000D01*
X41584000Y-46841000D01*
X41580000Y-46839000D01*
X41575000Y-46837000D01*
X41571000Y-46834000D01*
X41566000Y-46831000D01*
X41562000Y-46828000D01*
X41558000Y-46824000D01*
X41554000Y-46821000D01*
X41551000Y-46817000D01*
X41547000Y-46813000D01*
X41544000Y-46809000D01*
X41541000Y-46804000D01*
X41538000Y-46800000D01*
X41536000Y-46795000D01*
X41534000Y-46791000D01*
X41532000Y-46786000D01*
X41530000Y-46781000D01*
X41528000Y-46776000D01*
X41527000Y-46771000D01*
X41526000Y-46766000D01*
X41526000Y-46760000D01*
X41525000Y-46755000D01*
X41525000Y-46750000D01*
X41525000Y-46745000D01*
X41526000Y-46740000D01*
X41526000Y-46734000D01*
X41527000Y-46729000D01*
X41528000Y-46724000D01*
X41530000Y-46719000D01*
X41532000Y-46714000D01*
X41534000Y-46709000D01*
X41536000Y-46705000D01*
X41538000Y-46700000D01*
X41541000Y-46696000D01*
X41544000Y-46691000D01*
X41547000Y-46687000D01*
X41551000Y-46683000D01*
X41554000Y-46679000D01*
X41558000Y-46676000D01*
X41562000Y-46672000D01*
X41566000Y-46669000D01*
X41571000Y-46666000D01*
X41575000Y-46663000D01*
X41580000Y-46661000D01*
X41584000Y-46659000D01*
X41589000Y-46657000D01*
X41594000Y-46655000D01*
X41599000Y-46653000D01*
X41604000Y-46652000D01*
X41609000Y-46651000D01*
X41615000Y-46651000D01*
X41620000Y-46650000D01*
X41625000Y-46650000D01*
X42325000Y-46650000D01*
X42325000Y-46750000D01*
G36*
X42325000Y-46750000D02*
G01*
X42325000Y-46850000D01*
X41625000Y-46850000D01*
X41620000Y-46850000D01*
X41615000Y-46849000D01*
X41609000Y-46849000D01*
X41604000Y-46848000D01*
X41599000Y-46847000D01*
X41594000Y-46845000D01*
X41589000Y-46843000D01*
X41584000Y-46841000D01*
X41580000Y-46839000D01*
X41575000Y-46837000D01*
X41571000Y-46834000D01*
X41566000Y-46831000D01*
X41562000Y-46828000D01*
X41558000Y-46824000D01*
X41554000Y-46821000D01*
X41551000Y-46817000D01*
X41547000Y-46813000D01*
X41544000Y-46809000D01*
X41541000Y-46804000D01*
X41538000Y-46800000D01*
X41536000Y-46795000D01*
X41534000Y-46791000D01*
X41532000Y-46786000D01*
X41530000Y-46781000D01*
X41528000Y-46776000D01*
X41527000Y-46771000D01*
X41526000Y-46766000D01*
X41526000Y-46760000D01*
X41525000Y-46755000D01*
X41525000Y-46750000D01*
X41525000Y-46745000D01*
X41526000Y-46740000D01*
X41526000Y-46734000D01*
X41527000Y-46729000D01*
X41528000Y-46724000D01*
X41530000Y-46719000D01*
X41532000Y-46714000D01*
X41534000Y-46709000D01*
X41536000Y-46705000D01*
X41538000Y-46700000D01*
X41541000Y-46696000D01*
X41544000Y-46691000D01*
X41547000Y-46687000D01*
X41551000Y-46683000D01*
X41554000Y-46679000D01*
X41558000Y-46676000D01*
X41562000Y-46672000D01*
X41566000Y-46669000D01*
X41571000Y-46666000D01*
X41575000Y-46663000D01*
X41580000Y-46661000D01*
X41584000Y-46659000D01*
X41589000Y-46657000D01*
X41594000Y-46655000D01*
X41599000Y-46653000D01*
X41604000Y-46652000D01*
X41609000Y-46651000D01*
X41615000Y-46651000D01*
X41620000Y-46650000D01*
X41625000Y-46650000D01*
X42325000Y-46650000D01*
X42325000Y-46750000D01*
G37*
X42325000Y-46350000D02*
X42325000Y-46450000D01*
X41625000Y-46450000D01*
X41620000Y-46450000D01*
X41615000Y-46449000D01*
X41609000Y-46449000D01*
X41604000Y-46448000D01*
X41599000Y-46447000D01*
X41594000Y-46445000D01*
X41589000Y-46443000D01*
X41584000Y-46441000D01*
X41580000Y-46439000D01*
X41575000Y-46437000D01*
X41571000Y-46434000D01*
X41566000Y-46431000D01*
X41562000Y-46428000D01*
X41558000Y-46424000D01*
X41554000Y-46421000D01*
X41551000Y-46417000D01*
X41547000Y-46413000D01*
X41544000Y-46409000D01*
X41541000Y-46404000D01*
X41538000Y-46400000D01*
X41536000Y-46395000D01*
X41534000Y-46391000D01*
X41532000Y-46386000D01*
X41530000Y-46381000D01*
X41528000Y-46376000D01*
X41527000Y-46371000D01*
X41526000Y-46366000D01*
X41526000Y-46360000D01*
X41525000Y-46355000D01*
X41525000Y-46350000D01*
X41525000Y-46345000D01*
X41526000Y-46340000D01*
X41526000Y-46334000D01*
X41527000Y-46329000D01*
X41528000Y-46324000D01*
X41530000Y-46319000D01*
X41532000Y-46314000D01*
X41534000Y-46309000D01*
X41536000Y-46305000D01*
X41538000Y-46300000D01*
X41541000Y-46296000D01*
X41544000Y-46291000D01*
X41547000Y-46287000D01*
X41551000Y-46283000D01*
X41554000Y-46279000D01*
X41558000Y-46276000D01*
X41562000Y-46272000D01*
X41566000Y-46269000D01*
X41571000Y-46266000D01*
X41575000Y-46263000D01*
X41580000Y-46261000D01*
X41584000Y-46259000D01*
X41589000Y-46257000D01*
X41594000Y-46255000D01*
X41599000Y-46253000D01*
X41604000Y-46252000D01*
X41609000Y-46251000D01*
X41615000Y-46251000D01*
X41620000Y-46250000D01*
X41625000Y-46250000D01*
X42325000Y-46250000D01*
X42325000Y-46350000D01*
G36*
X42325000Y-46350000D02*
G01*
X42325000Y-46450000D01*
X41625000Y-46450000D01*
X41620000Y-46450000D01*
X41615000Y-46449000D01*
X41609000Y-46449000D01*
X41604000Y-46448000D01*
X41599000Y-46447000D01*
X41594000Y-46445000D01*
X41589000Y-46443000D01*
X41584000Y-46441000D01*
X41580000Y-46439000D01*
X41575000Y-46437000D01*
X41571000Y-46434000D01*
X41566000Y-46431000D01*
X41562000Y-46428000D01*
X41558000Y-46424000D01*
X41554000Y-46421000D01*
X41551000Y-46417000D01*
X41547000Y-46413000D01*
X41544000Y-46409000D01*
X41541000Y-46404000D01*
X41538000Y-46400000D01*
X41536000Y-46395000D01*
X41534000Y-46391000D01*
X41532000Y-46386000D01*
X41530000Y-46381000D01*
X41528000Y-46376000D01*
X41527000Y-46371000D01*
X41526000Y-46366000D01*
X41526000Y-46360000D01*
X41525000Y-46355000D01*
X41525000Y-46350000D01*
X41525000Y-46345000D01*
X41526000Y-46340000D01*
X41526000Y-46334000D01*
X41527000Y-46329000D01*
X41528000Y-46324000D01*
X41530000Y-46319000D01*
X41532000Y-46314000D01*
X41534000Y-46309000D01*
X41536000Y-46305000D01*
X41538000Y-46300000D01*
X41541000Y-46296000D01*
X41544000Y-46291000D01*
X41547000Y-46287000D01*
X41551000Y-46283000D01*
X41554000Y-46279000D01*
X41558000Y-46276000D01*
X41562000Y-46272000D01*
X41566000Y-46269000D01*
X41571000Y-46266000D01*
X41575000Y-46263000D01*
X41580000Y-46261000D01*
X41584000Y-46259000D01*
X41589000Y-46257000D01*
X41594000Y-46255000D01*
X41599000Y-46253000D01*
X41604000Y-46252000D01*
X41609000Y-46251000D01*
X41615000Y-46251000D01*
X41620000Y-46250000D01*
X41625000Y-46250000D01*
X42325000Y-46250000D01*
X42325000Y-46350000D01*
G37*
X42325000Y-45950000D02*
X42325000Y-46050000D01*
X41625000Y-46050000D01*
X41620000Y-46050000D01*
X41615000Y-46049000D01*
X41609000Y-46049000D01*
X41604000Y-46048000D01*
X41599000Y-46047000D01*
X41594000Y-46045000D01*
X41589000Y-46043000D01*
X41584000Y-46041000D01*
X41580000Y-46039000D01*
X41575000Y-46037000D01*
X41571000Y-46034000D01*
X41566000Y-46031000D01*
X41562000Y-46028000D01*
X41558000Y-46024000D01*
X41554000Y-46021000D01*
X41551000Y-46017000D01*
X41547000Y-46013000D01*
X41544000Y-46009000D01*
X41541000Y-46004000D01*
X41538000Y-46000000D01*
X41536000Y-45995000D01*
X41534000Y-45991000D01*
X41532000Y-45986000D01*
X41530000Y-45981000D01*
X41528000Y-45976000D01*
X41527000Y-45971000D01*
X41526000Y-45966000D01*
X41526000Y-45960000D01*
X41525000Y-45955000D01*
X41525000Y-45950000D01*
X41525000Y-45945000D01*
X41526000Y-45940000D01*
X41526000Y-45934000D01*
X41527000Y-45929000D01*
X41528000Y-45924000D01*
X41530000Y-45919000D01*
X41532000Y-45914000D01*
X41534000Y-45909000D01*
X41536000Y-45905000D01*
X41538000Y-45900000D01*
X41541000Y-45896000D01*
X41544000Y-45891000D01*
X41547000Y-45887000D01*
X41551000Y-45883000D01*
X41554000Y-45879000D01*
X41558000Y-45876000D01*
X41562000Y-45872000D01*
X41566000Y-45869000D01*
X41571000Y-45866000D01*
X41575000Y-45863000D01*
X41580000Y-45861000D01*
X41584000Y-45859000D01*
X41589000Y-45857000D01*
X41594000Y-45855000D01*
X41599000Y-45853000D01*
X41604000Y-45852000D01*
X41609000Y-45851000D01*
X41615000Y-45851000D01*
X41620000Y-45850000D01*
X41625000Y-45850000D01*
X42325000Y-45850000D01*
X42325000Y-45950000D01*
G36*
X42325000Y-45950000D02*
G01*
X42325000Y-46050000D01*
X41625000Y-46050000D01*
X41620000Y-46050000D01*
X41615000Y-46049000D01*
X41609000Y-46049000D01*
X41604000Y-46048000D01*
X41599000Y-46047000D01*
X41594000Y-46045000D01*
X41589000Y-46043000D01*
X41584000Y-46041000D01*
X41580000Y-46039000D01*
X41575000Y-46037000D01*
X41571000Y-46034000D01*
X41566000Y-46031000D01*
X41562000Y-46028000D01*
X41558000Y-46024000D01*
X41554000Y-46021000D01*
X41551000Y-46017000D01*
X41547000Y-46013000D01*
X41544000Y-46009000D01*
X41541000Y-46004000D01*
X41538000Y-46000000D01*
X41536000Y-45995000D01*
X41534000Y-45991000D01*
X41532000Y-45986000D01*
X41530000Y-45981000D01*
X41528000Y-45976000D01*
X41527000Y-45971000D01*
X41526000Y-45966000D01*
X41526000Y-45960000D01*
X41525000Y-45955000D01*
X41525000Y-45950000D01*
X41525000Y-45945000D01*
X41526000Y-45940000D01*
X41526000Y-45934000D01*
X41527000Y-45929000D01*
X41528000Y-45924000D01*
X41530000Y-45919000D01*
X41532000Y-45914000D01*
X41534000Y-45909000D01*
X41536000Y-45905000D01*
X41538000Y-45900000D01*
X41541000Y-45896000D01*
X41544000Y-45891000D01*
X41547000Y-45887000D01*
X41551000Y-45883000D01*
X41554000Y-45879000D01*
X41558000Y-45876000D01*
X41562000Y-45872000D01*
X41566000Y-45869000D01*
X41571000Y-45866000D01*
X41575000Y-45863000D01*
X41580000Y-45861000D01*
X41584000Y-45859000D01*
X41589000Y-45857000D01*
X41594000Y-45855000D01*
X41599000Y-45853000D01*
X41604000Y-45852000D01*
X41609000Y-45851000D01*
X41615000Y-45851000D01*
X41620000Y-45850000D01*
X41625000Y-45850000D01*
X42325000Y-45850000D01*
X42325000Y-45950000D01*
G37*
X38285000Y-47851000D02*
X38291000Y-47851000D01*
X38296000Y-47852000D01*
X38301000Y-47853000D01*
X38306000Y-47855000D01*
X38311000Y-47857000D01*
X38316000Y-47859000D01*
X38320000Y-47861000D01*
X38325000Y-47863000D01*
X38329000Y-47866000D01*
X38334000Y-47869000D01*
X38338000Y-47872000D01*
X38342000Y-47876000D01*
X38346000Y-47879000D01*
X38349000Y-47883000D01*
X38353000Y-47887000D01*
X38356000Y-47891000D01*
X38359000Y-47896000D01*
X38362000Y-47900000D01*
X38364000Y-47905000D01*
X38366000Y-47909000D01*
X38368000Y-47914000D01*
X38370000Y-47919000D01*
X38372000Y-47924000D01*
X38373000Y-47929000D01*
X38374000Y-47934000D01*
X38374000Y-47940000D01*
X38375000Y-47945000D01*
X38375000Y-47950000D01*
X38375000Y-47955000D01*
X38374000Y-47960000D01*
X38374000Y-47966000D01*
X38373000Y-47971000D01*
X38372000Y-47976000D01*
X38370000Y-47981000D01*
X38368000Y-47986000D01*
X38366000Y-47991000D01*
X38364000Y-47995000D01*
X38362000Y-48000000D01*
X38359000Y-48004000D01*
X38356000Y-48009000D01*
X38353000Y-48013000D01*
X38349000Y-48017000D01*
X38346000Y-48021000D01*
X38342000Y-48024000D01*
X38338000Y-48028000D01*
X38334000Y-48031000D01*
X38329000Y-48034000D01*
X38325000Y-48037000D01*
X38320000Y-48039000D01*
X38316000Y-48041000D01*
X38311000Y-48043000D01*
X38306000Y-48045000D01*
X38301000Y-48047000D01*
X38296000Y-48048000D01*
X38291000Y-48049000D01*
X38285000Y-48049000D01*
X38280000Y-48050000D01*
X38275000Y-48050000D01*
X37575000Y-48050000D01*
X37575000Y-47950000D01*
X37575000Y-47850000D01*
X38275000Y-47850000D01*
X38280000Y-47850000D01*
X38285000Y-47851000D01*
G36*
X38285000Y-47851000D02*
G01*
X38291000Y-47851000D01*
X38296000Y-47852000D01*
X38301000Y-47853000D01*
X38306000Y-47855000D01*
X38311000Y-47857000D01*
X38316000Y-47859000D01*
X38320000Y-47861000D01*
X38325000Y-47863000D01*
X38329000Y-47866000D01*
X38334000Y-47869000D01*
X38338000Y-47872000D01*
X38342000Y-47876000D01*
X38346000Y-47879000D01*
X38349000Y-47883000D01*
X38353000Y-47887000D01*
X38356000Y-47891000D01*
X38359000Y-47896000D01*
X38362000Y-47900000D01*
X38364000Y-47905000D01*
X38366000Y-47909000D01*
X38368000Y-47914000D01*
X38370000Y-47919000D01*
X38372000Y-47924000D01*
X38373000Y-47929000D01*
X38374000Y-47934000D01*
X38374000Y-47940000D01*
X38375000Y-47945000D01*
X38375000Y-47950000D01*
X38375000Y-47955000D01*
X38374000Y-47960000D01*
X38374000Y-47966000D01*
X38373000Y-47971000D01*
X38372000Y-47976000D01*
X38370000Y-47981000D01*
X38368000Y-47986000D01*
X38366000Y-47991000D01*
X38364000Y-47995000D01*
X38362000Y-48000000D01*
X38359000Y-48004000D01*
X38356000Y-48009000D01*
X38353000Y-48013000D01*
X38349000Y-48017000D01*
X38346000Y-48021000D01*
X38342000Y-48024000D01*
X38338000Y-48028000D01*
X38334000Y-48031000D01*
X38329000Y-48034000D01*
X38325000Y-48037000D01*
X38320000Y-48039000D01*
X38316000Y-48041000D01*
X38311000Y-48043000D01*
X38306000Y-48045000D01*
X38301000Y-48047000D01*
X38296000Y-48048000D01*
X38291000Y-48049000D01*
X38285000Y-48049000D01*
X38280000Y-48050000D01*
X38275000Y-48050000D01*
X37575000Y-48050000D01*
X37575000Y-47950000D01*
X37575000Y-47850000D01*
X38275000Y-47850000D01*
X38280000Y-47850000D01*
X38285000Y-47851000D01*
G37*
X38285000Y-47451000D02*
X38291000Y-47451000D01*
X38296000Y-47452000D01*
X38301000Y-47453000D01*
X38306000Y-47455000D01*
X38311000Y-47457000D01*
X38316000Y-47459000D01*
X38320000Y-47461000D01*
X38325000Y-47463000D01*
X38329000Y-47466000D01*
X38334000Y-47469000D01*
X38338000Y-47472000D01*
X38342000Y-47476000D01*
X38346000Y-47479000D01*
X38349000Y-47483000D01*
X38353000Y-47487000D01*
X38356000Y-47491000D01*
X38359000Y-47496000D01*
X38362000Y-47500000D01*
X38364000Y-47505000D01*
X38366000Y-47509000D01*
X38368000Y-47514000D01*
X38370000Y-47519000D01*
X38372000Y-47524000D01*
X38373000Y-47529000D01*
X38374000Y-47534000D01*
X38374000Y-47540000D01*
X38375000Y-47545000D01*
X38375000Y-47550000D01*
X38375000Y-47555000D01*
X38374000Y-47560000D01*
X38374000Y-47566000D01*
X38373000Y-47571000D01*
X38372000Y-47576000D01*
X38370000Y-47581000D01*
X38368000Y-47586000D01*
X38366000Y-47591000D01*
X38364000Y-47595000D01*
X38362000Y-47600000D01*
X38359000Y-47604000D01*
X38356000Y-47609000D01*
X38353000Y-47613000D01*
X38349000Y-47617000D01*
X38346000Y-47621000D01*
X38342000Y-47624000D01*
X38338000Y-47628000D01*
X38334000Y-47631000D01*
X38329000Y-47634000D01*
X38325000Y-47637000D01*
X38320000Y-47639000D01*
X38316000Y-47641000D01*
X38311000Y-47643000D01*
X38306000Y-47645000D01*
X38301000Y-47647000D01*
X38296000Y-47648000D01*
X38291000Y-47649000D01*
X38285000Y-47649000D01*
X38280000Y-47650000D01*
X38275000Y-47650000D01*
X37575000Y-47650000D01*
X37575000Y-47550000D01*
X37575000Y-47450000D01*
X38275000Y-47450000D01*
X38280000Y-47450000D01*
X38285000Y-47451000D01*
G36*
X38285000Y-47451000D02*
G01*
X38291000Y-47451000D01*
X38296000Y-47452000D01*
X38301000Y-47453000D01*
X38306000Y-47455000D01*
X38311000Y-47457000D01*
X38316000Y-47459000D01*
X38320000Y-47461000D01*
X38325000Y-47463000D01*
X38329000Y-47466000D01*
X38334000Y-47469000D01*
X38338000Y-47472000D01*
X38342000Y-47476000D01*
X38346000Y-47479000D01*
X38349000Y-47483000D01*
X38353000Y-47487000D01*
X38356000Y-47491000D01*
X38359000Y-47496000D01*
X38362000Y-47500000D01*
X38364000Y-47505000D01*
X38366000Y-47509000D01*
X38368000Y-47514000D01*
X38370000Y-47519000D01*
X38372000Y-47524000D01*
X38373000Y-47529000D01*
X38374000Y-47534000D01*
X38374000Y-47540000D01*
X38375000Y-47545000D01*
X38375000Y-47550000D01*
X38375000Y-47555000D01*
X38374000Y-47560000D01*
X38374000Y-47566000D01*
X38373000Y-47571000D01*
X38372000Y-47576000D01*
X38370000Y-47581000D01*
X38368000Y-47586000D01*
X38366000Y-47591000D01*
X38364000Y-47595000D01*
X38362000Y-47600000D01*
X38359000Y-47604000D01*
X38356000Y-47609000D01*
X38353000Y-47613000D01*
X38349000Y-47617000D01*
X38346000Y-47621000D01*
X38342000Y-47624000D01*
X38338000Y-47628000D01*
X38334000Y-47631000D01*
X38329000Y-47634000D01*
X38325000Y-47637000D01*
X38320000Y-47639000D01*
X38316000Y-47641000D01*
X38311000Y-47643000D01*
X38306000Y-47645000D01*
X38301000Y-47647000D01*
X38296000Y-47648000D01*
X38291000Y-47649000D01*
X38285000Y-47649000D01*
X38280000Y-47650000D01*
X38275000Y-47650000D01*
X37575000Y-47650000D01*
X37575000Y-47550000D01*
X37575000Y-47450000D01*
X38275000Y-47450000D01*
X38280000Y-47450000D01*
X38285000Y-47451000D01*
G37*
X38285000Y-47051000D02*
X38291000Y-47051000D01*
X38296000Y-47052000D01*
X38301000Y-47053000D01*
X38306000Y-47055000D01*
X38311000Y-47057000D01*
X38316000Y-47059000D01*
X38320000Y-47061000D01*
X38325000Y-47063000D01*
X38329000Y-47066000D01*
X38334000Y-47069000D01*
X38338000Y-47072000D01*
X38342000Y-47076000D01*
X38346000Y-47079000D01*
X38349000Y-47083000D01*
X38353000Y-47087000D01*
X38356000Y-47091000D01*
X38359000Y-47096000D01*
X38362000Y-47100000D01*
X38364000Y-47105000D01*
X38366000Y-47109000D01*
X38368000Y-47114000D01*
X38370000Y-47119000D01*
X38372000Y-47124000D01*
X38373000Y-47129000D01*
X38374000Y-47134000D01*
X38374000Y-47140000D01*
X38375000Y-47145000D01*
X38375000Y-47150000D01*
X38375000Y-47155000D01*
X38374000Y-47160000D01*
X38374000Y-47166000D01*
X38373000Y-47171000D01*
X38372000Y-47176000D01*
X38370000Y-47181000D01*
X38368000Y-47186000D01*
X38366000Y-47191000D01*
X38364000Y-47195000D01*
X38362000Y-47200000D01*
X38359000Y-47204000D01*
X38356000Y-47209000D01*
X38353000Y-47213000D01*
X38349000Y-47217000D01*
X38346000Y-47221000D01*
X38342000Y-47224000D01*
X38338000Y-47228000D01*
X38334000Y-47231000D01*
X38329000Y-47234000D01*
X38325000Y-47237000D01*
X38320000Y-47239000D01*
X38316000Y-47241000D01*
X38311000Y-47243000D01*
X38306000Y-47245000D01*
X38301000Y-47247000D01*
X38296000Y-47248000D01*
X38291000Y-47249000D01*
X38285000Y-47249000D01*
X38280000Y-47250000D01*
X38275000Y-47250000D01*
X37575000Y-47250000D01*
X37575000Y-47150000D01*
X37575000Y-47050000D01*
X38275000Y-47050000D01*
X38280000Y-47050000D01*
X38285000Y-47051000D01*
G36*
X38285000Y-47051000D02*
G01*
X38291000Y-47051000D01*
X38296000Y-47052000D01*
X38301000Y-47053000D01*
X38306000Y-47055000D01*
X38311000Y-47057000D01*
X38316000Y-47059000D01*
X38320000Y-47061000D01*
X38325000Y-47063000D01*
X38329000Y-47066000D01*
X38334000Y-47069000D01*
X38338000Y-47072000D01*
X38342000Y-47076000D01*
X38346000Y-47079000D01*
X38349000Y-47083000D01*
X38353000Y-47087000D01*
X38356000Y-47091000D01*
X38359000Y-47096000D01*
X38362000Y-47100000D01*
X38364000Y-47105000D01*
X38366000Y-47109000D01*
X38368000Y-47114000D01*
X38370000Y-47119000D01*
X38372000Y-47124000D01*
X38373000Y-47129000D01*
X38374000Y-47134000D01*
X38374000Y-47140000D01*
X38375000Y-47145000D01*
X38375000Y-47150000D01*
X38375000Y-47155000D01*
X38374000Y-47160000D01*
X38374000Y-47166000D01*
X38373000Y-47171000D01*
X38372000Y-47176000D01*
X38370000Y-47181000D01*
X38368000Y-47186000D01*
X38366000Y-47191000D01*
X38364000Y-47195000D01*
X38362000Y-47200000D01*
X38359000Y-47204000D01*
X38356000Y-47209000D01*
X38353000Y-47213000D01*
X38349000Y-47217000D01*
X38346000Y-47221000D01*
X38342000Y-47224000D01*
X38338000Y-47228000D01*
X38334000Y-47231000D01*
X38329000Y-47234000D01*
X38325000Y-47237000D01*
X38320000Y-47239000D01*
X38316000Y-47241000D01*
X38311000Y-47243000D01*
X38306000Y-47245000D01*
X38301000Y-47247000D01*
X38296000Y-47248000D01*
X38291000Y-47249000D01*
X38285000Y-47249000D01*
X38280000Y-47250000D01*
X38275000Y-47250000D01*
X37575000Y-47250000D01*
X37575000Y-47150000D01*
X37575000Y-47050000D01*
X38275000Y-47050000D01*
X38280000Y-47050000D01*
X38285000Y-47051000D01*
G37*
X38285000Y-46651000D02*
X38291000Y-46651000D01*
X38296000Y-46652000D01*
X38301000Y-46653000D01*
X38306000Y-46655000D01*
X38311000Y-46657000D01*
X38316000Y-46659000D01*
X38320000Y-46661000D01*
X38325000Y-46663000D01*
X38329000Y-46666000D01*
X38334000Y-46669000D01*
X38338000Y-46672000D01*
X38342000Y-46676000D01*
X38346000Y-46679000D01*
X38349000Y-46683000D01*
X38353000Y-46687000D01*
X38356000Y-46691000D01*
X38359000Y-46696000D01*
X38362000Y-46700000D01*
X38364000Y-46705000D01*
X38366000Y-46709000D01*
X38368000Y-46714000D01*
X38370000Y-46719000D01*
X38372000Y-46724000D01*
X38373000Y-46729000D01*
X38374000Y-46734000D01*
X38374000Y-46740000D01*
X38375000Y-46745000D01*
X38375000Y-46750000D01*
X38375000Y-46755000D01*
X38374000Y-46760000D01*
X38374000Y-46766000D01*
X38373000Y-46771000D01*
X38372000Y-46776000D01*
X38370000Y-46781000D01*
X38368000Y-46786000D01*
X38366000Y-46791000D01*
X38364000Y-46795000D01*
X38362000Y-46800000D01*
X38359000Y-46804000D01*
X38356000Y-46809000D01*
X38353000Y-46813000D01*
X38349000Y-46817000D01*
X38346000Y-46821000D01*
X38342000Y-46824000D01*
X38338000Y-46828000D01*
X38334000Y-46831000D01*
X38329000Y-46834000D01*
X38325000Y-46837000D01*
X38320000Y-46839000D01*
X38316000Y-46841000D01*
X38311000Y-46843000D01*
X38306000Y-46845000D01*
X38301000Y-46847000D01*
X38296000Y-46848000D01*
X38291000Y-46849000D01*
X38285000Y-46849000D01*
X38280000Y-46850000D01*
X38275000Y-46850000D01*
X37575000Y-46850000D01*
X37575000Y-46750000D01*
X37575000Y-46650000D01*
X38275000Y-46650000D01*
X38280000Y-46650000D01*
X38285000Y-46651000D01*
G36*
X38285000Y-46651000D02*
G01*
X38291000Y-46651000D01*
X38296000Y-46652000D01*
X38301000Y-46653000D01*
X38306000Y-46655000D01*
X38311000Y-46657000D01*
X38316000Y-46659000D01*
X38320000Y-46661000D01*
X38325000Y-46663000D01*
X38329000Y-46666000D01*
X38334000Y-46669000D01*
X38338000Y-46672000D01*
X38342000Y-46676000D01*
X38346000Y-46679000D01*
X38349000Y-46683000D01*
X38353000Y-46687000D01*
X38356000Y-46691000D01*
X38359000Y-46696000D01*
X38362000Y-46700000D01*
X38364000Y-46705000D01*
X38366000Y-46709000D01*
X38368000Y-46714000D01*
X38370000Y-46719000D01*
X38372000Y-46724000D01*
X38373000Y-46729000D01*
X38374000Y-46734000D01*
X38374000Y-46740000D01*
X38375000Y-46745000D01*
X38375000Y-46750000D01*
X38375000Y-46755000D01*
X38374000Y-46760000D01*
X38374000Y-46766000D01*
X38373000Y-46771000D01*
X38372000Y-46776000D01*
X38370000Y-46781000D01*
X38368000Y-46786000D01*
X38366000Y-46791000D01*
X38364000Y-46795000D01*
X38362000Y-46800000D01*
X38359000Y-46804000D01*
X38356000Y-46809000D01*
X38353000Y-46813000D01*
X38349000Y-46817000D01*
X38346000Y-46821000D01*
X38342000Y-46824000D01*
X38338000Y-46828000D01*
X38334000Y-46831000D01*
X38329000Y-46834000D01*
X38325000Y-46837000D01*
X38320000Y-46839000D01*
X38316000Y-46841000D01*
X38311000Y-46843000D01*
X38306000Y-46845000D01*
X38301000Y-46847000D01*
X38296000Y-46848000D01*
X38291000Y-46849000D01*
X38285000Y-46849000D01*
X38280000Y-46850000D01*
X38275000Y-46850000D01*
X37575000Y-46850000D01*
X37575000Y-46750000D01*
X37575000Y-46650000D01*
X38275000Y-46650000D01*
X38280000Y-46650000D01*
X38285000Y-46651000D01*
G37*
X38285000Y-46251000D02*
X38291000Y-46251000D01*
X38296000Y-46252000D01*
X38301000Y-46253000D01*
X38306000Y-46255000D01*
X38311000Y-46257000D01*
X38316000Y-46259000D01*
X38320000Y-46261000D01*
X38325000Y-46263000D01*
X38329000Y-46266000D01*
X38334000Y-46269000D01*
X38338000Y-46272000D01*
X38342000Y-46276000D01*
X38346000Y-46279000D01*
X38349000Y-46283000D01*
X38353000Y-46287000D01*
X38356000Y-46291000D01*
X38359000Y-46296000D01*
X38362000Y-46300000D01*
X38364000Y-46305000D01*
X38366000Y-46309000D01*
X38368000Y-46314000D01*
X38370000Y-46319000D01*
X38372000Y-46324000D01*
X38373000Y-46329000D01*
X38374000Y-46334000D01*
X38374000Y-46340000D01*
X38375000Y-46345000D01*
X38375000Y-46350000D01*
X38375000Y-46355000D01*
X38374000Y-46360000D01*
X38374000Y-46366000D01*
X38373000Y-46371000D01*
X38372000Y-46376000D01*
X38370000Y-46381000D01*
X38368000Y-46386000D01*
X38366000Y-46391000D01*
X38364000Y-46395000D01*
X38362000Y-46400000D01*
X38359000Y-46404000D01*
X38356000Y-46409000D01*
X38353000Y-46413000D01*
X38349000Y-46417000D01*
X38346000Y-46421000D01*
X38342000Y-46424000D01*
X38338000Y-46428000D01*
X38334000Y-46431000D01*
X38329000Y-46434000D01*
X38325000Y-46437000D01*
X38320000Y-46439000D01*
X38316000Y-46441000D01*
X38311000Y-46443000D01*
X38306000Y-46445000D01*
X38301000Y-46447000D01*
X38296000Y-46448000D01*
X38291000Y-46449000D01*
X38285000Y-46449000D01*
X38280000Y-46450000D01*
X38275000Y-46450000D01*
X37575000Y-46450000D01*
X37575000Y-46350000D01*
X37575000Y-46250000D01*
X38275000Y-46250000D01*
X38280000Y-46250000D01*
X38285000Y-46251000D01*
G36*
X38285000Y-46251000D02*
G01*
X38291000Y-46251000D01*
X38296000Y-46252000D01*
X38301000Y-46253000D01*
X38306000Y-46255000D01*
X38311000Y-46257000D01*
X38316000Y-46259000D01*
X38320000Y-46261000D01*
X38325000Y-46263000D01*
X38329000Y-46266000D01*
X38334000Y-46269000D01*
X38338000Y-46272000D01*
X38342000Y-46276000D01*
X38346000Y-46279000D01*
X38349000Y-46283000D01*
X38353000Y-46287000D01*
X38356000Y-46291000D01*
X38359000Y-46296000D01*
X38362000Y-46300000D01*
X38364000Y-46305000D01*
X38366000Y-46309000D01*
X38368000Y-46314000D01*
X38370000Y-46319000D01*
X38372000Y-46324000D01*
X38373000Y-46329000D01*
X38374000Y-46334000D01*
X38374000Y-46340000D01*
X38375000Y-46345000D01*
X38375000Y-46350000D01*
X38375000Y-46355000D01*
X38374000Y-46360000D01*
X38374000Y-46366000D01*
X38373000Y-46371000D01*
X38372000Y-46376000D01*
X38370000Y-46381000D01*
X38368000Y-46386000D01*
X38366000Y-46391000D01*
X38364000Y-46395000D01*
X38362000Y-46400000D01*
X38359000Y-46404000D01*
X38356000Y-46409000D01*
X38353000Y-46413000D01*
X38349000Y-46417000D01*
X38346000Y-46421000D01*
X38342000Y-46424000D01*
X38338000Y-46428000D01*
X38334000Y-46431000D01*
X38329000Y-46434000D01*
X38325000Y-46437000D01*
X38320000Y-46439000D01*
X38316000Y-46441000D01*
X38311000Y-46443000D01*
X38306000Y-46445000D01*
X38301000Y-46447000D01*
X38296000Y-46448000D01*
X38291000Y-46449000D01*
X38285000Y-46449000D01*
X38280000Y-46450000D01*
X38275000Y-46450000D01*
X37575000Y-46450000D01*
X37575000Y-46350000D01*
X37575000Y-46250000D01*
X38275000Y-46250000D01*
X38280000Y-46250000D01*
X38285000Y-46251000D01*
G37*
X38285000Y-46251000D02*
X38291000Y-46251000D01*
X38296000Y-46252000D01*
X38301000Y-46253000D01*
X38306000Y-46255000D01*
X38311000Y-46257000D01*
X38316000Y-46259000D01*
X38320000Y-46261000D01*
X38325000Y-46263000D01*
X38329000Y-46266000D01*
X38334000Y-46269000D01*
X38338000Y-46272000D01*
X38342000Y-46276000D01*
X38346000Y-46279000D01*
X38349000Y-46283000D01*
X38353000Y-46287000D01*
X38356000Y-46291000D01*
X38359000Y-46296000D01*
X38362000Y-46300000D01*
X38364000Y-46305000D01*
X38366000Y-46309000D01*
X38368000Y-46314000D01*
X38370000Y-46319000D01*
X38372000Y-46324000D01*
X38373000Y-46329000D01*
X38374000Y-46334000D01*
X38374000Y-46340000D01*
X38375000Y-46345000D01*
X38375000Y-46350000D01*
X38375000Y-46355000D01*
X38374000Y-46360000D01*
X38374000Y-46366000D01*
X38373000Y-46371000D01*
X38372000Y-46376000D01*
X38370000Y-46381000D01*
X38368000Y-46386000D01*
X38366000Y-46391000D01*
X38364000Y-46395000D01*
X38362000Y-46400000D01*
X38359000Y-46404000D01*
X38356000Y-46409000D01*
X38353000Y-46413000D01*
X38349000Y-46417000D01*
X38346000Y-46421000D01*
X38342000Y-46424000D01*
X38338000Y-46428000D01*
X38334000Y-46431000D01*
X38329000Y-46434000D01*
X38325000Y-46437000D01*
X38320000Y-46439000D01*
X38316000Y-46441000D01*
X38311000Y-46443000D01*
X38306000Y-46445000D01*
X38301000Y-46447000D01*
X38296000Y-46448000D01*
X38291000Y-46449000D01*
X38285000Y-46449000D01*
X38280000Y-46450000D01*
X38275000Y-46450000D01*
X37575000Y-46450000D01*
X37575000Y-46350000D01*
X37575000Y-46250000D01*
X38275000Y-46250000D01*
X38280000Y-46250000D01*
X38285000Y-46251000D01*
G36*
X38285000Y-46251000D02*
G01*
X38291000Y-46251000D01*
X38296000Y-46252000D01*
X38301000Y-46253000D01*
X38306000Y-46255000D01*
X38311000Y-46257000D01*
X38316000Y-46259000D01*
X38320000Y-46261000D01*
X38325000Y-46263000D01*
X38329000Y-46266000D01*
X38334000Y-46269000D01*
X38338000Y-46272000D01*
X38342000Y-46276000D01*
X38346000Y-46279000D01*
X38349000Y-46283000D01*
X38353000Y-46287000D01*
X38356000Y-46291000D01*
X38359000Y-46296000D01*
X38362000Y-46300000D01*
X38364000Y-46305000D01*
X38366000Y-46309000D01*
X38368000Y-46314000D01*
X38370000Y-46319000D01*
X38372000Y-46324000D01*
X38373000Y-46329000D01*
X38374000Y-46334000D01*
X38374000Y-46340000D01*
X38375000Y-46345000D01*
X38375000Y-46350000D01*
X38375000Y-46355000D01*
X38374000Y-46360000D01*
X38374000Y-46366000D01*
X38373000Y-46371000D01*
X38372000Y-46376000D01*
X38370000Y-46381000D01*
X38368000Y-46386000D01*
X38366000Y-46391000D01*
X38364000Y-46395000D01*
X38362000Y-46400000D01*
X38359000Y-46404000D01*
X38356000Y-46409000D01*
X38353000Y-46413000D01*
X38349000Y-46417000D01*
X38346000Y-46421000D01*
X38342000Y-46424000D01*
X38338000Y-46428000D01*
X38334000Y-46431000D01*
X38329000Y-46434000D01*
X38325000Y-46437000D01*
X38320000Y-46439000D01*
X38316000Y-46441000D01*
X38311000Y-46443000D01*
X38306000Y-46445000D01*
X38301000Y-46447000D01*
X38296000Y-46448000D01*
X38291000Y-46449000D01*
X38285000Y-46449000D01*
X38280000Y-46450000D01*
X38275000Y-46450000D01*
X37575000Y-46450000D01*
X37575000Y-46350000D01*
X37575000Y-46250000D01*
X38275000Y-46250000D01*
X38280000Y-46250000D01*
X38285000Y-46251000D01*
G37*
X38285000Y-45851000D02*
X38291000Y-45851000D01*
X38296000Y-45852000D01*
X38301000Y-45853000D01*
X38306000Y-45855000D01*
X38311000Y-45857000D01*
X38316000Y-45859000D01*
X38320000Y-45861000D01*
X38325000Y-45863000D01*
X38329000Y-45866000D01*
X38334000Y-45869000D01*
X38338000Y-45872000D01*
X38342000Y-45876000D01*
X38346000Y-45879000D01*
X38349000Y-45883000D01*
X38353000Y-45887000D01*
X38356000Y-45891000D01*
X38359000Y-45896000D01*
X38362000Y-45900000D01*
X38364000Y-45905000D01*
X38366000Y-45909000D01*
X38368000Y-45914000D01*
X38370000Y-45919000D01*
X38372000Y-45924000D01*
X38373000Y-45929000D01*
X38374000Y-45934000D01*
X38374000Y-45940000D01*
X38375000Y-45945000D01*
X38375000Y-45950000D01*
X38375000Y-45955000D01*
X38374000Y-45960000D01*
X38374000Y-45966000D01*
X38373000Y-45971000D01*
X38372000Y-45976000D01*
X38370000Y-45981000D01*
X38368000Y-45986000D01*
X38366000Y-45991000D01*
X38364000Y-45995000D01*
X38362000Y-46000000D01*
X38359000Y-46004000D01*
X38356000Y-46009000D01*
X38353000Y-46013000D01*
X38349000Y-46017000D01*
X38346000Y-46021000D01*
X38342000Y-46024000D01*
X38338000Y-46028000D01*
X38334000Y-46031000D01*
X38329000Y-46034000D01*
X38325000Y-46037000D01*
X38320000Y-46039000D01*
X38316000Y-46041000D01*
X38311000Y-46043000D01*
X38306000Y-46045000D01*
X38301000Y-46047000D01*
X38296000Y-46048000D01*
X38291000Y-46049000D01*
X38285000Y-46049000D01*
X38280000Y-46050000D01*
X38275000Y-46050000D01*
X37575000Y-46050000D01*
X37575000Y-45950000D01*
X37575000Y-45850000D01*
X38275000Y-45850000D01*
X38280000Y-45850000D01*
X38285000Y-45851000D01*
G36*
X38285000Y-45851000D02*
G01*
X38291000Y-45851000D01*
X38296000Y-45852000D01*
X38301000Y-45853000D01*
X38306000Y-45855000D01*
X38311000Y-45857000D01*
X38316000Y-45859000D01*
X38320000Y-45861000D01*
X38325000Y-45863000D01*
X38329000Y-45866000D01*
X38334000Y-45869000D01*
X38338000Y-45872000D01*
X38342000Y-45876000D01*
X38346000Y-45879000D01*
X38349000Y-45883000D01*
X38353000Y-45887000D01*
X38356000Y-45891000D01*
X38359000Y-45896000D01*
X38362000Y-45900000D01*
X38364000Y-45905000D01*
X38366000Y-45909000D01*
X38368000Y-45914000D01*
X38370000Y-45919000D01*
X38372000Y-45924000D01*
X38373000Y-45929000D01*
X38374000Y-45934000D01*
X38374000Y-45940000D01*
X38375000Y-45945000D01*
X38375000Y-45950000D01*
X38375000Y-45955000D01*
X38374000Y-45960000D01*
X38374000Y-45966000D01*
X38373000Y-45971000D01*
X38372000Y-45976000D01*
X38370000Y-45981000D01*
X38368000Y-45986000D01*
X38366000Y-45991000D01*
X38364000Y-45995000D01*
X38362000Y-46000000D01*
X38359000Y-46004000D01*
X38356000Y-46009000D01*
X38353000Y-46013000D01*
X38349000Y-46017000D01*
X38346000Y-46021000D01*
X38342000Y-46024000D01*
X38338000Y-46028000D01*
X38334000Y-46031000D01*
X38329000Y-46034000D01*
X38325000Y-46037000D01*
X38320000Y-46039000D01*
X38316000Y-46041000D01*
X38311000Y-46043000D01*
X38306000Y-46045000D01*
X38301000Y-46047000D01*
X38296000Y-46048000D01*
X38291000Y-46049000D01*
X38285000Y-46049000D01*
X38280000Y-46050000D01*
X38275000Y-46050000D01*
X37575000Y-46050000D01*
X37575000Y-45950000D01*
X37575000Y-45850000D01*
X38275000Y-45850000D01*
X38280000Y-45850000D01*
X38285000Y-45851000D01*
G37*
%TD*%
D15*
%TO.C,U6*%
X49110000Y-52200000D03*
X49110000Y-51250000D03*
X49110000Y-50300000D03*
X46790000Y-50300000D03*
X46790000Y-51250000D03*
X46790000Y-52200000D03*
%TD*%
D16*
%TO.C,U1*%
X48349999Y-40250001D03*
D17*
X49250000Y-40449998D03*
X49575000Y-39799999D03*
X49900000Y-40449998D03*
X50225000Y-39799999D03*
X50550000Y-40449998D03*
D16*
X51450000Y-40250001D03*
D17*
X51650000Y-39350000D03*
X51000000Y-39025000D03*
X51650000Y-38700000D03*
X51000000Y-38375000D03*
X51650000Y-38050000D03*
X51000000Y-37725000D03*
X51650000Y-37400000D03*
X51000000Y-37075000D03*
X51650000Y-36750000D03*
X51000000Y-36425000D03*
X51650000Y-36100000D03*
X51000000Y-35775000D03*
X51650000Y-35450000D03*
X51000000Y-35125000D03*
X51650000Y-34800000D03*
X51000000Y-34475000D03*
X51650000Y-34150000D03*
D16*
X51450000Y-33250000D03*
D17*
X50550000Y-33050000D03*
X50225000Y-33700000D03*
X49900000Y-33050000D03*
X49575000Y-33700000D03*
X49250000Y-33050000D03*
D16*
X48349999Y-33250000D03*
D17*
X48150002Y-34150000D03*
X48800001Y-34475000D03*
X48150002Y-34800000D03*
X48800001Y-35125000D03*
X48150002Y-35450000D03*
X48800001Y-35775000D03*
X48150002Y-36100000D03*
X48800001Y-36425000D03*
X48150002Y-36750000D03*
X48800001Y-37075000D03*
X48150002Y-37400000D03*
X48800001Y-37725000D03*
X48150002Y-38050000D03*
X48800001Y-38375000D03*
X48150002Y-38700000D03*
X48800001Y-39025000D03*
X48150002Y-39350000D03*
X52400000Y-40449998D03*
X53400000Y-40449998D03*
X54400000Y-40449998D03*
D16*
X55350000Y-40250001D03*
D17*
X55550500Y-39250000D03*
X55550500Y-38250000D03*
X55550500Y-37250000D03*
X55550500Y-36250000D03*
X55550500Y-35250000D03*
X55550500Y-34250000D03*
D16*
X55350000Y-33250000D03*
D17*
X54400000Y-33050000D03*
X53400000Y-33050000D03*
X52400000Y-33050000D03*
%TD*%
D18*
%TO.C,R29*%
X43500000Y-55620000D03*
X43500000Y-56580000D03*
%TD*%
D19*
%TO.C,U7*%
X47000000Y-59400000D03*
X48450000Y-59400000D03*
X47000000Y-56050000D03*
X48450000Y-56050000D03*
D20*
X45975000Y-57725000D03*
%TD*%
D21*
%TO.C,C12*%
X37526029Y-33869023D03*
X37526029Y-32909023D03*
%TD*%
D22*
%TO.C,R13*%
X41700000Y-30760000D03*
X41700000Y-29740000D03*
%TD*%
D23*
%TO.C,R20*%
X39490000Y-40850000D03*
X40510000Y-40850000D03*
%TD*%
%TO.C,R16*%
X35440000Y-35300000D03*
X36460000Y-35300000D03*
%TD*%
D24*
%TO.C,U2*%
X34671029Y-48762023D03*
X34171029Y-48762023D03*
X33671029Y-48762023D03*
X33171029Y-48762023D03*
D25*
X32486029Y-49447023D03*
X32486029Y-49947023D03*
X32486029Y-50447023D03*
X32486029Y-50947023D03*
D24*
X33171029Y-51632023D03*
X33671029Y-51632023D03*
X34171029Y-51632023D03*
X34671029Y-51632023D03*
D25*
X35356029Y-50947023D03*
X35356029Y-50447023D03*
X35356029Y-49947023D03*
X35356029Y-49447023D03*
%TD*%
D26*
%TO.C,C1*%
X36670000Y-51150000D03*
X37630000Y-51150000D03*
%TD*%
D27*
%TO.C,R30*%
X43500000Y-57590000D03*
X43500000Y-58610000D03*
%TD*%
D28*
%TO.C,C8*%
X32080000Y-47450000D03*
X31120000Y-47450000D03*
%TD*%
D23*
%TO.C,R8*%
X43140000Y-47200000D03*
X44160000Y-47200000D03*
%TD*%
D29*
%TO.C,U9*%
X43600000Y-52300000D03*
X41700000Y-52300000D03*
X42650000Y-54300000D03*
%TD*%
D27*
%TO.C,R11*%
X35450000Y-32890000D03*
X35450000Y-33910000D03*
%TD*%
D30*
%TO.C,R21*%
X42710000Y-40850000D03*
X41690000Y-40850000D03*
%TD*%
D18*
%TO.C,C16*%
X43800000Y-39770000D03*
X43800000Y-40730000D03*
%TD*%
D27*
%TO.C,R12*%
X34400000Y-32890000D03*
X34400000Y-33910000D03*
%TD*%
D30*
%TO.C,R10*%
X36460000Y-39200000D03*
X35440000Y-39200000D03*
%TD*%
D21*
%TO.C,C11*%
X40575029Y-30727023D03*
X40575029Y-29767023D03*
%TD*%
D30*
%TO.C,R25*%
X42710000Y-39650000D03*
X41690000Y-39650000D03*
%TD*%
D26*
%TO.C,C4*%
X33120000Y-47450000D03*
X34080000Y-47450000D03*
%TD*%
D22*
%TO.C,R22*%
X49050000Y-42810000D03*
X49050000Y-41790000D03*
%TD*%
D23*
%TO.C,R17*%
X35440000Y-36394023D03*
X36460000Y-36394023D03*
%TD*%
D22*
%TO.C,R14*%
X44600000Y-56610000D03*
X44600000Y-55590000D03*
%TD*%
D18*
%TO.C,C14*%
X38250000Y-29770000D03*
X38250000Y-30730000D03*
%TD*%
D26*
%TO.C,C5*%
X43170000Y-46050000D03*
X44130000Y-46050000D03*
%TD*%
D31*
%TO.C,D1*%
X43100000Y-50150000D03*
X39800000Y-50150000D03*
%TD*%
D27*
%TO.C,R18*%
X39400000Y-29740000D03*
X39400000Y-30760000D03*
%TD*%
D21*
%TO.C,C6*%
X40700000Y-44330000D03*
X40700000Y-43370000D03*
%TD*%
D26*
%TO.C,C15*%
X39520000Y-37989023D03*
X40480000Y-37989023D03*
%TD*%
D30*
%TO.C,R6*%
X36110000Y-47450000D03*
X35090000Y-47450000D03*
%TD*%
D23*
%TO.C,R23*%
X39490000Y-39647023D03*
X40510000Y-39647023D03*
%TD*%
D32*
%TO.C,J1*%
X34050000Y-56580000D03*
X34550000Y-56580000D03*
X35050000Y-56580000D03*
X35550000Y-56580000D03*
X36050000Y-56580000D03*
X36550000Y-56580000D03*
X37550000Y-56580000D03*
X38050000Y-56580000D03*
X38550000Y-56580000D03*
X39050000Y-56580000D03*
X39550000Y-56580000D03*
X40050000Y-56580000D03*
D33*
X40150000Y-57880000D03*
D32*
X39300000Y-57880000D03*
X38800000Y-57880000D03*
X38300000Y-57880000D03*
X37800000Y-57880000D03*
X37300000Y-57880000D03*
X36800000Y-57880000D03*
X36300000Y-57880000D03*
X35800000Y-57880000D03*
X35300000Y-57880000D03*
X34800000Y-57880000D03*
D33*
X33950000Y-57880000D03*
%TD*%
D23*
%TO.C,R5*%
X36640000Y-50100000D03*
X37660000Y-50100000D03*
%TD*%
D18*
%TO.C,C9*%
X45850000Y-43870000D03*
X45850000Y-44830000D03*
%TD*%
D30*
%TO.C,R27*%
X42690029Y-38000000D03*
X41670029Y-38000000D03*
%TD*%
D21*
%TO.C,C7*%
X43750000Y-33430000D03*
X43750000Y-32470000D03*
%TD*%
D26*
%TO.C,C2*%
X32420000Y-53100000D03*
X33380000Y-53100000D03*
%TD*%
D30*
%TO.C,R3*%
X37660000Y-49050000D03*
X36640000Y-49050000D03*
%TD*%
D34*
%TO.C,R9*%
X35675000Y-37800000D03*
X37325000Y-37800000D03*
%TD*%
D30*
%TO.C,R28*%
X34410000Y-54200000D03*
X33390000Y-54200000D03*
%TD*%
D22*
%TO.C,R26*%
X45850000Y-42810000D03*
X45850000Y-41790000D03*
%TD*%
D30*
%TO.C,R24*%
X47960000Y-41850000D03*
X46940000Y-41850000D03*
%TD*%
D23*
%TO.C,R1*%
X34440000Y-53100000D03*
X35460000Y-53100000D03*
%TD*%
D35*
%TO.C,D5*%
X42150000Y-44312500D03*
X42850000Y-44312500D03*
X42850000Y-43012500D03*
X42150000Y-43012500D03*
%TD*%
D27*
%TO.C,R15*%
X36500000Y-32890000D03*
X36500000Y-33910000D03*
%TD*%
D21*
%TO.C,C13*%
X44600000Y-58580000D03*
X44600000Y-57620000D03*
%TD*%
D35*
%TO.C,D4*%
X47100000Y-44400000D03*
X47800000Y-44400000D03*
X47800000Y-43100000D03*
X47100000Y-43100000D03*
%TD*%
D18*
%TO.C,C3*%
X31150000Y-48500000D03*
X31150000Y-49460000D03*
%TD*%
D36*
%TO.C,U5*%
X38701029Y-33881023D03*
X38701029Y-34381023D03*
X38701029Y-34881023D03*
X38701029Y-35381023D03*
X38701029Y-35881023D03*
D37*
X39596029Y-36776023D03*
X40096029Y-36776023D03*
X40596029Y-36776023D03*
X41096029Y-36776023D03*
X41596029Y-36776023D03*
D36*
X42491029Y-35881023D03*
X42491029Y-35381023D03*
X42491029Y-34881023D03*
X42491029Y-34381023D03*
X42491029Y-33881023D03*
D37*
X41596029Y-32986023D03*
X41096029Y-32986023D03*
X40596029Y-32986023D03*
X40096029Y-32986023D03*
X39596029Y-32986023D03*
D38*
X40596029Y-34881023D03*
%TD*%
D23*
%TO.C,R7*%
X43126077Y-48450000D03*
X44146077Y-48450000D03*
%TD*%
D27*
%TO.C,R32*%
X39500000Y-43340000D03*
X39500000Y-44360000D03*
%TD*%
D18*
%TO.C,C10*%
X37550000Y-35470000D03*
X37550000Y-36430000D03*
%TD*%
D22*
%TO.C,R19*%
X37100000Y-30760000D03*
X37100000Y-29740000D03*
%TD*%
D39*
%TO.C,U4*%
X46682500Y-46600000D03*
X46682500Y-47550000D03*
X46682500Y-48500000D03*
X49192500Y-48500000D03*
X49192500Y-46600000D03*
%TD*%
D40*
%TO.C,F1*%
X37100000Y-53350000D03*
X39900000Y-53350000D03*
%TD*%
D41*
X55999971Y-26001977D02*
X56000000Y-62000000D01*
X51444000Y-61829500D02*
X45600000Y-61829500D01*
X51444000Y-61829500D02*
X51444000Y-64000000D01*
X30003044Y-61997000D02*
G75*
G03*
X32000000Y-63999999I2018656J15600D01*
G01*
X53997000Y-63997000D02*
X51444000Y-64000000D01*
X53997000Y-63996956D02*
G75*
G03*
X55999999Y-62000000I-15600J2018656D01*
G01*
X54002971Y-23998977D02*
X37913000Y-23999000D01*
X45600000Y-64000000D02*
X32000000Y-64000000D01*
X30003000Y-26002000D02*
X30003000Y-61997000D01*
X32000000Y-24000033D02*
G75*
G03*
X30003001Y-26002000I15600J-2012567D01*
G01*
X37913000Y-23999000D02*
X33529000Y-23999000D01*
X33529000Y-23999000D02*
X32000000Y-24000000D01*
X45600000Y-61829500D02*
X45600000Y-64000000D01*
X55999880Y-26001978D02*
G75*
G03*
X54002971Y-23998977I-2018680J-15622D01*
G01*
M02*
