M48
; DRILL file {KiCad 7.0.1} date Wed Aug 21 14:43:35 2024
; FORMAT={-:-/ absolute / metric / decimal}
; #@! TF.CreationDate,2024-08-21T14:43:35+02:00
; #@! TF.GenerationSoftware,Kicad,Pcbnew,7.0.1
; #@! TF.FileFunction,Plated,1,2,PTH
FMAT,2
METRIC
; #@! TA.AperFunction,Plated,PTH,ViaDrill
T1C0.300
; #@! TA.AperFunction,Plated,PTH,ComponentDrill
T2C0.508
; #@! TA.AperFunction,Plated,PTH,ComponentDrill
T3C0.600
; #@! TA.AperFunction,Plated,PTH,ComponentDrill
T4C1.000
%
G90
G05
T1
X31.15Y-46.5
X31.5Y-50.45
X31.555Y-52.26
X32.08Y-46.53
X32.23Y-53.9
X32.311Y-51.5
X33.4Y-55.023
X33.9Y-52.4
X34.836Y-45.072
X34.85Y-42.3
X34.9Y-34.55
X35.45Y-48.75
X35.511Y-51.672
X35.55Y-53.87
X36.227Y-42.2
X36.35Y-48.25
X36.45Y-55.6
X37.42Y-43.3
X37.86Y-38.95
X37.95Y-55.6
X38.35Y-28.95
X38.35Y-51.45
X38.35Y-50.3
X38.434Y-49.209
X38.436Y-39.672
X38.6Y-40.9
X39.15Y-51.25
X39.3Y-27.65
X39.45Y-55.55
X39.5Y-38.8
X39.5Y-45.15
X40.48Y-38.8
X40.7Y-42.63
X41.099Y-40.227
X41.35Y-50.3
X41.4Y-55.35
X41.619Y-45.05
X41.75Y-31.9
X42.55Y-45.05
X42.55Y-55.5
X42.561Y-33.072
X42.826Y-57.6
X42.85Y-42.2
X43.5Y-59.45
X43.6Y-42.669
X43.7Y-54.15
X43.746Y-45.1
X44.7Y-49.35
X44.753Y-41.35
X44.974Y-51.2
X45.3Y-54.1
X45.55Y-49.35
X45.75Y-59.3
X46.1Y-45.85
X46.5Y-26.1
X46.75Y-40.25
X47.05Y-53.2
X47.3Y-36.75
X47.3Y-37.5
X47.3Y-38.249
X48.311Y-45.497
X48.8Y-61.1
X49.55Y-29.45
X49.55Y-38.35
X50.225Y-37.725
X51.05Y-32.225
T2
X31.55Y-42.25
X31.55Y-43.5
X31.55Y-44.75
T4
X32.0Y-29.5
X32.0Y-32.04
X32.0Y-34.58
X32.0Y-37.12
T3
G00X32.73Y-56.49
M15
G01X32.73Y-57.49
M16
G05
G00X32.73Y-61.6
M15
G01X32.73Y-63.1
M16
G05
G00X41.37Y-56.49
M15
G01X41.37Y-57.49
M16
G05
G00X41.37Y-61.6
M15
G01X41.37Y-63.1
M16
G05
T0
M30
