%TF.GenerationSoftware,KiCad,Pcbnew,7.0.1*%
%TF.CreationDate,2024-08-21T14:43:36+02:00*%
%TF.ProjectId,renforce-ecg,72656e66-6f72-4636-952d-6563672e6b69,1*%
%TF.SameCoordinates,Original*%
%TF.FileFunction,Drillmap*%
%TF.FilePolarity,Positive*%
%FSLAX45Y45*%
G04 Gerber Fmt 4.5, Leading zero omitted, Abs format (unit mm)*
G04 Created by KiCad (PCBNEW 7.0.1) date 2024-08-21 14:43:36*
%MOMM*%
%LPD*%
G01*
G04 APERTURE LIST*
%ADD10C,0.254000*%
%ADD11C,0.200000*%
%ADD12C,0.030000*%
%ADD13C,0.050800*%
%ADD14C,0.060000*%
%ADD15C,0.100000*%
G04 APERTURE END LIST*
D10*
X5599997Y-2600198D02*
X5600000Y-6200000D01*
X5144400Y-6182950D02*
X4560000Y-6182950D01*
X5144400Y-6182950D02*
X5144400Y-6400000D01*
X3000304Y-6199700D02*
G75*
G03*
X3200000Y-6400000I201866J1560D01*
G01*
X5399700Y-6399700D02*
X5144400Y-6400000D01*
X5399700Y-6399696D02*
G75*
G03*
X5600000Y-6200000I-1560J201866D01*
G01*
X5400297Y-2399898D02*
X3791300Y-2399900D01*
X4560000Y-6400000D02*
X3200000Y-6400000D01*
X3000300Y-2600200D02*
X3000300Y-6199700D01*
X3200000Y-2400003D02*
G75*
G03*
X3000300Y-2600200I1560J-201257D01*
G01*
X3791300Y-2399900D02*
X3352900Y-2399900D01*
X3352900Y-2399900D02*
X3200000Y-2400000D01*
X4560000Y-6182950D02*
X4560000Y-6400000D01*
X5599988Y-2600198D02*
G75*
G03*
X5400297Y-2399898I-201868J-1562D01*
G01*
D11*
D12*
X3100000Y-4635000D02*
X3130000Y-4665000D01*
X3130000Y-4635000D02*
X3100000Y-4665000D01*
X3135000Y-5030000D02*
X3165000Y-5060000D01*
X3165000Y-5030000D02*
X3135000Y-5060000D01*
X3140534Y-5210992D02*
X3170534Y-5240992D01*
X3170534Y-5210992D02*
X3140534Y-5240992D01*
X3193000Y-4638000D02*
X3223000Y-4668000D01*
X3223000Y-4638000D02*
X3193000Y-4668000D01*
X3208000Y-5375000D02*
X3238000Y-5405000D01*
X3238000Y-5375000D02*
X3208000Y-5405000D01*
X3216108Y-5135000D02*
X3246108Y-5165000D01*
X3246108Y-5135000D02*
X3216108Y-5165000D01*
X3325000Y-5487300D02*
X3355000Y-5517300D01*
X3355000Y-5487300D02*
X3325000Y-5517300D01*
X3375000Y-5225000D02*
X3405000Y-5255000D01*
X3405000Y-5225000D02*
X3375000Y-5255000D01*
X3468608Y-4492202D02*
X3498608Y-4522202D01*
X3498608Y-4492202D02*
X3468608Y-4522202D01*
X3470000Y-4215000D02*
X3500000Y-4245000D01*
X3500000Y-4215000D02*
X3470000Y-4245000D01*
X3475000Y-3440000D02*
X3505000Y-3470000D01*
X3505000Y-3440000D02*
X3475000Y-3470000D01*
X3530000Y-4860000D02*
X3560000Y-4890000D01*
X3560000Y-4860000D02*
X3530000Y-4890000D01*
X3536108Y-5152202D02*
X3566108Y-5182202D01*
X3566108Y-5152202D02*
X3536108Y-5182202D01*
X3540000Y-5372000D02*
X3570000Y-5402000D01*
X3570000Y-5372000D02*
X3540000Y-5402000D01*
X3607650Y-4205000D02*
X3637650Y-4235000D01*
X3637650Y-4205000D02*
X3607650Y-4235000D01*
X3620000Y-4810000D02*
X3650000Y-4840000D01*
X3650000Y-4810000D02*
X3620000Y-4840000D01*
X3630000Y-5545000D02*
X3660000Y-5575000D01*
X3660000Y-5545000D02*
X3630000Y-5575000D01*
X3726953Y-4315000D02*
X3756953Y-4345000D01*
X3756953Y-4315000D02*
X3726953Y-4345000D01*
X3770958Y-3880000D02*
X3800958Y-3910000D01*
X3800958Y-3880000D02*
X3770958Y-3910000D01*
X3780000Y-5545000D02*
X3810000Y-5575000D01*
X3810000Y-5545000D02*
X3780000Y-5575000D01*
X3820000Y-2880000D02*
X3850000Y-2910000D01*
X3850000Y-2880000D02*
X3820000Y-2910000D01*
X3820000Y-5129950D02*
X3850000Y-5159950D01*
X3850000Y-5129950D02*
X3820000Y-5159950D01*
X3820050Y-5015000D02*
X3850050Y-5045000D01*
X3850050Y-5015000D02*
X3820050Y-5045000D01*
X3828402Y-4905877D02*
X3858402Y-4935877D01*
X3858402Y-4905877D02*
X3828402Y-4935877D01*
X3828608Y-3952202D02*
X3858608Y-3982202D01*
X3858608Y-3952202D02*
X3828608Y-3982202D01*
X3845000Y-4075000D02*
X3875000Y-4105000D01*
X3875000Y-4075000D02*
X3845000Y-4105000D01*
X3900000Y-5110000D02*
X3930000Y-5140000D01*
X3930000Y-5110000D02*
X3900000Y-5140000D01*
X3915000Y-2750000D02*
X3945000Y-2780000D01*
X3945000Y-2750000D02*
X3915000Y-2780000D01*
X3930000Y-5540000D02*
X3960000Y-5570000D01*
X3960000Y-5540000D02*
X3930000Y-5570000D01*
X3935000Y-3865000D02*
X3965000Y-3895000D01*
X3965000Y-3865000D02*
X3935000Y-3895000D01*
X3935000Y-4500000D02*
X3965000Y-4530000D01*
X3965000Y-4500000D02*
X3935000Y-4530000D01*
X4033000Y-3865000D02*
X4063000Y-3895000D01*
X4063000Y-3865000D02*
X4033000Y-3895000D01*
X4055000Y-4248050D02*
X4085000Y-4278050D01*
X4085000Y-4248050D02*
X4055000Y-4278050D01*
X4094907Y-4007650D02*
X4124907Y-4037650D01*
X4124907Y-4007650D02*
X4094907Y-4037650D01*
X4120000Y-5015000D02*
X4150000Y-5045000D01*
X4150000Y-5015000D02*
X4120000Y-5045000D01*
X4125000Y-5520000D02*
X4155000Y-5550000D01*
X4155000Y-5520000D02*
X4125000Y-5550000D01*
X4146918Y-4490000D02*
X4176918Y-4520000D01*
X4176918Y-4490000D02*
X4146918Y-4520000D01*
X4160000Y-3175000D02*
X4190000Y-3205000D01*
X4190000Y-3175000D02*
X4160000Y-3205000D01*
X4240000Y-4490000D02*
X4270000Y-4520000D01*
X4270000Y-4490000D02*
X4240000Y-4520000D01*
X4240000Y-5535000D02*
X4270000Y-5565000D01*
X4270000Y-5535000D02*
X4240000Y-5565000D01*
X4241108Y-3292202D02*
X4271108Y-3322202D01*
X4271108Y-3292202D02*
X4241108Y-3322202D01*
X4267650Y-5745000D02*
X4297650Y-5775000D01*
X4297650Y-5745000D02*
X4267650Y-5775000D01*
X4270000Y-4205000D02*
X4300000Y-4235000D01*
X4300000Y-4205000D02*
X4270000Y-4235000D01*
X4335000Y-5930000D02*
X4365000Y-5960000D01*
X4365000Y-5930000D02*
X4335000Y-5960000D01*
X4345000Y-4251929D02*
X4375000Y-4281929D01*
X4375000Y-4251929D02*
X4345000Y-4281929D01*
X4355000Y-5400000D02*
X4385000Y-5430000D01*
X4385000Y-5400000D02*
X4355000Y-5430000D01*
X4359650Y-4495000D02*
X4389650Y-4525000D01*
X4389650Y-4495000D02*
X4359650Y-4525000D01*
X4455000Y-4920000D02*
X4485000Y-4950000D01*
X4485000Y-4920000D02*
X4455000Y-4950000D01*
X4460300Y-4120000D02*
X4490300Y-4150000D01*
X4490300Y-4120000D02*
X4460300Y-4150000D01*
X4482350Y-5105000D02*
X4512350Y-5135000D01*
X4512350Y-5105000D02*
X4482350Y-5135000D01*
X4515000Y-5395000D02*
X4545000Y-5425000D01*
X4545000Y-5395000D02*
X4515000Y-5425000D01*
X4540000Y-4920000D02*
X4570000Y-4950000D01*
X4570000Y-4920000D02*
X4540000Y-4950000D01*
X4560000Y-5915000D02*
X4590000Y-5945000D01*
X4590000Y-5915000D02*
X4560000Y-5945000D01*
X4595000Y-4570000D02*
X4625000Y-4600000D01*
X4625000Y-4570000D02*
X4595000Y-4600000D01*
X4635000Y-2595000D02*
X4665000Y-2625000D01*
X4665000Y-2595000D02*
X4635000Y-2625000D01*
X4660000Y-4010000D02*
X4690000Y-4040000D01*
X4690000Y-4010000D02*
X4660000Y-4040000D01*
X4690000Y-5305000D02*
X4720000Y-5335000D01*
X4720000Y-5305000D02*
X4690000Y-5335000D01*
X4715000Y-3660000D02*
X4745000Y-3690000D01*
X4745000Y-3660000D02*
X4715000Y-3690000D01*
X4715000Y-3734950D02*
X4745000Y-3764950D01*
X4745000Y-3734950D02*
X4715000Y-3764950D01*
X4715000Y-3809901D02*
X4745000Y-3839901D01*
X4745000Y-3809901D02*
X4715000Y-3839901D01*
X4816108Y-4534702D02*
X4846108Y-4564702D01*
X4846108Y-4534702D02*
X4816108Y-4564702D01*
X4865000Y-6095000D02*
X4895000Y-6125000D01*
X4895000Y-6095000D02*
X4865000Y-6125000D01*
X4940000Y-2930000D02*
X4970000Y-2960000D01*
X4970000Y-2930000D02*
X4940000Y-2960000D01*
X4940000Y-3820000D02*
X4970000Y-3850000D01*
X4970000Y-3820000D02*
X4940000Y-3850000D01*
X5007500Y-3757500D02*
X5037500Y-3787500D01*
X5037500Y-3757500D02*
X5007500Y-3787500D01*
X5090000Y-3207500D02*
X5120000Y-3237500D01*
X5120000Y-3207500D02*
X5090000Y-3237500D01*
D13*
X3180400Y-4225000D02*
G75*
G03*
X3180400Y-4225000I-25400J0D01*
G01*
X3180400Y-4350000D02*
G75*
G03*
X3180400Y-4350000I-25400J0D01*
G01*
X3180400Y-4475000D02*
G75*
G03*
X3180400Y-4475000I-25400J0D01*
G01*
D14*
X3273000Y-5669000D02*
X3273000Y-5729000D01*
X3243000Y-5699000D02*
X3303000Y-5699000D01*
D11*
X3243000Y-5649000D02*
X3243000Y-5749000D01*
X3243000Y-5749000D02*
G75*
G03*
X3303000Y-5749000I30000J0D01*
G01*
X3303000Y-5749000D02*
X3303000Y-5649000D01*
X3303000Y-5649000D02*
G75*
G03*
X3243000Y-5649000I-30000J0D01*
G01*
D14*
X3273000Y-6205000D02*
X3273000Y-6265000D01*
X3243000Y-6235000D02*
X3303000Y-6235000D01*
D11*
X3243000Y-6160000D02*
X3243000Y-6310000D01*
X3243000Y-6310000D02*
G75*
G03*
X3303000Y-6310000I30000J0D01*
G01*
X3303000Y-6310000D02*
X3303000Y-6160000D01*
X3303000Y-6160000D02*
G75*
G03*
X3243000Y-6160000I-30000J0D01*
G01*
D14*
X4137000Y-5669000D02*
X4137000Y-5729000D01*
X4107000Y-5699000D02*
X4167000Y-5699000D01*
D11*
X4107000Y-5649000D02*
X4107000Y-5749000D01*
X4107000Y-5749000D02*
G75*
G03*
X4167000Y-5749000I30000J0D01*
G01*
X4167000Y-5749000D02*
X4167000Y-5649000D01*
X4167000Y-5649000D02*
G75*
G03*
X4107000Y-5649000I-30000J0D01*
G01*
D14*
X4137000Y-6205000D02*
X4137000Y-6265000D01*
X4107000Y-6235000D02*
X4167000Y-6235000D01*
D11*
X4107000Y-6160000D02*
X4107000Y-6310000D01*
X4107000Y-6310000D02*
G75*
G03*
X4167000Y-6310000I30000J0D01*
G01*
X4167000Y-6310000D02*
X4167000Y-6160000D01*
X4167000Y-6160000D02*
G75*
G03*
X4107000Y-6160000I-30000J0D01*
G01*
D15*
X3235356Y-2985356D02*
X3235356Y-2914644D01*
X3164644Y-2914644D01*
X3164644Y-2985356D01*
X3235356Y-2985356D01*
X3235356Y-3239356D02*
X3235356Y-3168644D01*
X3164644Y-3168644D01*
X3164644Y-3239356D01*
X3235356Y-3239356D01*
X3235356Y-3493356D02*
X3235356Y-3422644D01*
X3164644Y-3422644D01*
X3164644Y-3493356D01*
X3235356Y-3493356D01*
X3235356Y-3747356D02*
X3235356Y-3676644D01*
X3164644Y-3676644D01*
X3164644Y-3747356D01*
X3235356Y-3747356D01*
D11*
X3235219Y-6725224D02*
X3235219Y-6525224D01*
X3235219Y-6525224D02*
X3282838Y-6525224D01*
X3282838Y-6525224D02*
X3311409Y-6534748D01*
X3311409Y-6534748D02*
X3330457Y-6553795D01*
X3330457Y-6553795D02*
X3339981Y-6572843D01*
X3339981Y-6572843D02*
X3349505Y-6610938D01*
X3349505Y-6610938D02*
X3349505Y-6639509D01*
X3349505Y-6639509D02*
X3339981Y-6677605D01*
X3339981Y-6677605D02*
X3330457Y-6696652D01*
X3330457Y-6696652D02*
X3311409Y-6715700D01*
X3311409Y-6715700D02*
X3282838Y-6725224D01*
X3282838Y-6725224D02*
X3235219Y-6725224D01*
X3435219Y-6725224D02*
X3435219Y-6591890D01*
X3435219Y-6629986D02*
X3444743Y-6610938D01*
X3444743Y-6610938D02*
X3454267Y-6601414D01*
X3454267Y-6601414D02*
X3473314Y-6591890D01*
X3473314Y-6591890D02*
X3492362Y-6591890D01*
X3559028Y-6725224D02*
X3559028Y-6591890D01*
X3559028Y-6525224D02*
X3549505Y-6534748D01*
X3549505Y-6534748D02*
X3559028Y-6544271D01*
X3559028Y-6544271D02*
X3568552Y-6534748D01*
X3568552Y-6534748D02*
X3559028Y-6525224D01*
X3559028Y-6525224D02*
X3559028Y-6544271D01*
X3682838Y-6725224D02*
X3663790Y-6715700D01*
X3663790Y-6715700D02*
X3654267Y-6696652D01*
X3654267Y-6696652D02*
X3654267Y-6525224D01*
X3787600Y-6725224D02*
X3768552Y-6715700D01*
X3768552Y-6715700D02*
X3759028Y-6696652D01*
X3759028Y-6696652D02*
X3759028Y-6525224D01*
X4016171Y-6725224D02*
X4016171Y-6525224D01*
X4016171Y-6525224D02*
X4082838Y-6668081D01*
X4082838Y-6668081D02*
X4149505Y-6525224D01*
X4149505Y-6525224D02*
X4149505Y-6725224D01*
X4330457Y-6725224D02*
X4330457Y-6620462D01*
X4330457Y-6620462D02*
X4320933Y-6601414D01*
X4320933Y-6601414D02*
X4301886Y-6591890D01*
X4301886Y-6591890D02*
X4263790Y-6591890D01*
X4263790Y-6591890D02*
X4244743Y-6601414D01*
X4330457Y-6715700D02*
X4311410Y-6725224D01*
X4311410Y-6725224D02*
X4263790Y-6725224D01*
X4263790Y-6725224D02*
X4244743Y-6715700D01*
X4244743Y-6715700D02*
X4235219Y-6696652D01*
X4235219Y-6696652D02*
X4235219Y-6677605D01*
X4235219Y-6677605D02*
X4244743Y-6658557D01*
X4244743Y-6658557D02*
X4263790Y-6649033D01*
X4263790Y-6649033D02*
X4311410Y-6649033D01*
X4311410Y-6649033D02*
X4330457Y-6639509D01*
X4425695Y-6591890D02*
X4425695Y-6791890D01*
X4425695Y-6601414D02*
X4444743Y-6591890D01*
X4444743Y-6591890D02*
X4482838Y-6591890D01*
X4482838Y-6591890D02*
X4501886Y-6601414D01*
X4501886Y-6601414D02*
X4511410Y-6610938D01*
X4511410Y-6610938D02*
X4520933Y-6629986D01*
X4520933Y-6629986D02*
X4520933Y-6687128D01*
X4520933Y-6687128D02*
X4511410Y-6706176D01*
X4511410Y-6706176D02*
X4501886Y-6715700D01*
X4501886Y-6715700D02*
X4482838Y-6725224D01*
X4482838Y-6725224D02*
X4444743Y-6725224D01*
X4444743Y-6725224D02*
X4425695Y-6715700D01*
X4606648Y-6706176D02*
X4616171Y-6715700D01*
X4616171Y-6715700D02*
X4606648Y-6725224D01*
X4606648Y-6725224D02*
X4597124Y-6715700D01*
X4597124Y-6715700D02*
X4606648Y-6706176D01*
X4606648Y-6706176D02*
X4606648Y-6725224D01*
X4606648Y-6601414D02*
X4616171Y-6610938D01*
X4616171Y-6610938D02*
X4606648Y-6620462D01*
X4606648Y-6620462D02*
X4597124Y-6610938D01*
X4597124Y-6610938D02*
X4606648Y-6601414D01*
X4606648Y-6601414D02*
X4606648Y-6620462D01*
D12*
X2957600Y-7037700D02*
X2987600Y-7067700D01*
X2987600Y-7037700D02*
X2957600Y-7067700D01*
D11*
X3273314Y-6945224D02*
X3292362Y-6945224D01*
X3292362Y-6945224D02*
X3311409Y-6954748D01*
X3311409Y-6954748D02*
X3320933Y-6964271D01*
X3320933Y-6964271D02*
X3330457Y-6983319D01*
X3330457Y-6983319D02*
X3339981Y-7021414D01*
X3339981Y-7021414D02*
X3339981Y-7069033D01*
X3339981Y-7069033D02*
X3330457Y-7107128D01*
X3330457Y-7107128D02*
X3320933Y-7126176D01*
X3320933Y-7126176D02*
X3311409Y-7135700D01*
X3311409Y-7135700D02*
X3292362Y-7145224D01*
X3292362Y-7145224D02*
X3273314Y-7145224D01*
X3273314Y-7145224D02*
X3254267Y-7135700D01*
X3254267Y-7135700D02*
X3244743Y-7126176D01*
X3244743Y-7126176D02*
X3235219Y-7107128D01*
X3235219Y-7107128D02*
X3225695Y-7069033D01*
X3225695Y-7069033D02*
X3225695Y-7021414D01*
X3225695Y-7021414D02*
X3235219Y-6983319D01*
X3235219Y-6983319D02*
X3244743Y-6964271D01*
X3244743Y-6964271D02*
X3254267Y-6954748D01*
X3254267Y-6954748D02*
X3273314Y-6945224D01*
X3425695Y-7126176D02*
X3435219Y-7135700D01*
X3435219Y-7135700D02*
X3425695Y-7145224D01*
X3425695Y-7145224D02*
X3416171Y-7135700D01*
X3416171Y-7135700D02*
X3425695Y-7126176D01*
X3425695Y-7126176D02*
X3425695Y-7145224D01*
X3501886Y-6945224D02*
X3625695Y-6945224D01*
X3625695Y-6945224D02*
X3559028Y-7021414D01*
X3559028Y-7021414D02*
X3587600Y-7021414D01*
X3587600Y-7021414D02*
X3606648Y-7030938D01*
X3606648Y-7030938D02*
X3616171Y-7040462D01*
X3616171Y-7040462D02*
X3625695Y-7059509D01*
X3625695Y-7059509D02*
X3625695Y-7107128D01*
X3625695Y-7107128D02*
X3616171Y-7126176D01*
X3616171Y-7126176D02*
X3606648Y-7135700D01*
X3606648Y-7135700D02*
X3587600Y-7145224D01*
X3587600Y-7145224D02*
X3530457Y-7145224D01*
X3530457Y-7145224D02*
X3511409Y-7135700D01*
X3511409Y-7135700D02*
X3501886Y-7126176D01*
X3749505Y-6945224D02*
X3768552Y-6945224D01*
X3768552Y-6945224D02*
X3787600Y-6954748D01*
X3787600Y-6954748D02*
X3797124Y-6964271D01*
X3797124Y-6964271D02*
X3806648Y-6983319D01*
X3806648Y-6983319D02*
X3816171Y-7021414D01*
X3816171Y-7021414D02*
X3816171Y-7069033D01*
X3816171Y-7069033D02*
X3806648Y-7107128D01*
X3806648Y-7107128D02*
X3797124Y-7126176D01*
X3797124Y-7126176D02*
X3787600Y-7135700D01*
X3787600Y-7135700D02*
X3768552Y-7145224D01*
X3768552Y-7145224D02*
X3749505Y-7145224D01*
X3749505Y-7145224D02*
X3730457Y-7135700D01*
X3730457Y-7135700D02*
X3720933Y-7126176D01*
X3720933Y-7126176D02*
X3711409Y-7107128D01*
X3711409Y-7107128D02*
X3701886Y-7069033D01*
X3701886Y-7069033D02*
X3701886Y-7021414D01*
X3701886Y-7021414D02*
X3711409Y-6983319D01*
X3711409Y-6983319D02*
X3720933Y-6964271D01*
X3720933Y-6964271D02*
X3730457Y-6954748D01*
X3730457Y-6954748D02*
X3749505Y-6945224D01*
X3939981Y-6945224D02*
X3959029Y-6945224D01*
X3959029Y-6945224D02*
X3978076Y-6954748D01*
X3978076Y-6954748D02*
X3987600Y-6964271D01*
X3987600Y-6964271D02*
X3997124Y-6983319D01*
X3997124Y-6983319D02*
X4006648Y-7021414D01*
X4006648Y-7021414D02*
X4006648Y-7069033D01*
X4006648Y-7069033D02*
X3997124Y-7107128D01*
X3997124Y-7107128D02*
X3987600Y-7126176D01*
X3987600Y-7126176D02*
X3978076Y-7135700D01*
X3978076Y-7135700D02*
X3959029Y-7145224D01*
X3959029Y-7145224D02*
X3939981Y-7145224D01*
X3939981Y-7145224D02*
X3920933Y-7135700D01*
X3920933Y-7135700D02*
X3911409Y-7126176D01*
X3911409Y-7126176D02*
X3901886Y-7107128D01*
X3901886Y-7107128D02*
X3892362Y-7069033D01*
X3892362Y-7069033D02*
X3892362Y-7021414D01*
X3892362Y-7021414D02*
X3901886Y-6983319D01*
X3901886Y-6983319D02*
X3911409Y-6964271D01*
X3911409Y-6964271D02*
X3920933Y-6954748D01*
X3920933Y-6954748D02*
X3939981Y-6945224D01*
X4092362Y-7145224D02*
X4092362Y-7011890D01*
X4092362Y-7030938D02*
X4101886Y-7021414D01*
X4101886Y-7021414D02*
X4120933Y-7011890D01*
X4120933Y-7011890D02*
X4149505Y-7011890D01*
X4149505Y-7011890D02*
X4168552Y-7021414D01*
X4168552Y-7021414D02*
X4178076Y-7040462D01*
X4178076Y-7040462D02*
X4178076Y-7145224D01*
X4178076Y-7040462D02*
X4187600Y-7021414D01*
X4187600Y-7021414D02*
X4206648Y-7011890D01*
X4206648Y-7011890D02*
X4235219Y-7011890D01*
X4235219Y-7011890D02*
X4254267Y-7021414D01*
X4254267Y-7021414D02*
X4263791Y-7040462D01*
X4263791Y-7040462D02*
X4263791Y-7145224D01*
X4359029Y-7145224D02*
X4359029Y-7011890D01*
X4359029Y-7030938D02*
X4368552Y-7021414D01*
X4368552Y-7021414D02*
X4387600Y-7011890D01*
X4387600Y-7011890D02*
X4416172Y-7011890D01*
X4416172Y-7011890D02*
X4435219Y-7021414D01*
X4435219Y-7021414D02*
X4444743Y-7040462D01*
X4444743Y-7040462D02*
X4444743Y-7145224D01*
X4444743Y-7040462D02*
X4454267Y-7021414D01*
X4454267Y-7021414D02*
X4473314Y-7011890D01*
X4473314Y-7011890D02*
X4501886Y-7011890D01*
X4501886Y-7011890D02*
X4520933Y-7021414D01*
X4520933Y-7021414D02*
X4530457Y-7040462D01*
X4530457Y-7040462D02*
X4530457Y-7145224D01*
X4920933Y-6935700D02*
X4749505Y-7192843D01*
X5178076Y-6945224D02*
X5197124Y-6945224D01*
X5197124Y-6945224D02*
X5216172Y-6954748D01*
X5216172Y-6954748D02*
X5225695Y-6964271D01*
X5225695Y-6964271D02*
X5235219Y-6983319D01*
X5235219Y-6983319D02*
X5244743Y-7021414D01*
X5244743Y-7021414D02*
X5244743Y-7069033D01*
X5244743Y-7069033D02*
X5235219Y-7107128D01*
X5235219Y-7107128D02*
X5225695Y-7126176D01*
X5225695Y-7126176D02*
X5216172Y-7135700D01*
X5216172Y-7135700D02*
X5197124Y-7145224D01*
X5197124Y-7145224D02*
X5178076Y-7145224D01*
X5178076Y-7145224D02*
X5159029Y-7135700D01*
X5159029Y-7135700D02*
X5149505Y-7126176D01*
X5149505Y-7126176D02*
X5139981Y-7107128D01*
X5139981Y-7107128D02*
X5130457Y-7069033D01*
X5130457Y-7069033D02*
X5130457Y-7021414D01*
X5130457Y-7021414D02*
X5139981Y-6983319D01*
X5139981Y-6983319D02*
X5149505Y-6964271D01*
X5149505Y-6964271D02*
X5159029Y-6954748D01*
X5159029Y-6954748D02*
X5178076Y-6945224D01*
X5330457Y-7126176D02*
X5339981Y-7135700D01*
X5339981Y-7135700D02*
X5330457Y-7145224D01*
X5330457Y-7145224D02*
X5320934Y-7135700D01*
X5320934Y-7135700D02*
X5330457Y-7126176D01*
X5330457Y-7126176D02*
X5330457Y-7145224D01*
X5463791Y-6945224D02*
X5482838Y-6945224D01*
X5482838Y-6945224D02*
X5501886Y-6954748D01*
X5501886Y-6954748D02*
X5511410Y-6964271D01*
X5511410Y-6964271D02*
X5520934Y-6983319D01*
X5520934Y-6983319D02*
X5530457Y-7021414D01*
X5530457Y-7021414D02*
X5530457Y-7069033D01*
X5530457Y-7069033D02*
X5520934Y-7107128D01*
X5520934Y-7107128D02*
X5511410Y-7126176D01*
X5511410Y-7126176D02*
X5501886Y-7135700D01*
X5501886Y-7135700D02*
X5482838Y-7145224D01*
X5482838Y-7145224D02*
X5463791Y-7145224D01*
X5463791Y-7145224D02*
X5444743Y-7135700D01*
X5444743Y-7135700D02*
X5435219Y-7126176D01*
X5435219Y-7126176D02*
X5425695Y-7107128D01*
X5425695Y-7107128D02*
X5416172Y-7069033D01*
X5416172Y-7069033D02*
X5416172Y-7021414D01*
X5416172Y-7021414D02*
X5425695Y-6983319D01*
X5425695Y-6983319D02*
X5435219Y-6964271D01*
X5435219Y-6964271D02*
X5444743Y-6954748D01*
X5444743Y-6954748D02*
X5463791Y-6945224D01*
X5720933Y-7145224D02*
X5606648Y-7145224D01*
X5663791Y-7145224D02*
X5663791Y-6945224D01*
X5663791Y-6945224D02*
X5644743Y-6973795D01*
X5644743Y-6973795D02*
X5625695Y-6992843D01*
X5625695Y-6992843D02*
X5606648Y-7002367D01*
X5911410Y-7145224D02*
X5797124Y-7145224D01*
X5854267Y-7145224D02*
X5854267Y-6945224D01*
X5854267Y-6945224D02*
X5835219Y-6973795D01*
X5835219Y-6973795D02*
X5816172Y-6992843D01*
X5816172Y-6992843D02*
X5797124Y-7002367D01*
X6025695Y-7030938D02*
X6006648Y-7021414D01*
X6006648Y-7021414D02*
X5997124Y-7011890D01*
X5997124Y-7011890D02*
X5987600Y-6992843D01*
X5987600Y-6992843D02*
X5987600Y-6983319D01*
X5987600Y-6983319D02*
X5997124Y-6964271D01*
X5997124Y-6964271D02*
X6006648Y-6954748D01*
X6006648Y-6954748D02*
X6025695Y-6945224D01*
X6025695Y-6945224D02*
X6063791Y-6945224D01*
X6063791Y-6945224D02*
X6082838Y-6954748D01*
X6082838Y-6954748D02*
X6092362Y-6964271D01*
X6092362Y-6964271D02*
X6101886Y-6983319D01*
X6101886Y-6983319D02*
X6101886Y-6992843D01*
X6101886Y-6992843D02*
X6092362Y-7011890D01*
X6092362Y-7011890D02*
X6082838Y-7021414D01*
X6082838Y-7021414D02*
X6063791Y-7030938D01*
X6063791Y-7030938D02*
X6025695Y-7030938D01*
X6025695Y-7030938D02*
X6006648Y-7040462D01*
X6006648Y-7040462D02*
X5997124Y-7049986D01*
X5997124Y-7049986D02*
X5987600Y-7069033D01*
X5987600Y-7069033D02*
X5987600Y-7107128D01*
X5987600Y-7107128D02*
X5997124Y-7126176D01*
X5997124Y-7126176D02*
X6006648Y-7135700D01*
X6006648Y-7135700D02*
X6025695Y-7145224D01*
X6025695Y-7145224D02*
X6063791Y-7145224D01*
X6063791Y-7145224D02*
X6082838Y-7135700D01*
X6082838Y-7135700D02*
X6092362Y-7126176D01*
X6092362Y-7126176D02*
X6101886Y-7107128D01*
X6101886Y-7107128D02*
X6101886Y-7069033D01*
X6101886Y-7069033D02*
X6092362Y-7049986D01*
X6092362Y-7049986D02*
X6082838Y-7040462D01*
X6082838Y-7040462D02*
X6063791Y-7030938D01*
X6178076Y-6945224D02*
X6178076Y-6983319D01*
X6254267Y-6945224D02*
X6254267Y-6983319D01*
X6549505Y-7221414D02*
X6539981Y-7211890D01*
X6539981Y-7211890D02*
X6520934Y-7183319D01*
X6520934Y-7183319D02*
X6511410Y-7164271D01*
X6511410Y-7164271D02*
X6501886Y-7135700D01*
X6501886Y-7135700D02*
X6492362Y-7088081D01*
X6492362Y-7088081D02*
X6492362Y-7049986D01*
X6492362Y-7049986D02*
X6501886Y-7002367D01*
X6501886Y-7002367D02*
X6511410Y-6973795D01*
X6511410Y-6973795D02*
X6520934Y-6954748D01*
X6520934Y-6954748D02*
X6539981Y-6926176D01*
X6539981Y-6926176D02*
X6549505Y-6916652D01*
X6711410Y-6945224D02*
X6673314Y-6945224D01*
X6673314Y-6945224D02*
X6654267Y-6954748D01*
X6654267Y-6954748D02*
X6644743Y-6964271D01*
X6644743Y-6964271D02*
X6625695Y-6992843D01*
X6625695Y-6992843D02*
X6616172Y-7030938D01*
X6616172Y-7030938D02*
X6616172Y-7107128D01*
X6616172Y-7107128D02*
X6625695Y-7126176D01*
X6625695Y-7126176D02*
X6635219Y-7135700D01*
X6635219Y-7135700D02*
X6654267Y-7145224D01*
X6654267Y-7145224D02*
X6692362Y-7145224D01*
X6692362Y-7145224D02*
X6711410Y-7135700D01*
X6711410Y-7135700D02*
X6720934Y-7126176D01*
X6720934Y-7126176D02*
X6730457Y-7107128D01*
X6730457Y-7107128D02*
X6730457Y-7059509D01*
X6730457Y-7059509D02*
X6720934Y-7040462D01*
X6720934Y-7040462D02*
X6711410Y-7030938D01*
X6711410Y-7030938D02*
X6692362Y-7021414D01*
X6692362Y-7021414D02*
X6654267Y-7021414D01*
X6654267Y-7021414D02*
X6635219Y-7030938D01*
X6635219Y-7030938D02*
X6625695Y-7040462D01*
X6625695Y-7040462D02*
X6616172Y-7059509D01*
X6901886Y-6945224D02*
X6863791Y-6945224D01*
X6863791Y-6945224D02*
X6844743Y-6954748D01*
X6844743Y-6954748D02*
X6835219Y-6964271D01*
X6835219Y-6964271D02*
X6816172Y-6992843D01*
X6816172Y-6992843D02*
X6806648Y-7030938D01*
X6806648Y-7030938D02*
X6806648Y-7107128D01*
X6806648Y-7107128D02*
X6816172Y-7126176D01*
X6816172Y-7126176D02*
X6825695Y-7135700D01*
X6825695Y-7135700D02*
X6844743Y-7145224D01*
X6844743Y-7145224D02*
X6882838Y-7145224D01*
X6882838Y-7145224D02*
X6901886Y-7135700D01*
X6901886Y-7135700D02*
X6911410Y-7126176D01*
X6911410Y-7126176D02*
X6920934Y-7107128D01*
X6920934Y-7107128D02*
X6920934Y-7059509D01*
X6920934Y-7059509D02*
X6911410Y-7040462D01*
X6911410Y-7040462D02*
X6901886Y-7030938D01*
X6901886Y-7030938D02*
X6882838Y-7021414D01*
X6882838Y-7021414D02*
X6844743Y-7021414D01*
X6844743Y-7021414D02*
X6825695Y-7030938D01*
X6825695Y-7030938D02*
X6816172Y-7040462D01*
X6816172Y-7040462D02*
X6806648Y-7059509D01*
X7159029Y-7145224D02*
X7159029Y-6945224D01*
X7244743Y-7145224D02*
X7244743Y-7040462D01*
X7244743Y-7040462D02*
X7235219Y-7021414D01*
X7235219Y-7021414D02*
X7216172Y-7011890D01*
X7216172Y-7011890D02*
X7187600Y-7011890D01*
X7187600Y-7011890D02*
X7168553Y-7021414D01*
X7168553Y-7021414D02*
X7159029Y-7030938D01*
X7368553Y-7145224D02*
X7349505Y-7135700D01*
X7349505Y-7135700D02*
X7339981Y-7126176D01*
X7339981Y-7126176D02*
X7330457Y-7107128D01*
X7330457Y-7107128D02*
X7330457Y-7049986D01*
X7330457Y-7049986D02*
X7339981Y-7030938D01*
X7339981Y-7030938D02*
X7349505Y-7021414D01*
X7349505Y-7021414D02*
X7368553Y-7011890D01*
X7368553Y-7011890D02*
X7397124Y-7011890D01*
X7397124Y-7011890D02*
X7416172Y-7021414D01*
X7416172Y-7021414D02*
X7425696Y-7030938D01*
X7425696Y-7030938D02*
X7435219Y-7049986D01*
X7435219Y-7049986D02*
X7435219Y-7107128D01*
X7435219Y-7107128D02*
X7425696Y-7126176D01*
X7425696Y-7126176D02*
X7416172Y-7135700D01*
X7416172Y-7135700D02*
X7397124Y-7145224D01*
X7397124Y-7145224D02*
X7368553Y-7145224D01*
X7549505Y-7145224D02*
X7530457Y-7135700D01*
X7530457Y-7135700D02*
X7520934Y-7116652D01*
X7520934Y-7116652D02*
X7520934Y-6945224D01*
X7701886Y-7135700D02*
X7682838Y-7145224D01*
X7682838Y-7145224D02*
X7644743Y-7145224D01*
X7644743Y-7145224D02*
X7625696Y-7135700D01*
X7625696Y-7135700D02*
X7616172Y-7116652D01*
X7616172Y-7116652D02*
X7616172Y-7040462D01*
X7616172Y-7040462D02*
X7625696Y-7021414D01*
X7625696Y-7021414D02*
X7644743Y-7011890D01*
X7644743Y-7011890D02*
X7682838Y-7011890D01*
X7682838Y-7011890D02*
X7701886Y-7021414D01*
X7701886Y-7021414D02*
X7711410Y-7040462D01*
X7711410Y-7040462D02*
X7711410Y-7059509D01*
X7711410Y-7059509D02*
X7616172Y-7078557D01*
X7787600Y-7135700D02*
X7806648Y-7145224D01*
X7806648Y-7145224D02*
X7844743Y-7145224D01*
X7844743Y-7145224D02*
X7863791Y-7135700D01*
X7863791Y-7135700D02*
X7873315Y-7116652D01*
X7873315Y-7116652D02*
X7873315Y-7107128D01*
X7873315Y-7107128D02*
X7863791Y-7088081D01*
X7863791Y-7088081D02*
X7844743Y-7078557D01*
X7844743Y-7078557D02*
X7816172Y-7078557D01*
X7816172Y-7078557D02*
X7797124Y-7069033D01*
X7797124Y-7069033D02*
X7787600Y-7049986D01*
X7787600Y-7049986D02*
X7787600Y-7040462D01*
X7787600Y-7040462D02*
X7797124Y-7021414D01*
X7797124Y-7021414D02*
X7816172Y-7011890D01*
X7816172Y-7011890D02*
X7844743Y-7011890D01*
X7844743Y-7011890D02*
X7863791Y-7021414D01*
X7939981Y-7221414D02*
X7949505Y-7211890D01*
X7949505Y-7211890D02*
X7968553Y-7183319D01*
X7968553Y-7183319D02*
X7978077Y-7164271D01*
X7978077Y-7164271D02*
X7987600Y-7135700D01*
X7987600Y-7135700D02*
X7997124Y-7088081D01*
X7997124Y-7088081D02*
X7997124Y-7049986D01*
X7997124Y-7049986D02*
X7987600Y-7002367D01*
X7987600Y-7002367D02*
X7978077Y-6973795D01*
X7978077Y-6973795D02*
X7968553Y-6954748D01*
X7968553Y-6954748D02*
X7949505Y-6926176D01*
X7949505Y-6926176D02*
X7939981Y-6916652D01*
D13*
X2987600Y-7316700D02*
G75*
G03*
X2987600Y-7316700I-25400J0D01*
G01*
D11*
X3273314Y-7209224D02*
X3292362Y-7209224D01*
X3292362Y-7209224D02*
X3311409Y-7218748D01*
X3311409Y-7218748D02*
X3320933Y-7228271D01*
X3320933Y-7228271D02*
X3330457Y-7247319D01*
X3330457Y-7247319D02*
X3339981Y-7285414D01*
X3339981Y-7285414D02*
X3339981Y-7333033D01*
X3339981Y-7333033D02*
X3330457Y-7371128D01*
X3330457Y-7371128D02*
X3320933Y-7390176D01*
X3320933Y-7390176D02*
X3311409Y-7399700D01*
X3311409Y-7399700D02*
X3292362Y-7409224D01*
X3292362Y-7409224D02*
X3273314Y-7409224D01*
X3273314Y-7409224D02*
X3254267Y-7399700D01*
X3254267Y-7399700D02*
X3244743Y-7390176D01*
X3244743Y-7390176D02*
X3235219Y-7371128D01*
X3235219Y-7371128D02*
X3225695Y-7333033D01*
X3225695Y-7333033D02*
X3225695Y-7285414D01*
X3225695Y-7285414D02*
X3235219Y-7247319D01*
X3235219Y-7247319D02*
X3244743Y-7228271D01*
X3244743Y-7228271D02*
X3254267Y-7218748D01*
X3254267Y-7218748D02*
X3273314Y-7209224D01*
X3425695Y-7390176D02*
X3435219Y-7399700D01*
X3435219Y-7399700D02*
X3425695Y-7409224D01*
X3425695Y-7409224D02*
X3416171Y-7399700D01*
X3416171Y-7399700D02*
X3425695Y-7390176D01*
X3425695Y-7390176D02*
X3425695Y-7409224D01*
X3616171Y-7209224D02*
X3520933Y-7209224D01*
X3520933Y-7209224D02*
X3511409Y-7304462D01*
X3511409Y-7304462D02*
X3520933Y-7294938D01*
X3520933Y-7294938D02*
X3539981Y-7285414D01*
X3539981Y-7285414D02*
X3587600Y-7285414D01*
X3587600Y-7285414D02*
X3606648Y-7294938D01*
X3606648Y-7294938D02*
X3616171Y-7304462D01*
X3616171Y-7304462D02*
X3625695Y-7323509D01*
X3625695Y-7323509D02*
X3625695Y-7371128D01*
X3625695Y-7371128D02*
X3616171Y-7390176D01*
X3616171Y-7390176D02*
X3606648Y-7399700D01*
X3606648Y-7399700D02*
X3587600Y-7409224D01*
X3587600Y-7409224D02*
X3539981Y-7409224D01*
X3539981Y-7409224D02*
X3520933Y-7399700D01*
X3520933Y-7399700D02*
X3511409Y-7390176D01*
X3749505Y-7209224D02*
X3768552Y-7209224D01*
X3768552Y-7209224D02*
X3787600Y-7218748D01*
X3787600Y-7218748D02*
X3797124Y-7228271D01*
X3797124Y-7228271D02*
X3806648Y-7247319D01*
X3806648Y-7247319D02*
X3816171Y-7285414D01*
X3816171Y-7285414D02*
X3816171Y-7333033D01*
X3816171Y-7333033D02*
X3806648Y-7371128D01*
X3806648Y-7371128D02*
X3797124Y-7390176D01*
X3797124Y-7390176D02*
X3787600Y-7399700D01*
X3787600Y-7399700D02*
X3768552Y-7409224D01*
X3768552Y-7409224D02*
X3749505Y-7409224D01*
X3749505Y-7409224D02*
X3730457Y-7399700D01*
X3730457Y-7399700D02*
X3720933Y-7390176D01*
X3720933Y-7390176D02*
X3711409Y-7371128D01*
X3711409Y-7371128D02*
X3701886Y-7333033D01*
X3701886Y-7333033D02*
X3701886Y-7285414D01*
X3701886Y-7285414D02*
X3711409Y-7247319D01*
X3711409Y-7247319D02*
X3720933Y-7228271D01*
X3720933Y-7228271D02*
X3730457Y-7218748D01*
X3730457Y-7218748D02*
X3749505Y-7209224D01*
X3930457Y-7294938D02*
X3911409Y-7285414D01*
X3911409Y-7285414D02*
X3901886Y-7275890D01*
X3901886Y-7275890D02*
X3892362Y-7256843D01*
X3892362Y-7256843D02*
X3892362Y-7247319D01*
X3892362Y-7247319D02*
X3901886Y-7228271D01*
X3901886Y-7228271D02*
X3911409Y-7218748D01*
X3911409Y-7218748D02*
X3930457Y-7209224D01*
X3930457Y-7209224D02*
X3968552Y-7209224D01*
X3968552Y-7209224D02*
X3987600Y-7218748D01*
X3987600Y-7218748D02*
X3997124Y-7228271D01*
X3997124Y-7228271D02*
X4006648Y-7247319D01*
X4006648Y-7247319D02*
X4006648Y-7256843D01*
X4006648Y-7256843D02*
X3997124Y-7275890D01*
X3997124Y-7275890D02*
X3987600Y-7285414D01*
X3987600Y-7285414D02*
X3968552Y-7294938D01*
X3968552Y-7294938D02*
X3930457Y-7294938D01*
X3930457Y-7294938D02*
X3911409Y-7304462D01*
X3911409Y-7304462D02*
X3901886Y-7313986D01*
X3901886Y-7313986D02*
X3892362Y-7333033D01*
X3892362Y-7333033D02*
X3892362Y-7371128D01*
X3892362Y-7371128D02*
X3901886Y-7390176D01*
X3901886Y-7390176D02*
X3911409Y-7399700D01*
X3911409Y-7399700D02*
X3930457Y-7409224D01*
X3930457Y-7409224D02*
X3968552Y-7409224D01*
X3968552Y-7409224D02*
X3987600Y-7399700D01*
X3987600Y-7399700D02*
X3997124Y-7390176D01*
X3997124Y-7390176D02*
X4006648Y-7371128D01*
X4006648Y-7371128D02*
X4006648Y-7333033D01*
X4006648Y-7333033D02*
X3997124Y-7313986D01*
X3997124Y-7313986D02*
X3987600Y-7304462D01*
X3987600Y-7304462D02*
X3968552Y-7294938D01*
X4092362Y-7409224D02*
X4092362Y-7275890D01*
X4092362Y-7294938D02*
X4101886Y-7285414D01*
X4101886Y-7285414D02*
X4120933Y-7275890D01*
X4120933Y-7275890D02*
X4149505Y-7275890D01*
X4149505Y-7275890D02*
X4168552Y-7285414D01*
X4168552Y-7285414D02*
X4178076Y-7304462D01*
X4178076Y-7304462D02*
X4178076Y-7409224D01*
X4178076Y-7304462D02*
X4187600Y-7285414D01*
X4187600Y-7285414D02*
X4206648Y-7275890D01*
X4206648Y-7275890D02*
X4235219Y-7275890D01*
X4235219Y-7275890D02*
X4254267Y-7285414D01*
X4254267Y-7285414D02*
X4263791Y-7304462D01*
X4263791Y-7304462D02*
X4263791Y-7409224D01*
X4359029Y-7409224D02*
X4359029Y-7275890D01*
X4359029Y-7294938D02*
X4368552Y-7285414D01*
X4368552Y-7285414D02*
X4387600Y-7275890D01*
X4387600Y-7275890D02*
X4416172Y-7275890D01*
X4416172Y-7275890D02*
X4435219Y-7285414D01*
X4435219Y-7285414D02*
X4444743Y-7304462D01*
X4444743Y-7304462D02*
X4444743Y-7409224D01*
X4444743Y-7304462D02*
X4454267Y-7285414D01*
X4454267Y-7285414D02*
X4473314Y-7275890D01*
X4473314Y-7275890D02*
X4501886Y-7275890D01*
X4501886Y-7275890D02*
X4520933Y-7285414D01*
X4520933Y-7285414D02*
X4530457Y-7304462D01*
X4530457Y-7304462D02*
X4530457Y-7409224D01*
X4920933Y-7199700D02*
X4749505Y-7456843D01*
X5178076Y-7209224D02*
X5197124Y-7209224D01*
X5197124Y-7209224D02*
X5216172Y-7218748D01*
X5216172Y-7218748D02*
X5225695Y-7228271D01*
X5225695Y-7228271D02*
X5235219Y-7247319D01*
X5235219Y-7247319D02*
X5244743Y-7285414D01*
X5244743Y-7285414D02*
X5244743Y-7333033D01*
X5244743Y-7333033D02*
X5235219Y-7371128D01*
X5235219Y-7371128D02*
X5225695Y-7390176D01*
X5225695Y-7390176D02*
X5216172Y-7399700D01*
X5216172Y-7399700D02*
X5197124Y-7409224D01*
X5197124Y-7409224D02*
X5178076Y-7409224D01*
X5178076Y-7409224D02*
X5159029Y-7399700D01*
X5159029Y-7399700D02*
X5149505Y-7390176D01*
X5149505Y-7390176D02*
X5139981Y-7371128D01*
X5139981Y-7371128D02*
X5130457Y-7333033D01*
X5130457Y-7333033D02*
X5130457Y-7285414D01*
X5130457Y-7285414D02*
X5139981Y-7247319D01*
X5139981Y-7247319D02*
X5149505Y-7228271D01*
X5149505Y-7228271D02*
X5159029Y-7218748D01*
X5159029Y-7218748D02*
X5178076Y-7209224D01*
X5330457Y-7390176D02*
X5339981Y-7399700D01*
X5339981Y-7399700D02*
X5330457Y-7409224D01*
X5330457Y-7409224D02*
X5320934Y-7399700D01*
X5320934Y-7399700D02*
X5330457Y-7390176D01*
X5330457Y-7390176D02*
X5330457Y-7409224D01*
X5463791Y-7209224D02*
X5482838Y-7209224D01*
X5482838Y-7209224D02*
X5501886Y-7218748D01*
X5501886Y-7218748D02*
X5511410Y-7228271D01*
X5511410Y-7228271D02*
X5520934Y-7247319D01*
X5520934Y-7247319D02*
X5530457Y-7285414D01*
X5530457Y-7285414D02*
X5530457Y-7333033D01*
X5530457Y-7333033D02*
X5520934Y-7371128D01*
X5520934Y-7371128D02*
X5511410Y-7390176D01*
X5511410Y-7390176D02*
X5501886Y-7399700D01*
X5501886Y-7399700D02*
X5482838Y-7409224D01*
X5482838Y-7409224D02*
X5463791Y-7409224D01*
X5463791Y-7409224D02*
X5444743Y-7399700D01*
X5444743Y-7399700D02*
X5435219Y-7390176D01*
X5435219Y-7390176D02*
X5425695Y-7371128D01*
X5425695Y-7371128D02*
X5416172Y-7333033D01*
X5416172Y-7333033D02*
X5416172Y-7285414D01*
X5416172Y-7285414D02*
X5425695Y-7247319D01*
X5425695Y-7247319D02*
X5435219Y-7228271D01*
X5435219Y-7228271D02*
X5444743Y-7218748D01*
X5444743Y-7218748D02*
X5463791Y-7209224D01*
X5606648Y-7228271D02*
X5616172Y-7218748D01*
X5616172Y-7218748D02*
X5635219Y-7209224D01*
X5635219Y-7209224D02*
X5682838Y-7209224D01*
X5682838Y-7209224D02*
X5701886Y-7218748D01*
X5701886Y-7218748D02*
X5711410Y-7228271D01*
X5711410Y-7228271D02*
X5720933Y-7247319D01*
X5720933Y-7247319D02*
X5720933Y-7266367D01*
X5720933Y-7266367D02*
X5711410Y-7294938D01*
X5711410Y-7294938D02*
X5597124Y-7409224D01*
X5597124Y-7409224D02*
X5720933Y-7409224D01*
X5844743Y-7209224D02*
X5863791Y-7209224D01*
X5863791Y-7209224D02*
X5882838Y-7218748D01*
X5882838Y-7218748D02*
X5892362Y-7228271D01*
X5892362Y-7228271D02*
X5901886Y-7247319D01*
X5901886Y-7247319D02*
X5911410Y-7285414D01*
X5911410Y-7285414D02*
X5911410Y-7333033D01*
X5911410Y-7333033D02*
X5901886Y-7371128D01*
X5901886Y-7371128D02*
X5892362Y-7390176D01*
X5892362Y-7390176D02*
X5882838Y-7399700D01*
X5882838Y-7399700D02*
X5863791Y-7409224D01*
X5863791Y-7409224D02*
X5844743Y-7409224D01*
X5844743Y-7409224D02*
X5825695Y-7399700D01*
X5825695Y-7399700D02*
X5816172Y-7390176D01*
X5816172Y-7390176D02*
X5806648Y-7371128D01*
X5806648Y-7371128D02*
X5797124Y-7333033D01*
X5797124Y-7333033D02*
X5797124Y-7285414D01*
X5797124Y-7285414D02*
X5806648Y-7247319D01*
X5806648Y-7247319D02*
X5816172Y-7228271D01*
X5816172Y-7228271D02*
X5825695Y-7218748D01*
X5825695Y-7218748D02*
X5844743Y-7209224D01*
X6035219Y-7209224D02*
X6054267Y-7209224D01*
X6054267Y-7209224D02*
X6073314Y-7218748D01*
X6073314Y-7218748D02*
X6082838Y-7228271D01*
X6082838Y-7228271D02*
X6092362Y-7247319D01*
X6092362Y-7247319D02*
X6101886Y-7285414D01*
X6101886Y-7285414D02*
X6101886Y-7333033D01*
X6101886Y-7333033D02*
X6092362Y-7371128D01*
X6092362Y-7371128D02*
X6082838Y-7390176D01*
X6082838Y-7390176D02*
X6073314Y-7399700D01*
X6073314Y-7399700D02*
X6054267Y-7409224D01*
X6054267Y-7409224D02*
X6035219Y-7409224D01*
X6035219Y-7409224D02*
X6016172Y-7399700D01*
X6016172Y-7399700D02*
X6006648Y-7390176D01*
X6006648Y-7390176D02*
X5997124Y-7371128D01*
X5997124Y-7371128D02*
X5987600Y-7333033D01*
X5987600Y-7333033D02*
X5987600Y-7285414D01*
X5987600Y-7285414D02*
X5997124Y-7247319D01*
X5997124Y-7247319D02*
X6006648Y-7228271D01*
X6006648Y-7228271D02*
X6016172Y-7218748D01*
X6016172Y-7218748D02*
X6035219Y-7209224D01*
X6178076Y-7209224D02*
X6178076Y-7247319D01*
X6254267Y-7209224D02*
X6254267Y-7247319D01*
X6549505Y-7485414D02*
X6539981Y-7475890D01*
X6539981Y-7475890D02*
X6520934Y-7447319D01*
X6520934Y-7447319D02*
X6511410Y-7428271D01*
X6511410Y-7428271D02*
X6501886Y-7399700D01*
X6501886Y-7399700D02*
X6492362Y-7352081D01*
X6492362Y-7352081D02*
X6492362Y-7313986D01*
X6492362Y-7313986D02*
X6501886Y-7266367D01*
X6501886Y-7266367D02*
X6511410Y-7237795D01*
X6511410Y-7237795D02*
X6520934Y-7218748D01*
X6520934Y-7218748D02*
X6539981Y-7190176D01*
X6539981Y-7190176D02*
X6549505Y-7180652D01*
X6606648Y-7209224D02*
X6730457Y-7209224D01*
X6730457Y-7209224D02*
X6663791Y-7285414D01*
X6663791Y-7285414D02*
X6692362Y-7285414D01*
X6692362Y-7285414D02*
X6711410Y-7294938D01*
X6711410Y-7294938D02*
X6720934Y-7304462D01*
X6720934Y-7304462D02*
X6730457Y-7323509D01*
X6730457Y-7323509D02*
X6730457Y-7371128D01*
X6730457Y-7371128D02*
X6720934Y-7390176D01*
X6720934Y-7390176D02*
X6711410Y-7399700D01*
X6711410Y-7399700D02*
X6692362Y-7409224D01*
X6692362Y-7409224D02*
X6635219Y-7409224D01*
X6635219Y-7409224D02*
X6616172Y-7399700D01*
X6616172Y-7399700D02*
X6606648Y-7390176D01*
X6968553Y-7409224D02*
X6968553Y-7209224D01*
X7054267Y-7409224D02*
X7054267Y-7304462D01*
X7054267Y-7304462D02*
X7044743Y-7285414D01*
X7044743Y-7285414D02*
X7025696Y-7275890D01*
X7025696Y-7275890D02*
X6997124Y-7275890D01*
X6997124Y-7275890D02*
X6978076Y-7285414D01*
X6978076Y-7285414D02*
X6968553Y-7294938D01*
X7178076Y-7409224D02*
X7159029Y-7399700D01*
X7159029Y-7399700D02*
X7149505Y-7390176D01*
X7149505Y-7390176D02*
X7139981Y-7371128D01*
X7139981Y-7371128D02*
X7139981Y-7313986D01*
X7139981Y-7313986D02*
X7149505Y-7294938D01*
X7149505Y-7294938D02*
X7159029Y-7285414D01*
X7159029Y-7285414D02*
X7178076Y-7275890D01*
X7178076Y-7275890D02*
X7206648Y-7275890D01*
X7206648Y-7275890D02*
X7225696Y-7285414D01*
X7225696Y-7285414D02*
X7235219Y-7294938D01*
X7235219Y-7294938D02*
X7244743Y-7313986D01*
X7244743Y-7313986D02*
X7244743Y-7371128D01*
X7244743Y-7371128D02*
X7235219Y-7390176D01*
X7235219Y-7390176D02*
X7225696Y-7399700D01*
X7225696Y-7399700D02*
X7206648Y-7409224D01*
X7206648Y-7409224D02*
X7178076Y-7409224D01*
X7359029Y-7409224D02*
X7339981Y-7399700D01*
X7339981Y-7399700D02*
X7330457Y-7380652D01*
X7330457Y-7380652D02*
X7330457Y-7209224D01*
X7511410Y-7399700D02*
X7492362Y-7409224D01*
X7492362Y-7409224D02*
X7454267Y-7409224D01*
X7454267Y-7409224D02*
X7435219Y-7399700D01*
X7435219Y-7399700D02*
X7425696Y-7380652D01*
X7425696Y-7380652D02*
X7425696Y-7304462D01*
X7425696Y-7304462D02*
X7435219Y-7285414D01*
X7435219Y-7285414D02*
X7454267Y-7275890D01*
X7454267Y-7275890D02*
X7492362Y-7275890D01*
X7492362Y-7275890D02*
X7511410Y-7285414D01*
X7511410Y-7285414D02*
X7520934Y-7304462D01*
X7520934Y-7304462D02*
X7520934Y-7323509D01*
X7520934Y-7323509D02*
X7425696Y-7342557D01*
X7597124Y-7399700D02*
X7616172Y-7409224D01*
X7616172Y-7409224D02*
X7654267Y-7409224D01*
X7654267Y-7409224D02*
X7673315Y-7399700D01*
X7673315Y-7399700D02*
X7682838Y-7380652D01*
X7682838Y-7380652D02*
X7682838Y-7371128D01*
X7682838Y-7371128D02*
X7673315Y-7352081D01*
X7673315Y-7352081D02*
X7654267Y-7342557D01*
X7654267Y-7342557D02*
X7625696Y-7342557D01*
X7625696Y-7342557D02*
X7606648Y-7333033D01*
X7606648Y-7333033D02*
X7597124Y-7313986D01*
X7597124Y-7313986D02*
X7597124Y-7304462D01*
X7597124Y-7304462D02*
X7606648Y-7285414D01*
X7606648Y-7285414D02*
X7625696Y-7275890D01*
X7625696Y-7275890D02*
X7654267Y-7275890D01*
X7654267Y-7275890D02*
X7673315Y-7285414D01*
X7749505Y-7485414D02*
X7759029Y-7475890D01*
X7759029Y-7475890D02*
X7778077Y-7447319D01*
X7778077Y-7447319D02*
X7787600Y-7428271D01*
X7787600Y-7428271D02*
X7797124Y-7399700D01*
X7797124Y-7399700D02*
X7806648Y-7352081D01*
X7806648Y-7352081D02*
X7806648Y-7313986D01*
X7806648Y-7313986D02*
X7797124Y-7266367D01*
X7797124Y-7266367D02*
X7787600Y-7237795D01*
X7787600Y-7237795D02*
X7778077Y-7218748D01*
X7778077Y-7218748D02*
X7759029Y-7190176D01*
X7759029Y-7190176D02*
X7749505Y-7180652D01*
D14*
X2957600Y-7550700D02*
X2957600Y-7610700D01*
X2927600Y-7580700D02*
X2987600Y-7580700D01*
D11*
X3273314Y-7473224D02*
X3292362Y-7473224D01*
X3292362Y-7473224D02*
X3311409Y-7482748D01*
X3311409Y-7482748D02*
X3320933Y-7492271D01*
X3320933Y-7492271D02*
X3330457Y-7511319D01*
X3330457Y-7511319D02*
X3339981Y-7549414D01*
X3339981Y-7549414D02*
X3339981Y-7597033D01*
X3339981Y-7597033D02*
X3330457Y-7635128D01*
X3330457Y-7635128D02*
X3320933Y-7654176D01*
X3320933Y-7654176D02*
X3311409Y-7663700D01*
X3311409Y-7663700D02*
X3292362Y-7673224D01*
X3292362Y-7673224D02*
X3273314Y-7673224D01*
X3273314Y-7673224D02*
X3254267Y-7663700D01*
X3254267Y-7663700D02*
X3244743Y-7654176D01*
X3244743Y-7654176D02*
X3235219Y-7635128D01*
X3235219Y-7635128D02*
X3225695Y-7597033D01*
X3225695Y-7597033D02*
X3225695Y-7549414D01*
X3225695Y-7549414D02*
X3235219Y-7511319D01*
X3235219Y-7511319D02*
X3244743Y-7492271D01*
X3244743Y-7492271D02*
X3254267Y-7482748D01*
X3254267Y-7482748D02*
X3273314Y-7473224D01*
X3425695Y-7654176D02*
X3435219Y-7663700D01*
X3435219Y-7663700D02*
X3425695Y-7673224D01*
X3425695Y-7673224D02*
X3416171Y-7663700D01*
X3416171Y-7663700D02*
X3425695Y-7654176D01*
X3425695Y-7654176D02*
X3425695Y-7673224D01*
X3606648Y-7473224D02*
X3568552Y-7473224D01*
X3568552Y-7473224D02*
X3549505Y-7482748D01*
X3549505Y-7482748D02*
X3539981Y-7492271D01*
X3539981Y-7492271D02*
X3520933Y-7520843D01*
X3520933Y-7520843D02*
X3511409Y-7558938D01*
X3511409Y-7558938D02*
X3511409Y-7635128D01*
X3511409Y-7635128D02*
X3520933Y-7654176D01*
X3520933Y-7654176D02*
X3530457Y-7663700D01*
X3530457Y-7663700D02*
X3549505Y-7673224D01*
X3549505Y-7673224D02*
X3587600Y-7673224D01*
X3587600Y-7673224D02*
X3606648Y-7663700D01*
X3606648Y-7663700D02*
X3616171Y-7654176D01*
X3616171Y-7654176D02*
X3625695Y-7635128D01*
X3625695Y-7635128D02*
X3625695Y-7587509D01*
X3625695Y-7587509D02*
X3616171Y-7568462D01*
X3616171Y-7568462D02*
X3606648Y-7558938D01*
X3606648Y-7558938D02*
X3587600Y-7549414D01*
X3587600Y-7549414D02*
X3549505Y-7549414D01*
X3549505Y-7549414D02*
X3530457Y-7558938D01*
X3530457Y-7558938D02*
X3520933Y-7568462D01*
X3520933Y-7568462D02*
X3511409Y-7587509D01*
X3749505Y-7473224D02*
X3768552Y-7473224D01*
X3768552Y-7473224D02*
X3787600Y-7482748D01*
X3787600Y-7482748D02*
X3797124Y-7492271D01*
X3797124Y-7492271D02*
X3806648Y-7511319D01*
X3806648Y-7511319D02*
X3816171Y-7549414D01*
X3816171Y-7549414D02*
X3816171Y-7597033D01*
X3816171Y-7597033D02*
X3806648Y-7635128D01*
X3806648Y-7635128D02*
X3797124Y-7654176D01*
X3797124Y-7654176D02*
X3787600Y-7663700D01*
X3787600Y-7663700D02*
X3768552Y-7673224D01*
X3768552Y-7673224D02*
X3749505Y-7673224D01*
X3749505Y-7673224D02*
X3730457Y-7663700D01*
X3730457Y-7663700D02*
X3720933Y-7654176D01*
X3720933Y-7654176D02*
X3711409Y-7635128D01*
X3711409Y-7635128D02*
X3701886Y-7597033D01*
X3701886Y-7597033D02*
X3701886Y-7549414D01*
X3701886Y-7549414D02*
X3711409Y-7511319D01*
X3711409Y-7511319D02*
X3720933Y-7492271D01*
X3720933Y-7492271D02*
X3730457Y-7482748D01*
X3730457Y-7482748D02*
X3749505Y-7473224D01*
X3939981Y-7473224D02*
X3959029Y-7473224D01*
X3959029Y-7473224D02*
X3978076Y-7482748D01*
X3978076Y-7482748D02*
X3987600Y-7492271D01*
X3987600Y-7492271D02*
X3997124Y-7511319D01*
X3997124Y-7511319D02*
X4006648Y-7549414D01*
X4006648Y-7549414D02*
X4006648Y-7597033D01*
X4006648Y-7597033D02*
X3997124Y-7635128D01*
X3997124Y-7635128D02*
X3987600Y-7654176D01*
X3987600Y-7654176D02*
X3978076Y-7663700D01*
X3978076Y-7663700D02*
X3959029Y-7673224D01*
X3959029Y-7673224D02*
X3939981Y-7673224D01*
X3939981Y-7673224D02*
X3920933Y-7663700D01*
X3920933Y-7663700D02*
X3911409Y-7654176D01*
X3911409Y-7654176D02*
X3901886Y-7635128D01*
X3901886Y-7635128D02*
X3892362Y-7597033D01*
X3892362Y-7597033D02*
X3892362Y-7549414D01*
X3892362Y-7549414D02*
X3901886Y-7511319D01*
X3901886Y-7511319D02*
X3911409Y-7492271D01*
X3911409Y-7492271D02*
X3920933Y-7482748D01*
X3920933Y-7482748D02*
X3939981Y-7473224D01*
X4092362Y-7673224D02*
X4092362Y-7539890D01*
X4092362Y-7558938D02*
X4101886Y-7549414D01*
X4101886Y-7549414D02*
X4120933Y-7539890D01*
X4120933Y-7539890D02*
X4149505Y-7539890D01*
X4149505Y-7539890D02*
X4168552Y-7549414D01*
X4168552Y-7549414D02*
X4178076Y-7568462D01*
X4178076Y-7568462D02*
X4178076Y-7673224D01*
X4178076Y-7568462D02*
X4187600Y-7549414D01*
X4187600Y-7549414D02*
X4206648Y-7539890D01*
X4206648Y-7539890D02*
X4235219Y-7539890D01*
X4235219Y-7539890D02*
X4254267Y-7549414D01*
X4254267Y-7549414D02*
X4263791Y-7568462D01*
X4263791Y-7568462D02*
X4263791Y-7673224D01*
X4359029Y-7673224D02*
X4359029Y-7539890D01*
X4359029Y-7558938D02*
X4368552Y-7549414D01*
X4368552Y-7549414D02*
X4387600Y-7539890D01*
X4387600Y-7539890D02*
X4416172Y-7539890D01*
X4416172Y-7539890D02*
X4435219Y-7549414D01*
X4435219Y-7549414D02*
X4444743Y-7568462D01*
X4444743Y-7568462D02*
X4444743Y-7673224D01*
X4444743Y-7568462D02*
X4454267Y-7549414D01*
X4454267Y-7549414D02*
X4473314Y-7539890D01*
X4473314Y-7539890D02*
X4501886Y-7539890D01*
X4501886Y-7539890D02*
X4520933Y-7549414D01*
X4520933Y-7549414D02*
X4530457Y-7568462D01*
X4530457Y-7568462D02*
X4530457Y-7673224D01*
X4920933Y-7463700D02*
X4749505Y-7720843D01*
X5178076Y-7473224D02*
X5197124Y-7473224D01*
X5197124Y-7473224D02*
X5216172Y-7482748D01*
X5216172Y-7482748D02*
X5225695Y-7492271D01*
X5225695Y-7492271D02*
X5235219Y-7511319D01*
X5235219Y-7511319D02*
X5244743Y-7549414D01*
X5244743Y-7549414D02*
X5244743Y-7597033D01*
X5244743Y-7597033D02*
X5235219Y-7635128D01*
X5235219Y-7635128D02*
X5225695Y-7654176D01*
X5225695Y-7654176D02*
X5216172Y-7663700D01*
X5216172Y-7663700D02*
X5197124Y-7673224D01*
X5197124Y-7673224D02*
X5178076Y-7673224D01*
X5178076Y-7673224D02*
X5159029Y-7663700D01*
X5159029Y-7663700D02*
X5149505Y-7654176D01*
X5149505Y-7654176D02*
X5139981Y-7635128D01*
X5139981Y-7635128D02*
X5130457Y-7597033D01*
X5130457Y-7597033D02*
X5130457Y-7549414D01*
X5130457Y-7549414D02*
X5139981Y-7511319D01*
X5139981Y-7511319D02*
X5149505Y-7492271D01*
X5149505Y-7492271D02*
X5159029Y-7482748D01*
X5159029Y-7482748D02*
X5178076Y-7473224D01*
X5330457Y-7654176D02*
X5339981Y-7663700D01*
X5339981Y-7663700D02*
X5330457Y-7673224D01*
X5330457Y-7673224D02*
X5320934Y-7663700D01*
X5320934Y-7663700D02*
X5330457Y-7654176D01*
X5330457Y-7654176D02*
X5330457Y-7673224D01*
X5463791Y-7473224D02*
X5482838Y-7473224D01*
X5482838Y-7473224D02*
X5501886Y-7482748D01*
X5501886Y-7482748D02*
X5511410Y-7492271D01*
X5511410Y-7492271D02*
X5520934Y-7511319D01*
X5520934Y-7511319D02*
X5530457Y-7549414D01*
X5530457Y-7549414D02*
X5530457Y-7597033D01*
X5530457Y-7597033D02*
X5520934Y-7635128D01*
X5520934Y-7635128D02*
X5511410Y-7654176D01*
X5511410Y-7654176D02*
X5501886Y-7663700D01*
X5501886Y-7663700D02*
X5482838Y-7673224D01*
X5482838Y-7673224D02*
X5463791Y-7673224D01*
X5463791Y-7673224D02*
X5444743Y-7663700D01*
X5444743Y-7663700D02*
X5435219Y-7654176D01*
X5435219Y-7654176D02*
X5425695Y-7635128D01*
X5425695Y-7635128D02*
X5416172Y-7597033D01*
X5416172Y-7597033D02*
X5416172Y-7549414D01*
X5416172Y-7549414D02*
X5425695Y-7511319D01*
X5425695Y-7511319D02*
X5435219Y-7492271D01*
X5435219Y-7492271D02*
X5444743Y-7482748D01*
X5444743Y-7482748D02*
X5463791Y-7473224D01*
X5606648Y-7492271D02*
X5616172Y-7482748D01*
X5616172Y-7482748D02*
X5635219Y-7473224D01*
X5635219Y-7473224D02*
X5682838Y-7473224D01*
X5682838Y-7473224D02*
X5701886Y-7482748D01*
X5701886Y-7482748D02*
X5711410Y-7492271D01*
X5711410Y-7492271D02*
X5720933Y-7511319D01*
X5720933Y-7511319D02*
X5720933Y-7530367D01*
X5720933Y-7530367D02*
X5711410Y-7558938D01*
X5711410Y-7558938D02*
X5597124Y-7673224D01*
X5597124Y-7673224D02*
X5720933Y-7673224D01*
X5787600Y-7473224D02*
X5911410Y-7473224D01*
X5911410Y-7473224D02*
X5844743Y-7549414D01*
X5844743Y-7549414D02*
X5873314Y-7549414D01*
X5873314Y-7549414D02*
X5892362Y-7558938D01*
X5892362Y-7558938D02*
X5901886Y-7568462D01*
X5901886Y-7568462D02*
X5911410Y-7587509D01*
X5911410Y-7587509D02*
X5911410Y-7635128D01*
X5911410Y-7635128D02*
X5901886Y-7654176D01*
X5901886Y-7654176D02*
X5892362Y-7663700D01*
X5892362Y-7663700D02*
X5873314Y-7673224D01*
X5873314Y-7673224D02*
X5816172Y-7673224D01*
X5816172Y-7673224D02*
X5797124Y-7663700D01*
X5797124Y-7663700D02*
X5787600Y-7654176D01*
X6082838Y-7473224D02*
X6044743Y-7473224D01*
X6044743Y-7473224D02*
X6025695Y-7482748D01*
X6025695Y-7482748D02*
X6016172Y-7492271D01*
X6016172Y-7492271D02*
X5997124Y-7520843D01*
X5997124Y-7520843D02*
X5987600Y-7558938D01*
X5987600Y-7558938D02*
X5987600Y-7635128D01*
X5987600Y-7635128D02*
X5997124Y-7654176D01*
X5997124Y-7654176D02*
X6006648Y-7663700D01*
X6006648Y-7663700D02*
X6025695Y-7673224D01*
X6025695Y-7673224D02*
X6063791Y-7673224D01*
X6063791Y-7673224D02*
X6082838Y-7663700D01*
X6082838Y-7663700D02*
X6092362Y-7654176D01*
X6092362Y-7654176D02*
X6101886Y-7635128D01*
X6101886Y-7635128D02*
X6101886Y-7587509D01*
X6101886Y-7587509D02*
X6092362Y-7568462D01*
X6092362Y-7568462D02*
X6082838Y-7558938D01*
X6082838Y-7558938D02*
X6063791Y-7549414D01*
X6063791Y-7549414D02*
X6025695Y-7549414D01*
X6025695Y-7549414D02*
X6006648Y-7558938D01*
X6006648Y-7558938D02*
X5997124Y-7568462D01*
X5997124Y-7568462D02*
X5987600Y-7587509D01*
X6178076Y-7473224D02*
X6178076Y-7511319D01*
X6254267Y-7473224D02*
X6254267Y-7511319D01*
X6549505Y-7749414D02*
X6539981Y-7739890D01*
X6539981Y-7739890D02*
X6520934Y-7711319D01*
X6520934Y-7711319D02*
X6511410Y-7692271D01*
X6511410Y-7692271D02*
X6501886Y-7663700D01*
X6501886Y-7663700D02*
X6492362Y-7616081D01*
X6492362Y-7616081D02*
X6492362Y-7577986D01*
X6492362Y-7577986D02*
X6501886Y-7530367D01*
X6501886Y-7530367D02*
X6511410Y-7501795D01*
X6511410Y-7501795D02*
X6520934Y-7482748D01*
X6520934Y-7482748D02*
X6539981Y-7454176D01*
X6539981Y-7454176D02*
X6549505Y-7444652D01*
X6663791Y-7473224D02*
X6682838Y-7473224D01*
X6682838Y-7473224D02*
X6701886Y-7482748D01*
X6701886Y-7482748D02*
X6711410Y-7492271D01*
X6711410Y-7492271D02*
X6720934Y-7511319D01*
X6720934Y-7511319D02*
X6730457Y-7549414D01*
X6730457Y-7549414D02*
X6730457Y-7597033D01*
X6730457Y-7597033D02*
X6720934Y-7635128D01*
X6720934Y-7635128D02*
X6711410Y-7654176D01*
X6711410Y-7654176D02*
X6701886Y-7663700D01*
X6701886Y-7663700D02*
X6682838Y-7673224D01*
X6682838Y-7673224D02*
X6663791Y-7673224D01*
X6663791Y-7673224D02*
X6644743Y-7663700D01*
X6644743Y-7663700D02*
X6635219Y-7654176D01*
X6635219Y-7654176D02*
X6625695Y-7635128D01*
X6625695Y-7635128D02*
X6616172Y-7597033D01*
X6616172Y-7597033D02*
X6616172Y-7549414D01*
X6616172Y-7549414D02*
X6625695Y-7511319D01*
X6625695Y-7511319D02*
X6635219Y-7492271D01*
X6635219Y-7492271D02*
X6644743Y-7482748D01*
X6644743Y-7482748D02*
X6663791Y-7473224D01*
X6968553Y-7673224D02*
X6968553Y-7473224D01*
X7054267Y-7673224D02*
X7054267Y-7568462D01*
X7054267Y-7568462D02*
X7044743Y-7549414D01*
X7044743Y-7549414D02*
X7025696Y-7539890D01*
X7025696Y-7539890D02*
X6997124Y-7539890D01*
X6997124Y-7539890D02*
X6978076Y-7549414D01*
X6978076Y-7549414D02*
X6968553Y-7558938D01*
X7178076Y-7673224D02*
X7159029Y-7663700D01*
X7159029Y-7663700D02*
X7149505Y-7654176D01*
X7149505Y-7654176D02*
X7139981Y-7635128D01*
X7139981Y-7635128D02*
X7139981Y-7577986D01*
X7139981Y-7577986D02*
X7149505Y-7558938D01*
X7149505Y-7558938D02*
X7159029Y-7549414D01*
X7159029Y-7549414D02*
X7178076Y-7539890D01*
X7178076Y-7539890D02*
X7206648Y-7539890D01*
X7206648Y-7539890D02*
X7225696Y-7549414D01*
X7225696Y-7549414D02*
X7235219Y-7558938D01*
X7235219Y-7558938D02*
X7244743Y-7577986D01*
X7244743Y-7577986D02*
X7244743Y-7635128D01*
X7244743Y-7635128D02*
X7235219Y-7654176D01*
X7235219Y-7654176D02*
X7225696Y-7663700D01*
X7225696Y-7663700D02*
X7206648Y-7673224D01*
X7206648Y-7673224D02*
X7178076Y-7673224D01*
X7359029Y-7673224D02*
X7339981Y-7663700D01*
X7339981Y-7663700D02*
X7330457Y-7644652D01*
X7330457Y-7644652D02*
X7330457Y-7473224D01*
X7511410Y-7663700D02*
X7492362Y-7673224D01*
X7492362Y-7673224D02*
X7454267Y-7673224D01*
X7454267Y-7673224D02*
X7435219Y-7663700D01*
X7435219Y-7663700D02*
X7425696Y-7644652D01*
X7425696Y-7644652D02*
X7425696Y-7568462D01*
X7425696Y-7568462D02*
X7435219Y-7549414D01*
X7435219Y-7549414D02*
X7454267Y-7539890D01*
X7454267Y-7539890D02*
X7492362Y-7539890D01*
X7492362Y-7539890D02*
X7511410Y-7549414D01*
X7511410Y-7549414D02*
X7520934Y-7568462D01*
X7520934Y-7568462D02*
X7520934Y-7587509D01*
X7520934Y-7587509D02*
X7425696Y-7606557D01*
X7597124Y-7663700D02*
X7616172Y-7673224D01*
X7616172Y-7673224D02*
X7654267Y-7673224D01*
X7654267Y-7673224D02*
X7673315Y-7663700D01*
X7673315Y-7663700D02*
X7682838Y-7644652D01*
X7682838Y-7644652D02*
X7682838Y-7635128D01*
X7682838Y-7635128D02*
X7673315Y-7616081D01*
X7673315Y-7616081D02*
X7654267Y-7606557D01*
X7654267Y-7606557D02*
X7625696Y-7606557D01*
X7625696Y-7606557D02*
X7606648Y-7597033D01*
X7606648Y-7597033D02*
X7597124Y-7577986D01*
X7597124Y-7577986D02*
X7597124Y-7568462D01*
X7597124Y-7568462D02*
X7606648Y-7549414D01*
X7606648Y-7549414D02*
X7625696Y-7539890D01*
X7625696Y-7539890D02*
X7654267Y-7539890D01*
X7654267Y-7539890D02*
X7673315Y-7549414D01*
X7920934Y-7597033D02*
X8073315Y-7597033D01*
X7997124Y-7673224D02*
X7997124Y-7520843D01*
X8406648Y-7539890D02*
X8406648Y-7673224D01*
X8359029Y-7463700D02*
X8311410Y-7606557D01*
X8311410Y-7606557D02*
X8435220Y-7606557D01*
X8654267Y-7663700D02*
X8673315Y-7673224D01*
X8673315Y-7673224D02*
X8711410Y-7673224D01*
X8711410Y-7673224D02*
X8730458Y-7663700D01*
X8730458Y-7663700D02*
X8739982Y-7644652D01*
X8739982Y-7644652D02*
X8739982Y-7635128D01*
X8739982Y-7635128D02*
X8730458Y-7616081D01*
X8730458Y-7616081D02*
X8711410Y-7606557D01*
X8711410Y-7606557D02*
X8682839Y-7606557D01*
X8682839Y-7606557D02*
X8663791Y-7597033D01*
X8663791Y-7597033D02*
X8654267Y-7577986D01*
X8654267Y-7577986D02*
X8654267Y-7568462D01*
X8654267Y-7568462D02*
X8663791Y-7549414D01*
X8663791Y-7549414D02*
X8682839Y-7539890D01*
X8682839Y-7539890D02*
X8711410Y-7539890D01*
X8711410Y-7539890D02*
X8730458Y-7549414D01*
X8854267Y-7673224D02*
X8835220Y-7663700D01*
X8835220Y-7663700D02*
X8825696Y-7644652D01*
X8825696Y-7644652D02*
X8825696Y-7473224D01*
X8959029Y-7673224D02*
X8939982Y-7663700D01*
X8939982Y-7663700D02*
X8930458Y-7654176D01*
X8930458Y-7654176D02*
X8920934Y-7635128D01*
X8920934Y-7635128D02*
X8920934Y-7577986D01*
X8920934Y-7577986D02*
X8930458Y-7558938D01*
X8930458Y-7558938D02*
X8939982Y-7549414D01*
X8939982Y-7549414D02*
X8959029Y-7539890D01*
X8959029Y-7539890D02*
X8987601Y-7539890D01*
X8987601Y-7539890D02*
X9006648Y-7549414D01*
X9006648Y-7549414D02*
X9016172Y-7558938D01*
X9016172Y-7558938D02*
X9025696Y-7577986D01*
X9025696Y-7577986D02*
X9025696Y-7635128D01*
X9025696Y-7635128D02*
X9016172Y-7654176D01*
X9016172Y-7654176D02*
X9006648Y-7663700D01*
X9006648Y-7663700D02*
X8987601Y-7673224D01*
X8987601Y-7673224D02*
X8959029Y-7673224D01*
X9082839Y-7539890D02*
X9159029Y-7539890D01*
X9111410Y-7473224D02*
X9111410Y-7644652D01*
X9111410Y-7644652D02*
X9120934Y-7663700D01*
X9120934Y-7663700D02*
X9139982Y-7673224D01*
X9139982Y-7673224D02*
X9159029Y-7673224D01*
X9216172Y-7663700D02*
X9235220Y-7673224D01*
X9235220Y-7673224D02*
X9273315Y-7673224D01*
X9273315Y-7673224D02*
X9292363Y-7663700D01*
X9292363Y-7663700D02*
X9301886Y-7644652D01*
X9301886Y-7644652D02*
X9301886Y-7635128D01*
X9301886Y-7635128D02*
X9292363Y-7616081D01*
X9292363Y-7616081D02*
X9273315Y-7606557D01*
X9273315Y-7606557D02*
X9244743Y-7606557D01*
X9244743Y-7606557D02*
X9225696Y-7597033D01*
X9225696Y-7597033D02*
X9216172Y-7577986D01*
X9216172Y-7577986D02*
X9216172Y-7568462D01*
X9216172Y-7568462D02*
X9225696Y-7549414D01*
X9225696Y-7549414D02*
X9244743Y-7539890D01*
X9244743Y-7539890D02*
X9273315Y-7539890D01*
X9273315Y-7539890D02*
X9292363Y-7549414D01*
X9368553Y-7749414D02*
X9378077Y-7739890D01*
X9378077Y-7739890D02*
X9397124Y-7711319D01*
X9397124Y-7711319D02*
X9406648Y-7692271D01*
X9406648Y-7692271D02*
X9416172Y-7663700D01*
X9416172Y-7663700D02*
X9425696Y-7616081D01*
X9425696Y-7616081D02*
X9425696Y-7577986D01*
X9425696Y-7577986D02*
X9416172Y-7530367D01*
X9416172Y-7530367D02*
X9406648Y-7501795D01*
X9406648Y-7501795D02*
X9397124Y-7482748D01*
X9397124Y-7482748D02*
X9378077Y-7454176D01*
X9378077Y-7454176D02*
X9368553Y-7444652D01*
D15*
X2972956Y-7880056D02*
X2972956Y-7809344D01*
X2902244Y-7809344D01*
X2902244Y-7880056D01*
X2972956Y-7880056D01*
D11*
X3339981Y-7937224D02*
X3225695Y-7937224D01*
X3282838Y-7937224D02*
X3282838Y-7737224D01*
X3282838Y-7737224D02*
X3263790Y-7765795D01*
X3263790Y-7765795D02*
X3244743Y-7784843D01*
X3244743Y-7784843D02*
X3225695Y-7794367D01*
X3425695Y-7918176D02*
X3435219Y-7927700D01*
X3435219Y-7927700D02*
X3425695Y-7937224D01*
X3425695Y-7937224D02*
X3416171Y-7927700D01*
X3416171Y-7927700D02*
X3425695Y-7918176D01*
X3425695Y-7918176D02*
X3425695Y-7937224D01*
X3559028Y-7737224D02*
X3578076Y-7737224D01*
X3578076Y-7737224D02*
X3597124Y-7746748D01*
X3597124Y-7746748D02*
X3606648Y-7756271D01*
X3606648Y-7756271D02*
X3616171Y-7775319D01*
X3616171Y-7775319D02*
X3625695Y-7813414D01*
X3625695Y-7813414D02*
X3625695Y-7861033D01*
X3625695Y-7861033D02*
X3616171Y-7899128D01*
X3616171Y-7899128D02*
X3606648Y-7918176D01*
X3606648Y-7918176D02*
X3597124Y-7927700D01*
X3597124Y-7927700D02*
X3578076Y-7937224D01*
X3578076Y-7937224D02*
X3559028Y-7937224D01*
X3559028Y-7937224D02*
X3539981Y-7927700D01*
X3539981Y-7927700D02*
X3530457Y-7918176D01*
X3530457Y-7918176D02*
X3520933Y-7899128D01*
X3520933Y-7899128D02*
X3511409Y-7861033D01*
X3511409Y-7861033D02*
X3511409Y-7813414D01*
X3511409Y-7813414D02*
X3520933Y-7775319D01*
X3520933Y-7775319D02*
X3530457Y-7756271D01*
X3530457Y-7756271D02*
X3539981Y-7746748D01*
X3539981Y-7746748D02*
X3559028Y-7737224D01*
X3749505Y-7737224D02*
X3768552Y-7737224D01*
X3768552Y-7737224D02*
X3787600Y-7746748D01*
X3787600Y-7746748D02*
X3797124Y-7756271D01*
X3797124Y-7756271D02*
X3806648Y-7775319D01*
X3806648Y-7775319D02*
X3816171Y-7813414D01*
X3816171Y-7813414D02*
X3816171Y-7861033D01*
X3816171Y-7861033D02*
X3806648Y-7899128D01*
X3806648Y-7899128D02*
X3797124Y-7918176D01*
X3797124Y-7918176D02*
X3787600Y-7927700D01*
X3787600Y-7927700D02*
X3768552Y-7937224D01*
X3768552Y-7937224D02*
X3749505Y-7937224D01*
X3749505Y-7937224D02*
X3730457Y-7927700D01*
X3730457Y-7927700D02*
X3720933Y-7918176D01*
X3720933Y-7918176D02*
X3711409Y-7899128D01*
X3711409Y-7899128D02*
X3701886Y-7861033D01*
X3701886Y-7861033D02*
X3701886Y-7813414D01*
X3701886Y-7813414D02*
X3711409Y-7775319D01*
X3711409Y-7775319D02*
X3720933Y-7756271D01*
X3720933Y-7756271D02*
X3730457Y-7746748D01*
X3730457Y-7746748D02*
X3749505Y-7737224D01*
X3939981Y-7737224D02*
X3959029Y-7737224D01*
X3959029Y-7737224D02*
X3978076Y-7746748D01*
X3978076Y-7746748D02*
X3987600Y-7756271D01*
X3987600Y-7756271D02*
X3997124Y-7775319D01*
X3997124Y-7775319D02*
X4006648Y-7813414D01*
X4006648Y-7813414D02*
X4006648Y-7861033D01*
X4006648Y-7861033D02*
X3997124Y-7899128D01*
X3997124Y-7899128D02*
X3987600Y-7918176D01*
X3987600Y-7918176D02*
X3978076Y-7927700D01*
X3978076Y-7927700D02*
X3959029Y-7937224D01*
X3959029Y-7937224D02*
X3939981Y-7937224D01*
X3939981Y-7937224D02*
X3920933Y-7927700D01*
X3920933Y-7927700D02*
X3911409Y-7918176D01*
X3911409Y-7918176D02*
X3901886Y-7899128D01*
X3901886Y-7899128D02*
X3892362Y-7861033D01*
X3892362Y-7861033D02*
X3892362Y-7813414D01*
X3892362Y-7813414D02*
X3901886Y-7775319D01*
X3901886Y-7775319D02*
X3911409Y-7756271D01*
X3911409Y-7756271D02*
X3920933Y-7746748D01*
X3920933Y-7746748D02*
X3939981Y-7737224D01*
X4092362Y-7937224D02*
X4092362Y-7803890D01*
X4092362Y-7822938D02*
X4101886Y-7813414D01*
X4101886Y-7813414D02*
X4120933Y-7803890D01*
X4120933Y-7803890D02*
X4149505Y-7803890D01*
X4149505Y-7803890D02*
X4168552Y-7813414D01*
X4168552Y-7813414D02*
X4178076Y-7832462D01*
X4178076Y-7832462D02*
X4178076Y-7937224D01*
X4178076Y-7832462D02*
X4187600Y-7813414D01*
X4187600Y-7813414D02*
X4206648Y-7803890D01*
X4206648Y-7803890D02*
X4235219Y-7803890D01*
X4235219Y-7803890D02*
X4254267Y-7813414D01*
X4254267Y-7813414D02*
X4263791Y-7832462D01*
X4263791Y-7832462D02*
X4263791Y-7937224D01*
X4359029Y-7937224D02*
X4359029Y-7803890D01*
X4359029Y-7822938D02*
X4368552Y-7813414D01*
X4368552Y-7813414D02*
X4387600Y-7803890D01*
X4387600Y-7803890D02*
X4416172Y-7803890D01*
X4416172Y-7803890D02*
X4435219Y-7813414D01*
X4435219Y-7813414D02*
X4444743Y-7832462D01*
X4444743Y-7832462D02*
X4444743Y-7937224D01*
X4444743Y-7832462D02*
X4454267Y-7813414D01*
X4454267Y-7813414D02*
X4473314Y-7803890D01*
X4473314Y-7803890D02*
X4501886Y-7803890D01*
X4501886Y-7803890D02*
X4520933Y-7813414D01*
X4520933Y-7813414D02*
X4530457Y-7832462D01*
X4530457Y-7832462D02*
X4530457Y-7937224D01*
X4920933Y-7727700D02*
X4749505Y-7984843D01*
X5178076Y-7737224D02*
X5197124Y-7737224D01*
X5197124Y-7737224D02*
X5216172Y-7746748D01*
X5216172Y-7746748D02*
X5225695Y-7756271D01*
X5225695Y-7756271D02*
X5235219Y-7775319D01*
X5235219Y-7775319D02*
X5244743Y-7813414D01*
X5244743Y-7813414D02*
X5244743Y-7861033D01*
X5244743Y-7861033D02*
X5235219Y-7899128D01*
X5235219Y-7899128D02*
X5225695Y-7918176D01*
X5225695Y-7918176D02*
X5216172Y-7927700D01*
X5216172Y-7927700D02*
X5197124Y-7937224D01*
X5197124Y-7937224D02*
X5178076Y-7937224D01*
X5178076Y-7937224D02*
X5159029Y-7927700D01*
X5159029Y-7927700D02*
X5149505Y-7918176D01*
X5149505Y-7918176D02*
X5139981Y-7899128D01*
X5139981Y-7899128D02*
X5130457Y-7861033D01*
X5130457Y-7861033D02*
X5130457Y-7813414D01*
X5130457Y-7813414D02*
X5139981Y-7775319D01*
X5139981Y-7775319D02*
X5149505Y-7756271D01*
X5149505Y-7756271D02*
X5159029Y-7746748D01*
X5159029Y-7746748D02*
X5178076Y-7737224D01*
X5330457Y-7918176D02*
X5339981Y-7927700D01*
X5339981Y-7927700D02*
X5330457Y-7937224D01*
X5330457Y-7937224D02*
X5320934Y-7927700D01*
X5320934Y-7927700D02*
X5330457Y-7918176D01*
X5330457Y-7918176D02*
X5330457Y-7937224D01*
X5463791Y-7737224D02*
X5482838Y-7737224D01*
X5482838Y-7737224D02*
X5501886Y-7746748D01*
X5501886Y-7746748D02*
X5511410Y-7756271D01*
X5511410Y-7756271D02*
X5520934Y-7775319D01*
X5520934Y-7775319D02*
X5530457Y-7813414D01*
X5530457Y-7813414D02*
X5530457Y-7861033D01*
X5530457Y-7861033D02*
X5520934Y-7899128D01*
X5520934Y-7899128D02*
X5511410Y-7918176D01*
X5511410Y-7918176D02*
X5501886Y-7927700D01*
X5501886Y-7927700D02*
X5482838Y-7937224D01*
X5482838Y-7937224D02*
X5463791Y-7937224D01*
X5463791Y-7937224D02*
X5444743Y-7927700D01*
X5444743Y-7927700D02*
X5435219Y-7918176D01*
X5435219Y-7918176D02*
X5425695Y-7899128D01*
X5425695Y-7899128D02*
X5416172Y-7861033D01*
X5416172Y-7861033D02*
X5416172Y-7813414D01*
X5416172Y-7813414D02*
X5425695Y-7775319D01*
X5425695Y-7775319D02*
X5435219Y-7756271D01*
X5435219Y-7756271D02*
X5444743Y-7746748D01*
X5444743Y-7746748D02*
X5463791Y-7737224D01*
X5597124Y-7737224D02*
X5720933Y-7737224D01*
X5720933Y-7737224D02*
X5654267Y-7813414D01*
X5654267Y-7813414D02*
X5682838Y-7813414D01*
X5682838Y-7813414D02*
X5701886Y-7822938D01*
X5701886Y-7822938D02*
X5711410Y-7832462D01*
X5711410Y-7832462D02*
X5720933Y-7851509D01*
X5720933Y-7851509D02*
X5720933Y-7899128D01*
X5720933Y-7899128D02*
X5711410Y-7918176D01*
X5711410Y-7918176D02*
X5701886Y-7927700D01*
X5701886Y-7927700D02*
X5682838Y-7937224D01*
X5682838Y-7937224D02*
X5625695Y-7937224D01*
X5625695Y-7937224D02*
X5606648Y-7927700D01*
X5606648Y-7927700D02*
X5597124Y-7918176D01*
X5816172Y-7937224D02*
X5854267Y-7937224D01*
X5854267Y-7937224D02*
X5873314Y-7927700D01*
X5873314Y-7927700D02*
X5882838Y-7918176D01*
X5882838Y-7918176D02*
X5901886Y-7889605D01*
X5901886Y-7889605D02*
X5911410Y-7851509D01*
X5911410Y-7851509D02*
X5911410Y-7775319D01*
X5911410Y-7775319D02*
X5901886Y-7756271D01*
X5901886Y-7756271D02*
X5892362Y-7746748D01*
X5892362Y-7746748D02*
X5873314Y-7737224D01*
X5873314Y-7737224D02*
X5835219Y-7737224D01*
X5835219Y-7737224D02*
X5816172Y-7746748D01*
X5816172Y-7746748D02*
X5806648Y-7756271D01*
X5806648Y-7756271D02*
X5797124Y-7775319D01*
X5797124Y-7775319D02*
X5797124Y-7822938D01*
X5797124Y-7822938D02*
X5806648Y-7841986D01*
X5806648Y-7841986D02*
X5816172Y-7851509D01*
X5816172Y-7851509D02*
X5835219Y-7861033D01*
X5835219Y-7861033D02*
X5873314Y-7861033D01*
X5873314Y-7861033D02*
X5892362Y-7851509D01*
X5892362Y-7851509D02*
X5901886Y-7841986D01*
X5901886Y-7841986D02*
X5911410Y-7822938D01*
X6082838Y-7803890D02*
X6082838Y-7937224D01*
X6035219Y-7727700D02*
X5987600Y-7870557D01*
X5987600Y-7870557D02*
X6111410Y-7870557D01*
X6178076Y-7737224D02*
X6178076Y-7775319D01*
X6254267Y-7737224D02*
X6254267Y-7775319D01*
X6549505Y-8013414D02*
X6539981Y-8003890D01*
X6539981Y-8003890D02*
X6520934Y-7975319D01*
X6520934Y-7975319D02*
X6511410Y-7956271D01*
X6511410Y-7956271D02*
X6501886Y-7927700D01*
X6501886Y-7927700D02*
X6492362Y-7880081D01*
X6492362Y-7880081D02*
X6492362Y-7841986D01*
X6492362Y-7841986D02*
X6501886Y-7794367D01*
X6501886Y-7794367D02*
X6511410Y-7765795D01*
X6511410Y-7765795D02*
X6520934Y-7746748D01*
X6520934Y-7746748D02*
X6539981Y-7718176D01*
X6539981Y-7718176D02*
X6549505Y-7708652D01*
X6711410Y-7803890D02*
X6711410Y-7937224D01*
X6663791Y-7727700D02*
X6616172Y-7870557D01*
X6616172Y-7870557D02*
X6739981Y-7870557D01*
X6968553Y-7937224D02*
X6968553Y-7737224D01*
X7054267Y-7937224D02*
X7054267Y-7832462D01*
X7054267Y-7832462D02*
X7044743Y-7813414D01*
X7044743Y-7813414D02*
X7025696Y-7803890D01*
X7025696Y-7803890D02*
X6997124Y-7803890D01*
X6997124Y-7803890D02*
X6978076Y-7813414D01*
X6978076Y-7813414D02*
X6968553Y-7822938D01*
X7178076Y-7937224D02*
X7159029Y-7927700D01*
X7159029Y-7927700D02*
X7149505Y-7918176D01*
X7149505Y-7918176D02*
X7139981Y-7899128D01*
X7139981Y-7899128D02*
X7139981Y-7841986D01*
X7139981Y-7841986D02*
X7149505Y-7822938D01*
X7149505Y-7822938D02*
X7159029Y-7813414D01*
X7159029Y-7813414D02*
X7178076Y-7803890D01*
X7178076Y-7803890D02*
X7206648Y-7803890D01*
X7206648Y-7803890D02*
X7225696Y-7813414D01*
X7225696Y-7813414D02*
X7235219Y-7822938D01*
X7235219Y-7822938D02*
X7244743Y-7841986D01*
X7244743Y-7841986D02*
X7244743Y-7899128D01*
X7244743Y-7899128D02*
X7235219Y-7918176D01*
X7235219Y-7918176D02*
X7225696Y-7927700D01*
X7225696Y-7927700D02*
X7206648Y-7937224D01*
X7206648Y-7937224D02*
X7178076Y-7937224D01*
X7359029Y-7937224D02*
X7339981Y-7927700D01*
X7339981Y-7927700D02*
X7330457Y-7908652D01*
X7330457Y-7908652D02*
X7330457Y-7737224D01*
X7511410Y-7927700D02*
X7492362Y-7937224D01*
X7492362Y-7937224D02*
X7454267Y-7937224D01*
X7454267Y-7937224D02*
X7435219Y-7927700D01*
X7435219Y-7927700D02*
X7425696Y-7908652D01*
X7425696Y-7908652D02*
X7425696Y-7832462D01*
X7425696Y-7832462D02*
X7435219Y-7813414D01*
X7435219Y-7813414D02*
X7454267Y-7803890D01*
X7454267Y-7803890D02*
X7492362Y-7803890D01*
X7492362Y-7803890D02*
X7511410Y-7813414D01*
X7511410Y-7813414D02*
X7520934Y-7832462D01*
X7520934Y-7832462D02*
X7520934Y-7851509D01*
X7520934Y-7851509D02*
X7425696Y-7870557D01*
X7597124Y-7927700D02*
X7616172Y-7937224D01*
X7616172Y-7937224D02*
X7654267Y-7937224D01*
X7654267Y-7937224D02*
X7673315Y-7927700D01*
X7673315Y-7927700D02*
X7682838Y-7908652D01*
X7682838Y-7908652D02*
X7682838Y-7899128D01*
X7682838Y-7899128D02*
X7673315Y-7880081D01*
X7673315Y-7880081D02*
X7654267Y-7870557D01*
X7654267Y-7870557D02*
X7625696Y-7870557D01*
X7625696Y-7870557D02*
X7606648Y-7861033D01*
X7606648Y-7861033D02*
X7597124Y-7841986D01*
X7597124Y-7841986D02*
X7597124Y-7832462D01*
X7597124Y-7832462D02*
X7606648Y-7813414D01*
X7606648Y-7813414D02*
X7625696Y-7803890D01*
X7625696Y-7803890D02*
X7654267Y-7803890D01*
X7654267Y-7803890D02*
X7673315Y-7813414D01*
X7749505Y-8013414D02*
X7759029Y-8003890D01*
X7759029Y-8003890D02*
X7778077Y-7975319D01*
X7778077Y-7975319D02*
X7787600Y-7956271D01*
X7787600Y-7956271D02*
X7797124Y-7927700D01*
X7797124Y-7927700D02*
X7806648Y-7880081D01*
X7806648Y-7880081D02*
X7806648Y-7841986D01*
X7806648Y-7841986D02*
X7797124Y-7794367D01*
X7797124Y-7794367D02*
X7787600Y-7765795D01*
X7787600Y-7765795D02*
X7778077Y-7746748D01*
X7778077Y-7746748D02*
X7759029Y-7718176D01*
X7759029Y-7718176D02*
X7749505Y-7708652D01*
M02*
